<?xml version="1.0" encoding="UTF-8" standalone="no"?>
<!-- Created with Inkscape (http://www.inkscape.org/) -->

<svg
   xmlns:dc="http://purl.org/dc/elements/1.1/"
   xmlns:cc="http://creativecommons.org/ns#"
   xmlns:rdf="http://www.w3.org/1999/02/22-rdf-syntax-ns#"
   xmlns:svg="http://www.w3.org/2000/svg"
   xmlns="http://www.w3.org/2000/svg"
   xmlns:sodipodi="http://sodipodi.sourceforge.net/DTD/sodipodi-0.dtd"
   xmlns:inkscape="http://www.inkscape.org/namespaces/inkscape"
   width="377.31299"
   height="296.51401"
   viewBox="0 0 377.313 296.51401"
   id="svg2"
   version="1.1"
   inkscape:version="0.91 r13725"
   sodipodi:docname="archetype_branding.svg">
  <defs
     id="defs4">
    <pattern
       y="0"
       x="0"
       height="6"
       width="6"
       patternUnits="userSpaceOnUse"
       id="EMFhbasepattern" />
    <pattern
       y="0"
       x="0"
       height="6"
       width="6"
       patternUnits="userSpaceOnUse"
       id="EMFhbasepattern-3" />
    <pattern
       y="0"
       x="0"
       height="6"
       width="6"
       patternUnits="userSpaceOnUse"
       id="EMFhbasepattern-6" />
    <pattern
       y="0"
       x="0"
       height="6"
       width="6"
       patternUnits="userSpaceOnUse"
       id="EMFhbasepattern-38" />
  </defs>
  <sodipodi:namedview
     id="base"
     pagecolor="#ffffff"
     bordercolor="#666666"
     borderopacity="1.0"
     inkscape:pageopacity="0.0"
     inkscape:pageshadow="2"
     inkscape:zoom="1.979899"
     inkscape:cx="131.61266"
     inkscape:cy="171.39731"
     inkscape:document-units="px"
     inkscape:current-layer="layer1"
     showgrid="false"
     units="px"
     inkscape:showpageshadow="false"
     inkscape:window-width="1920"
     inkscape:window-height="1017"
     inkscape:window-x="-8"
     inkscape:window-y="-8"
     inkscape:window-maximized="1" />
  <metadata
     id="metadata7">
    <rdf:RDF>
      <cc:Work
         rdf:about="">
        <dc:format>image/svg+xml</dc:format>
        <dc:type
           rdf:resource="http://purl.org/dc/dcmitype/StillImage" />
        <dc:title></dc:title>
      </cc:Work>
    </rdf:RDF>
  </metadata>
  <g
     inkscape:label="Layer 1"
     inkscape:groupmode="layer"
     id="layer1"
     transform="translate(0,-755.84809)">
    <g
       id="g5960"
       transform="translate(-237.63152,-232.10998)">
      <path
         id="rect6621"
         d="m 327.05142,987.94751 c -1.1952,0 -2.1973,1.0021 -2.1973,2.1973 l 0,292.11909 c 0,1.1952 1.0021,2.1973 2.1973,2.1973 l 108.5605,0 0,-2.5977 -108.1602,0 0,-291.31829 108.1602,0 0,-2.5977 -108.5605,0 z"
         style="color:#000000;font-style:normal;font-variant:normal;font-weight:normal;font-stretch:normal;font-size:medium;line-height:normal;font-family:sans-serif;text-indent:0;text-align:start;text-decoration:none;text-decoration-line:none;text-decoration-style:solid;text-decoration-color:#000000;letter-spacing:normal;word-spacing:normal;text-transform:none;direction:ltr;block-progression:tb;writing-mode:lr-tb;baseline-shift:baseline;text-anchor:start;white-space:normal;clip-rule:nonzero;display:inline;overflow:visible;visibility:visible;opacity:1;isolation:auto;mix-blend-mode:normal;color-interpolation:sRGB;color-interpolation-filters:linearRGB;solid-color:#000000;solid-opacity:1;fill:#919191;fill-opacity:1;fill-rule:nonzero;stroke:none;stroke-width:2.59800625;stroke-linecap:round;stroke-linejoin:miter;stroke-miterlimit:4;stroke-dasharray:none;stroke-dashoffset:0;stroke-opacity:1;color-rendering:auto;image-rendering:auto;shape-rendering:auto;text-rendering:auto;enable-background:accumulate"
         inkscape:connector-curvature="0" />
      <g
         transform="matrix(1.1028076,0,0,1.1028076,6066.42,-914.3478)"
         id="g6630">
        <g
           id="g6632"
           transform="matrix(2.6700535,0,0,-2.6700535,-5166.735,1810.4183)">
          <path
             d="m 0,0 c 0,-1.171 -0.949,-2.119 -2.12,-2.119 -1.17,0 -2.119,0.948 -2.119,2.119 0,1.171 0.949,2.119 2.119,2.119 C -0.949,2.119 0,1.171 0,0 Z"
             style="fill:none;stroke:#919191;stroke-width:1.01882958;stroke-linecap:butt;stroke-linejoin:miter;stroke-miterlimit:10;stroke-dasharray:none;stroke-opacity:1"
             id="path6634"
             inkscape:connector-curvature="0" />
        </g>
        <g
           id="g6636"
           transform="matrix(2.6700535,0,0,-2.6700535,-5136.175,1810.4183)">
          <path
             d="m 2.247146,0 c 0,-1.171 -0.949,-2.119 -2.11999998,-2.119 -1.17099992,0 -2.11899992,0.948 -2.11899992,2.119 0,1.171 0.948,2.119 2.11899992,2.119 C 1.298146,2.119 2.247146,1.171 2.247146,0 Z"
             style="fill:none;stroke:#919191;stroke-width:1.01882958;stroke-linecap:butt;stroke-linejoin:miter;stroke-miterlimit:10;stroke-dasharray:none;stroke-opacity:1"
             id="path6638"
             inkscape:connector-curvature="0" />
        </g>
      </g>
      <g
         id="g6640"
         transform="matrix(1.1028076,0,0,1.1028076,6070.4382,-905.5254)">
        <path
           d="m -5160.3953,1840.9791 -22.6367,0 0,-13.5826 22.6367,0 0,13.5826 z"
           style="fill:#919191;fill-opacity:1;fill-rule:nonzero;stroke:none"
           id="path6642"
           inkscape:connector-curvature="0" />
        <path
           d="m -5123.0438,1840.9791 -22.6368,0 0,-13.5826 22.6368,0 0,13.5826 z"
           style="fill:#919191;fill-opacity:1;fill-rule:nonzero;stroke:none"
           id="path6644"
           inkscape:connector-curvature="0" />
      </g>
      <path
         d="m 354.55112,1146.5386 49.9279,0"
         style="fill:none;stroke:#000000;stroke-width:3;stroke-linecap:butt;stroke-linejoin:miter;stroke-miterlimit:10;stroke-dasharray:none;stroke-opacity:1"
         id="path6648"
         inkscape:connector-curvature="0" />
      <path
         d="m 354.55112,1159.6682 49.9279,0"
         style="fill:none;stroke:#000000;stroke-width:3;stroke-linecap:butt;stroke-linejoin:miter;stroke-miterlimit:10;stroke-dasharray:none;stroke-opacity:1"
         id="path6650"
         inkscape:connector-curvature="0" />
      <path
         d="m 354.55112,1172.1483 49.9279,0"
         style="fill:none;stroke:#000000;stroke-width:3;stroke-linecap:butt;stroke-linejoin:miter;stroke-miterlimit:10;stroke-dasharray:none;stroke-opacity:1"
         id="path6652"
         inkscape:connector-curvature="0" />
      <g
         transform="matrix(1.1028076,0,0,1.1028076,5578.586,-905.5254)"
         id="g6654">
        <path
           d="m -4691.7494,1933.8115 -45.2826,0 0,-29.0768 45.2826,0 0,29.0768 z"
           style="fill:#e4e5e7;fill-opacity:1;fill-rule:nonzero;stroke:none"
           id="path6656"
           inkscape:connector-curvature="0" />
      </g>
      <path
         inkscape:connector-curvature="0"
         id="path6660"
         style="fill:none;stroke:#919191;stroke-width:3;stroke-linecap:butt;stroke-linejoin:miter;stroke-miterlimit:10;stroke-dasharray:none;stroke-opacity:1"
         d="m 592.70382,1070.5326 -10.8184,0 0,-10.8214 10.8184,0 0,10.8214 z" />
      <path
         inkscape:connector-curvature="0"
         id="path6662"
         style="fill:none;stroke:#ffff00;stroke-width:3;stroke-linecap:butt;stroke-linejoin:miter;stroke-miterlimit:10;stroke-dasharray:none;stroke-opacity:1"
         d="m 613.44082,1135.7795 -10.8182,0 0,-10.8183 10.8182,0 0,10.8183 z" />
      <path
         inkscape:connector-curvature="0"
         id="path6664"
         style="fill:none;stroke:#000000;stroke-width:3;stroke-linecap:butt;stroke-linejoin:miter;stroke-miterlimit:10;stroke-dasharray:none;stroke-opacity:1"
         d="m 261.41692,1211.3987 -10.8184,0 0,-10.8211 10.8184,0 0,10.8211 z" />
      <path
         inkscape:connector-curvature="0"
         id="path6666"
         style="fill:none;stroke:#ffff00;stroke-width:3;stroke-linecap:butt;stroke-linejoin:miter;stroke-miterlimit:10;stroke-dasharray:none;stroke-opacity:1"
         d="m 249.94632,1078.7889 -10.8184,0 0,-10.8182 10.8184,0 0,10.8182 z" />
      <path
         inkscape:connector-curvature="0"
         id="path6670"
         style="fill:#f6eb16;fill-opacity:1;fill-rule:nonzero;stroke:none"
         d="m 504.33172,1053.5478 -149.7806,0 0,-40.0029 149.7806,0 0,40.0029 z" />
      <g
         id="g6672"
         transform="matrix(1.1028076,0,0,1.1028076,4136.2467,-905.5254)">
        <path
           inkscape:connector-curvature="0"
           id="path6674"
           style="fill:none;stroke:#000000;stroke-width:2.72032952;stroke-linecap:butt;stroke-linejoin:miter;stroke-miterlimit:10;stroke-dasharray:none;stroke-opacity:1"
           d="m -3251.3687,1748.5744 -65.6459,0" />
        <path
           inkscape:connector-curvature="0"
           id="path6676"
           style="fill:none;stroke:#000000;stroke-width:2.72032952;stroke-linecap:butt;stroke-linejoin:miter;stroke-miterlimit:10;stroke-dasharray:none;stroke-opacity:1"
           d="m -3251.3687,1759.8933 -65.6459,0" />
        <path
           inkscape:connector-curvature="0"
           id="path6678"
           style="fill:none;stroke:#000000;stroke-width:2.72032952;stroke-linecap:butt;stroke-linejoin:miter;stroke-miterlimit:10;stroke-dasharray:none;stroke-opacity:1"
           d="m -3283.0602,1771.2098 -33.9551,0" />
        <path
           d="m -3277.7775,1731.5559 -9.8098,0 0,-9.8126 9.8098,0 0,9.8126 z"
           style="fill:none;stroke:#000000;stroke-width:2.72032952;stroke-linecap:butt;stroke-linejoin:miter;stroke-miterlimit:10;stroke-dasharray:none;stroke-opacity:1"
           id="path6680"
           inkscape:connector-curvature="0" />
      </g>
      <path
         inkscape:connector-curvature="0"
         id="path6682"
         style="fill:#919191;fill-opacity:1;fill-rule:nonzero;stroke:none"
         d="m 532.50652,1284.462 -207.653,0 0,-17.0928 207.653,0 z"
         sodipodi:nodetypes="ccccc" />
      <path
         sodipodi:nodetypes="ccccc"
         d="m 542.94772,1093.8552 -85.0417,-0.2547 0,151.2542 85.0417,0 z"
         style="fill:#e4e5e7;fill-opacity:1;fill-rule:nonzero;stroke:none"
         id="path6071"
         inkscape:connector-curvature="0" />
      <g
         id="g7074"
         transform="translate(5631.5124,-739.81029)">
        <circle
           r="23.991774"
           cy="1886.8068"
           cx="-5085.3726"
           id="circle18676"
           style="fill:none;fill-opacity:1;stroke:#000000;stroke-width:3;stroke-linecap:round;stroke-miterlimit:4;stroke-dasharray:none;stroke-dashoffset:0;stroke-opacity:1" />
        <path
           sodipodi:nodetypes="ccccc"
           inkscape:connector-curvature="0"
           id="path18678"
           d="m -5123.7737,1924.0844 c -18.9963,-0.2043 -16.4941,-32.2733 10.3152,-19.8134 29.8221,15.6771 56.6825,0.715 56.6825,0.715 26.0433,-11.4386 27.1668,15.9323 10.8258,18.2814 z"
           style="fill:none;fill-rule:evenodd;stroke:#000000;stroke-width:3;stroke-linecap:butt;stroke-linejoin:miter;stroke-miterlimit:4;stroke-dasharray:none;stroke-opacity:1" />
        <path
           sodipodi:nodetypes="ccccccccc"
           inkscape:connector-curvature="0"
           id="path18680"
           d="m -5129.6645,1923.9905 85.4086,0 c 33.7058,0.5948 25.5292,41.3796 2.5127,38.9623 0,0 -33.5483,0.739 -62.6556,-13.8657 -19.5069,-8.6811 -22.4561,11.8406 -16.0219,14.1896 26.0378,11.9493 56.9918,4.8582 56.9918,4.8582 18.9963,-3.5746 17.2951,-24.6124 -0.3735,-19.3016 0,0 -48.5174,15.9753 -70.067,14.4434 -23.8224,-1.0213 -30.6837,-37.2205 4.2049,-39.2862 z"
           style="fill:none;fill-rule:evenodd;stroke:#000000;stroke-width:3;stroke-linecap:butt;stroke-linejoin:miter;stroke-miterlimit:4;stroke-dasharray:none;stroke-opacity:1" />
      </g>
      <g
         id="g6251"
         transform="matrix(1.1028076,0,0,1.1028076,4802.2094,-961.5284)">
        <g
           id="g6254"
           style="stroke:#919191;stroke-opacity:1"
           transform="translate(38.6729,24.950568)">
          <path
             sodipodi:nodetypes="cccccc"
             inkscape:connector-curvature="0"
             id="path6256"
             d="m -4124.75,1975.8622 c 0,1.5026 -7.25,-17.5 -7.25,-17.5 l 0,-208.75 14.25,0 0,208.5 z"
             style="fill:none;fill-rule:evenodd;stroke:#919191;stroke-width:2.72032952;stroke-linecap:butt;stroke-linejoin:miter;stroke-miterlimit:4;stroke-dasharray:none;stroke-opacity:1" />
          <path
             inkscape:connector-curvature="0"
             id="path6258"
             d="m -4131.6249,1776.2628 13.7886,0"
             style="fill:none;fill-rule:evenodd;stroke:#919191;stroke-width:2.72032952;stroke-linecap:butt;stroke-linejoin:miter;stroke-miterlimit:4;stroke-dasharray:none;stroke-opacity:1" />
        </g>
      </g>
    </g>
  </g>
</svg>
