<?xml version="1.0" encoding="UTF-8" standalone="no"?>
<!-- Created with Inkscape (http://www.inkscape.org/) -->

<svg
   xmlns:dc="http://purl.org/dc/elements/1.1/"
   xmlns:cc="http://creativecommons.org/ns#"
   xmlns:rdf="http://www.w3.org/1999/02/22-rdf-syntax-ns#"
   xmlns:svg="http://www.w3.org/2000/svg"
   xmlns="http://www.w3.org/2000/svg"
   xmlns:sodipodi="http://sodipodi.sourceforge.net/DTD/sodipodi-0.dtd"
   xmlns:inkscape="http://www.inkscape.org/namespaces/inkscape"
   width="458.84201"
   height="239.311"
   viewBox="0 0 458.84202 239.31101"
   id="svg2"
   version="1.1"
   inkscape:version="0.91 r13725"
   sodipodi:docname="brand_applications.svg">
  <defs
     id="defs4">
    <pattern
       y="0"
       x="0"
       height="6"
       width="6"
       patternUnits="userSpaceOnUse"
       id="EMFhbasepattern" />
    <pattern
       y="0"
       x="0"
       height="6"
       width="6"
       patternUnits="userSpaceOnUse"
       id="EMFhbasepattern-3" />
    <pattern
       y="0"
       x="0"
       height="6"
       width="6"
       patternUnits="userSpaceOnUse"
       id="EMFhbasepattern-6" />
    <pattern
       y="0"
       x="0"
       height="6"
       width="6"
       patternUnits="userSpaceOnUse"
       id="EMFhbasepattern-38" />
  </defs>
  <sodipodi:namedview
     id="base"
     pagecolor="#ffffff"
     bordercolor="#666666"
     borderopacity="1.0"
     inkscape:pageopacity="0.0"
     inkscape:pageshadow="2"
     inkscape:zoom="1.979899"
     inkscape:cx="112.73728"
     inkscape:cy="156.01659"
     inkscape:document-units="px"
     inkscape:current-layer="layer1"
     showgrid="false"
     units="px"
     inkscape:showpageshadow="false"
     inkscape:window-width="1920"
     inkscape:window-height="1017"
     inkscape:window-x="-8"
     inkscape:window-y="-8"
     inkscape:window-maximized="1" />
  <metadata
     id="metadata7">
    <rdf:RDF>
      <cc:Work
         rdf:about="">
        <dc:format>image/svg+xml</dc:format>
        <dc:type
           rdf:resource="http://purl.org/dc/dcmitype/StillImage" />
        <dc:title></dc:title>
      </cc:Work>
    </rdf:RDF>
  </metadata>
  <g
     inkscape:label="Layer 1"
     inkscape:groupmode="layer"
     id="layer1"
     transform="translate(0,-813.05113)">
    <g
       id="g6492"
       transform="translate(-177.16896,-122.19079)">
      <path
         sodipodi:nodetypes="ccccc"
         inkscape:connector-curvature="0"
         id="path19345"
         style="fill:#e4e5e7;fill-opacity:1;stroke:#919191;stroke-width:3;stroke-linecap:butt;stroke-linejoin:miter;stroke-miterlimit:10;stroke-dasharray:none;stroke-opacity:1"
         d="m 461.44745,1144.2618 -65.2609,0 0,-25.5823 65.2609,0 z" />
      <path
         inkscape:connector-curvature="0"
         id="path19347"
         d="m 282.75025,1161.4901 0,13.0527 292.5125,0 0,-13.0527 -292.5125,0 z"
         style="fill:#919191;fill-opacity:1;stroke:none;stroke-width:1.25;stroke-linecap:butt;stroke-linejoin:miter;stroke-miterlimit:10;stroke-dasharray:none;stroke-opacity:1" />
      <path
         sodipodi:nodetypes="cccccccccccc"
         inkscape:connector-curvature="0"
         id="path19349"
         d="m 282.43855,935.2322 0,27.543 3,0 0,-24.543 286.7578,0 0,178.6856 -191.8359,0 0,3 194.8359,0 0,-1.5 0,-183.1856 z"
         style="color:#000000;font-style:normal;font-variant:normal;font-weight:normal;font-stretch:normal;font-size:medium;line-height:normal;font-family:sans-serif;text-indent:0;text-align:start;text-decoration:none;text-decoration-line:none;text-decoration-style:solid;text-decoration-color:#000000;letter-spacing:normal;word-spacing:normal;text-transform:none;direction:ltr;block-progression:tb;writing-mode:lr-tb;baseline-shift:baseline;text-anchor:start;white-space:normal;clip-rule:nonzero;display:inline;overflow:visible;visibility:visible;opacity:1;isolation:auto;mix-blend-mode:normal;color-interpolation:sRGB;color-interpolation-filters:linearRGB;solid-color:#000000;solid-opacity:1;fill:#919191;fill-opacity:1;fill-rule:nonzero;stroke:none;stroke-width:3;stroke-linecap:butt;stroke-linejoin:miter;stroke-miterlimit:9.76000023;stroke-dasharray:none;stroke-dashoffset:0;stroke-opacity:1;color-rendering:auto;image-rendering:auto;shape-rendering:auto;text-rendering:auto;enable-background:accumulate" />
      <path
         inkscape:connector-curvature="0"
         id="path19402"
         style="fill:none;stroke:#ffff00;stroke-width:3;stroke-linecap:butt;stroke-linejoin:miter;stroke-miterlimit:10;stroke-dasharray:none;stroke-opacity:1"
         d="m 309.71885,953.1572 22.6367,0" />
      <path
         inkscape:connector-curvature="0"
         id="path19406"
         style="fill:none;stroke:#000000;stroke-width:3;stroke-linecap:butt;stroke-linejoin:miter;stroke-miterlimit:10;stroke-dasharray:none;stroke-opacity:1"
         d="m 546.21785,953.1572 11.3184,0" />
      <path
         inkscape:connector-curvature="0"
         id="path19410"
         style="fill:none;stroke:#000000;stroke-width:3;stroke-linecap:butt;stroke-linejoin:miter;stroke-miterlimit:10;stroke-dasharray:none;stroke-opacity:1"
         d="m 523.58235,953.1572 11.3184,0" />
      <path
         inkscape:connector-curvature="0"
         id="path19414"
         style="fill:none;stroke:#000000;stroke-width:3;stroke-linecap:butt;stroke-linejoin:miter;stroke-miterlimit:10;stroke-dasharray:none;stroke-opacity:1"
         d="m 500.94545,953.1572 11.3184,0" />
      <path
         inkscape:connector-curvature="0"
         id="path19418"
         style="fill:none;stroke:#000000;stroke-width:3;stroke-linecap:butt;stroke-linejoin:miter;stroke-miterlimit:10;stroke-dasharray:none;stroke-opacity:1"
         d="m 478.30865,953.1572 11.3184,0" />
      <path
         inkscape:connector-curvature="0"
         id="path19420"
         style="fill:none;stroke:#000000;stroke-width:3;stroke-linecap:butt;stroke-linejoin:miter;stroke-miterlimit:10;stroke-dasharray:none;stroke-opacity:1"
         d="m 380.35365,1077.0697 25.0168,0"
         sodipodi:nodetypes="cc" />
      <path
         inkscape:connector-curvature="0"
         id="path19422"
         style="fill:none;stroke:#000000;stroke-width:3;stroke-linecap:butt;stroke-linejoin:miter;stroke-miterlimit:10;stroke-dasharray:none;stroke-opacity:1"
         d="m 380.35365,1088.9753 25.0168,0"
         sodipodi:nodetypes="cc" />
      <path
         inkscape:connector-curvature="0"
         id="path19424"
         style="fill:none;stroke:#000000;stroke-width:3;stroke-linecap:butt;stroke-linejoin:miter;stroke-miterlimit:10;stroke-dasharray:none;stroke-opacity:1"
         d="m 380.35365,1100.2919 25.0168,0"
         sodipodi:nodetypes="cc" />
      <path
         sodipodi:nodetypes="ccccc"
         d="m 557.53695,1009.7478 -177.5368,0 0,-45.2737 177.5368,0 z"
         style="fill:#f6eb16;fill-opacity:1;fill-rule:nonzero;stroke:none"
         id="path19430"
         inkscape:connector-curvature="0" />
      <path
         inkscape:connector-curvature="0"
         id="path19438"
         style="fill:none;stroke:#919191;stroke-width:3;stroke-linecap:butt;stroke-linejoin:miter;stroke-miterlimit:10;stroke-dasharray:none;stroke-opacity:1"
         d="m 540.55955,1026.7246 c 0,3.1266 -2.5339,5.6578 -5.6605,5.6578 -3.1266,0 -5.6579,-2.5312 -5.6579,-5.6578 0,-3.1266 2.5313,-5.6578 5.6579,-5.6578 3.1266,0 5.6605,2.5312 5.6605,5.6578 z" />
      <path
         inkscape:connector-curvature="0"
         id="path19442"
         style="fill:none;stroke:#919191;stroke-width:3;stroke-linecap:butt;stroke-linejoin:miter;stroke-miterlimit:10;stroke-dasharray:none;stroke-opacity:1"
         d="m 470.37785,1026.7246 c 0,3.1266 -2.5339,5.6578 -5.6605,5.6578 -3.124,0 -5.6579,-2.5312 -5.6579,-5.6578 0,-3.1266 2.5339,-5.6578 5.6579,-5.6578 3.1266,0 5.6605,2.5312 5.6605,5.6578 z" />
      <path
         inkscape:connector-curvature="0"
         id="path19446"
         style="fill:none;stroke:#919191;stroke-width:3;stroke-linecap:butt;stroke-linejoin:miter;stroke-miterlimit:10;stroke-dasharray:none;stroke-opacity:1"
         d="m 400.19575,1026.7246 c 0,3.1266 -2.5339,5.6578 -5.6605,5.6578 -3.1266,0 -5.6579,-2.5312 -5.6579,-5.6578 0,-3.1266 2.5313,-5.6578 5.6579,-5.6578 3.1266,0 5.6605,2.5312 5.6605,5.6578 z" />
      <path
         d="m 557.53695,1057.2854 -42.3178,0 0,-13.5826 42.3178,0 0,13.5826 z"
         style="fill:#919191;fill-opacity:1;fill-rule:nonzero;stroke:none"
         id="path19450"
         inkscape:connector-curvature="0" />
      <path
         sodipodi:nodetypes="ccccc"
         d="m 414.12225,1057.2854 -33.3024,0 0,-13.5826 33.3024,0 z"
         style="fill:#919191;fill-opacity:1;fill-rule:nonzero;stroke:none"
         id="path19452"
         inkscape:connector-curvature="0" />
      <path
         d="m 485.82975,1057.2854 -42.318,0 0,-13.5826 42.318,0 0,13.5826 z"
         style="fill:#919191;fill-opacity:1;fill-rule:nonzero;stroke:none"
         id="path19454"
         inkscape:connector-curvature="0" />
      <path
         d="m 557.53695,1101.8006 -114.5793,0 0,-26.4097 114.5793,0 0,26.4097 z"
         style="fill:#e4e5e7;fill-opacity:1;fill-rule:nonzero;stroke:none"
         id="path19456"
         inkscape:connector-curvature="0" />
      <g
         transform="matrix(0.68817538,0,0,0.68817538,2063.4701,-228.0671)"
         id="g19519">
        <g
           id="g19280"
           transform="translate(-302.94782,2318.9487)">
          <path
             sodipodi:nodetypes="csssssssc"
             inkscape:connector-curvature="0"
             id="path19270"
             style="fill:#f6eb16;fill-opacity:1;fill-rule:nonzero;stroke:none"
             d="m -2210.5928,-475.04582 -86.3816,0 c -2.9065,0 -5.2632,-2.3568 -5.2632,-5.26012 l 0,-35.29316 c 0,-2.90643 2.3567,-5.26014 5.2632,-5.26014 l 86.3816,0 c 2.9064,0 5.2601,2.35371 5.2601,5.26014 l 0,35.29316 c 0,2.90332 -2.3537,5.26012 -5.2601,5.26012" />
          <path
             sodipodi:nodetypes="csssssssc"
             inkscape:connector-curvature="0"
             id="path19272"
             style="fill:#f6eb16;fill-opacity:1;fill-rule:nonzero;stroke:none"
             d="m -2210.5928,-364.64927 -86.3816,0 c -2.9065,0 -5.2632,-2.35681 -5.2632,-5.26014 l 0,-35.29315 c 0,-2.90332 2.3567,-5.26013 5.2632,-5.26013 l 86.3816,0 c 2.9064,0 5.2601,2.35681 5.2601,5.26013 l 0,35.29315 c 0,2.90333 -2.3537,5.26014 -5.2601,5.26014" />
          <path
             sodipodi:nodetypes="csssssssc"
             inkscape:connector-curvature="0"
             id="path19274"
             style="fill:#f6eb16;fill-opacity:1;fill-rule:nonzero;stroke:none"
             d="m -2210.5928,-418.97111 -60.2113,0 c -2.9065,0 -5.2633,-2.3537 -5.2633,-5.26013 l 0,-35.29006 c 0,-2.90643 2.3568,-5.26013 5.2633,-5.26013 l 60.2113,0 c 2.9064,0 5.2601,2.3537 5.2601,5.26013 l 0,35.29006 c 0,2.90643 -2.3537,5.26013 -5.2601,5.26013" />
          <path
             sodipodi:nodetypes="cccccssssc"
             inkscape:connector-curvature="0"
             id="path19276"
             style="fill:none;stroke:#919191;stroke-width:4.35935402;stroke-linecap:round;stroke-linejoin:miter;stroke-miterlimit:6;stroke-dasharray:none;stroke-opacity:1"
             d="m -2318.9706,-421.42908 0,71.8013 130.746,0 0,-101.7424 0,-77.04761 0,-24.66171 c 0,-5.37866 -4.2059,-9.78674 -9.3419,-9.78674 l -112.0659,0 c -5.136,0 -9.3382,4.40808 -9.3382,9.78674 l 0,152.32295" />
          <path
             inkscape:connector-curvature="0"
             id="path19278"
             style="fill:#919191;fill-opacity:1;fill-rule:nonzero;stroke:none"
             d="m -2320.3923,-347.92855 0,19.57348 c 0,5.38234 4.2941,9.78307 9.5404,9.78307 l 114.5071,0 c 5.2463,0 9.5404,-4.40073 9.5404,-9.78307 l 0,-19.57348 -133.5879,0 z" />
        </g>
      </g>
      <path
         d="m 632.11245,980.7793 -65.6459,0"
         style="fill:none;stroke:#000000;stroke-width:3;stroke-linecap:butt;stroke-linejoin:miter;stroke-miterlimit:10;stroke-dasharray:none;stroke-opacity:1"
         id="path19562"
         inkscape:connector-curvature="0" />
      <path
         d="m 632.11245,992.0982 -65.6459,0"
         style="fill:none;stroke:#000000;stroke-width:3;stroke-linecap:butt;stroke-linejoin:miter;stroke-miterlimit:10;stroke-dasharray:none;stroke-opacity:1"
         id="path19564"
         inkscape:connector-curvature="0" />
      <path
         d="m 600.42095,1003.4147 -33.9551,0"
         style="fill:none;stroke:#000000;stroke-width:3;stroke-linecap:butt;stroke-linejoin:miter;stroke-miterlimit:10;stroke-dasharray:none;stroke-opacity:1"
         id="path19566"
         inkscape:connector-curvature="0" />
      <path
         inkscape:connector-curvature="0"
         id="path19568"
         style="fill:none;stroke:#000000;stroke-width:3;stroke-linecap:butt;stroke-linejoin:miter;stroke-miterlimit:10;stroke-dasharray:none;stroke-opacity:1"
         d="m 605.70365,963.7608 -9.8098,0 0,-9.8126 9.8098,0 0,9.8126 z" />
      <path
         inkscape:connector-curvature="0"
         id="path19570"
         d="m 259.14625,996.811 89.449,0"
         style="fill:none;fill-rule:evenodd;stroke:#919191;stroke-width:3;stroke-linecap:butt;stroke-linejoin:miter;stroke-miterlimit:6;stroke-dasharray:none;stroke-opacity:1" />
      <path
         sodipodi:nodetypes="cc"
         style="fill:none;fill-rule:evenodd;stroke:#919191;stroke-width:3;stroke-linecap:butt;stroke-linejoin:miter;stroke-miterlimit:6;stroke-dasharray:none;stroke-opacity:1"
         d="m 289.39395,988.4022 29.449,0"
         id="path19572"
         inkscape:connector-curvature="0" />
      <g
         id="g19580"
         transform="translate(5026.3604,-771.7951)">
        <path
           d="m -4410.6569,1821.3173 -9.8099,0 0,-9.8126 9.8099,0 0,9.8126 z"
           style="fill:none;stroke:#919191;stroke-width:3;stroke-linecap:butt;stroke-linejoin:miter;stroke-miterlimit:10;stroke-dasharray:none;stroke-opacity:1"
           id="path19582"
           inkscape:connector-curvature="0" />
        <path
           d="m -4391.8531,1880.4816 -9.8097,0 0,-9.8098 9.8097,0 0,9.8098 z"
           style="fill:none;stroke:#ffff00;stroke-width:3;stroke-linecap:butt;stroke-linejoin:miter;stroke-miterlimit:10;stroke-dasharray:none;stroke-opacity:1"
           id="path19584"
           inkscape:connector-curvature="0" />
        <path
           d="m -4827.4839,1919.577 -9.8099,0 0,-9.8123 9.8099,0 0,9.8123 z"
           style="fill:none;stroke:#000000;stroke-width:3;stroke-linecap:butt;stroke-linejoin:miter;stroke-miterlimit:10;stroke-dasharray:none;stroke-opacity:1"
           id="path19586"
           inkscape:connector-curvature="0" />
        <path
           d="m -4837.8852,1799.3295 -9.8098,0 0,-9.8097 9.8098,0 0,9.8097 z"
           style="fill:none;stroke:#ffff00;stroke-width:3;stroke-linecap:butt;stroke-linejoin:miter;stroke-miterlimit:10;stroke-dasharray:none;stroke-opacity:1"
           id="path19588"
           inkscape:connector-curvature="0" />
      </g>
      <g
         transform="translate(4355.0333,-802.8856)"
         style="stroke:#919191;stroke-opacity:1"
         id="g6266">
        <path
           style="fill:none;fill-rule:evenodd;stroke:#919191;stroke-width:3;stroke-linecap:butt;stroke-linejoin:miter;stroke-miterlimit:4;stroke-dasharray:none;stroke-opacity:1"
           d="m -4124.75,1975.8622 c 0,1.5026 -7.25,-17.5 -7.25,-17.5 l 0,-208.75 14.25,0 0,208.5 z"
           id="path6268"
           inkscape:connector-curvature="0"
           sodipodi:nodetypes="cccccc" />
        <path
           style="fill:none;fill-rule:evenodd;stroke:#919191;stroke-width:3;stroke-linecap:butt;stroke-linejoin:miter;stroke-miterlimit:4;stroke-dasharray:none;stroke-opacity:1"
           d="m -4131.6249,1776.2628 13.7886,0"
           id="path6270"
           inkscape:connector-curvature="0" />
      </g>
    </g>
  </g>
</svg>
