<?xml version="1.0" encoding="UTF-8" standalone="no"?>
<!-- Created with Inkscape (http://www.inkscape.org/) -->

<svg
   xmlns:dc="http://purl.org/dc/elements/1.1/"
   xmlns:cc="http://creativecommons.org/ns#"
   xmlns:rdf="http://www.w3.org/1999/02/22-rdf-syntax-ns#"
   xmlns:svg="http://www.w3.org/2000/svg"
   xmlns="http://www.w3.org/2000/svg"
   xmlns:sodipodi="http://sodipodi.sourceforge.net/DTD/sodipodi-0.dtd"
   xmlns:inkscape="http://www.inkscape.org/namespaces/inkscape"
   width="413.27499"
   height="293.45901"
   viewBox="0 0 413.275 293.45902"
   id="svg2"
   version="1.1"
   inkscape:version="0.91 r13725"
   sodipodi:docname="Brand Marketing.svg">
  <defs
     id="defs4">
    <pattern
       y="0"
       x="0"
       height="6"
       width="6"
       patternUnits="userSpaceOnUse"
       id="EMFhbasepattern" />
    <pattern
       y="0"
       x="0"
       height="6"
       width="6"
       patternUnits="userSpaceOnUse"
       id="EMFhbasepattern-3" />
    <pattern
       y="0"
       x="0"
       height="6"
       width="6"
       patternUnits="userSpaceOnUse"
       id="EMFhbasepattern-6" />
    <pattern
       y="0"
       x="0"
       height="6"
       width="6"
       patternUnits="userSpaceOnUse"
       id="EMFhbasepattern-38" />
  </defs>
  <sodipodi:namedview
     id="base"
     pagecolor="#ffffff"
     bordercolor="#666666"
     borderopacity="1.0"
     inkscape:pageopacity="0.0"
     inkscape:pageshadow="2"
     inkscape:zoom="1.979899"
     inkscape:cx="112.39926"
     inkscape:cy="156.01659"
     inkscape:document-units="px"
     inkscape:current-layer="layer1"
     showgrid="false"
     units="px"
     inkscape:showpageshadow="false"
     inkscape:window-width="1920"
     inkscape:window-height="1017"
     inkscape:window-x="-8"
     inkscape:window-y="-8"
     inkscape:window-maximized="1" />
  <metadata
     id="metadata7">
    <rdf:RDF>
      <cc:Work
         rdf:about="">
        <dc:format>image/svg+xml</dc:format>
        <dc:type
           rdf:resource="http://purl.org/dc/dcmitype/StillImage" />
        <dc:title></dc:title>
      </cc:Work>
    </rdf:RDF>
  </metadata>
  <g
     inkscape:label="Layer 1"
     inkscape:groupmode="layer"
     id="layer1"
     transform="translate(0,-758.90314)">
    <g
       id="g6604"
       transform="translate(5.6137142,-188.15587)">
      <path
         inkscape:connector-curvature="0"
         id="rect5904"
         d="m 82.900926,947.0489 c -1.1828,0 -2.1757,0.9929 -2.1757,2.1758 l 0,289.1074 c 0,1.1829 0.9929,2.1758 2.1757,2.1758 l 107.441404,0 0,-2.5722 -107.046804,0 0,-288.3165 201.878904,0 0,93.9942 2.5722,0 0,-94.3887 c 0,-1.1829 -0.9929,-2.1758 -2.1757,-2.1758 l -202.670004,0 z"
         style="color:#000000;font-style:normal;font-variant:normal;font-weight:normal;font-stretch:normal;font-size:medium;line-height:normal;font-family:sans-serif;text-indent:0;text-align:start;text-decoration:none;text-decoration-line:none;text-decoration-style:solid;text-decoration-color:#000000;letter-spacing:normal;word-spacing:normal;text-transform:none;direction:ltr;block-progression:tb;writing-mode:lr-tb;baseline-shift:baseline;text-anchor:start;white-space:normal;clip-rule:nonzero;display:inline;overflow:visible;visibility:visible;opacity:1;isolation:auto;mix-blend-mode:normal;color-interpolation:sRGB;color-interpolation-filters:linearRGB;solid-color:#000000;solid-opacity:1;fill:#919191;fill-opacity:1;fill-rule:nonzero;stroke:none;stroke-width:2.57123423;stroke-linecap:round;stroke-linejoin:miter;stroke-miterlimit:4;stroke-dasharray:none;stroke-dashoffset:0;stroke-opacity:1;color-rendering:auto;image-rendering:auto;shape-rendering:auto;text-rendering:auto;enable-background:accumulate" />
      <path
         d="m 258.35363,1030.5275 -148.2372,0 0,-49.4137 148.2372,0 0,49.4137 z"
         style="fill:#f6eb16;fill-opacity:1;fill-rule:nonzero;stroke:none"
         id="path5912"
         inkscape:connector-curvature="0" />
      <g
         id="g5916"
         transform="matrix(2.9142123,0,0,-2.9142123,123.92693,1049.0567)">
        <path
           d="m 0,0 c 0,-1.171 -0.949,-2.119 -2.12,-2.119 -1.17,0 -2.119,0.948 -2.119,2.119 0,1.171 0.949,2.119 2.119,2.119 C -0.949,2.119 0,1.171 0,0 Z"
           style="fill:none;stroke:#919191;stroke-width:1.02943766;stroke-linecap:butt;stroke-linejoin:miter;stroke-miterlimit:10;stroke-dasharray:none;stroke-opacity:1"
           id="path5918"
           inkscape:connector-curvature="0" />
      </g>
      <g
         id="g5920"
         transform="matrix(2.9142123,0,0,-2.9142123,157.28143,1049.0567)">
        <path
           d="m 2.247146,0 c 0,-1.171 -0.949,-2.119 -2.11999998,-2.119 -1.17099992,0 -2.11899992,0.948 -2.11899992,2.119 0,1.171 0.948,2.119 2.11899992,2.119 C 1.298146,2.119 2.247146,1.171 2.247146,0 Z"
           style="fill:none;stroke:#919191;stroke-width:1.02943766;stroke-linecap:butt;stroke-linejoin:miter;stroke-miterlimit:10;stroke-dasharray:none;stroke-opacity:1"
           id="path5922"
           inkscape:connector-curvature="0" />
      </g>
      <path
         d="m 134.82313,1082.4121 -24.7067,0 0,-14.8247 24.7067,0 0,14.8247 z"
         style="fill:#919191;fill-opacity:1;fill-rule:nonzero;stroke:none"
         id="path5926"
         inkscape:connector-curvature="0" />
      <path
         d="m 175.59023,1082.4121 -24.7068,0 0,-14.8247 24.7068,0 0,14.8247 z"
         style="fill:#919191;fill-opacity:1;fill-rule:nonzero;stroke:none"
         id="path5928"
         inkscape:connector-curvature="0" />
      <path
         inkscape:connector-curvature="0"
         id="path5930"
         style="fill:none;stroke:#000000;stroke-width:3;stroke-linecap:butt;stroke-linejoin:miter;stroke-miterlimit:10;stroke-dasharray:none;stroke-opacity:1"
         d="m 346.72393,985.9233 -71.6488,0" />
      <path
         inkscape:connector-curvature="0"
         id="path5932"
         style="fill:none;stroke:#000000;stroke-width:3;stroke-linecap:butt;stroke-linejoin:miter;stroke-miterlimit:10;stroke-dasharray:none;stroke-opacity:1"
         d="m 346.72393,998.2773 -71.6488,0" />
      <path
         inkscape:connector-curvature="0"
         id="path5934"
         style="fill:none;stroke:#000000;stroke-width:3;stroke-linecap:butt;stroke-linejoin:miter;stroke-miterlimit:10;stroke-dasharray:none;stroke-opacity:1"
         d="m 312.13443,1010.6286 -37.06,0" />
      <path
         d="m 317.90023,967.3486 -10.7068,0 0,-10.7099 10.7068,0 0,10.7099 z"
         style="fill:none;stroke:#000000;stroke-width:3;stroke-linecap:butt;stroke-linejoin:miter;stroke-miterlimit:10;stroke-dasharray:none;stroke-opacity:1"
         id="path5936"
         inkscape:connector-curvature="0" />
      <path
         inkscape:connector-curvature="0"
         id="path5940"
         style="fill:none;stroke:#000000;stroke-width:3;stroke-linecap:butt;stroke-linejoin:miter;stroke-miterlimit:10;stroke-dasharray:none;stroke-opacity:1"
         d="m 110.11643,1104.0055 49.4133,0" />
      <path
         inkscape:connector-curvature="0"
         id="path5942"
         style="fill:none;stroke:#000000;stroke-width:3;stroke-linecap:butt;stroke-linejoin:miter;stroke-miterlimit:10;stroke-dasharray:none;stroke-opacity:1"
         d="m 110.11643,1116.9998 49.4133,0" />
      <path
         inkscape:connector-curvature="0"
         id="path5944"
         style="fill:none;stroke:#000000;stroke-width:3;stroke-linecap:butt;stroke-linejoin:miter;stroke-miterlimit:10;stroke-dasharray:none;stroke-opacity:1"
         d="m 110.11643,1129.3512 49.4133,0" />
      <path
         d="m 159.53983,1183.7334 -49.4234,0 0,-31.7357 49.4234,0 0,31.7357 z"
         style="fill:#e4e5e7;fill-opacity:1;fill-rule:nonzero;stroke:none"
         id="path5948"
         inkscape:connector-curvature="0" />
      <path
         d="m 380.08303,1218.0614 -10.707,0 0,-10.7099 10.707,0 0,10.7099 z"
         style="fill:none;stroke:#919191;stroke-width:3;stroke-linecap:butt;stroke-linejoin:miter;stroke-miterlimit:10;stroke-dasharray:none;stroke-opacity:1"
         id="path5952"
         inkscape:connector-curvature="0" />
      <path
         d="m 381.10623,1033.6359 -10.7067,0 0,-10.7069 10.7067,0 0,10.7069 z"
         style="fill:none;stroke:#ffff00;stroke-width:3;stroke-linecap:butt;stroke-linejoin:miter;stroke-miterlimit:10;stroke-dasharray:none;stroke-opacity:1"
         id="path5954"
         inkscape:connector-curvature="0" />
      <path
         d="m 17.942026,1168.1972 -10.7070002,0 0,-10.7095 10.7070002,0 0,10.7095 z"
         style="fill:none;stroke:#000000;stroke-width:3;stroke-linecap:butt;stroke-linejoin:miter;stroke-miterlimit:10;stroke-dasharray:none;stroke-opacity:1"
         id="path5956"
         inkscape:connector-curvature="0" />
      <path
         d="m 6.5895258,1036.9539 -10.7068,0 0,-10.7067 10.7068,0 0,10.7067 z"
         style="fill:none;stroke:#ffff00;stroke-width:3;stroke-linecap:butt;stroke-linejoin:miter;stroke-miterlimit:10;stroke-dasharray:none;stroke-opacity:1"
         id="path5958"
         inkscape:connector-curvature="0" />
      <path
         sodipodi:nodetypes="ccccc"
         d="m 286.23813,1240.5075 -205.513304,0 0,-16.9166 205.513304,0 z"
         style="fill:#919191;fill-opacity:1;fill-rule:nonzero;stroke:none"
         id="path5962"
         inkscape:connector-curvature="0" />
      <path
         inkscape:connector-curvature="0"
         id="path19214"
         style="fill:#e4e5e7;fill-opacity:1;fill-rule:nonzero;stroke:none"
         d="m 310.17653,1056.4314 -84.1654,-0.2522 0,149.6956 84.1654,0 z"
         sodipodi:nodetypes="ccccc" />
      <g
         transform="translate(2388.5611,-781.7831)"
         id="g7223">
        <path
           d="m -2038.9772,1938.9033 0,-78.6199 -136.7391,29.2322 c -10.3005,2.2029 -10.481,14.5819 -0.2487,17.0016 l 136.9878,32.3861 z"
           style="fill:none;stroke:#000000;stroke-width:3;stroke-linecap:round;stroke-linejoin:round;stroke-miterlimit:10;stroke-dasharray:none;stroke-opacity:1"
           id="path19216"
           inkscape:connector-curvature="0" />
        <path
           d="m -2147.0891,1883.3958 13.7192,78.2668 c 0,7.953 -6.1433,14.4054 -13.7192,14.4054 -7.5799,0 -13.7192,-6.4524 -13.7192,-14.4054 l 0,-50.8322"
           style="fill:none;stroke:#000000;stroke-width:3;stroke-linecap:round;stroke-linejoin:miter;stroke-miterlimit:10;stroke-dasharray:none;stroke-opacity:1"
           id="path19218"
           inkscape:connector-curvature="0" />
        <path
           d="m -2015.3282,1850.9696 31.6316,-9.0765"
           style="fill:none;stroke:#000000;stroke-width:3;stroke-linecap:round;stroke-linejoin:miter;stroke-miterlimit:10;stroke-dasharray:none;stroke-opacity:1"
           id="path19220"
           inkscape:connector-curvature="0" />
        <path
           d="m -2015.3282,1874.007 32.6991,-3.6715"
           style="fill:none;stroke:#000000;stroke-width:3;stroke-linecap:round;stroke-linejoin:miter;stroke-miterlimit:10;stroke-dasharray:none;stroke-opacity:1"
           id="path19222"
           inkscape:connector-curvature="0" />
        <path
           d="m -2015.3282,1900.493 32.9037,-0.4655"
           style="fill:none;stroke:#000000;stroke-width:3;stroke-linecap:round;stroke-linejoin:miter;stroke-miterlimit:10;stroke-dasharray:none;stroke-opacity:1"
           id="path19224"
           inkscape:connector-curvature="0" />
        <path
           d="m -2015.3282,1922.8406 32.7713,2.9895"
           style="fill:none;stroke:#000000;stroke-width:3;stroke-linecap:round;stroke-linejoin:miter;stroke-miterlimit:10;stroke-dasharray:none;stroke-opacity:1"
           id="path19226"
           inkscape:connector-curvature="0" />
        <path
           d="m -2015.3282,1948.5938 32.2496,6.5527"
           style="fill:none;stroke:#000000;stroke-width:3;stroke-linecap:round;stroke-linejoin:miter;stroke-miterlimit:10;stroke-dasharray:none;stroke-opacity:1"
           id="path19228"
           inkscape:connector-curvature="0" />
        <path
           d="m -2038.9772,1887.0951 c 6.7934,0 12.2988,5.5094 12.2988,12.2988 0,6.7934 -5.5054,12.2988 -12.2988,12.2988"
           style="fill:none;stroke:#000000;stroke-width:3;stroke-linecap:round;stroke-linejoin:round;stroke-miterlimit:10;stroke-dasharray:none;stroke-opacity:1"
           id="path19230"
           inkscape:connector-curvature="0" />
      </g>
      <path
         style="fill:none;fill-rule:evenodd;stroke:#919191;stroke-width:3;stroke-linecap:butt;stroke-linejoin:miter;stroke-miterlimit:4;stroke-dasharray:none;stroke-opacity:1"
         d="m 52.220726,1200.1064 c 0,1.64 -7.9129,-19.1002 -7.9129,-19.1002 l 0,-227.8389 15.553,0 0,227.566 z"
         id="path6282"
         inkscape:connector-curvature="0"
         sodipodi:nodetypes="cccccc" />
      <path
         style="fill:none;fill-rule:evenodd;stroke:#919191;stroke-width:3;stroke-linecap:butt;stroke-linejoin:miter;stroke-miterlimit:4;stroke-dasharray:none;stroke-opacity:1"
         d="m 44.717226,982.255 15.0494,0"
         id="path6284"
         inkscape:connector-curvature="0" />
    </g>
  </g>
</svg>
