<?xml version="1.0" encoding="UTF-8" standalone="no"?>
<!-- Created with Inkscape (http://www.inkscape.org/) -->

<svg
   xmlns:dc="http://purl.org/dc/elements/1.1/"
   xmlns:cc="http://creativecommons.org/ns#"
   xmlns:rdf="http://www.w3.org/1999/02/22-rdf-syntax-ns#"
   xmlns:svg="http://www.w3.org/2000/svg"
   xmlns="http://www.w3.org/2000/svg"
   xmlns:sodipodi="http://sodipodi.sourceforge.net/DTD/sodipodi-0.dtd"
   xmlns:inkscape="http://www.inkscape.org/namespaces/inkscape"
   width="355.40201"
   height="296.01901"
   viewBox="0 0 355.40202 296.01901"
   id="svg2"
   version="1.1"
   inkscape:version="0.91 r13725"
   sodipodi:docname="brand_strategy.svg">
  <defs
     id="defs4">
    <pattern
       y="0"
       x="0"
       height="6"
       width="6"
       patternUnits="userSpaceOnUse"
       id="EMFhbasepattern" />
    <pattern
       y="0"
       x="0"
       height="6"
       width="6"
       patternUnits="userSpaceOnUse"
       id="EMFhbasepattern-3" />
    <pattern
       y="0"
       x="0"
       height="6"
       width="6"
       patternUnits="userSpaceOnUse"
       id="EMFhbasepattern-6" />
    <pattern
       y="0"
       x="0"
       height="6"
       width="6"
       patternUnits="userSpaceOnUse"
       id="EMFhbasepattern-38" />
  </defs>
  <sodipodi:namedview
     id="base"
     pagecolor="#ffffff"
     bordercolor="#666666"
     borderopacity="1.0"
     inkscape:pageopacity="0.0"
     inkscape:pageshadow="2"
     inkscape:zoom="1.979899"
     inkscape:cx="131.61266"
     inkscape:cy="171.39731"
     inkscape:document-units="px"
     inkscape:current-layer="layer1"
     showgrid="false"
     units="px"
     inkscape:showpageshadow="false"
     inkscape:window-width="1920"
     inkscape:window-height="1017"
     inkscape:window-x="-8"
     inkscape:window-y="-8"
     inkscape:window-maximized="1" />
  <metadata
     id="metadata7">
    <rdf:RDF>
      <cc:Work
         rdf:about="">
        <dc:format>image/svg+xml</dc:format>
        <dc:type
           rdf:resource="http://purl.org/dc/dcmitype/StillImage" />
        <dc:title></dc:title>
      </cc:Work>
    </rdf:RDF>
  </metadata>
  <g
     inkscape:label="Layer 1"
     inkscape:groupmode="layer"
     id="layer1"
     transform="translate(0,-756.3431)">
    <g
       id="g6500"
       transform="matrix(1.1009658,0,0,1.1009658,5140.469,-1155.9971)">
      <path
         id="rect18767"
         d="m -4587.9688,1736.957 c -1.0837,0 -1.9921,0.9084 -1.9921,1.9922 l 0,264.8867 c 0,1.0838 0.9085,1.9922 1.9921,1.9922 l 96.4415,0 0,-2.3554 -96.0782,0 0,-264.1602 184.9649,0 0,76.2187 2.3554,0 0,-76.582 c 0,-1.0838 -0.9084,-1.9922 -1.9921,-1.9922 l -185.6915,0 z"
         style="color:#000000;font-style:normal;font-variant:normal;font-weight:normal;font-stretch:normal;font-size:medium;line-height:normal;font-family:sans-serif;text-indent:0;text-align:start;text-decoration:none;text-decoration-line:none;text-decoration-style:solid;text-decoration-color:#000000;letter-spacing:normal;word-spacing:normal;text-transform:none;direction:ltr;block-progression:tb;writing-mode:lr-tb;baseline-shift:baseline;text-anchor:start;white-space:normal;clip-rule:nonzero;display:inline;overflow:visible;visibility:visible;opacity:1;isolation:auto;mix-blend-mode:normal;color-interpolation:sRGB;color-interpolation-filters:linearRGB;solid-color:#000000;solid-opacity:1;fill:#919191;fill-opacity:1;fill-rule:nonzero;stroke:none;stroke-width:2.35581088;stroke-linecap:round;stroke-linejoin:miter;stroke-miterlimit:4;stroke-dasharray:none;stroke-dashoffset:0;stroke-opacity:1;color-rendering:auto;image-rendering:auto;shape-rendering:auto;text-rendering:auto;enable-background:accumulate"
         inkscape:connector-curvature="0" />
      <path
         d="m -4427.2145,1813.4415 -135.8175,0 0,-45.2737 135.8175,0 0,45.2737 z"
         style="fill:#f6eb16;fill-opacity:1;fill-rule:nonzero;stroke:none"
         id="path18775"
         inkscape:connector-curvature="0" />
      <g
         id="g18777"
         transform="translate(616.35638,20)">
        <g
           transform="matrix(2.6700535,0,0,-2.6700535,-5166.735,1810.4183)"
           id="g18779">
          <path
             inkscape:connector-curvature="0"
             id="path18781"
             style="fill:none;stroke:#919191;stroke-width:1.02053392;stroke-linecap:butt;stroke-linejoin:miter;stroke-miterlimit:10;stroke-dasharray:none;stroke-opacity:1"
             d="m 0,0 c 0,-1.171 -0.949,-2.119 -2.12,-2.119 -1.17,0 -2.119,0.948 -2.119,2.119 0,1.171 0.949,2.119 2.119,2.119 C -0.949,2.119 0,1.171 0,0 Z" />
        </g>
        <g
           transform="matrix(2.6700535,0,0,-2.6700535,-5136.175,1810.4183)"
           id="g18783">
          <path
             inkscape:connector-curvature="0"
             id="path18785"
             style="fill:none;stroke:#919191;stroke-width:1.02053392;stroke-linecap:butt;stroke-linejoin:miter;stroke-miterlimit:10;stroke-dasharray:none;stroke-opacity:1"
             d="m 2.247146,0 c 0,-1.171 -0.949,-2.119 -2.11999998,-2.119 -1.17099992,0 -2.11899992,0.948 -2.11899992,2.119 0,1.171 0.948,2.119 2.11899992,2.119 C 1.298146,2.119 2.247146,1.171 2.247146,0 Z" />
        </g>
      </g>
      <g
         transform="translate(620,20)"
         id="g18787">
        <path
           inkscape:connector-curvature="0"
           id="path18789"
           style="fill:#919191;fill-opacity:1;fill-rule:nonzero;stroke:none"
           d="m -5160.3953,1840.9791 -22.6367,0 0,-13.5826 22.6367,0 0,13.5826 z" />
        <path
           inkscape:connector-curvature="0"
           id="path18791"
           style="fill:#919191;fill-opacity:1;fill-rule:nonzero;stroke:none"
           d="m -5123.0438,1840.9791 -22.6368,0 0,-13.5826 22.6368,0 0,13.5826 z" />
      </g>
      <path
         inkscape:connector-curvature="0"
         id="path18793"
         style="fill:none;stroke:#000000;stroke-width:2.72488022;stroke-linecap:butt;stroke-linejoin:miter;stroke-miterlimit:8;stroke-dasharray:none;stroke-opacity:1"
         d="m -4346.248,1772.5744 -65.6459,0" />
      <path
         inkscape:connector-curvature="0"
         id="path18795"
         style="fill:none;stroke:#000000;stroke-width:2.72488022;stroke-linecap:butt;stroke-linejoin:miter;stroke-miterlimit:8;stroke-dasharray:none;stroke-opacity:1"
         d="m -4346.248,1783.8933 -65.6459,0" />
      <path
         inkscape:connector-curvature="0"
         id="path18797"
         style="fill:none;stroke:#000000;stroke-width:2.72488022;stroke-linecap:butt;stroke-linejoin:miter;stroke-miterlimit:8;stroke-dasharray:none;stroke-opacity:1"
         d="m -4377.9395,1795.2098 -33.9551,0" />
      <path
         d="m -4372.6568,1755.5559 -9.8098,0 0,-9.8126 9.8098,0 0,9.8126 z"
         style="fill:none;stroke:#000000;stroke-width:2.72488022;stroke-linecap:butt;stroke-linejoin:miter;stroke-miterlimit:8;stroke-dasharray:none;stroke-opacity:1"
         id="path18799"
         inkscape:connector-curvature="0" />
      <g
         id="g18801"
         transform="translate(173.9978,20)">
        <path
           d="m -4737.0298,1860.7634 45.2734,0"
           style="fill:none;stroke:#000000;stroke-width:2.72488022;stroke-linecap:butt;stroke-linejoin:miter;stroke-miterlimit:10;stroke-dasharray:none;stroke-opacity:1"
           id="path18803"
           inkscape:connector-curvature="0" />
        <path
           d="m -4737.0298,1872.669 45.2734,0"
           style="fill:none;stroke:#000000;stroke-width:2.72488022;stroke-linecap:butt;stroke-linejoin:miter;stroke-miterlimit:10;stroke-dasharray:none;stroke-opacity:1"
           id="path18805"
           inkscape:connector-curvature="0" />
        <path
           d="m -4737.0298,1883.9856 45.2734,0"
           style="fill:none;stroke:#000000;stroke-width:2.72488022;stroke-linecap:butt;stroke-linejoin:miter;stroke-miterlimit:10;stroke-dasharray:none;stroke-opacity:1"
           id="path18807"
           inkscape:connector-curvature="0" />
      </g>
      <g
         id="g18809"
         transform="translate(174,20)">
        <path
           inkscape:connector-curvature="0"
           id="path18811"
           style="fill:#e4e5e7;fill-opacity:1;fill-rule:nonzero;stroke:none"
           d="m -4691.7494,1933.8115 -45.2826,0 0,-29.0768 45.2826,0 0,29.0768 z" />
      </g>
      <g
         transform="translate(180,20)"
         id="g18813">
        <path
           inkscape:connector-curvature="0"
           id="path18815"
           style="fill:none;stroke:#919191;stroke-width:3;stroke-linecap:butt;stroke-linejoin:miter;stroke-miterlimit:10;stroke-dasharray:none;stroke-opacity:1"
           d="m -4550.6569,1855.3173 -9.8099,0 0,-9.8126 9.8099,0 0,9.8126 z" />
        <path
           inkscape:connector-curvature="0"
           id="path18817"
           style="fill:none;stroke:#ffff00;stroke-width:2.72488022;stroke-linecap:butt;stroke-linejoin:miter;stroke-miterlimit:10;stroke-dasharray:none;stroke-opacity:1"
           d="m -4527.8531,1914.4816 -9.8097,0 0,-9.8098 9.8097,0 0,9.8098 z" />
        <path
           inkscape:connector-curvature="0"
           id="path18819"
           style="fill:none;stroke:#000000;stroke-width:2.72488022;stroke-linecap:butt;stroke-linejoin:miter;stroke-miterlimit:9;stroke-dasharray:none;stroke-opacity:1"
           d="m -4827.4839,1919.577 -9.8099,0 0,-9.8123 9.8099,0 0,9.8123 z" />
        <path
           inkscape:connector-curvature="0"
           id="path18821"
           style="fill:none;stroke:#ffff00;stroke-width:2.72488022;stroke-linecap:butt;stroke-linejoin:miter;stroke-miterlimit:9;stroke-dasharray:none;stroke-opacity:1"
           d="m -4837.8852,1799.3295 -9.8098,0 0,-9.8097 9.8098,0 0,9.8097 z" />
      </g>
      <path
         inkscape:connector-curvature="0"
         id="path6069"
         style="fill:#e4e5e7;fill-opacity:1;fill-rule:nonzero;stroke:none"
         d="m -4423.8163,1928.8259 -57.3316,-0.083 0,49.1832 57.3316,0 z"
         sodipodi:nodetypes="ccccc" />
      <path
         sodipodi:nodetypes="ccccc"
         d="m -4353.511,1830.892 -65.8,-0.095 0,56.448 65.8,0 z"
         style="fill:#f6eb16;fill-opacity:1;fill-rule:nonzero;stroke:none"
         id="path6073"
         inkscape:connector-curvature="0" />
      <path
         id="path18858"
         d="m -4434.1793,1900.4161 c 3.384,-1.8399 12.3752,-5.7852 18.9462,-5.2968 -10.7544,10.8675 -16.5497,18.4343 -16.5497,25.8995 0,2.6266 0.2521,4.8964 0.4766,6.8985 0.3849,3.4626 0.553,5.4712 -0.4638,6.4805 -0.9418,0.9345 -2.2468,2.737 -3.4881,4.8215 -0.3431,0.5776 -0.3504,1.295 -0.018,1.8799 0.3321,0.584 0.9528,0.9455 1.6246,0.9455 l 48.249,0 c 0.7556,0 1.4382,-0.4563 1.7266,-1.1554 0.2902,-0.699 0.1277,-1.5031 -0.4069,-2.0371 -3.2582,-3.2481 -6.447,-9.4147 -3.1395,-20.3461 5.556,-18.3655 4.8533,-40.9285 -9.8235,-47.065 -13.0581,-5.4612 -22.772,-4.0046 -23.1809,-3.9409 -0.3503,0.056 -0.6771,0.2109 -0.9436,0.4455 l -21.5417,19.0339 c -0.6808,0.6023 -0.8305,1.6071 -0.3541,2.381 l 6.4031,10.393 c 0.522,0.846 1.6097,1.1379 2.484,0.6625 z"
         style="fill:none;stroke:#000000;stroke-width:2.72488022;stroke-miterlimit:4;stroke-dasharray:none;stroke-opacity:1"
         inkscape:connector-curvature="0" />
      <path
         sodipodi:nodetypes="sssssssss"
         id="path18862"
         d="m -4375.5338,1948.1338 -60.3339,0 c -1.0331,0 -1.8691,0.8368 -1.8691,1.869 l 0,14.9526 c 0,1.0322 0.836,1.869 1.8691,1.869 l 60.3339,0 c 1.0331,0 1.8691,-0.8368 1.8691,-1.869 l 0,-14.9526 c 0,-1.0322 -0.836,-1.869 -1.8691,-1.869 z"
         style="fill:none;stroke:#000000;stroke-width:2.72488022;stroke-miterlimit:4;stroke-dasharray:none;stroke-opacity:1"
         inkscape:connector-curvature="0" />
      <path
         sodipodi:nodetypes="cccc"
         inkscape:connector-curvature="0"
         id="path18980"
         d="m -4414.9928,1864.1789 0,-9.0993 c 59.3435,6.7256 39.6942,52.6179 37.9798,56.5741 -6.8575,17.8031 -2.5056,25.5837 0.2638,27.5618"
         style="fill:none;fill-rule:evenodd;stroke:#000000;stroke-width:2.72488022;stroke-linecap:butt;stroke-linejoin:miter;stroke-miterlimit:4;stroke-dasharray:none;stroke-opacity:1" />
      <path
         sodipodi:nodetypes="ccccc"
         d="m -4401.6662,2005.829 -188.2949,0 0,-15.4993 188.2949,0 z"
         style="fill:#919191;fill-opacity:1;fill-rule:nonzero;stroke:none"
         id="path19033"
         inkscape:connector-curvature="0" />
      <g
         transform="translate(-530,-32)"
         id="g6246">
        <g
           transform="translate(38.6729,24.950568)"
           style="stroke:#919191;stroke-opacity:1"
           id="g6240">
          <path
             style="fill:none;fill-rule:evenodd;stroke:#919191;stroke-width:2.72488022;stroke-linecap:butt;stroke-linejoin:miter;stroke-miterlimit:9;stroke-dasharray:none;stroke-opacity:1"
             d="m -4124.75,1975.8622 c 0,1.5026 -7.25,-17.5 -7.25,-17.5 l 0,-208.75 14.25,0 0,208.5 z"
             id="path6242"
             inkscape:connector-curvature="0"
             sodipodi:nodetypes="cccccc" />
          <path
             style="fill:none;fill-rule:evenodd;stroke:#919191;stroke-width:2.72488022;stroke-linecap:butt;stroke-linejoin:miter;stroke-miterlimit:9;stroke-dasharray:none;stroke-opacity:1"
             d="m -4131.6249,1776.2628 13.7886,0"
             id="path6244"
             inkscape:connector-curvature="0" />
        </g>
      </g>
    </g>
  </g>
</svg>
