<?xml version="1.0" encoding="UTF-8" standalone="no"?>
<!-- Generator: Adobe Illustrator 19.0.0, SVG Export Plug-In . SVG Version: 6.00 Build 0)  -->

<svg
   xmlns:dc="http://purl.org/dc/elements/1.1/"
   xmlns:cc="http://creativecommons.org/ns#"
   xmlns:rdf="http://www.w3.org/1999/02/22-rdf-syntax-ns#"
   xmlns:svg="http://www.w3.org/2000/svg"
   xmlns="http://www.w3.org/2000/svg"
   xmlns:sodipodi="http://sodipodi.sourceforge.net/DTD/sodipodi-0.dtd"
   xmlns:inkscape="http://www.inkscape.org/namespaces/inkscape"
   version="1.1"
   id="Layer_1"
   x="0px"
   y="0px"
   viewBox="0 0 841.9 595.3"
   style="enable-background:new 0 0 841.9 595.3;"
   xml:space="preserve"
   inkscape:version="0.91 r13725"
   sodipodi:docname="AR.VR.MR.svg"><metadata
     id="metadata143"><rdf:RDF><cc:Work
         rdf:about=""><dc:format>image/svg+xml</dc:format><dc:type
           rdf:resource="http://purl.org/dc/dcmitype/StillImage" /></cc:Work></rdf:RDF></metadata><defs
     id="defs141" /><sodipodi:namedview
     pagecolor="#ffffff"
     bordercolor="#666666"
     borderopacity="1"
     objecttolerance="10"
     gridtolerance="10"
     guidetolerance="10"
     inkscape:pageopacity="0"
     inkscape:pageshadow="2"
     inkscape:window-width="1920"
     inkscape:window-height="1017"
     id="namedview139"
     showgrid="false"
     inkscape:zoom="0.48377895"
     inkscape:cx="12.941193"
     inkscape:cy="340.7106"
     inkscape:window-x="-8"
     inkscape:window-y="-8"
     inkscape:window-maximized="1"
     inkscape:current-layer="Layer_1" /><style
     type="text/css"
     id="style3">
	.st0{fill:#F6F6F6;}
	.st1{clip-path:url(#SVGID_2_);fill:none;stroke:#C4C3C3;stroke-width:2;stroke-miterlimit:10;}
	.st2{clip-path:url(#SVGID_2_);fill:none;stroke:#C4C3C3;stroke-width:2;stroke-linecap:round;stroke-miterlimit:10;}
	.st3{clip-path:url(#SVGID_2_);fill:#C4C3C3;}
	.st4{clip-path:url(#SVGID_2_);fill:none;stroke:#010101;stroke-width:2;stroke-miterlimit:10;}
	.st5{clip-path:url(#SVGID_2_);fill:#F5EA14;}
	.st6{clip-path:url(#SVGID_2_);fill:none;stroke:#F5EA14;stroke-width:2;stroke-miterlimit:10;}
	.st7{clip-path:url(#SVGID_2_);fill:#E4E4E6;}
	
		.st8{clip-path:url(#SVGID_2_);fill:none;stroke:#010101;stroke-width:4.02;stroke-linecap:round;stroke-linejoin:round;stroke-miterlimit:10;}
	.st9{clip-path:url(#SVGID_2_);fill:#FFFFFF;}
	.st10{clip-path:url(#SVGID_2_);fill:#060707;}
	.st11{clip-path:url(#SVGID_2_);fill:#010101;}
</style><rect
     class="st0"
     width="841.9"
     height="595.3"
     id="rect5" /><g
     id="g4407"
     transform="translate(301.28647,0)"><g
       id="g4273"><defs
         id="defs4275"><rect
           id="rect4277"
           x="96.099998"
           y="157.39999"
           width="349"
           height="276.10001" /></defs><clipPath
         id="clipPath4279"><rect
           height="276.10001"
           width="349"
           y="157.39999"
           x="96.099998"
           id="use4281" /></clipPath><path
         class="st1"
         d="m 345.2,349.8 c 0,8.6 -6.9,15.5 -15.5,15.5 -8.6,0 -15.5,-6.9 -15.5,-15.5 0,-8.6 6.9,-15.5 15.5,-15.5 8.6,0 15.5,6.9 15.5,15.5 z"
         id="path4283"
         clip-path="url(#SVGID_2_)"
         inkscape:connector-curvature="0"
         style="fill:none;stroke:#c4c3c3;stroke-width:2;stroke-miterlimit:10" /><line
         class="st2"
         x1="325.29999"
         y1="349.79999"
         x2="334"
         y2="349.79999"
         id="line4285"
         clip-path="url(#SVGID_2_)"
         style="fill:none;stroke:#c4c3c3;stroke-width:2;stroke-linecap:round;stroke-miterlimit:10" /><path
         class="st1"
         d="m 403.6,323.7 c 0,12.8 -10.5,23.3 -23.3,23.3 -12.8,0 -23.3,-10.5 -23.3,-23.3 0,-12.8 10.5,-23.3 23.3,-23.3 12.8,0 23.3,10.4 23.3,23.3 z"
         id="path4287"
         clip-path="url(#SVGID_2_)"
         inkscape:connector-curvature="0"
         style="fill:none;stroke:#c4c3c3;stroke-width:2;stroke-miterlimit:10" /><line
         class="st2"
         x1="372.5"
         y1="323.70001"
         x2="388"
         y2="323.70001"
         id="line4289"
         clip-path="url(#SVGID_2_)"
         style="fill:none;stroke:#c4c3c3;stroke-width:2;stroke-linecap:round;stroke-miterlimit:10" /><line
         class="st2"
         x1="380.29999"
         y1="315.89999"
         x2="380.29999"
         y2="331.39999"
         id="line4291"
         clip-path="url(#SVGID_2_)"
         style="fill:none;stroke:#c4c3c3;stroke-width:2;stroke-linecap:round;stroke-miterlimit:10" /><path
         class="st1"
         d="m 436.5,298.6 c 0,7 -5.7,12.7 -12.7,12.7 -7,0 -12.7,-5.7 -12.7,-12.7 0,-7 5.7,-12.7 12.7,-12.7 7.1,0 12.7,5.7 12.7,12.7 z"
         id="path4293"
         clip-path="url(#SVGID_2_)"
         inkscape:connector-curvature="0"
         style="fill:none;stroke:#c4c3c3;stroke-width:2;stroke-miterlimit:10" /><polygon
         class="st3"
         points="427.2,298.7 421.8,295 421.8,302.5 "
         id="polygon4295"
         clip-path="url(#SVGID_2_)"
         style="fill:#c4c3c3" /><line
         class="st4"
         x1="251.89999"
         y1="172.5"
         x2="246.5"
         y2="177.89999"
         id="line4297"
         clip-path="url(#SVGID_2_)"
         style="fill:none;stroke:#010101;stroke-width:2;stroke-miterlimit:10" /><line
         class="st4"
         x1="240.89999"
         y1="183.5"
         x2="235.39999"
         y2="188.89999"
         id="line4299"
         clip-path="url(#SVGID_2_)"
         style="fill:none;stroke:#010101;stroke-width:2;stroke-miterlimit:10" /><line
         class="st4"
         x1="235.39999"
         y1="172.5"
         x2="240.89999"
         y2="177.89999"
         id="line4301"
         clip-path="url(#SVGID_2_)"
         style="fill:none;stroke:#010101;stroke-width:2;stroke-miterlimit:10" /><line
         class="st4"
         x1="246.5"
         y1="183.5"
         x2="251.89999"
         y2="188.89999"
         id="line4303"
         clip-path="url(#SVGID_2_)"
         style="fill:none;stroke:#010101;stroke-width:2;stroke-miterlimit:10" /><line
         class="st4"
         x1="443.79999"
         y1="251.8"
         x2="438.39999"
         y2="257.29999"
         id="line4305"
         clip-path="url(#SVGID_2_)"
         style="fill:none;stroke:#010101;stroke-width:2;stroke-miterlimit:10" /><line
         class="st4"
         x1="432.89999"
         y1="262.89999"
         x2="427.39999"
         y2="268.29999"
         id="line4307"
         clip-path="url(#SVGID_2_)"
         style="fill:none;stroke:#010101;stroke-width:2;stroke-miterlimit:10" /><line
         class="st4"
         x1="427.39999"
         y1="251.8"
         x2="432.89999"
         y2="257.29999"
         id="line4309"
         clip-path="url(#SVGID_2_)"
         style="fill:none;stroke:#010101;stroke-width:2;stroke-miterlimit:10" /><line
         class="st4"
         x1="438.39999"
         y1="262.89999"
         x2="443.79999"
         y2="268.29999"
         id="line4311"
         clip-path="url(#SVGID_2_)"
         style="fill:none;stroke:#010101;stroke-width:2;stroke-miterlimit:10" /><path
         class="st4"
         d="m 416.6,210.7 -13.6,0 -5.8,0 -10.4,0 -29.2,0 -11,0 -10.1,0 -8.2,0 -19.6,0 -24.5,0 -10.9,0 0,16.9 0,31.8 c 0,0 0,2.2 1.2,4.3 1,1.9 3.1,3.8 7,3.8 l 7.6,0 8.1,0 23.7,0 9.4,0 c 0,0 8.1,0 8.1,-8.1 l 0,-19.2 0,-5.2 c 0,0 -0.1,-8.1 8.1,-8.1 l 0.5,0 c 7.7,0.3 7.6,8.1 7.6,8.1 l 0,24.4 c 0,0.4 0,0.7 0,1.1 0.3,3.4 2.2,5.1 4,6 2,1 4.1,1 4.1,1 l 1.1,0 14.5,0 33.2,0 c 8.1,0 8.1,-8.1 8.1,-8.1 l 0,-48.7 -3,0 z"
         id="path4313"
         clip-path="url(#SVGID_2_)"
         inkscape:connector-curvature="0"
         style="fill:none;stroke:#010101;stroke-width:2;stroke-miterlimit:10" /><rect
         x="265.20001"
         y="202.39999"
         class="st5"
         width="162.7"
         height="8.1000004"
         id="rect4315"
         clip-path="url(#SVGID_2_)"
         style="fill:#f5ea14" /><path
         class="st4"
         d="m 269.2,202.4 c 0,0 6.9,-40.7 61,-40.7"
         id="path4317"
         clip-path="url(#SVGID_2_)"
         inkscape:connector-curvature="0"
         style="fill:none;stroke:#010101;stroke-width:2;stroke-miterlimit:10" /><rect
         x="329.70001"
         y="159.2"
         class="st4"
         width="12.8"
         height="4.8000002"
         id="rect4319"
         clip-path="url(#SVGID_2_)"
         style="fill:none;stroke:#010101;stroke-width:2;stroke-miterlimit:10" /><path
         class="st4"
         d="m 423.8,202.4 c 0,0 -6.9,-40.7 -61,-40.7"
         id="path4321"
         clip-path="url(#SVGID_2_)"
         inkscape:connector-curvature="0"
         style="fill:none;stroke:#010101;stroke-width:2;stroke-miterlimit:10" /><rect
         x="350.60001"
         y="159.2"
         class="st4"
         width="12.8"
         height="4.8000002"
         id="rect4323"
         clip-path="url(#SVGID_2_)"
         style="fill:none;stroke:#010101;stroke-width:2;stroke-miterlimit:10" /><rect
         x="269.20001"
         y="207.3"
         class="st6"
         width="18.799999"
         height="18.799999"
         id="rect4325"
         clip-path="url(#SVGID_2_)"
         style="fill:none;stroke:#f5ea14;stroke-width:2;stroke-miterlimit:10" /><path
         class="st5"
         d="m 281.7,216.6 c 0,1.7 -1.4,3.1 -3,3.1 -1.7,0 -3.1,-1.4 -3.1,-3.1 0,-1.7 1.4,-3.1 3.1,-3.1 1.6,0.1 3,1.4 3,3.1"
         id="path4327"
         clip-path="url(#SVGID_2_)"
         inkscape:connector-curvature="0"
         style="fill:#f5ea14" /><rect
         x="288"
         y="207.3"
         class="st6"
         width="26"
         height="18.799999"
         id="rect4329"
         clip-path="url(#SVGID_2_)"
         style="fill:none;stroke:#f5ea14;stroke-width:2;stroke-miterlimit:10" /><polygon
         class="st3"
         points="96.1,431.7 126.8,431.7 126.8,298.6 96.1,318 "
         id="polygon4331"
         clip-path="url(#SVGID_2_)"
         style="fill:#c4c3c3" /><rect
         x="126.8"
         y="339.5"
         class="st7"
         width="30.700001"
         height="92.199997"
         id="rect4333"
         clip-path="url(#SVGID_2_)"
         style="fill:#e4e4e6" /><polygon
         class="st7"
         points="157.6,431.7 178.1,431.7 178.1,308.8 157.6,329.3 "
         id="polygon4335"
         clip-path="url(#SVGID_2_)"
         style="fill:#e4e4e6" /><polygon
         class="st7"
         points="188.6,431.7 209.1,431.7 209.1,349.8 209.1,298.6 188.6,298.6 "
         id="polygon4337"
         clip-path="url(#SVGID_2_)"
         style="fill:#e4e4e6" /><rect
         x="178.10001"
         y="380.5"
         class="st3"
         width="10.2"
         height="51.200001"
         id="rect4339"
         clip-path="url(#SVGID_2_)"
         style="fill:#c4c3c3" /><polygon
         class="st3"
         points="249.7,339.5 270.2,339.5 270.2,431.7 209.1,431.7 209.1,339.6 229.2,319.1 "
         id="polygon4341"
         clip-path="url(#SVGID_2_)"
         style="fill:#c4c3c3" /><polygon
         class="st7"
         points="270.2,431.7 290.7,431.7 290.7,297.9 270.2,278.1 "
         id="polygon4343"
         clip-path="url(#SVGID_2_)"
         style="fill:#e4e4e6" /><rect
         x="290.70001"
         y="370.29999"
         class="st3"
         width="10.3"
         height="61.5"
         id="rect4345"
         clip-path="url(#SVGID_2_)"
         style="fill:#c4c3c3" /><rect
         x="137.10001"
         y="245.89999"
         class="st4"
         width="122.9"
         height="155.60001"
         id="rect4347"
         clip-path="url(#SVGID_2_)"
         style="fill:none;stroke:#010101;stroke-width:2;stroke-miterlimit:10" /><path
         class="st4"
         d="m 137.1,424 c 0,4.2 3.5,7.7 7.7,7.7 l 107.5,0 c 4.2,0 7.7,-3.4 7.7,-7.7 l 0,-22.6 -122.9,0 0,22.6 z"
         id="path4349"
         clip-path="url(#SVGID_2_)"
         inkscape:connector-curvature="0"
         style="fill:none;stroke:#010101;stroke-width:2;stroke-miterlimit:10" /><path
         class="st4"
         d="m 260,234.6 c 0,-4.2 -3.4,-7.7 -7.7,-7.7 l -107.5,0 c -4.2,0 -7.7,3.4 -7.7,7.7 l 0,11.3 122.9,0 0,-11.3 z"
         id="path4351"
         clip-path="url(#SVGID_2_)"
         inkscape:connector-curvature="0"
         style="fill:none;stroke:#010101;stroke-width:2;stroke-miterlimit:10" /><line
         class="st4"
         x1="193.39999"
         y1="237"
         x2="204.3"
         y2="237"
         id="line4353"
         clip-path="url(#SVGID_2_)"
         style="fill:none;stroke:#010101;stroke-width:2;stroke-miterlimit:10" /><line
         class="st4"
         x1="184"
         y1="416.60001"
         x2="213.7"
         y2="416.60001"
         id="line4355"
         clip-path="url(#SVGID_2_)"
         style="fill:none;stroke:#010101;stroke-width:2;stroke-miterlimit:10" /><path
         class="st8"
         d="m 246.5,416.6 c 0,1.6 -1.3,2.9 -2.9,2.9 -1.7,0 -3,-1.3 -3,-2.9 0,-1.7 1.3,-3 3,-3 1.6,0 2.9,1.3 2.9,3 z"
         id="path4357"
         clip-path="url(#SVGID_2_)"
         inkscape:connector-curvature="0"
         style="fill:none;stroke:#010101;stroke-width:4.01999998;stroke-linecap:round;stroke-linejoin:round;stroke-miterlimit:10" /><polygon
         class="st5"
         points="147.3,288.4 222.3,288.4 229.2,295.2 236,288.4 249.7,288.4 249.7,257.3 147.3,257.3 "
         id="polygon4359"
         clip-path="url(#SVGID_2_)"
         style="fill:#f5ea14" /><line
         class="st4"
         x1="179.2"
         y1="267.5"
         x2="217.2"
         y2="267.5"
         id="line4361"
         clip-path="url(#SVGID_2_)"
         style="fill:none;stroke:#010101;stroke-width:2;stroke-miterlimit:10" /><line
         class="st4"
         x1="159.8"
         y1="278.10001"
         x2="236.60001"
         y2="278.10001"
         id="line4363"
         clip-path="url(#SVGID_2_)"
         style="fill:none;stroke:#010101;stroke-width:2;stroke-miterlimit:10" /><path
         class="st5"
         d="m 239.5,349.9 c 0,5.7 -10.3,30.5 -10.3,30.5 0,0 -10.3,-24.8 -10.3,-30.5 0,-5.7 4.6,-10.3 10.3,-10.3 5.8,0 10.3,4.7 10.3,10.3"
         id="path4365"
         clip-path="url(#SVGID_2_)"
         inkscape:connector-curvature="0"
         style="fill:#f5ea14" /><path
         class="st4"
         d="m 239.5,349.9 c 0,5.7 -10.3,30.5 -10.3,30.5 0,0 -10.3,-24.8 -10.3,-30.5 0,-5.7 4.6,-10.3 10.3,-10.3 5.8,0 10.3,4.7 10.3,10.3 z"
         id="path4367"
         clip-path="url(#SVGID_2_)"
         inkscape:connector-curvature="0"
         style="fill:none;stroke:#010101;stroke-width:2;stroke-miterlimit:10" /><line
         class="st4"
         x1="221.39999"
         y1="391"
         x2="236.60001"
         y2="391"
         id="line4369"
         clip-path="url(#SVGID_2_)"
         style="fill:none;stroke:#010101;stroke-width:2;stroke-miterlimit:10" /><path
         class="st9"
         d="m 233.1,349.8 c 0,2.1 -1.8,3.8 -3.9,3.8 -2.1,0 -3.8,-1.7 -3.8,-3.8 0,-2.1 1.7,-3.9 3.8,-3.9 2.1,0 3.9,1.8 3.9,3.9"
         id="path4371"
         clip-path="url(#SVGID_2_)"
         inkscape:connector-curvature="0"
         style="fill:#ffffff" /><path
         class="st10"
         d="m 233.1,349.8 c 0,2.1 -1.8,3.8 -3.9,3.8 -2.1,0 -3.8,-1.7 -3.8,-3.8 0,-2.1 1.7,-3.9 3.8,-3.9 2.1,0 3.9,1.8 3.9,3.9"
         id="path4373"
         clip-path="url(#SVGID_2_)"
         inkscape:connector-curvature="0"
         style="fill:#060707" /><rect
         x="101.5"
         y="329"
         class="st9"
         width="4.9000001"
         height="36.200001"
         id="rect4375"
         clip-path="url(#SVGID_2_)"
         style="fill:#ffffff" /><rect
         x="280.5"
         y="329"
         class="st3"
         width="4.9000001"
         height="36.200001"
         id="rect4377"
         clip-path="url(#SVGID_2_)"
         style="fill:#c4c3c3" /><rect
         x="114.1"
         y="365.20001"
         class="st9"
         width="4.9000001"
         height="36.200001"
         id="rect4379"
         clip-path="url(#SVGID_2_)"
         style="fill:#ffffff" /><rect
         x="275.5"
         y="380.39999"
         class="st3"
         width="4.9000001"
         height="36.200001"
         id="rect4381"
         clip-path="url(#SVGID_2_)"
         style="fill:#c4c3c3" /><rect
         x="290.70001"
         y="380.39999"
         class="st11"
         width="4.9000001"
         height="36.200001"
         id="rect4383"
         clip-path="url(#SVGID_2_)"
         style="fill:#010101" /><rect
         x="141.5"
         y="345.29999"
         class="st11"
         width="4.9000001"
         height="24.9"
         id="rect4385"
         clip-path="url(#SVGID_2_)"
         style="fill:#010101" /><rect
         x="150.3"
         y="345.29999"
         class="st11"
         width="4.9000001"
         height="24.9"
         id="rect4387"
         clip-path="url(#SVGID_2_)"
         style="fill:#010101" /><rect
         x="160.89999"
         y="370.20001"
         class="st9"
         width="4.9000001"
         height="24.9"
         id="rect4389"
         clip-path="url(#SVGID_2_)"
         style="fill:#ffffff" /><rect
         x="169.8"
         y="370.20001"
         class="st9"
         width="4.9000001"
         height="24.9"
         id="rect4391"
         clip-path="url(#SVGID_2_)"
         style="fill:#ffffff" /><rect
         x="191.8"
         y="308.79999"
         class="st3"
         width="4.9000001"
         height="9.8000002"
         id="rect4393"
         clip-path="url(#SVGID_2_)"
         style="fill:#c4c3c3" /><rect
         x="200.7"
         y="308.79999"
         class="st3"
         width="4.9000001"
         height="9.8000002"
         id="rect4395"
         clip-path="url(#SVGID_2_)"
         style="fill:#c4c3c3" /><rect
         x="191.8"
         y="329.29999"
         class="st3"
         width="4.9000001"
         height="9.8000002"
         id="rect4397"
         clip-path="url(#SVGID_2_)"
         style="fill:#c4c3c3" /><rect
         x="200.7"
         y="329.29999"
         class="st3"
         width="4.9000001"
         height="9.8000002"
         id="rect4399"
         clip-path="url(#SVGID_2_)"
         style="fill:#c4c3c3" /><rect
         x="191.8"
         y="360.29999"
         class="st3"
         width="4.9000001"
         height="9.8000002"
         id="rect4401"
         clip-path="url(#SVGID_2_)"
         style="fill:#c4c3c3" /><rect
         x="200.7"
         y="360.29999"
         class="st3"
         width="4.9000001"
         height="9.8000002"
         id="rect4403"
         clip-path="url(#SVGID_2_)"
         style="fill:#c4c3c3" /><rect
         x="101.5"
         y="394.89999"
         class="st9"
         width="4.9000001"
         height="36.200001"
         id="rect4405"
         clip-path="url(#SVGID_2_)"
         style="fill:#ffffff" /></g></g></svg>