<?xml version="1.0" encoding="utf-8"?>
<!-- Generator: Adobe Illustrator 19.0.0, SVG Export Plug-In . SVG Version: 6.00 Build 0)  -->
<svg version="1.1" id="Layer_1" xmlns="http://www.w3.org/2000/svg" xmlns:xlink="http://www.w3.org/1999/xlink" x="0px" y="0px"
	 viewBox="0 0 600 600" style="enable-background:new 0 0 600 600;" xml:space="preserve">
<style type="text/css">
	.st0{fill:#E5E6E7;}
	.st1{fill:#C4C4C4;}
	.st2{fill:#F6EB16;}
	.st3{fill:none;stroke:#F6EB16;stroke-miterlimit:10;}
	.st4{fill:none;stroke:#010101;stroke-miterlimit:10;}
	.st5{fill:none;stroke:#C4C4C4;stroke-miterlimit:10;}
	.st6{fill:#FFFFFF;}
	.st7{fill:#010101;}
</style>
<g id="XMLID_2_">
	<path id="XMLID_88_" class="st0" d="M401.2,235.9c0-16.1-13.1-29.2-29.2-29.2c-16.1,0-29.2,13.1-29.2,29.2
		c0,16.1,13,29.2,29.2,29.2C388.1,265,401.2,252,401.2,235.9"/>
	<rect id="XMLID_87_" x="153.2" y="301.1" class="st1" width="217.4" height="130.4"/>
	<rect id="XMLID_86_" x="240.2" y="431.5" class="st0" width="43.5" height="10.9"/>
	<rect id="XMLID_85_" x="229.3" y="442.4" class="st1" width="65.2" height="10.9"/>
	<rect id="XMLID_84_" x="164.1" y="312" class="st0" width="195.6" height="108.7"/>
	<rect id="XMLID_83_" x="240.2" y="148.9" class="st2" width="173.9" height="21.7"/>
	<rect id="XMLID_82_" x="240.2" y="148.9" class="st3" width="173.9" height="239.1"/>
	<line id="XMLID_81_" class="st4" x1="261.9" y1="181.5" x2="283.7" y2="181.5"/>
	<line id="XMLID_80_" class="st4" x1="270.6" y1="192.4" x2="305.4" y2="192.4"/>
	<line id="XMLID_79_" class="st4" x1="316.3" y1="192.4" x2="338" y2="192.4"/>
	<line id="XMLID_78_" class="st4" x1="309.7" y1="203.3" x2="331.5" y2="203.3"/>
	<line id="XMLID_77_" class="st4" x1="348.9" y1="192.4" x2="359.7" y2="192.4"/>
	<line id="XMLID_76_" class="st4" x1="270.6" y1="203.3" x2="297.5" y2="203.3"/>
	<line id="XMLID_75_" class="st4" x1="281.4" y1="214.1" x2="324.5" y2="214.1"/>
	<line id="XMLID_74_" class="st4" x1="335.8" y1="214.1" x2="364.9" y2="214.1"/>
	<line id="XMLID_73_" class="st4" x1="378.3" y1="214.1" x2="391.8" y2="214.1"/>
	<line id="XMLID_72_" class="st4" x1="261.9" y1="235.9" x2="283.7" y2="235.9"/>
	<line id="XMLID_71_" class="st4" x1="270.6" y1="246.7" x2="294.5" y2="246.7"/>
	<line id="XMLID_70_" class="st4" x1="305.4" y1="246.7" x2="338" y2="246.7"/>
	<line id="XMLID_69_" class="st4" x1="316.3" y1="257.6" x2="355.4" y2="257.6"/>
	<line id="XMLID_68_" class="st4" x1="348.9" y1="246.7" x2="359.7" y2="246.7"/>
	<line id="XMLID_67_" class="st4" x1="281.5" y1="257.6" x2="304.1" y2="257.6"/>
	<line id="XMLID_66_" class="st4" x1="281.4" y1="268.5" x2="324.5" y2="268.5"/>
	<line id="XMLID_65_" class="st4" x1="335.8" y1="268.5" x2="364.9" y2="268.5"/>
	<line id="XMLID_64_" class="st4" x1="378.3" y1="268.5" x2="391.8" y2="268.5"/>
	<line id="XMLID_63_" class="st4" x1="261.9" y1="290.2" x2="283.7" y2="290.2"/>
	<line id="XMLID_62_" class="st4" x1="270.6" y1="301.1" x2="305.4" y2="301.1"/>
	<line id="XMLID_61_" class="st4" x1="316.3" y1="301.1" x2="338" y2="301.1"/>
	<line id="XMLID_60_" class="st4" x1="318.4" y1="312" x2="331.5" y2="312"/>
	<line id="XMLID_59_" class="st4" x1="348.9" y1="301.1" x2="359.7" y2="301.1"/>
	<line id="XMLID_58_" class="st4" x1="270.6" y1="312" x2="306.2" y2="312"/>
	<line id="XMLID_57_" class="st4" x1="281.4" y1="322.8" x2="324.5" y2="322.8"/>
	<line id="XMLID_56_" class="st4" x1="335.8" y1="322.8" x2="373.6" y2="322.8"/>
	<line id="XMLID_55_" class="st4" x1="387" y1="322.8" x2="391.8" y2="322.8"/>
	<line id="XMLID_54_" class="st4" x1="261.9" y1="344.6" x2="283.7" y2="344.6"/>
	<line id="XMLID_53_" class="st4" x1="270.6" y1="355.4" x2="303.2" y2="355.4"/>
	<line id="XMLID_52_" class="st4" x1="314.1" y1="355.4" x2="338" y2="355.4"/>
	<line id="XMLID_51_" class="st4" x1="348.9" y1="355.4" x2="359.7" y2="355.4"/>
	<polyline id="XMLID_50_" class="st4" points="185.8,290.2 175,301.1 185.8,312 	"/>
	<polyline id="XMLID_49_" class="st4" points="220.6,312 231.5,301.1 220.6,290.2 	"/>
	<line id="XMLID_48_" class="st4" x1="196.7" y1="312" x2="209.7" y2="290.2"/>
	<path id="XMLID_47_" class="st5" d="M175,164.1c0,3.6-2.9,6.5-6.5,6.5c-3.6,0-6.5-2.9-6.5-6.5v-8.7c0-3.6,2.9-6.5,6.5-6.5
		c3.6,0,6.5,2.9,6.5,6.5V164.1z"/>
	<line id="XMLID_46_" class="st5" x1="185.8" y1="146.7" x2="185.8" y2="172.8"/>
	<path id="XMLID_45_" class="st5" d="M210.8,164.1c0,3.6-2.9,6.5-6.5,6.5c-3.6,0-6.5-2.9-6.5-6.5v-8.7c0-3.6,2.9-6.5,6.5-6.5
		c3.6,0,6.5,2.9,6.5,6.5V164.1z"/>
	<line id="XMLID_44_" class="st5" x1="196.7" y1="179.3" x2="196.7" y2="205.4"/>
	<line id="XMLID_20_" class="st5" x1="207.6" y1="179.3" x2="207.6" y2="205.4"/>
	<line id="XMLID_19_" class="st5" x1="218.4" y1="212" x2="218.4" y2="238"/>
	<path id="XMLID_18_" class="st5" d="M178.2,196.7c0,3.6-2.9,6.5-6.5,6.5c-3.6,0-6.5-2.9-6.5-6.5V188c0-3.6,2.9-6.5,6.5-6.5
		c3.6,0,6.5,2.9,6.5,6.5V196.7z"/>
	<path id="XMLID_17_" class="st5" d="M188,229.3c0,3.6-2.9,6.5-6.5,6.5c-3.6,0-6.5-2.9-6.5-6.5v-8.7c0-3.6,2.9-6.5,6.5-6.5
		c3.6,0,6.5,2.9,6.5,6.5V229.3z"/>
	<path id="XMLID_16_" class="st5" d="M209.7,229.3c0,3.6-2.9,6.5-6.5,6.5s-6.5-2.9-6.5-6.5v-8.7c0-3.6,2.9-6.5,6.5-6.5
		s6.5,2.9,6.5,6.5V229.3z"/>
	<path id="XMLID_15_" class="st5" d="M231.5,196.7c0,3.6-2.9,6.5-6.5,6.5c-3.6,0-6.5-2.9-6.5-6.5V188c0-3.6,2.9-6.5,6.5-6.5
		c3.6,0,6.5,2.9,6.5,6.5V196.7z"/>
	<line id="XMLID_14_" class="st5" x1="164.1" y1="244.6" x2="164.1" y2="270.6"/>
	<line id="XMLID_13_" class="st5" x1="196.7" y1="244.6" x2="196.7" y2="270.6"/>
	<line id="XMLID_12_" class="st5" x1="207.6" y1="244.6" x2="207.6" y2="270.6"/>
	<path id="XMLID_11_" class="st5" d="M188,262c0,3.6-2.9,6.5-6.5,6.5c-3.6,0-6.5-2.9-6.5-6.5v-8.7c0-3.6,2.9-6.5,6.5-6.5
		c3.6,0,6.5,2.9,6.5,6.5V262z"/>
	<path id="XMLID_10_" class="st5" d="M231.5,262c0,3.6-2.9,6.5-6.5,6.5c-3.6,0-6.5-2.9-6.5-6.5v-8.7c0-3.6,2.9-6.5,6.5-6.5
		c3.6,0,6.5,2.9,6.5,6.5V262z"/>
	<line id="XMLID_9_" class="st5" x1="221.7" y1="146.7" x2="221.7" y2="172.8"/>
	<path id="XMLID_8_" class="st2" d="M185.8,447.8c0-3-2.4-5.4-5.4-5.4c-3,0-5.4,2.4-5.4,5.4c0,3,2.4,5.4,5.4,5.4
		C183.4,453.3,185.8,450.8,185.8,447.8"/>
	<path id="XMLID_7_" class="st2" d="M208.6,377.7c0-6.6-5.3-11.9-11.9-11.9c-6.6,0-11.9,5.3-11.9,11.9c0,6.6,5.3,11.9,11.9,11.9
		C203.3,389.6,208.6,384.3,208.6,377.7"/>
	<path id="XMLID_6_" class="st2" d="M414.1,431.5c0-8.9-7.2-16.1-16.1-16.1c-8.9,0-16.1,7.2-16.1,16.1c0,8.9,7.2,16.1,16.1,16.1
		C406.9,447.7,414.1,440.4,414.1,431.5"/>
	<path id="XMLID_5_" class="st6" d="M446.8,353.9c0,0-14.6,16.3-32.7,16.3s-32.7-16.3-32.7-16.3s14.6-16.3,32.7-16.3
		S446.8,353.9,446.8,353.9"/>
	<path id="XMLID_4_" class="st4" d="M446.8,353.9c0,0-14.6,16.3-32.7,16.3s-32.7-16.3-32.7-16.3s14.6-16.3,32.7-16.3
		S446.8,353.9,446.8,353.9z"/>
	<path id="XMLID_3_" class="st7" d="M420.6,353.9c0,3.6-2.9,6.5-6.5,6.5c-3.6,0-6.5-2.9-6.5-6.5c0-3.6,2.9-6.5,6.5-6.5
		C417.7,347.4,420.6,350.3,420.6,353.9"/>
</g>
</svg>
