<?xml version="1.0" encoding="UTF-8" standalone="no"?>
<!-- Generator: Adobe Illustrator 19.0.0, SVG Export Plug-In . SVG Version: 6.00 Build 0)  -->

<svg
   xmlns:dc="http://purl.org/dc/elements/1.1/"
   xmlns:cc="http://creativecommons.org/ns#"
   xmlns:rdf="http://www.w3.org/1999/02/22-rdf-syntax-ns#"
   xmlns:svg="http://www.w3.org/2000/svg"
   xmlns="http://www.w3.org/2000/svg"
   xmlns:sodipodi="http://sodipodi.sourceforge.net/DTD/sodipodi-0.dtd"
   xmlns:inkscape="http://www.inkscape.org/namespaces/inkscape"
   version="1.1"
   id="Layer_1"
   x="0px"
   y="0px"
   viewBox="0 0 841.9 595.3"
   style="enable-background:new 0 0 841.9 595.3;"
   xml:space="preserve"
   inkscape:version="0.91 r13725"
   sodipodi:docname="Mobile.svg"><metadata
     id="metadata89"><rdf:RDF><cc:Work
         rdf:about=""><dc:format>image/svg+xml</dc:format><dc:type
           rdf:resource="http://purl.org/dc/dcmitype/StillImage" /></cc:Work></rdf:RDF></metadata><defs
     id="defs87" /><sodipodi:namedview
     pagecolor="#ffffff"
     bordercolor="#666666"
     borderopacity="1"
     objecttolerance="10"
     gridtolerance="10"
     guidetolerance="10"
     inkscape:pageopacity="0"
     inkscape:pageshadow="2"
     inkscape:window-width="1920"
     inkscape:window-height="1017"
     id="namedview85"
     showgrid="false"
     inkscape:zoom="0.34208337"
     inkscape:cx="57.003647"
     inkscape:cy="297.64999"
     inkscape:window-x="-8"
     inkscape:window-y="-8"
     inkscape:window-maximized="1"
     inkscape:current-layer="Layer_1" /><style
     type="text/css"
     id="style3">
	.st0{fill:#F6F6F6;}
	.st1{clip-path:url(#SVGID_2_);fill:#E4E4E6;}
	.st2{clip-path:url(#SVGID_2_);fill:#C4C3C3;}
	.st3{clip-path:url(#SVGID_2_);fill:none;stroke:#010101;stroke-width:2;stroke-miterlimit:10;}
	.st4{clip-path:url(#SVGID_2_);fill:#FFFFFF;}
	.st5{clip-path:url(#SVGID_2_);fill:#F5EA14;}
</style><rect
     class="st0"
     width="841.9"
     height="595.3"
     id="rect5" /><g
     id="g4299"
     transform="translate(-355.69997,0)"><g
       id="g4219"><defs
         id="defs4221"><rect
           id="rect4223"
           x="444.60001"
           y="119.3"
           width="308.29999"
           height="354.20001" /></defs><clipPath
         id="clipPath4225"><rect
           height="354.20001"
           width="308.29999"
           y="119.3"
           x="444.60001"
           id="use4227" /></clipPath><path
         class="st1"
         d="m 687.3,131.9 c 0,-7 -5.7,-12.7 -12.6,-12.7 l -151.8,0 c -7,0 -12.7,5.7 -12.7,12.7 l 0,303.6 177.1,0 0,-303.6 z"
         id="path4229"
         clip-path="url(#SVGID_2_)"
         inkscape:connector-curvature="0"
         style="fill:#e4e4e6" /><path
         class="st2"
         d="m 510.2,435.5 0,25.3 c 0,7 5.7,12.6 12.6,12.6 l 151.8,0 c 7,0 12.7,-5.7 12.7,-12.6 l 0,-25.3 -177.1,0 z"
         id="path4231"
         clip-path="url(#SVGID_2_)"
         inkscape:connector-curvature="0"
         style="fill:#c4c3c3" /><polygon
         class="st3"
         points="447,245.8 447,144.6 649.4,144.6 649.4,220.5 472.3,220.5 "
         id="polygon4233"
         clip-path="url(#SVGID_2_)"
         style="fill:none;stroke:#010101;stroke-width:2;stroke-miterlimit:10" /><line
         class="st3"
         x1="472.29999"
         y1="169.89999"
         x2="573.5"
         y2="169.89999"
         id="line4235"
         clip-path="url(#SVGID_2_)"
         style="fill:none;stroke:#010101;stroke-width:2;stroke-miterlimit:10" /><line
         class="st3"
         x1="472.29999"
         y1="182.5"
         x2="573.5"
         y2="182.5"
         id="line4237"
         clip-path="url(#SVGID_2_)"
         style="fill:none;stroke:#010101;stroke-width:2;stroke-miterlimit:10" /><line
         class="st3"
         x1="472.29999"
         y1="195.2"
         x2="573.5"
         y2="195.2"
         id="line4239"
         clip-path="url(#SVGID_2_)"
         style="fill:none;stroke:#010101;stroke-width:2;stroke-miterlimit:10" /><rect
         x="548.20001"
         y="245.8"
         class="st4"
         width="101.2"
         height="101.2"
         id="rect4241"
         clip-path="url(#SVGID_2_)"
         style="fill:#ffffff" /><path
         class="st5"
         d="m 624.1,296.4 c 0,14 -11.3,25.3 -25.3,25.3 -14,0 -25.3,-11.3 -25.3,-25.3 0,-14 11.3,-25.3 25.3,-25.3 14,0 25.3,11.3 25.3,25.3"
         id="path4243"
         clip-path="url(#SVGID_2_)"
         inkscape:connector-curvature="0"
         style="fill:#f5ea14" /><polyline
         class="st3"
         points="560.8,271.1 560.8,258.4 573.5,258.4  "
         id="polyline4245"
         clip-path="url(#SVGID_2_)"
         style="fill:none;stroke:#010101;stroke-width:2;stroke-miterlimit:10" /><polyline
         class="st3"
         points="636.7,321.7 636.7,334.3 624.1,334.3  "
         id="polyline4247"
         clip-path="url(#SVGID_2_)"
         style="fill:none;stroke:#010101;stroke-width:2;stroke-miterlimit:10" /><polyline
         class="st3"
         points="573.5,334.3 560.8,334.3 560.8,321.7  "
         id="polyline4249"
         clip-path="url(#SVGID_2_)"
         style="fill:none;stroke:#010101;stroke-width:2;stroke-miterlimit:10" /><polyline
         class="st3"
         points="624.1,258.4 636.7,258.4 636.7,271.1  "
         id="polyline4251"
         clip-path="url(#SVGID_2_)"
         style="fill:none;stroke:#010101;stroke-width:2;stroke-miterlimit:10" /><rect
         x="529.20001"
         y="384.89999"
         class="st3"
         width="25.299999"
         height="25.299999"
         id="rect4253"
         clip-path="url(#SVGID_2_)"
         style="fill:none;stroke:#010101;stroke-width:2;stroke-miterlimit:10" /><rect
         x="567.09998"
         y="384.89999"
         class="st3"
         width="25.299999"
         height="25.299999"
         id="rect4255"
         clip-path="url(#SVGID_2_)"
         style="fill:none;stroke:#010101;stroke-width:2;stroke-miterlimit:10" /><rect
         x="604.90002"
         y="384.79999"
         class="st3"
         width="25.299999"
         height="25.299999"
         id="rect4257"
         clip-path="url(#SVGID_2_)"
         style="fill:none;stroke:#010101;stroke-width:2;stroke-miterlimit:10" /><rect
         x="643"
         y="384.79999"
         class="st3"
         width="25.299999"
         height="25.299999"
         id="rect4259"
         clip-path="url(#SVGID_2_)"
         style="fill:none;stroke:#010101;stroke-width:2;stroke-miterlimit:10" /><polyline
         class="st3"
         points="560.8,364.7 725.3,364.7 725.3,397.6  "
         id="polyline4261"
         clip-path="url(#SVGID_2_)"
         style="fill:none;stroke:#010101;stroke-width:2;stroke-miterlimit:10" /><circle
         class="st3"
         cx="725.29999"
         cy="422.89999"
         r="25.299999"
         id="circle4263"
         clip-path="url(#SVGID_2_)"
         style="fill:none;stroke:#010101;stroke-width:2;stroke-miterlimit:10" /><path
         class="st5"
         d="m 737.9,422.9 c 0,-7 -5.7,-12.7 -12.6,-12.7 -7,0 -12.7,5.7 -12.7,12.7 0,7 5.7,12.6 12.7,12.6 7,0 12.6,-5.6 12.6,-12.6"
         id="path4265"
         clip-path="url(#SVGID_2_)"
         inkscape:connector-curvature="0"
         style="fill:#f5ea14" /><line
         class="st3"
         x1="750.59998"
         y1="245.8"
         x2="668.29999"
         y2="245.8"
         id="line4267"
         clip-path="url(#SVGID_2_)"
         style="fill:none;stroke:#010101;stroke-width:2;stroke-miterlimit:10" /><line
         class="st3"
         x1="725.29999"
         y1="258.39999"
         x2="668.29999"
         y2="258.39999"
         id="line4269"
         clip-path="url(#SVGID_2_)"
         style="fill:none;stroke:#010101;stroke-width:2;stroke-miterlimit:10" /><line
         class="st3"
         x1="750.59998"
         y1="271.10001"
         x2="668.29999"
         y2="271.10001"
         id="line4271"
         clip-path="url(#SVGID_2_)"
         style="fill:none;stroke:#010101;stroke-width:2;stroke-miterlimit:10" /><line
         class="st3"
         x1="750.59998"
         y1="283.70001"
         x2="668.29999"
         y2="283.70001"
         id="line4273"
         clip-path="url(#SVGID_2_)"
         style="fill:none;stroke:#010101;stroke-width:2;stroke-miterlimit:10" /><line
         class="st3"
         x1="750.59998"
         y1="296.39999"
         x2="668.29999"
         y2="296.39999"
         id="line4275"
         clip-path="url(#SVGID_2_)"
         style="fill:none;stroke:#010101;stroke-width:2;stroke-miterlimit:10" /><line
         class="st3"
         x1="702.5"
         y1="309"
         x2="668.29999"
         y2="309"
         id="line4277"
         clip-path="url(#SVGID_2_)"
         style="fill:none;stroke:#010101;stroke-width:2;stroke-miterlimit:10" /><path
         class="st5"
         d="m 484.9,440.6 c 0,-2.8 -2.3,-5.1 -5.1,-5.1 l -27.8,0 c -2.8,0 -5.1,2.3 -5.1,5.1 l 0,27.8 c 0,2.8 2.3,5.1 5.1,5.1 l 27.8,0 c 2.8,0 5.1,-2.3 5.1,-5.1 l 0,-27.8 z"
         id="path4279"
         clip-path="url(#SVGID_2_)"
         inkscape:connector-curvature="0"
         style="fill:#f5ea14" /><path
         class="st5"
         d="m 490,390 c 0,-2.8 -2.3,-5.1 -5.1,-5.1 l -27.8,0 c -2.8,0 -5.1,2.3 -5.1,5.1 l 0,27.8 c 0,2.8 2.3,5.1 5.1,5.1 l 27.8,0 c 2.8,0 5.1,-2.3 5.1,-5.1 l 0,-27.8 z"
         id="path4281"
         clip-path="url(#SVGID_2_)"
         inkscape:connector-curvature="0"
         style="fill:#f5ea14" /><path
         class="st2"
         d="m 495,339.4 c 0,-2.8 -2.3,-5.1 -5.1,-5.1 l -27.8,0 c -2.8,0 -5.1,2.3 -5.1,5.1 l 0,27.8 c 0,2.8 2.3,5.1 5.1,5.1 l 27.9,0 c 2.8,0 5.1,-2.3 5.1,-5.1 l 0,-27.8 z"
         id="path4283"
         clip-path="url(#SVGID_2_)"
         inkscape:connector-curvature="0"
         style="fill:#c4c3c3" /><path
         class="st1"
         d="m 500.1,288.8 c 0,-2.8 -2.3,-5.1 -5.1,-5.1 l -27.8,0 c -2.8,0 -5.1,2.3 -5.1,5.1 l 0,27.8 c 0,2.8 2.3,5.1 5.1,5.1 l 27.8,0 c 2.8,0 5.1,-2.3 5.1,-5.1 l 0,-27.8 z"
         id="path4285"
         clip-path="url(#SVGID_2_)"
         inkscape:connector-curvature="0"
         style="fill:#e4e4e6" /><line
         class="st3"
         x1="472.29999"
         y1="296.39999"
         x2="522.90002"
         y2="296.39999"
         id="line4287"
         clip-path="url(#SVGID_2_)"
         style="fill:none;stroke:#010101;stroke-width:2;stroke-miterlimit:10" /><line
         class="st3"
         x1="472.29999"
         y1="345.39999"
         x2="522.90002"
         y2="345.39999"
         id="line4289"
         clip-path="url(#SVGID_2_)"
         style="fill:none;stroke:#010101;stroke-width:2;stroke-miterlimit:10" /><line
         class="st3"
         x1="472.29999"
         y1="397.60001"
         x2="522.90002"
         y2="397.60001"
         id="line4291"
         clip-path="url(#SVGID_2_)"
         style="fill:none;stroke:#010101;stroke-width:2;stroke-miterlimit:10" /><line
         class="st3"
         x1="472.29999"
         y1="448.20001"
         x2="522.90002"
         y2="448.20001"
         id="line4293"
         clip-path="url(#SVGID_2_)"
         style="fill:none;stroke:#010101;stroke-width:2;stroke-miterlimit:10" /><path
         class="st5"
         d="m 700,169.9 c 0,14 11.3,25.3 25.3,25.3 14,0 25.3,-11.3 25.3,-25.3 0,-14 -11.3,-25.3 -25.3,-25.3 -14,0 -25.3,11.3 -25.3,25.3"
         id="path4295"
         clip-path="url(#SVGID_2_)"
         inkscape:connector-curvature="0"
         style="fill:#f5ea14" /><path
         class="st5"
         d="m 484.9,252.1 c 0,3.5 -2.8,6.3 -6.3,6.3 -3.5,0 -6.3,-2.8 -6.3,-6.3 0,-3.5 2.8,-6.3 6.3,-6.3 3.5,0 6.3,2.8 6.3,6.3"
         id="path4297"
         clip-path="url(#SVGID_2_)"
         inkscape:connector-curvature="0"
         style="fill:#f5ea14" /></g></g></svg>