<?xml version="1.0" encoding="utf-8"?>
<!-- Generator: Adobe Illustrator 19.0.0, SVG Export Plug-In . SVG Version: 6.00 Build 0)  -->
<svg version="1.1" id="Layer_1" xmlns="http://www.w3.org/2000/svg" xmlns:xlink="http://www.w3.org/1999/xlink" x="0px" y="0px"
	 viewBox="0 0 400 400" style="enable-background:new 0 0 400 400;" xml:space="preserve">
<style type="text/css">
	.st0{fill:#F6EB16;}
	.st1{fill:#C4C4C4;}
	.st2{fill:#E5E6E7;}
	.st3{fill:none;stroke:#000000;stroke-miterlimit:10;}
	.st4{fill:#D8C803;}
</style>
<g>
	<g>
		<g>
			<rect id="XMLID_45_" x="48" y="20.6" class="st0" width="304" height="40.3"/>
		</g>
	</g>
	<g>
		<g>
			<polygon id="XMLID_44_" class="st1" points="353.3,352.3 295.8,352.3 295.8,349.8 350.8,349.8 350.8,21.9 49.2,21.9 49.2,349.8 
				249,349.8 249,352.3 46.7,352.3 46.7,19.4 353.3,19.4 			"/>
		</g>
	</g>
	<g>
		<g>
			<rect id="XMLID_43_" x="48" y="59.9" class="st1" width="304" height="2.5"/>
		</g>
	</g>
	<g>
		<g>
			<rect id="XMLID_42_" x="136" y="20.6" class="st1" width="2.5" height="40.3"/>
		</g>
	</g>
	<g>
		<g>
			<rect id="XMLID_41_" x="148.6" y="40.3" class="st1" width="179.9" height="2.5"/>
		</g>
	</g>
	<g>
		<g>
			<rect id="XMLID_40_" x="148.6" y="40.3" width="37.7" height="2.5"/>
		</g>
	</g>
	<g>
		<g>
			<g>
				<rect id="XMLID_39_" x="62.5" y="40.3" width="12.5" height="2.5"/>
			</g>
		</g>
		<g>
			<g>
				<rect id="XMLID_38_" x="84" y="40.3" width="12.5" height="2.5"/>
			</g>
		</g>
		<g>
			<g>
				<rect id="XMLID_37_" x="105.6" y="40.3" width="12.5" height="2.5"/>
			</g>
		</g>
	</g>
	<g>
		<g>
			<rect id="XMLID_36_" x="48" y="315.8" class="st1" width="201.1" height="2.5"/>
		</g>
	</g>
	<g>
		<g>
			<rect id="XMLID_35_" x="295.7" y="315.8" class="st1" width="57.2" height="2.5"/>
		</g>
	</g>
	<g>
		<g>
			<rect id="XMLID_34_" x="62.1" y="75.6" class="st1" width="275.2" height="224.7"/>
		</g>
	</g>
	<g>
		<g>
			<path d="M338.6,301.6H60.8V74.4h277.8V301.6z M63.3,299.1H336V76.9H63.3V299.1z"/>
		</g>
	</g>
	<g>
		<g>
			<rect id="XMLID_31_" x="81.5" y="99.2" class="st2" width="63.3" height="50.7"/>
		</g>
	</g>
	<g>
		<g>
			<rect id="XMLID_30_" x="171.2" y="99.2" class="st2" width="63.3" height="50.7"/>
		</g>
	</g>
	<g>
		<g>
			<rect id="XMLID_29_" x="261" y="99.2" class="st2" width="63.3" height="50.7"/>
		</g>
	</g>
	<g>
		<g>
			<g>
				<rect id="XMLID_28_" x="81.5" y="161.2" class="st2" width="63" height="2.5"/>
			</g>
		</g>
		<g>
			<g>
				<rect id="XMLID_27_" x="81.5" y="173.9" class="st2" width="63" height="2.5"/>
			</g>
		</g>
		<g>
			<g>
				<rect id="XMLID_26_" x="81.5" y="186.6" class="st2" width="63" height="2.5"/>
			</g>
		</g>
		<g>
			<g>
				<rect id="XMLID_25_" x="81.5" y="199.2" class="st2" width="31.5" height="2.5"/>
			</g>
		</g>
	</g>
	<g>
		<g>
			<g>
				<rect id="XMLID_24_" x="171.4" y="161.2" class="st2" width="63" height="2.5"/>
			</g>
		</g>
		<g>
			<g>
				<rect id="XMLID_23_" x="171.4" y="173.9" class="st2" width="63" height="2.5"/>
			</g>
		</g>
		<g>
			<g>
				<rect id="XMLID_22_" x="171.4" y="186.6" class="st2" width="63" height="2.5"/>
			</g>
		</g>
		<g>
			<g>
				<rect id="XMLID_21_" x="171.4" y="199.2" class="st2" width="31.5" height="2.5"/>
			</g>
		</g>
	</g>
	<g>
		<g>
			<g>
				<rect id="XMLID_20_" x="261.2" y="161.2" class="st2" width="63" height="2.5"/>
			</g>
		</g>
		<g>
			<g>
				<rect id="XMLID_19_" x="261.2" y="173.9" class="st2" width="63" height="2.5"/>
			</g>
		</g>
		<g>
			<g>
				<rect id="XMLID_18_" x="261.2" y="186.6" class="st2" width="63" height="2.5"/>
			</g>
		</g>
		<g>
			<g>
				<rect id="XMLID_17_" x="261.2" y="199.2" class="st2" width="31.5" height="2.5"/>
			</g>
		</g>
	</g>
	<g>
		<g>
			<g>
				<rect id="XMLID_16_" x="81.5" y="241" class="st2" width="167.6" height="2.5"/>
			</g>
		</g>
		<g>
			<g>
				<rect id="XMLID_15_" x="81.5" y="253.7" class="st2" width="167.6" height="2.5"/>
			</g>
		</g>
		<g>
			<g>
				<rect id="XMLID_14_" x="81.5" y="266.4" class="st2" width="167.6" height="2.5"/>
			</g>
		</g>
		<g>
			<g>
				<rect id="XMLID_13_" x="81.5" y="279.1" class="st2" width="83.6" height="2.5"/>
			</g>
		</g>
	</g>
	<g>
		<g>
			<g>
				<rect id="XMLID_12_" x="82.8" y="227.1" width="12.5" height="2.5"/>
			</g>
		</g>
		<g>
			<g>
				<rect id="XMLID_11_" x="104.3" y="227.1" width="12.5" height="2.5"/>
			</g>
		</g>
		<g>
			<g>
				<path id="XMLID_10_" class="st3" d="M138.4,228.4"/>
			</g>
		</g>
		<g>
			<g>
				<path id="XMLID_9_" class="st3" d="M125.8,228.4"/>
			</g>
		</g>
	</g>
	<g>
		<g>
			<g>
				<rect id="XMLID_8_" x="82.8" y="217" width="55.6" height="2.5"/>
			</g>
		</g>
	</g>
	<g>
		<g>
			<g>
				<path class="st0" d="M287.6,379.4h-30.4V260.3h30.4V379.4z"/>
			</g>
		</g>
	</g>
	<g>
		<g>
			<g>
				<path d="M288.9,380.6h-32.9V259h32.9V380.6z M258.5,378.1h27.9V261.6h-27.9V378.1z"/>
			</g>
		</g>
	</g>
	<g>
		<g>
			<path d="M272.4,246.5c-32.3,0-58.6-26.3-58.6-58.6s26.3-58.6,58.6-58.6s58.6,26.3,58.6,58.6S304.7,246.5,272.4,246.5z M272.4,132
				c-30.9,0-56,25.1-56,56c0,30.9,25.1,56,56,56s56-25.1,56-56C328.4,157.1,303.3,132,272.4,132z"/>
		</g>
	</g>
	<g>
		<g>
			<g>
				<circle id="XMLID_2_" class="st0" cx="272.4" cy="188" r="46"/>
			</g>
		</g>
		<g>
			<g>
				<path id="XMLID_1_" class="st4" d="M306.1,156.7c17.3,18.6,16.3,47.7-2.3,65c-18.6,17.3-47.7,16.3-65-2.3"/>
			</g>
		</g>
	</g>
</g>
</svg>
