<?xml version="1.0" encoding="UTF-8" standalone="no"?>
<!-- Generator: Adobe Illustrator 19.0.0, SVG Export Plug-In . SVG Version: 6.00 Build 0)  -->

<svg
   xmlns:dc="http://purl.org/dc/elements/1.1/"
   xmlns:cc="http://creativecommons.org/ns#"
   xmlns:rdf="http://www.w3.org/1999/02/22-rdf-syntax-ns#"
   xmlns:svg="http://www.w3.org/2000/svg"
   xmlns="http://www.w3.org/2000/svg"
   xmlns:sodipodi="http://sodipodi.sourceforge.net/DTD/sodipodi-0.dtd"
   xmlns:inkscape="http://www.inkscape.org/namespaces/inkscape"
   version="1.1"
   id="Layer_1"
   x="0px"
   y="0px"
   viewBox="0 0 841.9 595.3"
   style="enable-background:new 0 0 841.9 595.3;"
   xml:space="preserve"
   inkscape:version="0.91 r13725"
   sodipodi:docname="Web.svg"><metadata
     id="metadata149"><rdf:RDF><cc:Work
         rdf:about=""><dc:format>image/svg+xml</dc:format><dc:type
           rdf:resource="http://purl.org/dc/dcmitype/StillImage" /></cc:Work></rdf:RDF></metadata><defs
     id="defs147" /><sodipodi:namedview
     pagecolor="#ffffff"
     bordercolor="#666666"
     borderopacity="1"
     objecttolerance="10"
     gridtolerance="10"
     guidetolerance="10"
     inkscape:pageopacity="0"
     inkscape:pageshadow="2"
     inkscape:window-width="1920"
     inkscape:window-height="1017"
     id="namedview145"
     showgrid="false"
     inkscape:zoom="0.68416675"
     inkscape:cx="362.48413"
     inkscape:cy="265.06812"
     inkscape:window-x="-8"
     inkscape:window-y="-8"
     inkscape:window-maximized="1"
     inkscape:current-layer="Layer_1" /><style
     type="text/css"
     id="style3">
	.st0{fill:#F6F6F6;}
	.st1{clip-path:url(#SVGID_2_);fill:#E4E4E6;}
	.st2{clip-path:url(#SVGID_2_);fill:#F5EA14;}
	.st3{clip-path:url(#SVGID_2_);fill:none;stroke:#010101;stroke-width:2;stroke-miterlimit:10;}
	.st4{clip-path:url(#SVGID_2_);fill:#C4C3C3;}
	.st5{clip-path:url(#SVGID_2_);fill:#FFFFFF;}
	.st6{clip-path:url(#SVGID_2_);fill:none;stroke:#C4C3C3;stroke-width:2;stroke-miterlimit:10;}
	.st7{clip-path:url(#SVGID_2_);fill:#010101;}
</style><rect
     class="st0"
     width="841.9"
     height="595.3"
     id="rect5" /><g
     id="g4419"
     transform="translate(373.00001,0)"><g
       id="g4279"><defs
         id="defs4281"><rect
           id="rect4283"
           x="85.300003"
           y="117.7"
           width="299.5"
           height="351.39999" /></defs><clipPath
         id="clipPath4285"><rect
           height="351.39999"
           width="299.5"
           y="117.7"
           x="85.300003"
           id="use4287" /></clipPath><path
         class="st1"
         d="m 327.1,191.1 c 0,-15.5 -12.5,-28 -28,-28 -15.5,0 -28,12.5 -28,28 0,15.5 12.5,28 28,28 15.5,0 28,-12.6 28,-28"
         id="path4289"
         clip-path="url(#SVGID_2_)"
         inkscape:connector-curvature="0"
         style="fill:#e4e4e6" /><rect
         x="85.300003"
         y="132.39999"
         class="st2"
         width="37.200001"
         height="37.200001"
         id="rect4291"
         clip-path="url(#SVGID_2_)"
         style="fill:#f5ea14" /><line
         class="st3"
         x1="91.300003"
         y1="163.5"
         x2="116.5"
         y2="138.39999"
         id="line4293"
         clip-path="url(#SVGID_2_)"
         style="fill:none;stroke:#010101;stroke-width:2;stroke-miterlimit:10" /><line
         class="st3"
         x1="91.300003"
         y1="138.39999"
         x2="116.5"
         y2="163.5"
         id="line4295"
         clip-path="url(#SVGID_2_)"
         style="fill:none;stroke:#010101;stroke-width:2;stroke-miterlimit:10" /><rect
         x="134.8"
         y="132.39999"
         class="st4"
         width="37.200001"
         height="37.200001"
         id="rect4297"
         clip-path="url(#SVGID_2_)"
         style="fill:#c4c3c3" /><line
         class="st3"
         x1="140.8"
         y1="163.5"
         x2="166"
         y2="138.39999"
         id="line4299"
         clip-path="url(#SVGID_2_)"
         style="fill:none;stroke:#010101;stroke-width:2;stroke-miterlimit:10" /><line
         class="st3"
         x1="140.8"
         y1="138.39999"
         x2="166"
         y2="163.5"
         id="line4301"
         clip-path="url(#SVGID_2_)"
         style="fill:none;stroke:#010101;stroke-width:2;stroke-miterlimit:10" /><rect
         x="184.39999"
         y="132.39999"
         class="st1"
         width="37.200001"
         height="37.200001"
         id="rect4303"
         clip-path="url(#SVGID_2_)"
         style="fill:#e4e4e6" /><line
         class="st3"
         x1="190.39999"
         y1="163.5"
         x2="215.60001"
         y2="138.39999"
         id="line4305"
         clip-path="url(#SVGID_2_)"
         style="fill:none;stroke:#010101;stroke-width:2;stroke-miterlimit:10" /><line
         class="st3"
         x1="190.39999"
         y1="138.39999"
         x2="215.60001"
         y2="163.5"
         id="line4307"
         clip-path="url(#SVGID_2_)"
         style="fill:none;stroke:#010101;stroke-width:2;stroke-miterlimit:10" /><path
         class="st4"
         d="m 97.7,397.4 0,-135.4 c 0,-7.3 5.9,-13.2 13.2,-13.2 l 246.1,0 c 7.3,0 13.2,5.9 13.2,13.2 l 0,135.4"
         id="path4309"
         clip-path="url(#SVGID_2_)"
         inkscape:connector-curvature="0"
         style="fill:#c4c3c3" /><path
         class="st1"
         d="m 233.9,397.4 148.6,0 0,7.4 c 0,0 -24.8,12.4 -37.2,12.4 l -111.4,0 -111.4,0 c -12.4,0 -37.2,-12.4 -37.2,-12.4 l 0,-7.4 148.6,0 z"
         id="path4311"
         clip-path="url(#SVGID_2_)"
         inkscape:connector-curvature="0"
         style="fill:#e4e4e6" /><rect
         x="108.4"
         y="260.39999"
         class="st5"
         width="250.2"
         height="126.3"
         id="rect4313"
         clip-path="url(#SVGID_2_)"
         style="fill:#ffffff" /><path
         class="st3"
         d="m 239.6,225.1 c 0,30.5 -24.7,55.2 -55.2,55.2 -30.5,0 -55.2,-24.7 -55.2,-55.2 0,-30.5 24.7,-55.2 55.2,-55.2 30.5,0 55.2,24.7 55.2,55.2 z"
         id="path4315"
         clip-path="url(#SVGID_2_)"
         inkscape:connector-curvature="0"
         style="fill:none;stroke:#010101;stroke-width:2;stroke-miterlimit:10" /><path
         class="st3"
         d="m 145.2,186.6 c 21.7,21.7 56.7,21.7 78.4,0"
         id="path4317"
         clip-path="url(#SVGID_2_)"
         inkscape:connector-curvature="0"
         style="fill:none;stroke:#010101;stroke-width:2;stroke-miterlimit:10" /><path
         class="st3"
         d="M 223.6,263.7 C 201.9,242 166.9,242 145.2,263.7"
         id="path4319"
         clip-path="url(#SVGID_2_)"
         inkscape:connector-curvature="0"
         style="fill:none;stroke:#010101;stroke-width:2;stroke-miterlimit:10" /><path
         class="st3"
         d="m 184.4,169.5 c 37,32.6 38.4,77.9 0,111.4"
         id="path4321"
         clip-path="url(#SVGID_2_)"
         inkscape:connector-curvature="0"
         style="fill:none;stroke:#010101;stroke-width:2;stroke-miterlimit:10" /><path
         class="st3"
         d="m 183.7,281 c -37,-32.6 -38.4,-77.9 0,-111.4"
         id="path4323"
         clip-path="url(#SVGID_2_)"
         inkscape:connector-curvature="0"
         style="fill:none;stroke:#010101;stroke-width:2;stroke-miterlimit:10" /><line
         class="st3"
         x1="128.60001"
         y1="225.10001"
         x2="240.10001"
         y2="225.10001"
         id="line4325"
         clip-path="url(#SVGID_2_)"
         style="fill:none;stroke:#010101;stroke-width:2;stroke-miterlimit:10" /><line
         class="st3"
         x1="184.39999"
         y1="169.89999"
         x2="184.39999"
         y2="281"
         id="line4327"
         clip-path="url(#SVGID_2_)"
         style="fill:none;stroke:#010101;stroke-width:2;stroke-miterlimit:10" /><line
         class="st6"
         x1="258.70001"
         y1="120"
         x2="295.89999"
         y2="120"
         id="line4329"
         clip-path="url(#SVGID_2_)"
         style="fill:none;stroke:#000000;stroke-width:2;stroke-miterlimit:10;stroke-opacity:1" /><line
         class="st6"
         x1="258.70001"
         y1="132.39999"
         x2="345.39999"
         y2="132.39999"
         id="line4331"
         clip-path="url(#SVGID_2_)"
         style="fill:none;stroke:#000000;stroke-width:2;stroke-miterlimit:10;stroke-opacity:1" /><line
         class="st6"
         x1="258.70001"
         y1="144.8"
         x2="357.79999"
         y2="144.8"
         id="line4333"
         clip-path="url(#SVGID_2_)"
         style="fill:none;stroke:#000000;stroke-width:2;stroke-miterlimit:10;stroke-opacity:1" /><line
         class="st6"
         x1="258.70001"
         y1="157.10001"
         x2="333"
         y2="157.10001"
         id="line4335"
         clip-path="url(#SVGID_2_)"
         style="fill:none;stroke:#000000;stroke-width:2;stroke-miterlimit:10;stroke-opacity:1" /><line
         class="st6"
         x1="258.70001"
         y1="169.5"
         x2="357.79999"
         y2="169.5"
         id="line4337"
         clip-path="url(#SVGID_2_)"
         style="fill:none;stroke:#000000;stroke-width:2;stroke-miterlimit:10;stroke-opacity:1" /><line
         class="st6"
         x1="258.70001"
         y1="181.89999"
         x2="283.5"
         y2="181.89999"
         id="line4339"
         clip-path="url(#SVGID_2_)"
         style="fill:none;stroke:#000000;stroke-width:2;stroke-miterlimit:10;stroke-opacity:1" /><line
         class="st6"
         x1="119.6"
         y1="293.39999"
         x2="156.7"
         y2="293.39999"
         id="line4341"
         clip-path="url(#SVGID_2_)"
         style="fill:none;stroke:#c4c3c3;stroke-width:2;stroke-miterlimit:10" /><line
         class="st6"
         x1="119.6"
         y1="293.39999"
         x2="206.3"
         y2="293.39999"
         id="line4343"
         clip-path="url(#SVGID_2_)"
         style="fill:none;stroke:#c4c3c3;stroke-width:2;stroke-miterlimit:10" /><line
         class="st6"
         x1="134.39999"
         y1="305.79999"
         x2="218.60001"
         y2="305.79999"
         id="line4345"
         clip-path="url(#SVGID_2_)"
         style="fill:none;stroke:#c4c3c3;stroke-width:2;stroke-miterlimit:10" /><line
         class="st6"
         x1="119.6"
         y1="318.20001"
         x2="193.89999"
         y2="318.20001"
         id="line4347"
         clip-path="url(#SVGID_2_)"
         style="fill:none;stroke:#c4c3c3;stroke-width:2;stroke-miterlimit:10" /><line
         class="st6"
         x1="134.39999"
         y1="330.5"
         x2="218.60001"
         y2="330.5"
         id="line4349"
         clip-path="url(#SVGID_2_)"
         style="fill:none;stroke:#c4c3c3;stroke-width:2;stroke-miterlimit:10" /><line
         class="st6"
         x1="119.6"
         y1="342.89999"
         x2="144.3"
         y2="342.89999"
         id="line4351"
         clip-path="url(#SVGID_2_)"
         style="fill:none;stroke:#c4c3c3;stroke-width:2;stroke-miterlimit:10" /><line
         class="st6"
         x1="134.39999"
         y1="355.29999"
         x2="218.60001"
         y2="355.29999"
         id="line4353"
         clip-path="url(#SVGID_2_)"
         style="fill:none;stroke:#c4c3c3;stroke-width:2;stroke-miterlimit:10" /><line
         class="st6"
         x1="119.6"
         y1="367.70001"
         x2="144.3"
         y2="367.70001"
         id="line4355"
         clip-path="url(#SVGID_2_)"
         style="fill:none;stroke:#c4c3c3;stroke-width:2;stroke-miterlimit:10" /><rect
         x="243.8"
         y="263.70001"
         class="st2"
         width="109"
         height="9.8999996"
         id="rect4357"
         clip-path="url(#SVGID_2_)"
         style="fill:#f5ea14" /><line
         class="st3"
         x1="338.60001"
         y1="268.60001"
         x2="347.60001"
         y2="268.60001"
         id="line4359"
         clip-path="url(#SVGID_2_)"
         style="fill:none;stroke:#010101;stroke-width:2;stroke-miterlimit:10" /><rect
         x="258.70001"
         y="283.5"
         class="st3"
         width="80"
         height="14.9"
         id="rect4361"
         clip-path="url(#SVGID_2_)"
         style="fill:none;stroke:#010101;stroke-width:2;stroke-miterlimit:10" /><path
         class="st2"
         d="m 265.2,316.6 c 0,2.2 -1.8,4 -4,4 -2.2,0 -4,-1.8 -4,-4 0,-2.2 1.8,-4 4,-4 2.2,0 4,1.8 4,4"
         id="path4363"
         clip-path="url(#SVGID_2_)"
         inkscape:connector-curvature="0"
         style="fill:#f5ea14" /><path
         class="st4"
         d="m 289.9,316.5 c 0,2.2 -1.8,4 -4,4 -2.2,0 -4,-1.8 -4,-4 0,-2.2 1.8,-4 4,-4 2.2,0 4,1.8 4,4"
         id="path4365"
         clip-path="url(#SVGID_2_)"
         inkscape:connector-curvature="0"
         style="fill:#c4c3c3" /><path
         class="st1"
         d="m 314.7,316.6 c 0,2.2 -1.8,4 -4,4 -2.2,0 -4,-1.8 -4,-4 0,-2.2 1.8,-4 4,-4 2.2,0 4,1.8 4,4"
         id="path4367"
         clip-path="url(#SVGID_2_)"
         inkscape:connector-curvature="0"
         style="fill:#e4e4e6" /><path
         class="st4"
         d="m 339.5,316.6 c 0,2.2 -1.8,4 -4,4 -2.2,0 -4,-1.8 -4,-4 0,-2.2 1.8,-4 4,-4 2.2,0 4,1.8 4,4"
         id="path4369"
         clip-path="url(#SVGID_2_)"
         inkscape:connector-curvature="0"
         style="fill:#c4c3c3" /><line
         class="st3"
         x1="233.89999"
         y1="267"
         x2="233.89999"
         y2="380.10001"
         id="line4371"
         clip-path="url(#SVGID_2_)"
         style="fill:none;stroke:#010101;stroke-width:2;stroke-miterlimit:10" /><line
         class="st3"
         x1="255"
         y1="328.10001"
         x2="267.39999"
         y2="328.10001"
         id="line4373"
         clip-path="url(#SVGID_2_)"
         style="fill:none;stroke:#010101;stroke-width:2;stroke-miterlimit:10" /><line
         class="st3"
         x1="255"
         y1="367.70001"
         x2="341.89999"
         y2="367.70001"
         id="line4375"
         clip-path="url(#SVGID_2_)"
         style="fill:none;stroke:#010101;stroke-width:2;stroke-miterlimit:10" /><line
         class="st3"
         x1="255"
         y1="377.60001"
         x2="283.5"
         y2="377.60001"
         id="line4377"
         clip-path="url(#SVGID_2_)"
         style="fill:none;stroke:#010101;stroke-width:2;stroke-miterlimit:10" /><line
         class="st3"
         x1="279.70001"
         y1="328.10001"
         x2="292.10001"
         y2="328.10001"
         id="line4379"
         clip-path="url(#SVGID_2_)"
         style="fill:none;stroke:#010101;stroke-width:2;stroke-miterlimit:10" /><line
         class="st3"
         x1="304.79999"
         y1="327.89999"
         x2="317.20001"
         y2="327.89999"
         id="line4381"
         clip-path="url(#SVGID_2_)"
         style="fill:none;stroke:#010101;stroke-width:2;stroke-miterlimit:10" /><line
         class="st3"
         x1="329.60001"
         y1="327.89999"
         x2="341.89999"
         y2="327.89999"
         id="line4383"
         clip-path="url(#SVGID_2_)"
         style="fill:none;stroke:#010101;stroke-width:2;stroke-miterlimit:10" /><rect
         x="255"
         y="342.89999"
         class="st1"
         width="37.099998"
         height="12.4"
         id="rect4385"
         clip-path="url(#SVGID_2_)"
         style="fill:#e4e4e6" /><rect
         x="304.79999"
         y="342.89999"
         class="st1"
         width="37.099998"
         height="12.4"
         id="rect4387"
         clip-path="url(#SVGID_2_)"
         style="fill:#e4e4e6" /><rect
         x="258.70001"
         y="407.29999"
         class="st3"
         width="99.099998"
         height="59.400002"
         id="rect4389"
         clip-path="url(#SVGID_2_)"
         style="fill:none;stroke:#010101;stroke-width:2;stroke-miterlimit:10" /><line
         class="st3"
         x1="258.70001"
         y1="427.10001"
         x2="357.79999"
         y2="427.10001"
         id="line4391"
         clip-path="url(#SVGID_2_)"
         style="fill:none;stroke:#010101;stroke-width:2;stroke-miterlimit:10" /><polyline
         class="st3"
         points="297.4,445.7 305.6,455.6 322.2,435.8  "
         id="polyline4393"
         clip-path="url(#SVGID_2_)"
         style="fill:none;stroke:#010101;stroke-width:2;stroke-miterlimit:10" /><path
         class="st7"
         d="m 327.1,417.2 c 0,-1.4 -1.1,-2.5 -2.5,-2.5 -1.4,0 -2.5,1.1 -2.5,2.5 0,1.4 1.1,2.5 2.5,2.5 1.4,0 2.5,-1.1 2.5,-2.5"
         id="path4395"
         clip-path="url(#SVGID_2_)"
         inkscape:connector-curvature="0"
         style="fill:#010101" /><path
         class="st7"
         d="m 338,417.2 c 0,-1.4 -1.1,-2.5 -2.5,-2.5 -1.4,0 -2.5,1.1 -2.5,2.5 0,1.4 1.1,2.5 2.5,2.5 1.4,0 2.5,-1.1 2.5,-2.5"
         id="path4397"
         clip-path="url(#SVGID_2_)"
         inkscape:connector-curvature="0"
         style="fill:#010101" /><path
         class="st7"
         d="m 348.8,417.2 c 0,-1.4 -1.1,-2.5 -2.5,-2.5 -1.4,0 -2.5,1.1 -2.5,2.5 0,1.4 1.1,2.5 2.5,2.5 1.4,0 2.5,-1.1 2.5,-2.5"
         id="path4399"
         clip-path="url(#SVGID_2_)"
         inkscape:connector-curvature="0"
         style="fill:#010101" /><polyline
         class="st3"
         points="134.8,449.5 123.4,444.5 118.5,455.8  "
         id="polyline4401"
         clip-path="url(#SVGID_2_)"
         style="fill:none;stroke:#010101;stroke-width:2;stroke-miterlimit:10" /><polyline
         class="st3"
         points="169.5,424.8 180.9,429.6 185.8,418.2  "
         id="polyline4403"
         clip-path="url(#SVGID_2_)"
         style="fill:none;stroke:#010101;stroke-width:2;stroke-miterlimit:10" /><path
         class="st3"
         d="m 180.9,429.6 c -3.3,-12.8 -14.9,-22.3 -28.8,-22.3 -13.8,0 -25.4,9.5 -28.7,22.3"
         id="path4405"
         clip-path="url(#SVGID_2_)"
         inkscape:connector-curvature="0"
         style="fill:none;stroke:#010101;stroke-width:2;stroke-miterlimit:10" /><path
         class="st3"
         d="m 123.4,444.5 c 3.3,12.8 14.9,22.3 28.7,22.3 13.8,0 25.4,-9.5 28.8,-22.3"
         id="path4407"
         clip-path="url(#SVGID_2_)"
         inkscape:connector-curvature="0"
         style="fill:none;stroke:#010101;stroke-width:2;stroke-miterlimit:10" /><rect
         x="308.20001"
         y="206.7"
         class="st2"
         width="49.5"
         height="24.799999"
         id="rect4409"
         clip-path="url(#SVGID_2_)"
         style="fill:#f5ea14" /><line
         class="st3"
         x1="295.89999"
         y1="231.5"
         x2="295.89999"
         y2="206.7"
         id="line4411"
         clip-path="url(#SVGID_2_)"
         style="fill:none;stroke:#010101;stroke-width:2;stroke-miterlimit:10" /><line
         class="st3"
         x1="283.5"
         y1="231.5"
         x2="283.5"
         y2="206.7"
         id="line4413"
         clip-path="url(#SVGID_2_)"
         style="fill:none;stroke:#010101;stroke-width:2;stroke-miterlimit:10" /><line
         class="st3"
         x1="382.60001"
         y1="231.5"
         x2="382.60001"
         y2="206.7"
         id="line4415"
         clip-path="url(#SVGID_2_)"
         style="fill:none;stroke:#010101;stroke-width:2;stroke-miterlimit:10" /><line
         class="st3"
         x1="370.20001"
         y1="231.5"
         x2="370.20001"
         y2="206.7"
         id="line4417"
         clip-path="url(#SVGID_2_)"
         style="fill:none;stroke:#010101;stroke-width:2;stroke-miterlimit:10" /></g></g></svg>