<?xml version="1.0" encoding="utf-8"?>
<!-- Generator: Adobe Illustrator 21.1.0, SVG Export Plug-In . SVG Version: 6.00 Build 0)  -->
<svg version="1.1" id="Layer_1" xmlns="http://www.w3.org/2000/svg" xmlns:xlink="http://www.w3.org/1999/xlink" x="0px" y="0px"
	 viewBox="0 0 459 768" style="enable-background:new 0 0 459 768;" xml:space="preserve">
<style type="text/css">
	.st0{enable-background:new    ;}
	.st1{fill:#E5E5E5;}
	.st2{fill:#898888;}
	.st3{fill:#7C7D80;}
	.st4{fill:#FFFFFF;}
	.st5{fill:none;stroke:#231F20;stroke-width:3;stroke-miterlimit:10;}
	.st6{fill:#555658;}
	.st7{fill:none;stroke:#555658;stroke-miterlimit:10;}
	.st8{fill:none;stroke:#F6EC13;stroke-width:5;stroke-miterlimit:10;}
	.st9{fill:none;stroke:#636464;stroke-width:2;stroke-miterlimit:10;}
	.st10{fill:#CBCCCE;}
</style>
<g class="st0">
	<path class="st1" d="M156.5,697.2v14.6L61,724.9v-10.4l81.4-11.2l-81.2-10.6v-10.5l81.4-10.5L61,660.8v-9.3l95.6,13v14.1l-64.8,9.1
		L156.5,697.2z"/>
	<path class="st1" d="M156.5,629H70.7v17.6H61v-45.9h9.7v17.6h85.9V629z"/>
</g>
<g>
	<g class="st0">
		<path class="st1" d="M137.3,587.7l19.2,3.7v9.8L61,582.9v-15.4l95.6-18.3v10.6l-19.2,3.7V587.7z M128.1,586.3V565L73,575.8
			L128.1,586.3z"/>
		<path class="st1" d="M99.9,509c-5.2-3-7.9-7.8-7.9-14.2c0-12.3,9-17.7,22.7-17.7h18.7c14.6,0,24.2,7,24.2,21.6
			s-9.6,21.4-24.2,21.4h-6.4v-10h7.1c8.6,0,13.8-3.5,13.8-11.2c0-7.6-5.2-11.2-13.8-11.2h-18.6c-8.6,0-13.8,3.5-13.8,11.2
			c0,5.9,3.3,9.8,10.2,10.8h2.2v10L61,517.1v-37.7h9.6v28.1L99.9,509z"/>
		<path class="st1" d="M61,444.5c0-14.9,9-21.7,23.8-21.7h48.2c14.6,0,23.6,6.8,23.6,21.7v22.4H61V444.5z M146.8,444.6
			c0-7.6-4.8-11.3-13.5-11.3H84.2c-8.7,0-13.5,3.7-13.5,11.5v11.5h76.2V444.6z"/>
		<path class="st1" d="M61,370.8c0-15,8.9-21.4,23.3-21.4h11.5c15.2,0,23.1,7.1,23.1,22.3v9.4h37.7v10.6H61V370.8z M109.3,371.6
			c0-7.9-3.7-11.7-12.8-11.7H83.8c-8.7,0-13.1,3.1-13.1,10.9V381h38.6V371.6z"/>
		<path class="st1" d="M61,319.3c0-15,7.6-21.3,21.8-21.3h7.8c10.5,0,17.1,3.7,19.7,11.9c2.6-8.7,9.7-12,19.9-12h14.9
			c4.2,0,8.2-0.1,11.5-1.9v10.8c-2.7,1.2-5.2,1.8-11.6,1.8h-15c-10.8,0-14.2,5.1-14.2,13.9v7.5h40.8v10.6H61V319.3z M106,322
			c0-8.5-2.7-13.5-13.1-13.5h-9.1c-8.6,0-13.1,3.1-13.1,11.1V330H106V322z"/>
		<path class="st1" d="M84,287.6c-14.6,0-24-7.2-24-21.8c0-14.7,9.4-22,24-22h49.4c14.5,0,24,7.2,24,22c0,14.6-9.6,21.8-24,21.8H84z
			 M134,277.1c8.7,0,13.8-3.7,13.8-11.3c0-7.8-5.1-11.3-13.8-11.3H83.5c-8.6,0-13.8,3.5-13.8,11.3c0,7.6,5.2,11.3,13.8,11.3H134z"/>
		<path class="st1" d="M84,191.5h8.6v10.1h-9.1c-8.6,0-13.8,3.4-13.8,11.2c0,7.6,5.2,11.2,13.8,11.2H134c8.6,0,13.8-3.5,13.8-11.2
			c0-7.8-5.2-11.2-13.8-11.2h-12.4v-10.1h11.9c14.5,0,24,6.8,24,21.6c0,14.6-9.6,21.4-24,21.4H84c-14.5,0-24-6.8-24-21.4
			C60,198.4,69.6,191.5,84,191.5z"/>
		<path class="st1" d="M103.3,147.9h9.6v23.3h34v-28.7h9.7v39.3H61v-39.3h9.7v28.7h32.6V147.9z"/>
		<path class="st1" d="M83.9,91.4h2.6v10.1h-3.1c-8.6,0-13.7,3.3-13.7,10.9c0,7.6,5.1,10.9,13.5,10.9c21.4,0,23.5-32.1,50.4-32.1
			c14.5,0,23.9,7,23.9,21.6c0,14.6-9.4,21.4-23.9,21.4h-5.5v-10h6c8.6,0,13.7-3.5,13.7-11.2c0-7.6-5.1-11.2-13.7-11.2
			c-21.3,0-23.3,31.9-50.2,31.9c-14.7,0-23.9-6.8-23.9-21.2C60,98.2,69.4,91.4,83.9,91.4z"/>
		<path class="st1" d="M83.9,40.6h2.6v10.1h-3.1c-8.6,0-13.7,3.3-13.7,10.9c0,7.6,5.1,10.9,13.5,10.9c21.4,0,23.5-32.1,50.4-32.1
			c14.5,0,23.9,7,23.9,21.6c0,14.6-9.4,21.4-23.9,21.4h-5.5v-10h6c8.6,0,13.7-3.5,13.7-11.2c0-7.6-5.1-11.2-13.7-11.2
			c-21.3,0-23.3,31.9-50.2,31.9C69.2,83,60,76.2,60,61.9C60,47.4,69.4,40.6,83.9,40.6z"/>
	</g>
</g>
<rect x="231" y="64.3" class="st2" width="1.3" height="631.4"/>
<g class="st0">
	<path class="st3" d="M299.5,207.1c4.5,0,6.6,2.7,6.6,7.2v14.6c0,4.4-2.1,7.2-6.6,7.2h-6.8v-29H299.5z M299.5,233.1
		c2.3,0,3.4-1.4,3.4-4.1v-14.9c0-2.6-1.1-4.1-3.5-4.1H296v23.1H299.5z"/>
	<path class="st3" d="M319.5,219.9v2.9h-7.1v10.3h8.7v2.9h-11.9v-29h11.9v2.9h-8.7v9.9H319.5z"/>
	<path class="st3" d="M333.9,220.6v2.9h-6.7v12.5h-3.2v-29h11.5v2.9h-8.3v10.6H333.9z"/>
	<path class="st3" d="M341.4,207.1v29h-3.2v-29H341.4z"/>
	<path class="st3" d="M347.5,236.1h-2.9v-29h4.1l6.7,20.9v-20.9h2.9v29h-3.4l-7.4-23.4V236.1z"/>
	<path class="st3" d="M371.9,219.9v2.9h-7.1v10.3h8.7v2.9h-11.9v-29h11.9v2.9h-8.7v9.9H371.9z"/>
</g>
<g>
	<path class="st4" d="M231.6,193.2c16,0,29,13,29,29s-13,29-29,29s-29-13-29-29C202.7,206.2,215.6,193.2,231.6,193.2"/>
	<circle class="st5" cx="231.6" cy="222.2" r="29"/>
	<path class="st6" d="M240.1,222.2c0,4.7-3.8,8.5-8.5,8.5s-8.5-3.8-8.5-8.5s3.8-8.5,8.5-8.5S240.1,217.5,240.1,222.2"/>
</g>
<g class="st0">
	<path class="st3" d="M299.5,50c4.5,0,6.6,2.7,6.6,7.2v14.6c0,4.4-2.1,7.2-6.6,7.2h-6.8V50H299.5z M299.5,76c2.3,0,3.4-1.4,3.4-4.1
		V57c0-2.6-1.1-4.1-3.5-4.1H296V76H299.5z"/>
	<path class="st3" d="M312.4,50v29h-3.2V50H312.4z"/>
	<path class="st3" d="M328.2,56.9v0.8h-3.1v-1c0-2.6-1-4.1-3.3-4.1c-2.3,0-3.3,1.5-3.3,4.1c0,6.5,9.7,7.1,9.7,15.3
		c0,4.4-2.1,7.2-6.5,7.2s-6.5-2.9-6.5-7.2v-1.7h3v1.8c0,2.6,1.1,4.1,3.4,4.1c2.3,0,3.4-1.5,3.4-4.1c0-6.5-9.7-7.1-9.7-15.2
		c0-4.5,2.1-7.2,6.4-7.2C326.2,49.7,328.2,52.5,328.2,56.9z"/>
	<path class="st3" d="M343.9,57v2.6h-3.1v-2.8c0-2.6-1-4.2-3.4-4.2c-2.3,0-3.4,1.6-3.4,4.2v15.3c0,2.6,1.1,4.2,3.4,4.2
		c2.4,0,3.4-1.6,3.4-4.2v-3.8h3.1V72c0,4.4-2.1,7.3-6.5,7.3c-4.4,0-6.5-2.9-6.5-7.3V57c0-4.4,2.1-7.3,6.5-7.3
		C341.8,49.7,343.9,52.6,343.9,57z"/>
	<path class="st3" d="M346.6,57c0-4.4,2.2-7.3,6.6-7.3c4.5,0,6.7,2.9,6.7,7.3v15c0,4.4-2.2,7.3-6.7,7.3c-4.4,0-6.6-2.9-6.6-7.3V57z
		 M349.8,72.1c0,2.6,1.1,4.2,3.4,4.2c2.4,0,3.4-1.5,3.4-4.2V56.8c0-2.6-1.1-4.2-3.4-4.2c-2.3,0-3.4,1.6-3.4,4.2V72.1z"/>
	<path class="st3" d="M365.3,50l4.7,25.2l4.7-25.2h3l-5.4,29h-4.8l-5.5-29H365.3z"/>
	<path class="st3" d="M390.5,62.8v2.9h-7.1V76h8.7V79h-11.9V50h11.9v2.9h-8.7v9.9H390.5z"/>
	<path class="st3" d="M401.6,50c4.6,0,6.5,2.3,6.5,6.6V59c0,3.2-1.1,5.2-3.6,6c2.7,0.8,3.6,2.9,3.6,6v4.5c0,1.3,0,2.5,0.6,3.5h-3.3
		c-0.4-0.8-0.5-1.6-0.5-3.5v-4.6c0-3.3-1.5-4.3-4.2-4.3h-2.3V79h-3.2V50H401.6z M400.7,63.6c2.6,0,4.1-0.8,4.1-4v-2.8
		c0-2.6-1-4-3.4-4h-3.1v10.7H400.7z"/>
</g>
<g>
	<path class="st4" d="M231.6,36.1c16,0,29,13,29,29s-13,29-29,29s-29-13-29-29C202.7,49.1,215.6,36.1,231.6,36.1"/>
	<circle class="st5" cx="231.6" cy="65.1" r="29"/>
	<circle class="st7" cx="231.7" cy="65.1" r="4.3"/>
</g>
<g class="st0">
	<path class="st3" d="M299.5,364.2c4.5,0,6.6,2.7,6.6,7.2V386c0,4.4-2.1,7.2-6.6,7.2h-6.8v-29H299.5z M299.5,390.3
		c2.3,0,3.4-1.4,3.4-4.1v-14.9c0-2.6-1.1-4.1-3.5-4.1H296v23.1H299.5z"/>
	<path class="st3" d="M319.5,377.1v2.9h-7.1v10.3h8.7v2.9h-11.9v-29h11.9v2.9h-8.7v9.9H319.5z"/>
	<path class="st3" d="M336.6,371.2v0.8h-3.1v-1c0-2.6-1-4.1-3.3-4.1s-3.3,1.5-3.3,4.1c0,6.5,9.7,7.1,9.7,15.3c0,4.4-2.1,7.2-6.5,7.2
		c-4.4,0-6.5-2.9-6.5-7.2v-1.7h3v1.8c0,2.6,1.1,4.1,3.4,4.1s3.4-1.5,3.4-4.1c0-6.5-9.7-7.1-9.7-15.2c0-4.5,2.1-7.2,6.4-7.2
		C334.5,363.9,336.6,366.8,336.6,371.2z"/>
	<path class="st3" d="M342.7,364.2v29h-3.2v-29H342.7z"/>
	<path class="st3" d="M358.8,371.2v2.5h-3.1v-2.6c0-2.6-1-4.2-3.4-4.2c-2.3,0-3.4,1.6-3.4,4.2v15.3c0,2.6,1.1,4.2,3.4,4.2
		c2.4,0,3.4-1.6,3.4-4.2v-5.8h-3v-2.9h6v8.5c0,4.4-2.1,7.3-6.5,7.3c-4.4,0-6.5-2.9-6.5-7.3v-15c0-4.4,2.1-7.3,6.5-7.3
		C356.7,363.9,358.8,366.8,358.8,371.2z"/>
	<path class="st3" d="M364.7,393.2h-2.9v-29h4.1l6.7,20.9v-20.9h2.9v29h-3.4l-7.4-23.4V393.2z"/>
</g>
<g>
	<path class="st4" d="M231.6,350.8c15.8,0,28.6,12.8,28.6,28.6c0,15.8-12.8,28.6-28.6,28.6S203,395.2,203,379.4
		C203.1,363.5,215.9,350.8,231.6,350.8"/>
	<circle class="st5" cx="231.6" cy="379.3" r="28.6"/>
	<circle class="st8" cx="231.6" cy="379.3" r="16.5"/>
	<path class="st6" d="M240,379.3c0,4.6-3.7,8.3-8.3,8.3s-8.3-3.7-8.3-8.3c0-4.6,3.7-8.3,8.3-8.3C236.2,371,240,374.7,240,379.3"/>
</g>
<g class="st0">
	<path class="st3" d="M299.5,521.3c4.5,0,6.6,2.7,6.6,7.2v14.6c0,4.4-2.1,7.2-6.6,7.2h-6.8v-29H299.5z M299.5,547.4
		c2.3,0,3.4-1.4,3.4-4.1v-14.9c0-2.6-1.1-4.1-3.5-4.1H296v23.1H299.5z"/>
	<path class="st3" d="M319.5,534.2v2.9h-7.1v10.3h8.7v2.9h-11.9v-29h11.9v2.9h-8.7v9.9H319.5z"/>
	<path class="st3" d="M326.5,521.3l4.7,25.2l4.7-25.2h3l-5.4,29h-4.8l-5.5-29H326.5z"/>
	<path class="st3" d="M351.7,534.2v2.9h-7.1v10.3h8.7v2.9h-11.9v-29h11.9v2.9h-8.7v9.9H351.7z"/>
	<path class="st3" d="M356.3,550.3v-29h3.2v26h8.3v2.9H356.3z"/>
	<path class="st3" d="M370,528.3c0-4.4,2.2-7.3,6.6-7.3c4.5,0,6.7,2.9,6.7,7.3v15c0,4.4-2.2,7.3-6.7,7.3c-4.4,0-6.6-2.9-6.6-7.3
		V528.3z M373.2,543.5c0,2.6,1.1,4.2,3.4,4.2c2.4,0,3.4-1.5,3.4-4.2v-15.3c0-2.6-1.1-4.2-3.4-4.2c-2.3,0-3.4,1.6-3.4,4.2V543.5z"/>
	<path class="st3" d="M392.7,521.3c4.6,0,6.5,2.7,6.5,7.1v3.5c0,4.6-2.2,7-6.7,7h-2.9v11.4h-3.2v-29H392.7z M392.4,536
		c2.4,0,3.6-1.1,3.6-3.9v-3.8c0-2.6-1-4-3.3-4h-3.1V536H392.4z"/>
</g>
<g>
	<path class="st4" d="M231.6,508.4c15.5,0,28.1,12.6,28.1,28.1s-12.6,28.1-28.1,28.1s-28.1-12.6-28.1-28.1
		C203.5,520.9,216.1,508.4,231.6,508.4"/>
	<circle class="st5" cx="231.6" cy="536.4" r="28.1"/>
	<circle class="st8" cx="231.6" cy="536.4" r="16.3"/>
	<circle class="st9" cx="231.6" cy="536.4" r="22.2"/>
	<path class="st6" d="M239.8,536.4c0,4.5-3.7,8.2-8.2,8.2s-8.2-3.7-8.2-8.2s3.7-8.2,8.2-8.2C236.2,528.2,239.8,531.9,239.8,536.4"/>
</g>
<g class="st0">
	<path class="st3" d="M299.5,678.5c4.5,0,6.6,2.7,6.6,7.2v14.6c0,4.4-2.1,7.2-6.6,7.2h-6.8v-29H299.5z M299.5,704.5
		c2.3,0,3.4-1.4,3.4-4.1v-14.9c0-2.6-1.1-4.1-3.5-4.1H296v23.1H299.5z"/>
	<path class="st3" d="M319.5,691.3v2.9h-7.1v10.3h8.7v2.9h-11.9v-29h11.9v2.9h-8.7v9.9H319.5z"/>
	<path class="st3" d="M324.1,707.4v-29h3.2v26h8.3v2.9H324.1z"/>
	<path class="st3" d="M341.2,678.5v29H338v-29H341.2z"/>
	<path class="st3" d="M347,678.5l4.7,25.2l4.7-25.2h3l-5.4,29h-4.8l-5.5-29H347z"/>
	<path class="st3" d="M372.2,691.3v2.9h-7.1v10.3h8.7v2.9h-11.9v-29h11.9v2.9h-8.7v9.9H372.2z"/>
	<path class="st3" d="M383.2,678.5c4.6,0,6.5,2.3,6.5,6.6v2.4c0,3.2-1.1,5.2-3.6,6c2.7,0.8,3.6,2.9,3.6,6v4.5c0,1.3,0,2.5,0.6,3.5
		H387c-0.4-0.8-0.5-1.6-0.5-3.5v-4.6c0-3.3-1.5-4.3-4.2-4.3H380v12.4h-3.2v-29H383.2z M382.4,692.1c2.6,0,4.1-0.8,4.1-4v-2.8
		c0-2.6-1-4-3.4-4H380v10.7H382.4z"/>
</g>
<g>
	<path class="st10" d="M267,693.6c0,18.5-15,33.5-33.5,33.5s-33.5-15-33.5-33.5s15-33.5,33.5-33.5C252,660,267,675,267,693.6"/>
	<path class="st4" d="M233.5,666.8c14.8,0,26.8,12,26.8,26.8s-12,26.8-26.8,26.8s-26.8-12-26.8-26.8
		C206.7,678.8,218.7,666.8,233.5,666.8"/>
	<circle class="st5" cx="233.5" cy="693.6" r="26.8"/>
	<circle class="st8" cx="233.5" cy="693.6" r="15.5"/>
	<circle class="st9" cx="233.5" cy="693.6" r="21.5"/>
	<path class="st6" d="M241.3,693.6c0,4.3-3.5,7.8-7.8,7.8s-7.8-3.5-7.8-7.8s3.5-7.8,7.8-7.8C237.8,685.7,241.3,689.2,241.3,693.6"/>
</g>
</svg>
