<?xml version="1.0" encoding="utf-8"?>
<!-- Generator: Adobe Illustrator 21.1.0, SVG Export Plug-In . SVG Version: 6.00 Build 0)  -->
<svg version="1.1" id="Layer_1" xmlns="http://www.w3.org/2000/svg" xmlns:xlink="http://www.w3.org/1999/xlink" x="0px" y="0px"
	 viewBox="0 0 786 768" style="enable-background:new 0 0 786 768;" xml:space="preserve">
<style type="text/css">
	.st0{fill:#757678;}
	.st1{fill:#8C9092;}
	.st2{fill:#AEB0B1;}
	.st3{fill:#A0A7AD;}
	.st4{fill:#CACACC;}
	.st5{fill:#E5F4F7;}
	.st6{fill:#F5EB10;}
	.st7{fill:#CF3C53;}
	.st8{fill:#222222;}
	.st9{fill:#8F959B;}
	.st10{fill:#B5B6B8;}
	.st11{fill:#F37C54;}
	.st12{fill:#7C7D80;}
	.st13{fill:#68C8CB;}
	.st14{fill:#CBCCCE;}
	.st15{fill:#22AAE0;}
	.st16{fill:#509CCF;}
	.st17{fill:#F2C06B;}
	.st18{fill:#D2D3D4;}
	.st19{fill:#768183;}
	.st20{fill:#AEB5B6;}
	.st21{fill:#E5E4E5;}
	.st22{fill:#E94724;}
	.st23{fill:#FFFFFF;}
	.st24{fill:#C49E78;}
	.st25{fill:#495755;}
	.st26{fill:#5C6F6C;}
	.st27{fill:#3C4947;}
	.st28{fill:#262729;}
	.st29{fill:#7F56C5;}
	.st30{fill:#00A19B;}
	.st31{fill:#E6E7E7;}
	.st32{clip-path:url(#SVGID_2_);}
	.st33{clip-path:url(#SVGID_4_);fill:#7C7D80;}
	.st34{clip-path:url(#SVGID_4_);fill:#D3ECF3;}
	.st35{clip-path:url(#SVGID_4_);fill:#CBCCCE;}
	.st36{clip-path:url(#SVGID_6_);}
	.st37{clip-path:url(#SVGID_8_);fill:#7C7D80;}
	.st38{clip-path:url(#SVGID_8_);fill:#D3ECF3;}
	.st39{clip-path:url(#SVGID_8_);fill:#CBCCCE;}
	.st40{clip-path:url(#SVGID_10_);}
	.st41{clip-path:url(#SVGID_12_);fill:#7C7D80;}
	.st42{clip-path:url(#SVGID_12_);fill:#D3ECF3;}
	.st43{clip-path:url(#SVGID_12_);fill:#CBCCCE;}
	.st44{fill:#A7BAC9;}
	.st45{fill:#C8858F;}
	.st46{fill:#446CA9;}
	.st47{fill:#E7E9EA;}
	.st48{fill:#AFB7BC;}
	.st49{fill:#553F37;}
	.st50{fill:#735A4C;}
	.st51{fill:#FFFFFE;}
	.st52{fill:#D3D0CB;}
	.st53{fill:#B19381;}
	.st54{fill:#A18272;}
	.st55{fill:#5E5F61;}
	.st56{fill:#008FBE;}
	.st57{fill:#CCBE2D;}
	.st58{fill:#535355;}
	.st59{fill:#111111;}
	.st60{fill:#6FD1E6;}
	.st61{fill:#F0D0B4;}
	.st62{fill:#77BC1F;}
	.st63{fill:#A4D55D;}
	.st64{fill:#FD5373;}
	.st65{fill:#F3F4F4;}
	.st66{fill:#1CCFC9;}
	.st67{fill:#EDEEEE;}
	.st68{fill:#F18B81;}
	.st69{fill:#898888;}
	.st70{fill:none;stroke:#231F20;stroke-width:3;stroke-miterlimit:10;}
	.st71{fill:#555658;}
	.st72{fill:none;stroke:#555658;stroke-miterlimit:10;}
	.st73{fill:none;stroke:#F6EC13;stroke-width:5;stroke-miterlimit:10;}
	.st74{fill:none;stroke:#636464;stroke-width:2;stroke-miterlimit:10;}
	.st75{fill:#F6EB0F;}
	.st76{fill:#838383;}
	.st77{fill:none;stroke:#B9B9BA;stroke-miterlimit:38;}
	.st78{fill:none;stroke:#B9B9BA;stroke-miterlimit:38;stroke-dasharray:8;}
	.st79{fill:none;stroke:#454649;stroke-width:2;stroke-miterlimit:38;}
	.st80{fill:none;stroke:#454649;stroke-width:2;stroke-linecap:round;stroke-linejoin:round;stroke-dasharray:12.6535,12.6535;}
	.st81{fill:none;stroke:#454649;stroke-width:2;stroke-linecap:round;stroke-linejoin:round;stroke-miterlimit:38;}
	.st82{fill:#FFFFFF;stroke:#454649;stroke-width:2;stroke-linecap:round;stroke-linejoin:round;stroke-miterlimit:38;}
	.st83{fill:none;stroke:#F6EB0F;stroke-width:2;stroke-miterlimit:10;}
	.st84{fill:#F4EB14;}
	.st85{fill:none;stroke:#454649;stroke-width:0.25;stroke-linecap:round;stroke-linejoin:round;stroke-miterlimit:38;}
	.st86{fill:none;stroke:#F6EC13;stroke-miterlimit:38;}
</style>
<g>
	<polygon class="st0" points="544.8,572.6 470.8,615.3 470.8,623.1 544.8,580.3 	"/>
	<polygon class="st1" points="467.2,613.2 467.2,620.9 470.8,623.1 470.8,615.3 	"/>
	<polygon class="st2" points="541.2,570.5 541.2,570.5 467.2,613.2 470.8,615.3 544.8,572.6 	"/>
	<polygon class="st0" points="531.4,564.7 457.3,607.5 457.3,615.2 531.4,572.5 	"/>
	<polygon class="st1" points="453.7,605.4 453.7,613.1 457.3,615.2 457.3,607.5 	"/>
	<polygon class="st2" points="527.7,562.6 527.7,562.6 453.7,605.4 457.3,607.5 531.4,564.7 	"/>
	<polygon class="st0" points="518,557.1 444,599.8 444,607.5 518,564.8 	"/>
	<polygon class="st1" points="440.4,597.7 440.4,605.4 444,607.5 444,599.8 	"/>
	<polygon class="st2" points="514.4,555 440.4,597.7 444,599.8 518,557.1 	"/>
	<path class="st3" d="M648.2,575.1L239.7,339.2c-9.4-5.4-15.1-15.4-15.1-26.2V53.5c0-11.7,12.6-18.9,22.7-13.1l408.5,235.3
		c9.4,5.4,15.2,15.4,15.2,26.2v260C670.9,573.7,658.3,581,648.2,575.1"/>
	<path class="st3" d="M389.2,436.3l0.1,39.2c0,9.3-4.9,17.9-13,22.6l-34.1,19.7l94.3,54.4l34.2-19.7c8.1-4.6,13-13.2,13-22.5v-39.4
		L389.2,436.3"/>
	<polygon class="st3" points="653.9,580 662.8,575.4 655.2,564.7 	"/>
	<path class="st4" d="M638.6,580.1L230.1,344.2c-9.4-5.4-15.1-15.4-15.1-26.2V58.5c0-11.7,12.6-18.9,22.7-13.1l408.5,235.3
		c9.4,5.4,15.2,15.4,15.2,26.2v260C661.3,578.6,648.7,585.9,638.6,580.1"/>
	<polygon class="st5" points="235.2,67.7 235.2,315.9 639.5,549.4 639.5,300.2 	"/>
	<polygon class="st6" points="255.4,102.2 255.4,133.3 612.2,339.3 612.2,308.3 	"/>
	<polygon class="st6" points="255.5,149 255.5,242.4 329.4,284.9 329.5,191.7 	"/>
	<polygon class="st7" points="342.9,207.2 342.8,300.3 416.9,343.2 416.9,249.9 	"/>
	<path class="st8" d="M359.1,293.5L359.1,293.5l6.7,3.8v0L359.1,293.5 M342.9,207.2l-0.1,93.1l16.3,9.4l0-16.2l-0.3-0.2l-1.8,0.8
		l-0.4-0.8l1.1-0.6l6.7-3.9l1.3,0.8l4.8,2.8h0l0.9,0.5l1.1,0.6l8.9,5.1l4.5,2.6v0l0,0l5.5,5.8c0.4,0.4,1,0.7,1.6,0.7
		c0.4,0,0.7-0.1,1.1-0.3l5.2-3l6.8,3.8l-12.2,7c-0.3,0.2-0.7,0.3-1.1,0.3c-0.5,0-1-0.2-1.4-0.5l-5.6-4.5l5.6,4.5
		c0.4,0.3,0.9,0.5,1.4,0.5c0.4,0,0.7-0.1,1.1-0.3l12.2-7v4.5l-12.2,7c-0.3,0.2-0.7,0.3-1.1,0.3c-0.5,0-1-0.2-1.4-0.5l-5.6-4.5v10.2
		l31,18l0-93.3L342.9,207.2"/>
	<polygon class="st6" points="443.8,257.7 443.8,351 517.9,393.7 518.2,300.5 	"/>
	<polygon class="st8" points="538.1,312.1 538.1,475.4 612.2,518.1 612.5,355 	"/>
	<polygon class="st9" points="477,486.8 477,494.5 483.7,490.6 	"/>
	<polygon class="st10" points="477,486.7 477,486.8 483.7,490.6 483.8,490.6 	"/>
	<path class="st3" d="M434.8,448.5c0,3.9-3.1,5.2-7,3s-7-7.2-7-11c0-3.9,3.1-5.2,7-3C431.7,439.7,434.8,444.6,434.8,448.5"/>
	<polygon class="st11" points="255.4,102.2 258.8,100.2 615.6,306.3 615.5,337.4 612.2,339.4 612.2,308.2 	"/>
	<polygon class="st12" points="615.6,306.3 612.2,308.2 612.2,339.4 615.5,337.3 	"/>
	<polygon class="st3" points="239.5,70.2 239.5,318.4 235.2,315.9 235.2,67.7 	"/>
	<polygon class="st3" points="239.5,313.5 639.5,544.4 639.5,549.4 235.2,316 	"/>
	<polygon class="st13" points="255.4,148.9 258.9,146.9 332.9,189.7 333,282.9 329.4,284.9 329.5,191.7 	"/>
	<polygon class="st12" points="332.9,189.7 329.5,191.7 329.4,284.9 333,282.9 	"/>
	<polygon class="st14" points="258.9,146.9 255.4,148.9 329.5,191.7 332.9,189.7 	"/>
	<polygon class="st15" points="342.9,207.2 353.1,201.3 427.1,244.1 427,337.4 416.9,343.2 416.9,249.9 	"/>
	<polygon class="st7" points="342.9,207.2 353.1,201.3 427.1,244.1 416.9,249.9 	"/>
	<polygon class="st14" points="353.1,201.3 342.9,207.2 416.9,249.9 427.1,244.1 	"/>
	<polygon class="st12" points="427.1,244.1 427,337.4 416.9,343.2 416.9,249.9 	"/>
	<polygon class="st16" points="443.8,257.7 447.3,255.7 521.4,298.5 521.4,391.7 517.9,393.7 518.2,300.5 	"/>
	<polygon class="st12" points="521.4,298.5 518.2,300.5 517.9,393.7 521.4,391.7 	"/>
	<polygon class="st14" points="447.3,255.7 443.8,257.7 518.2,300.5 521.4,298.5 	"/>
	<polygon class="st17" points="538.1,312.1 541.6,310.1 615.7,352.9 615.7,516.1 612.2,518.1 612.1,354.8 	"/>
	<rect x="615.7" y="352.9" class="st5" width="0" height="163.2"/>
	<rect x="615.7" y="352.9" class="st18" width="0" height="163.2"/>
	<polygon class="st12" points="615.7,352.9 612.1,354.8 612.2,518.1 615.7,516.1 	"/>
	<polygon class="st14" points="258.8,100.2 255.4,102.2 612.2,308.2 615.6,306.3 	"/>
	<polygon class="st14" points="541.6,310.1 538.1,312.1 612.1,354.8 615.7,352.9 	"/>
	<polygon class="st5" points="255.4,257.7 255.3,265.5 329.4,308.2 329.4,300.5 	"/>
	<polygon class="st14" points="255.4,257.7 255.3,265.5 329.4,308.2 329.4,300.5 	"/>
	<polygon class="st5" points="333,298.4 329.4,300.5 329.4,308.2 332.9,306.2 	"/>
	<polygon class="st19" points="333,298.4 329.4,300.5 329.4,308.2 332.9,306.2 	"/>
	<polygon class="st5" points="258.9,255.6 255.4,257.7 329.4,300.5 333,298.4 	"/>
	<polygon class="st20" points="258.9,255.6 255.4,257.7 329.4,300.5 333,298.4 	"/>
	<polygon class="st5" points="255.4,273.3 255.3,281 329.4,323.8 329.4,316 	"/>
	<polygon class="st14" points="255.4,273.3 255.3,281 329.4,323.8 329.4,316 	"/>
	<polygon class="st5" points="333,313.9 329.4,316 329.4,323.8 332.9,321.7 	"/>
	<polygon class="st19" points="333,313.9 329.4,316 329.4,323.8 332.9,321.7 	"/>
	<polygon class="st5" points="258.9,271.2 255.4,273.3 329.4,316 333,313.9 	"/>
	<polygon class="st20" points="258.9,271.2 255.4,273.3 329.4,316 333,313.9 	"/>
	<polygon class="st5" points="255.4,288.8 255.3,296.6 329.4,339.3 329.4,331.6 	"/>
	<polygon class="st14" points="255.4,288.8 255.3,296.6 329.4,339.3 329.4,331.6 	"/>
	<polygon class="st5" points="333,329.5 329.4,331.6 329.4,339.3 332.9,337.3 	"/>
	<polygon class="st19" points="333,329.5 329.4,331.6 329.4,339.3 332.9,337.3 	"/>
	<polygon class="st5" points="258.9,286.7 255.4,288.8 329.4,331.6 333,329.5 	"/>
	<polygon class="st20" points="258.9,286.7 255.4,288.8 329.4,331.6 333,329.5 	"/>
	<polygon class="st5" points="255.4,304.4 255.3,312.1 329.4,354.9 329.4,347.1 	"/>
	<polygon class="st14" points="255.4,304.4 255.3,312.1 329.4,354.9 329.4,347.1 	"/>
	<polygon class="st5" points="333,345 329.4,347.1 329.4,354.9 332.9,352.8 	"/>
	<polygon class="st19" points="333,345 329.4,347.1 329.4,354.9 332.9,352.8 	"/>
	<polygon class="st5" points="258.9,302.3 255.4,304.4 329.4,347.1 333,345 	"/>
	<polygon class="st20" points="258.9,302.3 255.4,304.4 329.4,347.1 333,345 	"/>
	<path class="st5" d="M385.9,333.1v7.8l17.3,10l2.6-1.5l6.8,3.9l-0.6,2.7l11.7,6.8v-7.8L385.9,333.1z M349.6,312.1l0,7.8l9.4,5.4
		l0-7.8L349.6,312.1"/>
	<path class="st14" d="M385.9,333.1v7.8l17.3,10l2.6-1.5l6.8,3.9l-0.6,2.7l11.7,6.8v-7.8L385.9,333.1z M349.6,312.1l0,7.8l9.4,5.4
		l0-7.8L349.6,312.1"/>
	<polygon class="st5" points="427.2,352.8 423.7,354.9 423.7,362.7 427.2,360.6 	"/>
	<polygon class="st19" points="427.2,352.8 423.7,354.9 423.7,362.7 427.2,360.6 	"/>
	<path class="st5" d="M385.9,328.9v4.2l37.8,21.8l3.6-2.1L385.9,328.9z M353.2,310l-3.6,2.1l9.4,5.4l0-4.2L353.2,310"/>
	<path class="st20" d="M385.9,328.9v4.2l37.8,21.8l3.6-2.1L385.9,328.9z M353.2,310l-3.6,2.1l9.4,5.4l0-4.2L353.2,310"/>
	<path class="st5" d="M410.4,362.8l-1.5,6.9l14.8,8.5v-7.8L410.4,362.8z M379.2,344.8v7l-10.6-6.1l-0.2,0.7l35.2,20.3l1.5-6.9
		L379.2,344.8 M349.6,327.7l0,7.8l7,4l1.5-6.9L349.6,327.7"/>
	<path class="st14" d="M410.4,362.8l-1.5,6.9l14.8,8.5v-7.8L410.4,362.8z M379.2,344.8v7l-10.6-6.1l-0.2,0.7l35.2,20.3l1.5-6.9
		L379.2,344.8 M349.6,327.7l0,7.8l7,4l1.5-6.9L349.6,327.7"/>
	<polygon class="st5" points="427.2,368.3 423.7,370.4 423.7,378.2 427.2,376.2 	"/>
	<polygon class="st19" points="427.2,368.3 423.7,370.4 423.7,378.2 427.2,376.2 	"/>
	<path class="st5" d="M411.2,359.1l-0.8,3.7l13.2,7.6l3.6-2.1L411.2,359.1z M379.2,344v0.8l26.1,15.1l0.6-2.7l-6.8-3.9l1-0.6
		l-14.2-8.2v3.4l0,0L379.2,344 M353.2,325.6l-3.6,2.1l8.5,4.9l0.6-2.7l0.3-0.2l0-0.7L353.2,325.6"/>
	<path class="st20" d="M411.2,359.1l-0.8,3.7l13.2,7.6l3.6-2.1L411.2,359.1z M379.2,344v0.8l26.1,15.1l0.6-2.7l-6.8-3.9l1-0.6
		l-14.2-8.2v3.4l0,0L379.2,344 M353.2,325.6l-3.6,2.1l8.5,4.9l0.6-2.7l0.3-0.2l0-0.7L353.2,325.6"/>
	<path class="st5" d="M400.8,379.9l-0.6,0.3l0.5,0.3L400.8,379.9z M407.4,376.6l-1.5,6.9l17.8,10.3V386L407.4,376.6 M349.6,343.2
		l0,7.8l3.9,2.3l1.5-6.9L349.6,343.2"/>
	<path class="st14" d="M400.8,379.9l-0.6,0.3l0.5,0.3L400.8,379.9z M407.4,376.6l-1.5,6.9l17.8,10.3V386L407.4,376.6 M349.6,343.2
		l0,7.8l3.9,2.3l1.5-6.9L349.6,343.2"/>
	<polygon class="st5" points="427.2,383.9 423.7,386 423.7,393.8 427.2,391.7 	"/>
	<polygon class="st19" points="427.2,383.9 423.7,386 423.7,393.8 427.2,391.7 	"/>
	<path class="st5" d="M408.2,372.9l-0.8,3.7l16.3,9.4l3.6-2.1L408.2,372.9z M367.8,349.6l-0.2,1l0,0l0,0l35.2,20.3l0.2-0.9
		L367.8,349.6 M353.2,341.1l-3.6,2.1l5.5,3.2l0.8-3.7L353.2,341.1"/>
	<path class="st20" d="M408.2,372.9l-0.8,3.7l16.3,9.4l3.6-2.1L408.2,372.9z M367.8,349.6l-0.2,1l0,0l0,0l35.2,20.3l0.2-0.9
		L367.8,349.6 M353.2,341.1l-3.6,2.1l5.5,3.2l0.8-3.7L353.2,341.1"/>
	<path class="st5" d="M404.3,390.4l-1.5,6.9l20.9,12.1v-7.8L404.3,390.4z M363.9,367l-1.5,6.9l35.2,20.3l1.5-6.9L363.9,367
		 M349.6,358.8l0,7.8l0.9,0.5l1.5-6.9L349.6,358.8"/>
	<path class="st14" d="M404.3,390.4l-1.5,6.9l20.9,12.1v-7.8L404.3,390.4z M363.9,367l-1.5,6.9l35.2,20.3l1.5-6.9L363.9,367
		 M349.6,358.8l0,7.8l0.9,0.5l1.5-6.9L349.6,358.8"/>
	<polygon class="st5" points="427.2,399.4 423.7,401.5 423.7,409.3 427.2,407.2 	"/>
	<polygon class="st19" points="427.2,399.4 423.7,401.5 423.7,409.3 427.2,407.2 	"/>
	<path class="st5" d="M405.1,386.7l-0.8,3.7l19.3,11.2l3.6-2.1L405.1,386.7z M364.5,364.2l-0.6,2.8l35.2,20.3l0.8-3.7l-2.9-1.7
		l-0.9,0.5l0-1l0,1L364.5,364.2 M352.7,357l-3.1,1.8l2.4,1.4L352.7,357"/>
	<path class="st20" d="M405.1,386.7l-0.8,3.7l19.3,11.2l3.6-2.1L405.1,386.7z M364.5,364.2l-0.6,2.8l35.2,20.3l0.8-3.7l-2.9-1.7
		l-0.9,0.5l0-1l0,1L364.5,364.2 M352.7,357l-3.1,1.8l2.4,1.4L352.7,357"/>
	<polygon class="st5" points="443.9,366.6 443.9,374.4 517.9,417.1 517.9,409.4 	"/>
	<polygon class="st14" points="443.9,366.6 443.9,374.4 517.9,417.1 517.9,409.4 	"/>
	<polygon class="st5" points="521.5,407.3 517.9,409.4 517.9,417.1 521.5,415.1 	"/>
	<polygon class="st19" points="521.5,407.3 517.9,409.4 517.9,417.1 521.5,415.1 	"/>
	<polygon class="st5" points="447.5,364.5 443.9,366.6 517.9,409.4 521.5,407.3 	"/>
	<polygon class="st20" points="447.5,364.5 443.9,366.6 517.9,409.4 521.5,407.3 	"/>
	<polygon class="st5" points="443.9,382.1 443.9,389.9 517.9,432.7 517.9,424.9 	"/>
	<polygon class="st14" points="443.9,382.1 443.9,389.9 517.9,432.7 517.9,424.9 	"/>
	<polygon class="st5" points="521.5,422.8 517.9,424.9 517.9,432.7 521.5,430.6 	"/>
	<polygon class="st19" points="521.5,422.8 517.9,424.9 517.9,432.7 521.5,430.6 	"/>
	<polygon class="st5" points="447.5,380.1 443.9,382.1 517.9,424.9 521.5,422.8 	"/>
	<polygon class="st20" points="447.5,380.1 443.9,382.1 517.9,424.9 521.5,422.8 	"/>
	<polygon class="st5" points="443.9,397.7 443.9,405.5 517.9,448.2 517.9,440.4 	"/>
	<polygon class="st14" points="443.9,397.7 443.9,405.5 517.9,448.2 517.9,440.4 	"/>
	<polygon class="st5" points="521.5,438.4 517.9,440.4 517.9,448.2 521.5,446.2 	"/>
	<polygon class="st19" points="521.5,438.4 517.9,440.4 517.9,448.2 521.5,446.2 	"/>
	<polygon class="st5" points="447.5,395.6 443.9,397.7 517.9,440.4 521.5,438.4 	"/>
	<polygon class="st20" points="447.5,395.6 443.9,397.7 517.9,440.4 521.5,438.4 	"/>
	<polygon class="st5" points="443.9,413.2 443.9,421 517.9,463.8 517.9,456 	"/>
	<polygon class="st14" points="443.9,413.2 443.9,421 517.9,463.8 517.9,456 	"/>
	<polygon class="st5" points="521.5,453.9 517.9,456 517.9,463.8 521.5,461.7 	"/>
	<polygon class="st19" points="521.5,453.9 517.9,456 517.9,463.8 521.5,461.7 	"/>
	<polygon class="st5" points="447.5,411.1 443.9,413.2 517.9,456 521.5,453.9 	"/>
	<polygon class="st20" points="447.5,411.1 443.9,413.2 517.9,456 521.5,453.9 	"/>
	<path class="st4" d="M382.5,432.4l0.1,41.7c0,7.8-4.1,14.9-10.8,18.8l-29.5,17.1l94.3,54.4l29.6-17c6.7-3.9,10.9-11,10.9-18.8
		v-41.9L382.5,432.4"/>
	<polygon class="st3" points="342.3,509.9 342.3,517.7 349,513.8 	"/>
	<polygon class="st21" points="382.5,436.6 382.5,440 382.5,440 382.5,436.6 	"/>
	<path class="st10" d="M393.6,438.7l-0.9,4.1l-2.5,1.5l86.9,50.2v-7.8L393.6,438.7z M384,433.2l0,4.2l-1.5-0.9l0,3.4l4.4,2.5
		l1.5-6.7l-0.7-0.4l-3.7,2.1L384,433.2"/>
	<polygon class="st22" points="218.5,534 54.3,439.2 54.3,408.1 218.5,502.9 	"/>
	<polygon class="st6" points="218.5,534 54.3,439.2 54.3,408.1 218.5,502.9 	"/>
	<polygon class="st23" points="58.4,421.4 56.8,420.5 56.8,409.6 58.4,410.5 	"/>
	<polygon class="st23" points="62.4,423.8 60.8,422.8 60.8,411.9 62.4,412.8 	"/>
	<polygon class="st23" points="66.5,426.1 64.9,425.2 64.9,414.2 66.5,415.1 	"/>
	<polygon class="st23" points="70.5,428.4 68.9,427.5 68.9,416.5 70.5,417.5 	"/>
	<polygon class="st23" points="78.6,433.1 77,432.2 77,421.2 78.6,422.1 	"/>
	<polygon class="st23" points="82.7,435.4 81.1,434.5 81.1,423.5 82.7,424.5 	"/>
	<polygon class="st23" points="86.7,437.8 85.1,436.8 85.1,425.9 86.7,426.8 	"/>
	<polygon class="st23" points="90.7,440.1 89.1,439.2 89.1,428.2 90.7,429.1 	"/>
	<polygon class="st23" points="98.8,444.7 97.2,443.8 97.2,432.9 98.8,433.8 	"/>
	<polygon class="st23" points="102.9,447.1 101.3,446.2 101.3,435.2 102.9,436.1 	"/>
	<polygon class="st23" points="106.9,449.4 105.3,448.5 105.3,437.5 106.9,438.5 	"/>
	<polygon class="st23" points="111,451.7 109.4,450.8 109.4,439.9 111,440.8 	"/>
	<polygon class="st23" points="119.1,456.4 117.4,455.5 117.4,444.5 119.1,445.5 	"/>
	<polygon class="st23" points="123.1,458.7 121.5,457.8 121.5,446.9 123.1,447.8 	"/>
	<polygon class="st23" points="127.1,461.1 125.5,460.2 125.5,449.2 127.1,450.1 	"/>
	<polygon class="st23" points="131.2,463.4 129.6,462.5 129.6,451.5 131.2,452.5 	"/>
	<polygon class="st23" points="139.3,468.1 137.7,467.2 137.7,456.2 139.3,457.1 	"/>
	<polygon class="st23" points="143.3,470.4 141.7,469.5 141.7,458.5 143.3,459.5 	"/>
	<polygon class="st23" points="147.4,472.7 145.8,471.8 145.8,460.9 147.4,461.8 	"/>
	<polygon class="st23" points="151.4,475.1 149.8,474.2 149.8,463.2 151.4,464.1 	"/>
	<polygon class="st23" points="159.5,479.7 157.9,478.8 157.9,467.9 159.5,468.8 	"/>
	<polygon class="st23" points="163.5,482.1 161.9,481.1 161.9,470.2 163.5,471.1 	"/>
	<polygon class="st23" points="167.6,484.4 166,483.5 166,472.5 167.6,473.5 	"/>
	<polygon class="st23" points="171.6,486.7 170,485.8 170,474.9 171.6,475.8 	"/>
	<polygon class="st23" points="179.7,491.4 178.1,490.5 178.1,479.5 179.7,480.5 	"/>
	<polygon class="st23" points="183.8,493.7 182.1,492.8 182.1,481.9 183.8,482.8 	"/>
	<polygon class="st23" points="187.8,496.1 186.2,495.1 186.2,484.2 187.8,485.1 	"/>
	<polygon class="st23" points="191.8,498.4 190.2,497.5 190.2,486.5 191.8,487.5 	"/>
	<polygon class="st23" points="199.9,503.1 198.3,502.1 198.3,491.2 199.9,492.1 	"/>
	<polygon class="st23" points="204,505.4 202.4,504.5 202.4,493.5 204,494.5 	"/>
	<polygon class="st23" points="208,507.7 206.4,506.8 206.4,495.9 208,496.8 	"/>
	<polygon class="st23" points="212.1,510.1 210.5,509.1 210.5,498.2 212.1,499.1 	"/>
	<polygon class="st23" points="74.6,435.4 73,434.4 73,418.9 74.6,419.8 	"/>
	<polygon class="st23" points="94.8,447 93.2,446.1 93.2,430.5 94.8,431.5 	"/>
	<polygon class="st23" points="115,458.7 113.4,457.8 113.4,442.2 115,443.1 	"/>
	<polygon class="st23" points="135.2,470.4 133.6,469.4 133.6,453.9 135.2,454.8 	"/>
	<polygon class="st23" points="155.5,482 153.8,481.1 153.8,465.5 155.5,466.5 	"/>
	<polygon class="st23" points="175.7,493.7 174.1,492.8 174.1,477.2 175.7,478.1 	"/>
	<polygon class="st23" points="195.9,505.4 194.3,504.4 194.3,488.9 195.9,489.8 	"/>
	<polygon class="st23" points="216.1,517 214.5,516.1 214.5,500.5 216.1,501.5 	"/>
	<polygon class="st11" points="225.5,499.3 225.5,530.3 218.5,534 218.5,502.9 	"/>
	<polygon class="st12" points="225.5,499.3 218.5,502.9 218.5,534 225.5,530.3 	"/>
	<polygon class="st11" points="54.3,408.1 61.2,404.1 225.5,499.3 218.5,502.9 	"/>
	<polygon class="st14" points="61.2,404.1 54.3,408.1 218.5,502.9 225.5,499.3 	"/>
	<path class="st24" d="M641.8,629.7c0,1.9-0.6,3.4-1.7,4.2l-0.8,0.4l0,0c-1.6,0.6-3.7,0.4-6.1-1c-2.1-1.2-4.1-3.2-5.6-5.3l0,0
		c-1.8-2.7-3-5.7-3-8.3c0-2,0.7-3.4,1.8-4.2l0.1,0l0.4-0.2l0,0c1.6-0.8,3.8-0.6,6.3,0.9c2.2,1.3,4.1,3.2,5.6,5.4l0.1,0.1
		C640.7,624.2,641.8,627.1,641.8,629.7"/>
	<path class="st25" d="M638.9,621.6l-0.6,0.2l-0.1,0l-4.7,2.7l-6,3.5l-73.7,42.7l-58.5,33.9l0,0l-0.9,0.5l-11.4-6.8l0.3-0.2
		l142.9-82.6l0.1,0l0.4-0.2l0,0c1.6-0.8,3.8-0.6,6.3,0.9C635.3,617.3,637.3,619.3,638.9,621.6L638.9,621.6"/>
	<path class="st14" d="M628.9,614.7c-0.8,0-1.4,0.2-2,0.5l0,0l-0.4,0.2l-0.1,0L483.6,698c0.5-0.2,1.2-0.4,1.8-0.4
		c1.3,0,2.7,0.4,4.3,1.3c2.2,1.3,4.2,3.3,5.7,5.6l58.5-33.9l73.7-42.7l6-3.5l4.7-2.7l0.1,0l0.5-0.3c-1.5-2.2-3.5-4.1-5.6-5.4
		C631.6,615.2,630.1,614.7,628.9,614.7"/>
	<path class="st12" d="M641.8,629.7c0,1.9-0.6,3.4-1.7,4.2l-0.8,0.4l0,0L496.1,717L496,717v0l-0.5-12.4v0l58.5-33.9l73.7-42.7l6-3.5
		l4.7-2.7l0.5-0.3l0.1,0.1C640.7,624.2,641.8,627.1,641.8,629.7"/>
	<path class="st25" d="M474.2,715.2l1.7-3.4l0.1-0.1l5.7-11.6l0.2-0.4h0c1.3-2.3,4.3-2.7,7.9-0.6c2.2,1.3,4.2,3.3,5.7,5.6h0v0
		c1.7,2.6,2.8,5.5,2.8,8c0,3.2-1.7,4.9-4.3,4.9v0l-14.1-0.3h-0.1l-0.3,0l-4-0.1c-0.4,0-0.7-0.2-0.9-0.4l-0.1-0.2l-0.1-0.2
		C474,716,474,715.6,474.2,715.2"/>
	<path class="st26" d="M494.2,717.5c0,0-0.1,0-0.1,0h-0.1v0h0C494,717.5,494.1,717.5,494.2,717.5 M496,717L496,717
		c-0.4,0.2-0.8,0.3-1.2,0.4C495.2,717.3,495.6,717.2,496,717 M497.2,707.9c0.1,0.1,0.1,0.3,0.2,0.4l0.1,0.2c0.3,0.8,0.5,1.5,0.6,2.2
		c0,0.3,0.1,0.5,0.1,0.8v0c0,0.3,0,0.6,0,0.9c0,1.3-0.3,2.4-0.8,3.2c0.5-0.8,0.8-1.9,0.8-3.2C498.2,711.1,497.9,709.5,497.2,707.9
		 M495.4,704.6L495.4,704.6l0.1,0.2c0.2,0.3,0.3,0.5,0.5,0.8l0.1,0.1c0.2,0.3,0.4,0.6,0.5,1c0.2,0.3,0.3,0.7,0.5,1l0,0
		C496.6,706.5,496.1,705.5,495.4,704.6L495.4,704.6 M485.4,697.7c-1.6,0-2.8,0.7-3.6,2h0l-0.2,0.4l-5.7,11.6l-0.1,0.1l-1.7,3.4
		c-0.1,0.2-0.1,0.4-0.1,0.6c0,0.2,0,0.3,0.1,0.5l0.1,0.2v0l2.4-1.3l3.1-1.7l0.4-0.2l4.1-2.3l10.4-5.8l0.9-0.5h0h0
		c-1.5-2.3-3.5-4.3-5.7-5.6C488.1,698.1,486.6,697.7,485.4,697.7"/>
	<path class="st25" d="M474.2,716.5l0.1,0.2c0.2,0.2,0.5,0.4,0.9,0.4l1,0l3.3,0.1h0v0h0.1l14.1,0.3v0c0.8,0,1.5-0.1,2-0.4l0.1-0.1
		c1.3-0.7,2.1-2.2,2.1-4.4c0-0.3,0-0.6-0.1-0.9v0c0-0.3-0.1-0.5-0.1-0.8c-0.1-0.7-0.3-1.5-0.6-2.2l-0.1-0.2
		c-0.1-0.3-0.2-0.5-0.3-0.8l0-0.1c-0.1-0.3-0.3-0.7-0.5-1c-0.2-0.3-0.3-0.6-0.5-1l-0.1-0.1c-0.1-0.3-0.3-0.5-0.5-0.8l-0.1-0.1v0h0
		l-0.9,0.5l-10.4,5.8l-4.1,2.3l-0.4,0.2l-3.1,1.7L474.2,716.5"/>
	<path class="st27" d="M495.4,704.6L495.4,704.6L495.4,704.6l-0.9,0.5l-10.4,5.8l-4.1,2.3l-0.4,0.2l-3.1,1.7l-2.4,1.3l0.1,0.2
		c0.2,0.2,0.5,0.4,0.9,0.4l1,0l3.3,0.1h0v0h0.1l14.1,0.3v0v0c0,0,0.1,0,0.1,0c0.7,0,1.4-0.2,2-0.4l0.1-0.1c1.3-0.7,2.1-2.2,2.1-4.4
		c0-0.3,0-0.6-0.1-0.9v0c0-0.3-0.1-0.5-0.1-0.8c-0.1-0.7-0.3-1.5-0.6-2.2l-0.1-0.2c-0.1-0.3-0.2-0.5-0.3-0.8l0-0.1
		c-0.1-0.3-0.3-0.7-0.5-1c-0.2-0.3-0.3-0.6-0.5-1l-0.1-0.1c-0.1-0.3-0.3-0.5-0.5-0.8L495.4,704.6L495.4,704.6"/>
	<path class="st28" d="M474.1,716.3l0.1,0.2h0l0.1,0.2c0.2,0.2,0.5,0.4,0.9,0.4l1,0l3.3,0.1h0v0l0-3.7v-0.1l-3.9-1.5l-1.7,3.4
		C474,715.6,474,716,474.1,716.3"/>
	<path class="st28" d="M475.7,712.6c0,1.5,1.2,3.3,2.6,4.2c1.5,0.8,2.6,0.4,2.6-1.1c0-1.4-1.2-3.3-2.6-4.2
		C476.9,710.7,475.7,711.2,475.7,712.6"/>
	<polygon class="st29" points="235.1,603.6 235.1,580.3 255.3,592 255.3,615.3 	"/>
	<polygon class="st14" points="235.1,580.3 235.1,603.6 255.3,615.3 255.3,592 	"/>
	<polygon class="st29" points="235.1,580.3 255.3,568.7 275.5,580.3 255.3,592 	"/>
	<polygon class="st6" points="255.3,568.7 235.1,580.3 255.3,592 275.5,580.3 	"/>
	<polygon class="st30" points="255.3,592 275.5,580.3 275.5,603.6 255.3,615.3 	"/>
	<polygon class="st12" points="255.3,592 275.5,580.3 275.5,603.6 255.3,615.3 	"/>
	<polygon class="st14" points="167.9,378.2 167.9,354.8 188.1,366.5 188.1,389.8 	"/>
	<polygon class="st6" points="167.9,354.8 188.1,343.2 208.3,354.8 188.1,366.5 	"/>
	<polygon class="st30" points="188.1,366.5 208.3,354.8 208.3,378.2 188.1,389.8 	"/>
	<polygon class="st12" points="188.1,366.5 208.3,354.8 208.3,378.2 188.1,389.8 	"/>
	<polygon class="st7" points="154.4,424.9 154.4,401.6 174.6,413.3 174.6,436.6 	"/>
	<polygon class="st14" points="154.4,401.6 154.4,424.9 174.6,436.6 174.6,413.3 	"/>
	<polygon class="st7" points="154.4,401.6 174.6,390 194.8,401.6 174.6,413.3 	"/>
	<polygon class="st6" points="174.6,390 154.4,401.6 174.6,413.3 194.8,401.6 	"/>
	<polygon class="st12" points="174.6,413.3 194.8,401.6 194.8,424.9 174.6,436.6 	"/>
	<polygon class="st13" points="120.9,296.5 67.1,327.6 67.1,389.8 120.9,358.7 	"/>
	<polygon class="st6" points="67.1,327.6 67.1,389.8 120.9,358.7 120.9,296.4 	"/>
	<polygon class="st6" points="154.4,665.8 208.3,634.7 262.1,665.8 208.3,696.8 	"/>
	<polygon class="st31" points="154.4,665.8 154.4,673.5 208.3,704.6 262.1,673.5 262.1,665.8 208.3,696.8 	"/>
	<polygon class="st12" points="208.3,696.8 208.3,704.6 262.1,673.5 262.1,665.8 	"/>
	<polygon class="st14" points="67.1,389.8 60.2,385.8 60.2,323.8 67.1,327.6 	"/>
	<path class="st1" d="M453.7,605.4l0,7.7L453.7,605.4z"/>
	<g>
		<g>
			<defs>
				<rect id="SVGID_1_" x="453.7" y="562.6" width="77.7" height="52.6"/>
			</defs>
			<clipPath id="SVGID_2_">
				<use xlink:href="#SVGID_1_"  style="overflow:visible;"/>
			</clipPath>
			<g class="st32">
				<defs>
					<rect id="SVGID_3_" x="453.7" y="562.6" width="77.7" height="52.6"/>
				</defs>
				<clipPath id="SVGID_4_">
					<use xlink:href="#SVGID_3_"  style="overflow:visible;"/>
				</clipPath>
				<polygon class="st33" points="527.7,562.6 453.7,605.4 453.7,613.1 457.3,615.2 531.4,572.5 531.4,564.7 				"/>
				<polygon class="st34" points="453.7,605.4 453.7,613.1 457.3,615.2 457.3,607.5 				"/>
				<polygon class="st35" points="527.7,562.6 527.7,562.6 453.7,605.4 457.3,607.5 531.4,564.7 				"/>
			</g>
		</g>
	</g>
	<g>
		<g>
			<defs>
				<rect id="SVGID_5_" x="440.4" y="555" width="77.7" height="52.6"/>
			</defs>
			<clipPath id="SVGID_6_">
				<use xlink:href="#SVGID_5_"  style="overflow:visible;"/>
			</clipPath>
			<g class="st36">
				<defs>
					<rect id="SVGID_7_" x="440.4" y="555" width="77.7" height="52.6"/>
				</defs>
				<clipPath id="SVGID_8_">
					<use xlink:href="#SVGID_7_"  style="overflow:visible;"/>
				</clipPath>
				<polygon class="st37" points="514.4,555 440.4,597.7 440.4,605.4 444,607.5 518,564.8 518,557.1 				"/>
				<polygon class="st38" points="440.4,597.7 440.4,605.4 444,607.5 444,599.8 				"/>
				<polygon class="st39" points="514.4,555 440.4,597.7 444,599.8 518,557.1 				"/>
			</g>
		</g>
	</g>
	<polygon class="st0" points="544.8,572.6 544.8,572.6 544.8,580.3 470.8,623.1 544.8,580.3 	"/>
	<g>
		<g>
			<defs>
				<rect id="SVGID_9_" x="467.2" y="570.5" width="77.7" height="52.6"/>
			</defs>
			<clipPath id="SVGID_10_">
				<use xlink:href="#SVGID_9_"  style="overflow:visible;"/>
			</clipPath>
			<g class="st40">
				<defs>
					<rect id="SVGID_11_" x="467.2" y="570.5" width="77.7" height="52.6"/>
				</defs>
				<clipPath id="SVGID_12_">
					<use xlink:href="#SVGID_11_"  style="overflow:visible;"/>
				</clipPath>
				<polygon class="st41" points="541.2,570.5 467.2,613.2 467.2,620.9 470.8,623.1 544.8,580.3 544.8,572.6 				"/>
				<polygon class="st42" points="467.2,613.2 467.2,620.9 470.8,623.1 470.8,615.3 				"/>
				<polygon class="st43" points="541.2,570.5 541.2,570.5 467.2,613.2 470.8,615.3 544.8,572.6 				"/>
			</g>
		</g>
	</g>
	<path class="st6" d="M641.8,629.7c0,1.9-0.6,3.3-1.7,4.1l0,0l-0.8,0.5l0,0l-9,5.2c1.1-0.8,1.7-2.2,1.7-4.1c0-2.6-1.1-5.5-2.9-8.1
		l0-0.1c-1.5-2.2-3.5-4.1-5.6-5.4c-2.5-1.5-4.8-1.7-6.3-0.9l10.1-5.8c1.5-0.7,3.7-0.4,6,1c2.2,1.3,4.1,3.2,5.6,5.4l0.1,0.1
		C640.7,624.2,641.8,627.1,641.8,629.7"/>
	<polygon class="st44" points="630.3,639.5 630.3,639.5 629.7,639.8 	"/>
	<polygon class="st44" points="617,620.9 616.6,621.1 616.6,621.2 617,620.9 617,620.9 	"/>
	<polygon class="st44" points="629.4,640 629.7,639.8 629.5,640 	"/>
	<polygon class="st45" points="625.1,616.2 626.3,615.5 626.2,615.7 625.3,616.1 	"/>
	<polygon class="st45" points="638.3,634.8 639.7,634.1 638.3,634.9 	"/>
	<polygon class="st44" points="638.3,634.9 638.3,634.9 637.8,635.2 	"/>
	<polygon class="st44" points="625,616.3 624.7,616.5 624.6,616.5 625.1,616.2 625,616.3 	"/>
	<polygon class="st44" points="637.5,635.4 637.8,635.2 637.5,635.3 	"/>
	<polygon class="st7" points="315.4,649.9 369.3,618.9 423.1,649.9 369.2,681 	"/>
	<polygon class="st12" points="315.4,649.9 315.4,657.7 369.2,688.8 423.1,657.7 423.1,649.9 369.2,681 	"/>
	<polygon class="st6" points="369.3,618.9 315.4,649.9 369.2,681 423.1,649.9 	"/>
	<polygon class="st14" points="315.4,649.9 315.4,657.7 369.2,688.8 369.2,681 	"/>
	<polygon class="st46" points="93.5,558.9 147.4,527.9 201.2,558.9 147.4,590 	"/>
	<polygon class="st12" points="93.5,558.9 93.5,566.7 147.4,597.8 201.2,566.7 201.2,558.9 147.4,590 	"/>
	<polygon class="st6" points="147.4,527.9 93.5,558.9 147.4,590 201.2,558.9 	"/>
	<polygon class="st14" points="93.5,558.9 93.5,566.7 147.4,597.8 147.4,590 	"/>
	<polygon class="st47" points="349,513.8 342.3,517.7 436.5,572.1 342.3,517.7 349,513.8 	"/>
	<polygon class="st48" points="349,513.8 342.3,517.7 436.5,572.1 436.5,564.4 	"/>
	<polygon class="st48" points="342.3,509.9 342.3,517.7 349,513.8 	"/>
	<polygon class="st49" points="358.7,329.9 365.4,325.9 372.2,329.9 352.3,419.5 345.5,423.4 365.5,333.8 	"/>
	<polygon class="st50" points="355.8,351.4 355.8,359.2 396.2,382.5 396.2,374.7 	"/>
	<polygon class="st49" points="355.8,351.4 362.5,347.6 402.9,370.9 402.9,378.6 396.2,382.5 396.2,374.7 	"/>
	<polygon class="st51" points="367.6,350.5 367.6,350.5 402.8,370.8 	"/>
	<polygon class="st52" points="367.6,350.5 367.6,350.5 402.8,370.8 	"/>
	<polygon class="st53" points="360.9,354.4 360.9,354.4 396.2,374.7 	"/>
	<polygon class="st54" points="367.6,350.5 360.9,354.4 396.2,374.7 396.2,382.5 400.8,379.9 402.8,370.8 	"/>
	<polygon class="st50" points="349.7,378.9 349.7,386.6 390.1,410 390,402.2 	"/>
	<polygon class="st49" points="349.7,378.9 356.3,375 396.8,398.3 396.8,406.1 390.1,410 390,402.2 	"/>
	<polygon class="st51" points="361.5,378 361.5,378 396.7,398.2 	"/>
	<polygon class="st23" points="361.5,378 361.5,378 396.7,398.2 	"/>
	<ellipse transform="matrix(0.9287 -0.3709 0.3709 0.9287 -114.4041 161.0321)" class="st54" cx="361.5" cy="378" rx="0" ry="0"/>
	<polygon class="st55" points="361.5,378 354.8,381.8 390,402.2 390.1,410 394.7,407.3 396.7,398.2 361.5,378 	"/>
	<polygon class="st49" points="399.1,353.2 405.8,349.3 412.6,353.2 392.6,442.8 385.9,446.8 405.9,357.2 	"/>
	<polygon class="st14" points="338.8,419.5 345.5,423.4 365.5,333.8 358.7,329.9 	"/>
	<polygon class="st54" points="359,329.7 358.7,329.9 359,330 	"/>
	<polygon class="st54" points="405.8,349.3 400.1,352.7 399.1,353.2 405.9,357.2 412.6,353.2 	"/>
	<polygon class="st55" points="346.5,384.8 353.2,380.9 359.9,384.8 324.8,543.2 318.1,547.1 353.3,388.7 	"/>
	<polygon class="st14" points="343.6,406.3 343.6,414.1 384,437.4 384,429.6 	"/>
	<polygon class="st14" points="336.5,464.4 333.1,470.2 373.5,493.6 373.5,485.8 	"/>
	<polygon class="st14" points="330.3,492 326.4,497.5 366.8,520.8 366.8,513 	"/>
	<polygon class="st14" points="342.6,436.7 341.1,443.6 377.9,464.9 377.8,457.1 	"/>
	<polygon class="st14" points="324.2,519.5 319.7,524.7 360.1,548 360,540.2 	"/>
	<polygon class="st49" points="324.2,519.5 330.8,515.6 366.8,536.3 366.8,544.1 360.1,548 360,540.2 	"/>
	<polygon class="st49" points="343.6,406.3 350.3,402.5 390.7,425.8 390.7,433.6 384,437.4 384,429.6 	"/>
	<polygon class="st49" points="342.6,436.7 349.3,432.9 384.6,453.2 384.6,461 377.9,464.9 377.8,457.1 	"/>
	<polygon class="st49" points="336.5,464.4 343.1,460.5 380.3,481.9 380.3,489.7 373.5,493.6 373.5,485.8 	"/>
	<polygon class="st49" points="330.3,492 337,488.1 373.5,509.2 373.5,516.9 366.8,520.8 366.8,513 	"/>
	<polygon class="st55" points="355.4,405.4 348.7,409.3 384,429.6 384,437.4 390.7,433.6 390.7,425.8 	"/>
	<polygon class="st55" points="349.3,432.9 342.6,436.7 377.8,457.1 377.9,464.9 384.6,461 384.6,453.2 382.6,452 	"/>
	<polygon class="st55" points="343.1,460.5 343.1,460.5 336.4,464.4 373.5,485.8 373.5,493.6 380.3,489.7 380.3,484 380.3,481.9 	
		"/>
	<polygon class="st55" points="337,488.1 330.3,492 366.8,513 366.8,520.8 373.5,516.9 373.5,509.2 358.6,500.5 	"/>
	<polygon class="st55" points="330.8,515.6 324.2,519.5 360,540.2 360.1,548 366.8,544.1 366.8,536.3 	"/>
	<polygon class="st55" points="386.9,408.1 393.6,404.2 400.3,408.1 365.1,566.6 358.4,570.5 393.7,412.1 	"/>
	<polygon class="st14" points="311.3,543.2 318.1,547.1 357.2,370.8 346.5,384.8 	"/>
	<polygon class="st14" points="350.9,379.5 350.9,387.3 391.3,410.6 391.2,402.8 	"/>
	<polygon class="st14" points="351.7,566.6 358.4,570.5 399.7,384.5 386.9,408.1 	"/>
	<polygon class="st49" points="353.8,406.3 355.4,405.4 355.7,404.1 350.2,402.3 349.9,404 	"/>
	<polygon class="st50" points="379.2,442.8 385.9,446.8 405.9,357.2 399.1,353.2 	"/>
	<polygon class="st56" points="356.6,293.4 357.7,292.7 364.4,288.8 365.7,289.6 372.5,293.5 365.7,297.4 359.1,293.5 359.1,293.5 
		358.8,293.3 357,294.1 	"/>
	<path class="st57" d="M371.4,292.9l1.1,0.6L371.4,292.9z M364.4,288.8l-6.7,3.9l-1.1,0.6l0.4,0.8l1.8-0.8l0.3,0.2l0,0l6.7,3.8
		l0-7.8l4.8,2.8l0,0l-4.8-2.8L364.4,288.8"/>
	<polygon class="st6" points="379.2,305.1 379.2,351.8 359,340.1 359.1,293.5 	"/>
	<polygon class="st6" points="385.9,301.2 385.9,347.9 365.7,336.2 365.7,289.6 	"/>
	<polygon class="st58" points="379.2,351.8 379.2,398.4 368.8,392.4 368.8,345.8 	"/>
	<polygon class="st58" points="368.8,345.8 368.8,392.4 359,386.7 359,340.1 	"/>
	<polygon class="st57" points="385.9,301.2 385.9,347.9 379.2,344 379.2,305.1 	"/>
	<polygon class="st57" points="379.2,344 379.2,344 385.9,347.9 379.2,351.8 	"/>
	<polygon class="st59" points="367,391.4 370.7,393.5 370.7,346.9 367,344.7 	"/>
	<path class="st6" d="M379.2,305.1l12.2,10c0.7,0.6,1.7,0.6,2.4,0.2l12.2-7v4.5l-12.2,7c-0.8,0.4-1.7,0.4-2.4-0.2l-12.2-9.9
		L379.2,305.1"/>
	<polygon class="st56" points="372.5,293.5 385.9,301.2 379.2,305.1 365.7,297.3 	"/>
	<path class="st56" d="M399.3,304.4l6.8,3.8l-12.2,7c-0.8,0.5-1.8,0.4-2.4-0.2l-12.2-10l6.7-3.9l5.5,5.8c0.7,0.7,1.8,0.9,2.6,0.4
		L399.3,304.4"/>
	<polyline class="st56" points="370.5,292.3 370.5,292.3 372.5,293.5 372.5,293.5 371.4,292.9 370.5,292.3 	"/>
	<polygon class="st60" points="370.5,292.3 365.7,297.3 372.5,293.5 	"/>
	<polygon class="st51" points="370.5,292.3 365.7,297.3 372.5,293.5 	"/>
	<polygon class="st57" points="372.5,293.5 372.5,293.5 365.7,297.3 379.2,305.1 379.2,305.1 385.9,301.2 	"/>
	<path class="st57" d="M385.9,301.2L385.9,301.2l-6.7,3.9l12.2,10c0.4,0.3,0.9,0.5,1.4,0.5c0.4,0,0.7-0.1,1.1-0.3l12.2-7l-6.8-3.8
		l-5.2,3c-0.3,0.2-0.7,0.3-1.1,0.3c-0.6,0-1.1-0.2-1.6-0.7L385.9,301.2"/>
	<polygon class="st61" points="402.8,302.4 399.3,304.4 406.1,308.3 409.6,306.3 	"/>
	<polygon class="st61" points="406.1,308.3 409.6,306.3 409.6,310.8 406.1,312.8 	"/>
	<polygon class="st6" points="359,340.1 355.6,338.2 355.6,334.7 359,336.6 	"/>
	<polygon class="st59" points="384.1,389.8 390.9,385.9 384.1,381.9 	"/>
	<path class="st59" d="M387.4,385.9l-8.2,4.7v7.8l13.4-7.8v-1.7C392.6,386.2,389.7,384.5,387.4,385.9"/>
	<polygon class="st59" points="385.9,347.9 385.9,394.6 379.2,398.4 379.2,351.8 	"/>
	<path class="st58" d="M384.6,280.9l-10.8-6.2l-8.2,4.6c-1.4,0.8-2.2,2.2-2.2,3.8l-0.1,12.8l11.1,6.5l6.4-3.7
		c2.4-1.4,3.8-3.9,3.8-6.6V280.9z"/>
	<path class="st61" d="M384.6,283.5l-5.7,3.3c-1.3,0.8-2.1,2.2-2.1,3.7V301l4.1-2.3c2.3-1.4,3.8-3.9,3.8-6.6V283.5z"/>
	<path class="st8" d="M375.9,273.5l10.7,6.2v0.2c0,1.5-0.8,2.9-2.1,3.6v-2.6l-10.8-6.2L375.9,273.5z"/>
	<path class="st6" d="M355.6,334.7l3.5,2v-43.2l-0.3-0.2c-1.4-0.8-3.3,0.2-3.3,1.9V334.7z"/>
	<polygon class="st13" points="60.2,323.8 114.3,292.7 120.9,296.4 67.1,327.6 	"/>
	<polygon class="st12" points="114.3,292.7 60.2,323.8 67.1,327.6 120.9,296.4 	"/>
	<polygon class="st7" points="228.4,382.1 248.6,370.4 268.8,382.1 248.6,393.8 	"/>
	<polygon class="st6" points="228.4,382.1 248.6,370.4 268.8,382.1 248.6,393.8 	"/>
	<polygon class="st12" points="248.6,393.8 268.8,382.1 268.8,405.4 248.6,417.1 	"/>
	<polygon class="st14" points="228.4,405.4 228.4,382.1 248.6,393.8 248.6,417.1 	"/>
	<polygon class="st62" points="524.7,630.7 524.7,607.4 544.9,619 544.9,642.4 	"/>
	<polygon class="st14" points="524.7,607.4 524.7,630.7 544.9,642.3 544.9,619 	"/>
	<polygon class="st63" points="524.7,607.4 544.9,595.7 565.1,607.4 544.9,619 	"/>
	<polygon class="st6" points="544.9,595.7 524.7,607.4 544.9,619 565.1,607.4 	"/>
	<polygon class="st30" points="544.9,619 565.1,607.4 565.1,630.7 544.9,642.3 	"/>
	<polygon class="st62" points="544.9,619 565.1,607.4 565.1,630.7 544.9,642.3 	"/>
	<polygon class="st12" points="544.9,619 565.1,607.4 565.1,630.7 544.9,642.3 	"/>
	<polygon class="st64" points="639,689.1 693,658.1 746.8,689.1 692.9,720.2 	"/>
	<polygon class="st12" points="639,689.1 639,696.9 692.9,728 746.8,696.9 746.8,689.1 692.9,720.2 	"/>
	<polygon class="st17" points="188.2,455.7 242.2,424.7 295.9,455.7 242.1,486.8 	"/>
	<polygon class="st14" points="188.2,455.7 188.2,463.5 242.1,494.6 295.9,463.5 295.9,455.7 242.1,486.8 	"/>
	<polygon class="st6" points="242.2,424.7 188.2,455.7 242.1,486.8 295.9,455.7 	"/>
	<polygon class="st12" points="295.9,455.7 295.9,455.7 242.1,486.8 242.1,494.6 295.9,463.5 	"/>
	<polygon class="st65" points="639,693.2 639,696.9 692.9,728 692.9,728 639,696.9 639,693.2 	"/>
	<polygon class="st14" points="639,693.2 639,696.9 692.9,728 692.9,720.3 689.4,722.3 689.4,722.2 689.4,722.3 	"/>
	<polygon class="st46" points="635.5,683.4 689.5,652.3 743.2,683.4 689.4,714.5 	"/>
	<polygon class="st6" points="642.4,679.4 635.5,683.4 689.4,714.5 743.2,683.4 743.2,683.3 696.2,710.5 	"/>
	<polygon class="st12" points="635.5,683.4 635.5,691.1 689.4,722.3 743.2,691.1 743.2,683.4 689.4,714.5 	"/>
	<polygon class="st66" points="642.3,671.6 696.2,640.6 750,671.6 696.2,702.7 	"/>
	<polygon class="st12" points="642.3,671.6 642.3,679.4 696.2,710.5 750,679.4 750,671.6 696.2,702.7 	"/>
	<polygon class="st6" points="696.2,640.6 642.3,671.6 696.2,702.7 750,671.6 	"/>
	<polygon class="st14" points="642.3,671.6 642.3,679.4 696.2,710.5 696.2,702.7 	"/>
	<polygon class="st65" points="635.5,683.4 635.5,691.1 639,693.2 639,693.2 635.5,691.1 635.5,683.4 	"/>
	<polygon class="st67" points="639,693.2 639,693.2 639,693.2 639,693.2 	"/>
	<polygon class="st68" points="639,693.2 639,693.2 689.4,722.3 689.4,722.2 	"/>
	<polygon class="st23" points="639,693.2 639,693.2 689.4,722.3 689.4,722.2 	"/>
	<polygon class="st14" points="635.5,683.4 635.5,691.1 639,693.2 639,693.2 689.4,722.2 689.4,714.5 	"/>
	<polygon class="st14" points="385.9,446.8 379.2,442.8 399.1,353.2 405.9,357.2 	"/>
</g>
</svg>
