<?xml version="1.0" encoding="utf-8"?>
<!-- Generator: Adobe Illustrator 19.0.0, SVG Export Plug-In . SVG Version: 6.00 Build 0)  -->
<svg version="1.1" id="Layer_1" xmlns="http://www.w3.org/2000/svg" xmlns:xlink="http://www.w3.org/1999/xlink" x="0px" y="0px"
	 viewBox="0 0 245.2 460.9" style="enable-background:new 0 0 245.2 460.9;" xml:space="preserve">
<style type="text/css">
	.st0{clip-path:url(#SVGID_2_);}
	.st1{fill:#E5E5E5;}
	.st2{font-family:'BebasNeueRegular';}
	.st3{font-size:90.6347px;}
	.st4{fill:#898888;}
	.st5{fill:#7C7D80;}
	.st6{font-size:27.4871px;}
	.st7{clip-path:url(#SVGID_4_);fill:#FFFFFF;}
	.st8{clip-path:url(#SVGID_4_);fill:none;stroke:#231F20;stroke-width:3;stroke-miterlimit:10;}
	.st9{clip-path:url(#SVGID_4_);fill:#555658;}
	.st10{clip-path:url(#SVGID_4_);}
	.st11{clip-path:url(#SVGID_4_);fill:none;stroke:#555658;stroke-miterlimit:10;}
	.st12{clip-path:url(#SVGID_6_);fill:#FFFFFF;}
	.st13{clip-path:url(#SVGID_6_);fill:none;stroke:#231F20;stroke-width:3;stroke-miterlimit:10;}
	.st14{clip-path:url(#SVGID_6_);fill:none;stroke:#F6EC13;stroke-width:5;stroke-miterlimit:10;}
	.st15{clip-path:url(#SVGID_6_);fill:#555658;}
	.st16{clip-path:url(#SVGID_8_);fill:#FFFFFF;}
	.st17{clip-path:url(#SVGID_8_);fill:none;stroke:#231F20;stroke-width:3;stroke-miterlimit:10;}
	.st18{clip-path:url(#SVGID_8_);fill:none;stroke:#F6EC13;stroke-width:5;stroke-miterlimit:10;}
	.st19{clip-path:url(#SVGID_8_);fill:none;stroke:#636464;stroke-width:2;stroke-miterlimit:10;}
	.st20{clip-path:url(#SVGID_8_);fill:#555658;}
	.st21{clip-path:url(#SVGID_10_);fill:#CBCCCE;}
	.st22{clip-path:url(#SVGID_10_);fill:#FFFFFF;}
	.st23{clip-path:url(#SVGID_10_);fill:none;stroke:#231F20;stroke-width:3;stroke-miterlimit:10;}
	.st24{clip-path:url(#SVGID_10_);fill:none;stroke:#F6EC13;stroke-width:5;stroke-miterlimit:10;}
	.st25{clip-path:url(#SVGID_10_);fill:none;stroke:#636464;stroke-width:2;stroke-miterlimit:10;}
	.st26{clip-path:url(#SVGID_10_);fill:#555658;}
</style>
<g>
	<defs>
		<rect id="SVGID_1_" width="245.2" height="460.9"/>
	</defs>
	<clipPath id="SVGID_2_">
		<use xlink:href="#SVGID_1_"  style="overflow:visible;"/>
	</clipPath>
	<g class="st0">
		<text transform="matrix(-6.123234e-017 -1 1 -6.123234e-017 77.0391 460.894)" class="st1 st2 st3">WT</text>
	</g>
	<g class="st0">
		<text transform="matrix(-6.123234e-017 -1 1 -6.123234e-017 77.0393 378.5073)" class="st1 st2 st3">A 5d PROCESS</text>
	</g>
</g>
<rect x="126.5" y="20.2" class="st4" width="0.9" height="419.2"/>
<text transform="matrix(1 0 0 1 166.3936 134.2724)" class="st5 st2 st6">DEFINE</text>
<g>
	<defs>
		<rect id="SVGID_3_" width="245.2" height="460.9"/>
	</defs>
	<clipPath id="SVGID_4_">
		<use xlink:href="#SVGID_3_"  style="overflow:visible;"/>
	</clipPath>
	<path class="st7" d="M126.9,105.8c10.6,0,19.2,8.6,19.2,19.2c0,10.6-8.6,19.2-19.2,19.2c-10.6,0-19.2-8.6-19.2-19.2
		C107.7,114.4,116.3,105.8,126.9,105.8"/>
	<circle class="st8" cx="126.9" cy="125.1" r="19.2"/>
	<path class="st9" d="M132.5,125.1c0,3.1-2.5,5.6-5.6,5.6c-3.1,0-5.6-2.5-5.6-5.6c0-3.1,2.5-5.6,5.6-5.6
		C130,119.4,132.5,122,132.5,125.1"/>
	<g class="st10">
		<text transform="matrix(1 0 0 1 166.3945 29.9472)" class="st5 st2 st6">DISCOVER</text>
	</g>
	<path class="st7" d="M126.9,1.5c10.6,0,19.2,8.6,19.2,19.2c0,10.6-8.6,19.2-19.2,19.2c-10.6,0-19.2-8.6-19.2-19.2
		C107.7,10.1,116.3,1.5,126.9,1.5"/>
	<circle class="st8" cx="126.9" cy="20.7" r="19.2"/>
	<circle class="st11" cx="127" cy="20.7" r="2.9"/>
</g>
<text transform="matrix(1 0 0 1 166.3945 238.5971)" class="st5 st2 st6">DESIGN</text>
<g>
	<defs>
		<rect id="SVGID_5_" width="245.2" height="460.9"/>
	</defs>
	<clipPath id="SVGID_6_">
		<use xlink:href="#SVGID_5_"  style="overflow:visible;"/>
	</clipPath>
	<path class="st12" d="M126.9,210.4c10.5,0,19,8.5,19,19c0,10.5-8.5,19-19,19c-10.5,0-19-8.5-19-19
		C107.9,218.9,116.4,210.4,126.9,210.4"/>
	<circle class="st13" cx="126.9" cy="229.4" r="19"/>
	<circle class="st14" cx="126.9" cy="229.4" r="11"/>
	<path class="st15" d="M132.4,229.4c0,3.1-2.5,5.5-5.5,5.5c-3.1,0-5.5-2.5-5.5-5.5c0-3.1,2.5-5.5,5.5-5.5
		C130,223.8,132.4,226.3,132.4,229.4"/>
</g>
<text transform="matrix(1 0 0 1 166.3945 342.9223)" class="st5 st2 st6">DEVELOP</text>
<g>
	<defs>
		<rect id="SVGID_7_" width="245.2" height="460.9"/>
	</defs>
	<clipPath id="SVGID_8_">
		<use xlink:href="#SVGID_7_"  style="overflow:visible;"/>
	</clipPath>
	<path class="st16" d="M126.9,315.1c10.3,0,18.6,8.3,18.6,18.6c0,10.3-8.3,18.6-18.6,18.6s-18.6-8.3-18.6-18.6
		C108.3,323.4,116.6,315.1,126.9,315.1"/>
	<circle class="st17" cx="126.9" cy="333.7" r="18.6"/>
	<circle class="st18" cx="126.9" cy="333.7" r="10.8"/>
	<circle class="st19" cx="126.9" cy="333.7" r="14.7"/>
	<path class="st20" d="M132.3,333.7c0,3-2.4,5.4-5.4,5.4c-3,0-5.4-2.4-5.4-5.4c0-3,2.4-5.4,5.4-5.4
		C129.9,328.3,132.3,330.7,132.3,333.7"/>
</g>
<text transform="matrix(1 0 0 1 166.3945 447.2475)" class="st5 st2 st6">DELIVER</text>
<g>
	<defs>
		<rect id="SVGID_9_" width="245.2" height="460.9"/>
	</defs>
	<clipPath id="SVGID_10_">
		<use xlink:href="#SVGID_9_"  style="overflow:visible;"/>
	</clipPath>
	<path class="st21" d="M150.4,438c0,12.3-10,22.3-22.3,22.3c-12.3,0-22.3-10-22.3-22.3s10-22.3,22.3-22.3
		C140.4,415.8,150.4,425.7,150.4,438"/>
	<path class="st22" d="M128.1,420.3c9.8,0,17.8,8,17.8,17.8c0,9.8-8,17.8-17.8,17.8c-9.8,0-17.8-8-17.8-17.8
		C110.4,428.2,118.3,420.3,128.1,420.3"/>
	<circle class="st23" cx="128.1" cy="438" r="17.8"/>
	<circle class="st24" cx="128.1" cy="438" r="10.3"/>
	<circle class="st25" cx="128.1" cy="438" r="14.3"/>
	<path class="st26" d="M133.3,438c0,2.9-2.3,5.2-5.2,5.2c-2.9,0-5.2-2.3-5.2-5.2c0-2.9,2.3-5.2,5.2-5.2
		C131,432.8,133.3,435.2,133.3,438"/>
</g>
</svg>
