<?xml version="1.0" encoding="utf-8"?>
<!-- Generator: Adobe Illustrator 21.1.0, SVG Export Plug-In . SVG Version: 6.00 Build 0)  -->
<svg version="1.1" id="Layer_1" xmlns="http://www.w3.org/2000/svg" xmlns:xlink="http://www.w3.org/1999/xlink" x="0px" y="0px"
	 viewBox="0 0 832 466" style="enable-background:new 0 0 832 466;" xml:space="preserve">
<style type="text/css">
	.st0{fill:#F6EB0F;}
	.st1{fill:#838383;}
	.st2{fill:#B9B9BA;}
	.st3{fill:#454649;}
	.st4{fill:#FFFFFF;}
	.st5{enable-background:new    ;}
	.st6{fill:#282827;}
</style>
<g>
	<g>
		<path class="st0" d="M558.1,295.7c-68.4,0-121.7-55.6-121.7-124h-2c0,69.5,56.5,126,126,126L558.1,295.7z"/>
	</g>
	<g>
		<rect x="729.6" y="39.8" class="st0" width="56" height="250.1"/>
	</g>
	<g>
		<rect x="96.4" y="126" class="st1" width="21.9" height="82.9"/>
	</g>
	<g>
		<rect x="85.2" y="48.3" class="st2" width="1" height="272.6"/>
	</g>
	<g>
		<rect x="85.2" y="320.6" class="st2" width="700.9" height="1.2"/>
	</g>
	<g>
		<path class="st2" d="M722.6,174.6h-0.2v-1h0.2V174.6z M714.4,174.6h-8v-1h8V174.6z M698.4,174.6h-8v-1h8V174.6z M682.4,174.6h-8
			v-1h8V174.6z M666.4,174.6h-8v-1h8V174.6z M650.4,174.6h-8v-1h8V174.6z M634.4,174.6h-8v-1h8V174.6z M618.4,174.6h-8v-1h8V174.6z
			 M602.4,174.6h-8v-1h8V174.6z M586.4,174.6h-8v-1h8V174.6z M570.4,174.6h-8v-1h8V174.6z M554.4,174.6h-8v-1h8V174.6z M538.4,174.6
			h-8v-1h8V174.6z M522.4,174.6h-8v-1h8V174.6z M506.4,174.6h-8v-1h8V174.6z M490.4,174.6h-8v-1h8V174.6z M474.4,174.6h-8v-1h8
			V174.6z M458.4,174.6h-8v-1h8V174.6z M442.4,174.6h-8v-1h8V174.6z M426.4,174.6h-8v-1h8V174.6z M410.4,174.6h-8v-1h8V174.6z
			 M394.4,174.6h-8v-1h8V174.6z M378.4,174.6h-8v-1h8V174.6z M362.4,174.6h-8v-1h8V174.6z M346.4,174.6h-8v-1h8V174.6z M330.4,174.6
			h-8v-1h8V174.6z M314.4,174.6h-8v-1h8V174.6z M298.4,174.6h-8v-1h8V174.6z M282.4,174.6h-8v-1h8V174.6z M266.4,174.6h-8v-1h8
			V174.6z M250.4,174.6h-8v-1h8V174.6z M234.4,174.6h-8v-1h8V174.6z M218.4,174.6h-8v-1h8V174.6z M202.4,174.6h-8v-1h8V174.6z
			 M186.4,174.6h-8v-1h8V174.6z M170.4,174.6h-8v-1h8V174.6z M154.4,174.6h-8v-1h8V174.6z M138.4,174.6h-8v-1h8V174.6z"/>
	</g>
	<g>
		<path class="st2" d="M294.1,283.2h-1v-4.7h1V283.2z M294.1,270.5h-1v-8h1V270.5z M294.1,254.5h-1v-8h1V254.5z M294.1,238.5h-1v-8
			h1V238.5z M294.1,222.5h-1v-8h1V222.5z M294.1,206.5h-1v-8h1V206.5z M294.1,190.5h-1v-8h1V190.5z M294.1,174.5h-1v-8h1V174.5z
			 M294.1,158.5h-1v-8h1V158.5z M294.1,142.5h-1v-8h1V142.5z M294.1,126.5h-1v-8h1V126.5z M294.1,110.5h-1v-8h1V110.5z M294.1,94.5
			h-1v-8h1V94.5z M294.1,78.5h-1v-8h1V78.5z M294.1,62.5h-1v-8h1V62.5z"/>
	</g>
	<g>
		<path class="st2" d="M435.2,283.2h-1v-4.7h1V283.2z M435.2,270.5h-1v-8h1V270.5z M435.2,254.5h-1v-8h1V254.5z M435.2,238.5h-1v-8
			h1V238.5z M435.2,222.5h-1v-8h1V222.5z M435.2,206.5h-1v-8h1V206.5z M435.2,190.5h-1v-8h1V190.5z M435.2,174.5h-1v-8h1V174.5z
			 M435.2,158.5h-1v-8h1V158.5z M435.2,142.5h-1v-8h1V142.5z M435.2,126.5h-1v-8h1V126.5z M435.2,110.5h-1v-8h1V110.5z M435.2,94.5
			h-1v-8h1V94.5z M435.2,78.5h-1v-8h1V78.5z M435.2,62.5h-1v-8h1V62.5z"/>
	</g>
	<g>
		<path class="st3" d="M559.7,299.3c-69.5,0-126-56.5-126-126s56.5-126,126-126s126,56.5,126,126S629.2,299.3,559.7,299.3z
			 M559.7,49.3c-68.4,0-124,55.6-124,124s55.6,124,124,124s124-55.6,124-124S628.1,49.3,559.7,49.3z"/>
	</g>
	<g>
		<g>
			<path class="st3" d="M369.5,245.7c-0.5,0-1-0.4-1-1c0-0.6,0.4-1,1-1c4.1-0.2,8.3-0.8,12.3-1.7c0.5-0.1,1.1,0.2,1.2,0.7
				c0.1,0.5-0.2,1.1-0.7,1.2C378.1,244.9,373.8,245.5,369.5,245.7C369.6,245.7,369.5,245.7,369.5,245.7z M356.9,245.2
				c0,0-0.1,0-0.1,0c-4.2-0.6-8.4-1.6-12.5-2.9c-0.5-0.2-0.8-0.7-0.6-1.3c0.2-0.5,0.7-0.8,1.3-0.6c3.9,1.3,8,2.2,12.1,2.8
				c0.5,0.1,0.9,0.6,0.9,1.1C357.8,244.8,357.4,245.2,356.9,245.2z M394,239.9c-0.4,0-0.7-0.2-0.9-0.6c-0.2-0.5,0-1.1,0.5-1.3
				c3.8-1.7,7.4-3.7,10.9-6.1c0.5-0.3,1.1-0.2,1.4,0.3c0.3,0.5,0.2,1.1-0.3,1.4c-3.5,2.4-7.3,4.5-11.2,6.3
				C394.3,239.9,394.1,239.9,394,239.9z M333,237.2c-0.2,0-0.3,0-0.5-0.1c-3.7-2.1-7.3-4.5-10.6-7.2c-0.4-0.4-0.5-1-0.1-1.4
				c0.4-0.4,1-0.5,1.4-0.1c3.2,2.6,6.7,5,10.3,7c0.5,0.3,0.7,0.9,0.4,1.4C333.7,237.1,333.4,237.2,333,237.2z M414.7,225.6
				c-0.3,0-0.5-0.1-0.7-0.3c-0.4-0.4-0.4-1,0-1.4c2.9-3,5.6-6.2,7.9-9.6c0.3-0.5,0.9-0.6,1.4-0.3c0.5,0.3,0.6,0.9,0.3,1.4
				c-2.4,3.5-5.2,6.8-8.2,9.9C415.2,225.5,415,225.6,414.7,225.6z M313.6,221.2c-0.3,0-0.6-0.1-0.8-0.4c-2.7-3.3-5.2-6.8-7.3-10.5
				c-0.3-0.5-0.1-1.1,0.4-1.4c0.5-0.3,1.1-0.1,1.4,0.4c2,3.6,4.4,7.1,7.1,10.2c0.4,0.4,0.3,1.1-0.1,1.4
				C314.1,221.1,313.9,221.2,313.6,221.2z M428.9,204.9c-0.1,0-0.3,0-0.4-0.1c-0.5-0.2-0.7-0.8-0.5-1.3c1.7-3.8,3-7.8,3.9-11.8
				c0.1-0.5,0.7-0.9,1.2-0.7c0.5,0.1,0.9,0.7,0.7,1.2c-1,4.2-2.3,8.3-4,12.2C429.7,204.6,429.3,204.9,428.9,204.9z M301.3,199.3
				c-0.4,0-0.8-0.3-0.9-0.7c-1.4-4-2.4-8.2-3-12.5c-0.1-0.5,0.3-1.1,0.8-1.1c0.5-0.1,1.1,0.3,1.1,0.8c0.6,4.1,1.6,8.2,2.9,12.1
				c0.2,0.5-0.1,1.1-0.6,1.3C301.5,199.3,301.4,199.3,301.3,199.3z M434.6,180.4C434.6,180.4,434.6,180.4,434.6,180.4
				c-0.6,0-1-0.5-1-1c0-1,0.1-2,0.1-3c0-3.1-0.2-6.3-0.7-9.4c-0.1-0.5,0.3-1.1,0.9-1.1c0.5-0.1,1.1,0.3,1.1,0.9
				c0.4,3.2,0.7,6.5,0.7,9.7c0,1,0,2.1-0.1,3.1C435.6,179.9,435.2,180.4,434.6,180.4z M297.8,174.4
				C297.7,174.4,297.7,174.4,297.8,174.4c-0.6,0-1-0.5-1-1c0.2-4.3,0.8-8.5,1.7-12.7c0.1-0.5,0.7-0.9,1.2-0.8
				c0.5,0.1,0.9,0.7,0.8,1.2c-0.9,4-1.5,8.2-1.7,12.3C298.7,173.9,298.3,174.4,297.8,174.4z M431.1,155.4c-0.4,0-0.8-0.3-0.9-0.7
				c-1.3-3.9-3-7.8-5-11.4c-0.3-0.5-0.1-1.1,0.4-1.4c0.5-0.3,1.1-0.1,1.4,0.4c2.1,3.7,3.8,7.7,5.2,11.7c0.2,0.5-0.1,1.1-0.6,1.3
				C431.3,155.4,431.2,155.4,431.1,155.4z M303.4,149.8c-0.1,0-0.3,0-0.4-0.1c-0.5-0.2-0.7-0.8-0.5-1.3c1.7-3.9,3.8-7.7,6.2-11.2
				c0.3-0.5,0.9-0.6,1.4-0.3c0.5,0.3,0.6,0.9,0.3,1.4c-2.3,3.4-4.4,7.1-6,10.9C304.2,149.6,303.8,149.8,303.4,149.8z M418.9,133.5
				c-0.3,0-0.6-0.1-0.8-0.4c-1.3-1.6-2.7-3.1-4.2-4.6c-1.5-1.5-3-2.9-4.7-4.2c-0.4-0.4-0.5-1-0.1-1.4c0.4-0.4,1-0.5,1.4-0.1
				c1.7,1.4,3.3,2.8,4.8,4.4c1.5,1.5,2.9,3.1,4.3,4.7c0.4,0.4,0.3,1.1-0.1,1.4C419.3,133.4,419.1,133.5,418.9,133.5z M317.6,129.1
				c-0.3,0-0.5-0.1-0.7-0.3c-0.4-0.4-0.4-1,0-1.4l0.2-0.2c3-3,6.3-5.8,9.9-8.2c0.5-0.3,1.1-0.2,1.4,0.3c0.3,0.5,0.2,1.1-0.3,1.4
				c-3.4,2.3-6.6,5-9.6,8l-0.2,0.2C318.1,129,317.8,129.1,317.6,129.1z M399.5,117.4c-0.2,0-0.3,0-0.5-0.1c-3.6-2-7.5-3.7-11.4-5
				c-0.5-0.2-0.8-0.7-0.6-1.3c0.2-0.5,0.7-0.8,1.3-0.6c4.1,1.4,8,3.1,11.7,5.2c0.5,0.3,0.7,0.9,0.4,1.4
				C400.2,117.2,399.8,117.4,399.5,117.4z M338.5,114.6c-0.4,0-0.8-0.2-0.9-0.6c-0.2-0.5,0-1.1,0.5-1.3c3.9-1.7,8-3.1,12.2-4.1
				c0.5-0.1,1.1,0.2,1.2,0.7c0.1,0.5-0.2,1.1-0.7,1.2c-4,0.9-8,2.3-11.8,4C338.8,114.6,338.6,114.6,338.5,114.6z M375.6,109.4
				c0,0-0.1,0-0.1,0c-4.1-0.6-8.3-0.8-12.4-0.6c-0.5,0-1-0.4-1-1s0.4-1,1-1c4.2-0.2,8.6,0,12.8,0.6c0.5,0.1,0.9,0.6,0.9,1.1
				C376.6,109.1,376.1,109.4,375.6,109.4z"/>
		</g>
	</g>
	<g>
		<path class="st3" d="M109.7,267.2c-0.4,0-0.7-0.2-0.9-0.6c-0.2-0.5,0-1.1,0.5-1.3c0.5-0.2,48.5-24.3,57.1-91.2
			c3.9-30.2,19.3-58.7,43.4-80.2c24.7-22,55.9-34.1,88-34.1c34.7,0,69,10.8,94.1,29.7c20,15,43.8,42.4,43.8,87c0,0.6-0.4,1-1,1
			s-1-0.4-1-1c0-74.5-70-114.7-135.9-114.7c-64.5,0-121.3,49.5-129.4,112.6c-4.6,35.5-20.1,58.9-32.4,72.2
			c-13.3,14.4-25.3,20.4-25.8,20.6C110,267.2,109.8,267.2,109.7,267.2z"/>
	</g>
	<g>
		<circle class="st4" cx="159.7" cy="203.7" r="12"/>
		<path class="st3" d="M159.7,216.7c-7.2,0-13-5.8-13-13s5.8-13,13-13s13,5.8,13,13S166.9,216.7,159.7,216.7z M159.7,192.7
			c-6.1,0-11,4.9-11,11s4.9,11,11,11s11-4.9,11-11S165.8,192.7,159.7,192.7z"/>
	</g>
	<g>
		<circle class="st4" cx="181" cy="134.3" r="12"/>
		<path class="st3" d="M181,147.3c-7.2,0-13-5.8-13-13s5.8-13,13-13s13,5.8,13,13S188.2,147.3,181,147.3z M181,123.3
			c-6.1,0-11,4.9-11,11s4.9,11,11,11s11-4.9,11-11S187.1,123.3,181,123.3z"/>
	</g>
	<g>
		<circle class="st4" cx="232.6" cy="78.6" r="12"/>
		<path class="st3" d="M232.6,91.6c-7.2,0-13-5.8-13-13s5.8-13,13-13s13,5.8,13,13S239.8,91.6,232.6,91.6z M232.6,67.6
			c-6.1,0-11,4.9-11,11s4.9,11,11,11s11-4.9,11-11S238.7,67.6,232.6,67.6z"/>
	</g>
	<g>
		<circle class="st4" cx="333" cy="63.9" r="12"/>
		<path class="st3" d="M333,76.9c-7.2,0-13-5.8-13-13s5.8-13,13-13s13,5.8,13,13S340.2,76.9,333,76.9z M333,52.9
			c-6.1,0-11,4.9-11,11s4.9,11,11,11s11-4.9,11-11S339.1,52.9,333,52.9z"/>
	</g>
	<g>
		<circle class="st4" cx="363.6" cy="244.8" r="12"/>
		<path class="st3" d="M363.6,257.8c-7.2,0-13-5.8-13-13s5.8-13,13-13s13,5.8,13,13S370.8,257.8,363.6,257.8z M363.6,233.8
			c-6.1,0-11,4.9-11,11s4.9,11,11,11s11-4.9,11-11S369.7,233.8,363.6,233.8z"/>
	</g>
	<g>
		<circle class="st4" cx="434.7" cy="174.1" r="25.4"/>
		<path class="st3" d="M434.7,200.5c-14.6,0-26.4-11.8-26.4-26.4s11.8-26.4,26.4-26.4c14.6,0,26.4,11.8,26.4,26.4
			S449.3,200.5,434.7,200.5z M434.7,149.7c-13.5,0-24.4,10.9-24.4,24.4s10.9,24.4,24.4,24.4s24.4-10.9,24.4-24.4
			S448.2,149.7,434.7,149.7z"/>
	</g>
	<g>
		<circle class="st0" cx="434.7" cy="174.1" r="12.3"/>
	</g>
	<g>
		<circle class="st0" cx="559.7" cy="174.1" r="39.1"/>
	</g>
	<g>
		<circle class="st4" cx="135.7" cy="244.8" r="12"/>
		<path class="st3" d="M135.7,257.8c-7.2,0-13-5.8-13-13s5.8-13,13-13s13,5.8,13,13S142.9,257.8,135.7,257.8z M135.7,233.8
			c-6.1,0-11,4.9-11,11s4.9,11,11,11s11-4.9,11-11S141.8,233.8,135.7,233.8z"/>
	</g>
	<g>
		<path class="st3" d="M545.6,313.3c-0.3,0-0.5-0.1-0.7-0.3c-0.4-0.4-0.4-1,0-1.4l13.4-13.3L545,285c-0.4-0.4-0.4-1,0-1.4
			s1-0.4,1.4,0l14,14c0.2,0.2,0.3,0.4,0.3,0.7s-0.1,0.5-0.3,0.7l-14.1,14C546.1,313.2,545.9,313.3,545.6,313.3z"/>
	</g>
	<g>
		<path class="st3" d="M338.7,255.8c-0.4,0-0.8-0.3-1-0.7l-6.1-18.9c-0.1-0.3-0.1-0.5,0.1-0.8s0.3-0.4,0.6-0.5l19-6.1
			c0.5-0.2,1.1,0.1,1.3,0.6s-0.1,1.1-0.6,1.3l-18,5.8l5.8,17.9c0.2,0.5-0.1,1.1-0.6,1.3C338.9,255.8,338.8,255.8,338.7,255.8z"/>
	</g>
	<g>
		<path class="st3" d="M698.7,188.4c-0.3,0-0.5-0.1-0.7-0.3l-13.4-13.4L671.3,188c-0.4,0.4-1,0.4-1.4,0s-0.4-1,0-1.4l14-14
			c0.4-0.4,1-0.4,1.4,0l14.1,14.1c0.4,0.4,0.4,1,0,1.4C699.2,188.3,699,188.4,698.7,188.4z"/>
	</g>
	<g>
		<path class="st3" d="M441.4,132.7c-0.4,0-0.7-0.2-0.9-0.6l-8.5-18c-0.2-0.5,0-1.1,0.5-1.3c0.5-0.2,1.1,0,1.3,0.5l8.1,17.1l17-8
			c0.5-0.2,1.1,0,1.3,0.5c0.2,0.5,0,1.1-0.5,1.3l-17.9,8.4C441.7,132.7,441.5,132.7,441.4,132.7z"/>
	</g>
	<g class="st5">
		<path class="st4" d="M103.1,186.5c0.5-0.6,1.2-0.9,2.1-0.9c0.9,0,1.7,0.3,2.2,0.9c0.5,0.6,0.8,1.4,0.8,2.5v2.3h2.8v0.8h-8.5v-3.2
			C102.4,187.9,102.6,187.1,103.1,186.5z M106.8,187.1c-0.4-0.4-0.9-0.7-1.6-0.7c-0.7,0-1.2,0.2-1.6,0.7c-0.4,0.4-0.5,1.1-0.5,1.9
			v2.3h4.3V189C107.4,188.2,107.2,187.5,106.8,187.1z"/>
		<path class="st4" d="M104.9,182.3c-0.3-0.4-0.4-0.9-0.4-1.4h0.8c0,0.7,0.2,1.2,0.6,1.6c0.4,0.4,1,0.6,1.6,0.7h3.4v0.8h-6.4v-0.8
			h1.5C105.5,183,105.1,182.7,104.9,182.3z"/>
		<path class="st4" d="M104.9,175.4c0.3-0.5,0.7-0.9,1.1-1.1c0.5-0.3,1-0.4,1.7-0.4c0.6,0,1.2,0.1,1.7,0.4c0.5,0.3,0.9,0.7,1.1,1.1
			c0.3,0.5,0.4,1,0.4,1.7s-0.1,1.2-0.4,1.7c-0.3,0.5-0.7,0.9-1.1,1.1c-0.5,0.3-1.1,0.4-1.7,0.4c-0.6,0-1.2-0.1-1.7-0.4
			c-0.5-0.3-0.9-0.7-1.1-1.1c-0.3-0.5-0.4-1-0.4-1.7S104.6,175.9,104.9,175.4z M105.5,178.3c0.2,0.4,0.5,0.7,0.9,0.9
			c0.4,0.2,0.8,0.3,1.3,0.3c0.5,0,0.9-0.1,1.3-0.3c0.4-0.2,0.7-0.5,0.9-0.9c0.2-0.4,0.3-0.8,0.3-1.2s-0.1-0.9-0.3-1.2
			c-0.2-0.4-0.5-0.7-0.9-0.9s-0.8-0.3-1.3-0.3c-0.5,0-0.9,0.1-1.3,0.3s-0.7,0.5-0.9,0.9c-0.2,0.4-0.3,0.8-0.3,1.2
			S105.3,177.9,105.5,178.3z"/>
		<path class="st4" d="M104.9,167c0.3-0.5,0.7-0.8,1.1-1.1c0.5-0.3,1.1-0.4,1.7-0.4c0.6,0,1.2,0.1,1.7,0.4c0.5,0.3,0.9,0.6,1.1,1.1
			c0.3,0.5,0.4,1,0.4,1.6c0,0.6-0.1,1.1-0.4,1.5c-0.3,0.4-0.6,0.8-1.1,1h1.5v0.8h-9.1v-0.8h4.1c-0.5-0.2-0.8-0.6-1.1-1
			s-0.4-1-0.4-1.5C104.5,168,104.6,167.5,104.9,167z M109.9,167.5c-0.2-0.4-0.5-0.7-0.9-0.9s-0.8-0.3-1.3-0.3
			c-0.5,0-0.9,0.1-1.3,0.3s-0.7,0.5-0.9,0.9s-0.3,0.8-0.3,1.2c0,0.5,0.1,0.9,0.3,1.2c0.2,0.4,0.5,0.6,0.9,0.9
			c0.4,0.2,0.8,0.3,1.3,0.3c0.5,0,0.9-0.1,1.3-0.3s0.7-0.5,0.9-0.9s0.3-0.8,0.3-1.2C110.2,168.3,110.1,167.9,109.9,167.5z"/>
		<path class="st4" d="M101.8,163.8v-0.8h9.1v0.8H101.8z"/>
		<path class="st4" d="M105.4,155.7c0.6-0.5,1.5-0.8,2.5-0.7v5.3c0.7-0.1,1.2-0.3,1.7-0.8c0.4-0.4,0.6-1,0.6-1.7
			c0-0.4-0.1-0.8-0.2-1.1c-0.1-0.4-0.4-0.7-0.6-0.9l0.5-0.5c0.3,0.3,0.6,0.7,0.8,1.1c0.2,0.4,0.3,0.9,0.3,1.4c0,0.6-0.1,1.2-0.4,1.6
			c-0.3,0.5-0.7,0.9-1.1,1.1c-0.5,0.3-1,0.4-1.7,0.4c-0.6,0-1.2-0.1-1.7-0.4c-0.5-0.3-0.9-0.6-1.1-1.1c-0.3-0.5-0.4-1-0.4-1.6
			C104.5,157,104.8,156.2,105.4,155.7z M107.3,155.7c-0.7,0-1.2,0.3-1.6,0.7c-0.4,0.4-0.6,0.9-0.6,1.6c0,0.6,0.2,1.2,0.6,1.6
			c0.4,0.4,0.9,0.7,1.6,0.7V155.7z"/>
		<path class="st4" d="M105.1,143.3c0.4-0.4,1.1-0.6,1.8-0.6h3.9v0.8h-3.7c-0.6,0-1.1,0.2-1.4,0.5c-0.3,0.3-0.5,0.8-0.5,1.4
			c0,0.7,0.3,1.2,0.7,1.6c0.5,0.4,1.1,0.6,1.8,0.6h3.2v0.8h-3.7c-0.6,0-1.1,0.2-1.4,0.5c-0.3,0.3-0.5,0.8-0.5,1.4
			c0,0.7,0.3,1.2,0.7,1.6c0.5,0.4,1.1,0.6,1.8,0.6h3.2v0.8h-6.4v-0.8h1.5c-0.5-0.2-0.9-0.5-1.1-0.9c-0.3-0.4-0.4-0.9-0.4-1.5
			c0-0.6,0.2-1.1,0.5-1.5c0.3-0.4,0.7-0.7,1.3-0.8c-0.6-0.2-1-0.5-1.3-0.9c-0.3-0.4-0.4-1-0.4-1.6
			C104.5,144.4,104.7,143.8,105.1,143.3z"/>
	</g>
	<g>
		<g class="st5">
			<path class="st1" d="M537.3,72.4h1.6v8.6h-1.6L533,75v5.9h-1.6v-8.6h1.6l4.4,5.9V72.4z"/>
			<path class="st1" d="M546,75.2c0.5,0.6,0.8,1.4,0.8,2.5c0,0.2,0,0.4,0,0.5H542c0.1,0.5,0.3,0.8,0.7,1.1s0.7,0.4,1.2,0.4
				c0.3,0,0.7-0.1,1-0.2c0.3-0.1,0.6-0.3,0.8-0.5l0.9,0.9c-0.3,0.4-0.7,0.6-1.2,0.8s-1,0.3-1.6,0.3c-0.7,0-1.3-0.1-1.8-0.4
				c-0.5-0.3-0.9-0.7-1.2-1.2c-0.3-0.5-0.4-1.1-0.4-1.7c0-0.7,0.1-1.2,0.4-1.7c0.3-0.5,0.7-0.9,1.2-1.2c0.5-0.3,1.1-0.4,1.7-0.4
				C544.7,74.4,545.5,74.6,546,75.2z M545.4,77.2c0-0.5-0.2-0.9-0.5-1.1c-0.3-0.3-0.7-0.4-1.2-0.4c-0.5,0-0.9,0.1-1.2,0.4
				c-0.3,0.3-0.5,0.7-0.6,1.2H545.4z"/>
			<path class="st1" d="M547,74.4l1.6,0l1.6,4.9l1.6-4.9h1.6l1.6,4.9l1.6-4.9h1.6l-2.4,6.5h-1.6l-1.6-4.6l-1.6,4.6h-1.6L547,74.4z"
				/>
			<path class="st1" d="M562.1,72.4h1.6v8.6h-1.6V72.4z"/>
			<path class="st1" d="M572.1,71.9v9.1h-1.6v-1.1c-0.2,0.4-0.5,0.6-0.9,0.8c-0.4,0.2-0.8,0.3-1.3,0.3c-0.6,0-1.2-0.1-1.6-0.4
				c-0.5-0.3-0.8-0.7-1.1-1.2c-0.3-0.5-0.4-1.1-0.4-1.8c0-0.7,0.1-1.2,0.4-1.7c0.3-0.5,0.6-0.9,1.1-1.2c0.5-0.3,1-0.4,1.6-0.4
				c0.5,0,0.9,0.1,1.3,0.3c0.4,0.2,0.7,0.5,0.9,0.8v-3.6H572.1z M570,79.1c0.3-0.4,0.5-0.8,0.5-1.4c0-0.6-0.2-1.1-0.5-1.4
				c-0.3-0.4-0.8-0.6-1.3-0.6c-0.5,0-1,0.2-1.3,0.6c-0.3,0.4-0.5,0.8-0.5,1.4c0,0.6,0.2,1.1,0.5,1.4s0.8,0.6,1.3,0.6
				C569.2,79.7,569.6,79.5,570,79.1z"/>
			<path class="st1" d="M579.2,75.2c0.5,0.6,0.8,1.4,0.8,2.5c0,0.2,0,0.4,0,0.5h-4.8c0.1,0.5,0.3,0.8,0.7,1.1s0.7,0.4,1.2,0.4
				c0.3,0,0.7-0.1,1-0.2c0.3-0.1,0.6-0.3,0.8-0.5l0.9,0.9c-0.3,0.4-0.7,0.6-1.2,0.8c-0.5,0.2-1,0.3-1.6,0.3c-0.7,0-1.3-0.1-1.8-0.4
				c-0.5-0.3-0.9-0.7-1.2-1.2s-0.4-1.1-0.4-1.7c0-0.7,0.1-1.2,0.4-1.7s0.7-0.9,1.2-1.2c0.5-0.3,1.1-0.4,1.7-0.4
				C577.9,74.4,578.7,74.6,579.2,75.2z M578.5,77.2c0-0.5-0.2-0.9-0.5-1.1c-0.3-0.3-0.7-0.4-1.2-0.4c-0.5,0-0.9,0.1-1.2,0.4
				c-0.3,0.3-0.5,0.7-0.6,1.2H578.5z"/>
			<path class="st1" d="M585.2,80.9v-0.8c-0.2,0.3-0.5,0.5-0.9,0.6c-0.4,0.1-0.8,0.2-1.2,0.2c-0.5,0-0.9-0.1-1.2-0.3
				c-0.3-0.2-0.6-0.4-0.8-0.7c-0.2-0.3-0.3-0.7-0.3-1c0-0.6,0.2-1.1,0.6-1.4c0.4-0.3,1-0.5,1.8-0.5h1.9v-0.2c0-0.4-0.1-0.7-0.4-0.9
				s-0.6-0.3-1.1-0.3c-0.6,0-1.3,0.2-1.9,0.6l-0.6-1.1c0.5-0.3,1-0.5,1.4-0.6s0.9-0.2,1.5-0.2c0.8,0,1.5,0.2,2,0.6
				c0.5,0.4,0.7,1,0.7,1.7l0,4.3H585.2z M584.6,79.5c0.3-0.2,0.5-0.5,0.5-0.8v-0.6h-1.6c-0.4,0-0.7,0.1-0.9,0.2
				c-0.2,0.1-0.3,0.3-0.3,0.6c0,0.3,0.1,0.5,0.3,0.7c0.2,0.2,0.5,0.2,0.8,0.2C583.9,79.8,584.3,79.7,584.6,79.5z"/>
			<path class="st1" d="M591.4,75.7c-0.3-0.1-0.7-0.2-0.9-0.2c-0.3,0-0.5,0-0.6,0.1s-0.2,0.2-0.2,0.4c0,0.2,0.1,0.4,0.3,0.5
				c0.2,0.1,0.5,0.2,0.9,0.3c0.5,0.1,0.8,0.3,1.1,0.4c0.3,0.1,0.5,0.3,0.8,0.6s0.3,0.6,0.3,1c0,0.6-0.2,1.1-0.7,1.5
				c-0.5,0.3-1.1,0.5-1.8,0.5c-0.5,0-1-0.1-1.5-0.2c-0.5-0.2-0.9-0.4-1.2-0.7l0.5-1.1c0.3,0.3,0.6,0.5,1.1,0.6
				c0.4,0.1,0.8,0.2,1.2,0.2c0.3,0,0.5-0.1,0.7-0.2s0.3-0.3,0.3-0.5c0-0.2-0.1-0.4-0.3-0.5c-0.2-0.1-0.5-0.2-1-0.4
				c-0.4-0.1-0.8-0.3-1.1-0.4c-0.3-0.1-0.5-0.3-0.7-0.6c-0.2-0.3-0.3-0.6-0.3-1c0-0.6,0.2-1.1,0.7-1.5s1.1-0.5,1.8-0.5
				c0.4,0,0.9,0.1,1.3,0.2s0.8,0.3,1.1,0.5l-0.6,1.1C592.1,76,591.8,75.8,591.4,75.7z"/>
		</g>
	</g>
	<g>
		<g class="st5">
			<path class="st1" d="M592.7,235.5h1.1l3.3,6.4l3.3-6.4h1.1v8.6h-0.8l0-7.4l-3.3,6.5h-0.5l-3.4-6.5v7.4h-0.8V235.5z"/>
			<path class="st1" d="M608.8,238.6c0.5,0.6,0.8,1.5,0.7,2.5h-5.3c0.1,0.7,0.3,1.2,0.8,1.7c0.4,0.4,1,0.6,1.7,0.6
				c0.4,0,0.8-0.1,1.1-0.2c0.4-0.1,0.7-0.4,0.9-0.6l0.5,0.5c-0.3,0.3-0.7,0.6-1.1,0.8c-0.4,0.2-0.9,0.3-1.4,0.3
				c-0.6,0-1.2-0.1-1.6-0.4c-0.5-0.3-0.9-0.7-1.1-1.1c-0.3-0.5-0.4-1-0.4-1.7c0-0.6,0.1-1.2,0.4-1.7c0.3-0.5,0.6-0.9,1.1-1.1
				c0.5-0.3,1-0.4,1.6-0.4C607.5,237.6,608.3,237.9,608.8,238.6z M608.8,240.5c0-0.7-0.3-1.2-0.7-1.6c-0.4-0.4-0.9-0.6-1.6-0.6
				c-0.6,0-1.2,0.2-1.6,0.6c-0.4,0.4-0.7,0.9-0.7,1.6H608.8z"/>
			<path class="st1" d="M615.2,244l0-1.1c-0.3,0.4-0.6,0.7-1,0.8c-0.4,0.2-0.9,0.3-1.4,0.3c-0.4,0-0.8-0.1-1.1-0.3s-0.6-0.4-0.8-0.7
				c-0.2-0.3-0.3-0.6-0.3-1c0-0.6,0.2-1,0.6-1.3c0.4-0.3,1-0.5,1.8-0.5h2.2v-0.5c0-0.5-0.2-0.9-0.5-1.2c-0.3-0.3-0.7-0.4-1.3-0.4
				c-0.7,0-1.4,0.3-2.1,0.8l-0.4-0.6c0.4-0.3,0.8-0.5,1.2-0.7s0.8-0.2,1.3-0.2c0.8,0,1.4,0.2,1.8,0.6c0.4,0.4,0.6,0.9,0.6,1.6l0,4.2
				H615.2z M614.4,243c0.4-0.3,0.7-0.6,0.8-1.1V241h-2.1c-0.6,0-1,0.1-1.3,0.3c-0.3,0.2-0.4,0.5-0.4,0.8c0,0.4,0.1,0.7,0.4,0.9
				s0.7,0.3,1.1,0.3C613.5,243.4,614,243.3,614.4,243z"/>
			<path class="st1" d="M620.7,238.4c-0.3-0.1-0.6-0.1-0.9-0.1c-0.4,0-0.7,0.1-1,0.2c-0.2,0.2-0.4,0.4-0.4,0.7
				c0,0.2,0.1,0.4,0.2,0.5s0.3,0.3,0.5,0.3s0.5,0.2,0.8,0.3c0.4,0.1,0.8,0.3,1.1,0.4c0.3,0.1,0.5,0.3,0.7,0.5
				c0.2,0.2,0.3,0.6,0.3,0.9c0,0.6-0.2,1-0.7,1.3c-0.4,0.3-1,0.5-1.7,0.5c-0.5,0-0.9-0.1-1.3-0.2c-0.4-0.2-0.8-0.4-1.1-0.7l0.3-0.6
				c0.3,0.3,0.6,0.5,1,0.6s0.8,0.2,1.2,0.2c0.4,0,0.8-0.1,1.1-0.3c0.3-0.2,0.4-0.4,0.4-0.8c0-0.2-0.1-0.4-0.2-0.6
				c-0.1-0.2-0.3-0.3-0.5-0.4s-0.5-0.2-0.9-0.3c-0.4-0.1-0.8-0.3-1.1-0.4c-0.3-0.1-0.5-0.3-0.7-0.5s-0.3-0.5-0.3-0.9
				c0-0.6,0.2-1,0.6-1.3c0.4-0.3,0.9-0.4,1.6-0.4c0.4,0,0.7,0,1.1,0.1c0.3,0.1,0.6,0.2,0.9,0.4l-0.3,0.6
				C621.3,238.6,621,238.5,620.7,238.4z"/>
			<path class="st1" d="M629.2,237.6v6.4h-0.8v-1.5c-0.2,0.5-0.5,0.9-0.9,1.1c-0.4,0.3-0.9,0.4-1.5,0.4c-0.8,0-1.4-0.2-1.8-0.7
				s-0.6-1.1-0.6-1.8v-3.9h0.8v3.7c0,0.6,0.2,1.1,0.5,1.4c0.3,0.3,0.8,0.5,1.4,0.5c0.7,0,1.2-0.2,1.6-0.7c0.4-0.5,0.6-1.1,0.6-1.8
				v-3.1H629.2z"/>
			<path class="st1" d="M633.3,238c0.4-0.3,0.9-0.4,1.4-0.4v0.8c-0.7,0-1.2,0.2-1.6,0.6c-0.4,0.4-0.6,1-0.7,1.6v3.4h-0.8v-6.4h0.8
				v1.5C632.6,238.6,632.9,238.3,633.3,238z"/>
			<path class="st1" d="M640.8,238.6c0.5,0.6,0.8,1.5,0.7,2.5h-5.3c0.1,0.7,0.3,1.2,0.8,1.7c0.4,0.4,1,0.6,1.7,0.6
				c0.4,0,0.8-0.1,1.1-0.2c0.4-0.1,0.7-0.4,0.9-0.6l0.5,0.5c-0.3,0.3-0.7,0.6-1.1,0.8c-0.4,0.2-0.9,0.3-1.4,0.3
				c-0.6,0-1.2-0.1-1.7-0.4c-0.5-0.3-0.9-0.7-1.1-1.1c-0.3-0.5-0.4-1-0.4-1.7c0-0.6,0.1-1.2,0.4-1.7c0.3-0.5,0.7-0.9,1.1-1.1
				c0.5-0.3,1-0.4,1.6-0.4C639.6,237.6,640.3,237.9,640.8,238.6z M640.8,240.5c0-0.7-0.3-1.2-0.7-1.6c-0.4-0.4-0.9-0.6-1.6-0.6
				c-0.6,0-1.2,0.2-1.6,0.6c-0.4,0.4-0.7,0.9-0.7,1.6H640.8z"/>
		</g>
	</g>
	<g>
		<g class="st5">
			<path class="st1" d="M559.6,225.8c0.5,0.4,0.7,0.9,0.7,1.6c0,0.5-0.1,0.9-0.4,1.3s-0.7,0.6-1.2,0.7c0.6,0.1,1.1,0.3,1.5,0.7
				c0.4,0.4,0.5,0.9,0.5,1.5c0,0.7-0.3,1.3-0.8,1.7c-0.5,0.4-1.3,0.6-2.3,0.6H554v-8.6h3.6C558.4,225.2,559.1,225.4,559.6,225.8z
				 M558.9,228.6c0.3-0.3,0.5-0.6,0.5-1.1c0-0.5-0.2-0.8-0.5-1.1s-0.8-0.4-1.4-0.4h-2.7v3h2.7C558.1,229,558.6,228.9,558.9,228.6z
				 M559.2,232.6c0.4-0.3,0.6-0.7,0.6-1.2c0-0.5-0.2-0.9-0.6-1.2s-1-0.4-1.7-0.4h-2.7v3.3h2.7C558.2,233,558.8,232.9,559.2,232.6z"
				/>
			<path class="st1" d="M568.1,227.4v6.4h-0.8v-1.5c-0.2,0.5-0.5,0.9-0.9,1.1c-0.4,0.3-0.9,0.4-1.5,0.4c-0.8,0-1.4-0.2-1.8-0.7
				s-0.6-1.1-0.6-1.8v-3.9h0.8v3.7c0,0.6,0.2,1.1,0.5,1.4c0.3,0.3,0.8,0.5,1.4,0.5c0.7,0,1.2-0.2,1.6-0.7c0.4-0.5,0.6-1.1,0.6-1.8
				v-3.1H568.1z"/>
			<path class="st1" d="M571.3,225.1c0.1,0.1,0.2,0.2,0.2,0.4s-0.1,0.3-0.2,0.4c-0.1,0.1-0.2,0.2-0.4,0.2c-0.2,0-0.3-0.1-0.4-0.2
				c-0.1-0.1-0.2-0.3-0.2-0.4s0.1-0.3,0.2-0.4c0.1-0.1,0.2-0.2,0.4-0.2S571.2,225,571.3,225.1z M570.5,227.4h0.8v6.4h-0.8V227.4z"/>
			<path class="st1" d="M573.8,224.7h0.8v9.1h-0.8V224.7z"/>
			<path class="st1" d="M582.9,224.7v9.1H582v-1.5c-0.2,0.5-0.6,0.9-1,1.1c-0.4,0.3-1,0.4-1.5,0.4c-0.6,0-1.1-0.1-1.6-0.4
				c-0.5-0.3-0.8-0.7-1.1-1.2s-0.4-1.1-0.4-1.7c0-0.6,0.1-1.2,0.4-1.7c0.3-0.5,0.6-0.9,1.1-1.1c0.5-0.3,1-0.4,1.6-0.4
				c0.6,0,1.1,0.1,1.5,0.4c0.4,0.3,0.8,0.6,1,1.1v-4.1H582.9z M580.9,232.8c0.4-0.2,0.7-0.5,0.9-0.9c0.2-0.4,0.3-0.8,0.3-1.3
				c0-0.5-0.1-0.9-0.3-1.3c-0.2-0.4-0.5-0.7-0.9-0.9c-0.4-0.2-0.8-0.3-1.2-0.3c-0.5,0-0.9,0.1-1.2,0.3s-0.7,0.5-0.9,0.9
				c-0.2,0.4-0.3,0.8-0.3,1.3c0,0.5,0.1,0.9,0.3,1.3c0.2,0.4,0.5,0.7,0.9,0.9c0.4,0.2,0.8,0.3,1.3,0.3
				C580.1,233.1,580.5,233,580.9,232.8z"/>
		</g>
	</g>
	<g>
		<g class="st5">
			<path class="st1" d="M324,153.3h6.3v1.4h-4.6v2.1h4.2v1.4h-4.2v2.2h4.8v1.4H324V153.3z"/>
			<path class="st1" d="M331.3,155.3h1.8l1.4,2.1l1.4-2.1h1.7l-2.1,3.2l2.2,3.3h-1.8l-1.5-2.3l-1.6,2.3h-1.8l2.3-3.3L331.3,155.3z"
				/>
			<path class="st1" d="M344.4,155.7c0.5,0.3,0.8,0.7,1.1,1.2c0.3,0.5,0.4,1.1,0.4,1.7c0,0.7-0.1,1.2-0.4,1.7
				c-0.3,0.5-0.6,0.9-1.1,1.2c-0.5,0.3-1,0.4-1.6,0.4c-0.5,0-0.9-0.1-1.3-0.3c-0.4-0.2-0.7-0.5-0.9-0.8v3.4H339v-8.9h1.6v1.1
				c0.2-0.4,0.5-0.6,0.9-0.8s0.8-0.3,1.3-0.3C343.4,155.2,343.9,155.4,344.4,155.7z M343.7,160c0.3-0.4,0.5-0.8,0.5-1.4
				s-0.2-1.1-0.5-1.4c-0.3-0.4-0.8-0.6-1.3-0.6c-0.5,0-1,0.2-1.3,0.6c-0.3,0.4-0.5,0.8-0.5,1.4c0,0.6,0.2,1.1,0.5,1.4
				c0.3,0.4,0.8,0.5,1.3,0.5C342.9,160.5,343.4,160.3,343.7,160z"/>
			<path class="st1" d="M352.3,156.1c0.5,0.6,0.8,1.4,0.8,2.5c0,0.2,0,0.4,0,0.5h-4.8c0.1,0.5,0.3,0.8,0.7,1.1s0.7,0.4,1.2,0.4
				c0.3,0,0.7-0.1,1-0.2c0.3-0.1,0.6-0.3,0.8-0.5l0.9,0.9c-0.3,0.4-0.7,0.6-1.2,0.8c-0.5,0.2-1,0.3-1.6,0.3c-0.7,0-1.3-0.1-1.8-0.4
				c-0.5-0.3-0.9-0.7-1.2-1.2c-0.3-0.5-0.4-1.1-0.4-1.7c0-0.7,0.1-1.2,0.4-1.7c0.3-0.5,0.7-0.9,1.2-1.2c0.5-0.3,1.1-0.4,1.7-0.4
				C351,155.2,351.8,155.5,352.3,156.1z M351.6,158.1c0-0.5-0.2-0.9-0.5-1.1c-0.3-0.3-0.7-0.4-1.2-0.4c-0.5,0-0.9,0.1-1.2,0.4
				c-0.3,0.3-0.5,0.7-0.6,1.2H351.6z"/>
			<path class="st1" d="M357,155.6c0.4-0.2,0.8-0.3,1.3-0.3v1.5c-0.7,0-1.2,0.1-1.6,0.5c-0.4,0.4-0.6,0.8-0.6,1.4v3.2h-1.6v-6.5h1.6
				v1.3C356.3,156.1,356.6,155.8,357,155.6z"/>
			<path class="st1" d="M360.8,152.8c0.2,0.2,0.3,0.4,0.3,0.7c0,0.3-0.1,0.5-0.3,0.7c-0.2,0.2-0.4,0.3-0.6,0.3s-0.5-0.1-0.6-0.3
				c-0.2-0.2-0.3-0.4-0.3-0.7c0-0.3,0.1-0.5,0.3-0.7c0.2-0.2,0.4-0.3,0.6-0.3S360.7,152.6,360.8,152.8z M359.4,155.3h1.6v6.5h-1.6
				V155.3z"/>
			<path class="st1" d="M373.3,155.9c0.4,0.5,0.6,1.1,0.6,1.8v4.1h-1.6v-3.6c0-0.5-0.1-0.8-0.4-1.1c-0.3-0.3-0.6-0.4-1-0.4
				c-0.5,0-0.9,0.2-1.2,0.5c-0.3,0.3-0.4,0.8-0.4,1.3v3.2h-1.6v-3.6c0-0.5-0.1-0.8-0.4-1.1s-0.6-0.4-1-0.4c-0.5,0-0.9,0.2-1.2,0.5
				c-0.3,0.3-0.4,0.8-0.4,1.3v3.2H363v-6.5h1.6v1.2c0.4-0.8,1.2-1.3,2.3-1.3c0.6,0,1,0.1,1.4,0.4c0.4,0.3,0.7,0.7,0.8,1.2
				c0.4-1,1.2-1.5,2.4-1.6C372.3,155.2,372.8,155.5,373.3,155.9z"/>
			<path class="st1" d="M380.8,156.1c0.5,0.6,0.8,1.4,0.8,2.5c0,0.2,0,0.4,0,0.5h-4.8c0.1,0.5,0.3,0.8,0.7,1.1s0.7,0.4,1.2,0.4
				c0.3,0,0.7-0.1,1-0.2c0.3-0.1,0.6-0.3,0.8-0.5l0.9,0.9c-0.3,0.4-0.7,0.6-1.2,0.8c-0.5,0.2-1,0.3-1.6,0.3c-0.7,0-1.3-0.1-1.8-0.4
				c-0.5-0.3-0.9-0.7-1.2-1.2c-0.3-0.5-0.4-1.1-0.4-1.7c0-0.7,0.1-1.2,0.4-1.7c0.3-0.5,0.7-0.9,1.2-1.2c0.5-0.3,1.1-0.4,1.7-0.4
				C379.4,155.2,380.2,155.5,380.8,156.1z M380.1,158.1c0-0.5-0.2-0.9-0.5-1.1c-0.3-0.3-0.7-0.4-1.2-0.4c-0.5,0-0.9,0.1-1.2,0.4
				c-0.3,0.3-0.5,0.7-0.6,1.2H380.1z"/>
			<path class="st1" d="M388.6,155.9c0.4,0.5,0.6,1.1,0.6,1.8v4.1h-1.6v-3.6c0-0.5-0.1-0.8-0.4-1.1s-0.6-0.4-1.1-0.4
				c-0.5,0-0.9,0.2-1.3,0.5c-0.3,0.3-0.5,0.8-0.5,1.3v3.2h-1.6v-6.5h1.6v1.2c0.4-0.8,1.2-1.3,2.3-1.3
				C387.6,155.2,388.2,155.5,388.6,155.9z"/>
			<path class="st1" d="M394.9,161.4c-0.5,0.3-1.1,0.5-1.6,0.5c-0.6,0-1-0.2-1.4-0.5c-0.4-0.3-0.5-0.8-0.5-1.5v-3.2h-0.9l0-1.2h0.9
				v-1.8h1.6v1.8h1.9v1.2h-1.9v2.9c0,0.3,0.1,0.5,0.2,0.6c0.1,0.1,0.3,0.2,0.5,0.2c0.2,0,0.6-0.1,0.9-0.3L394.9,161.4z"/>
		</g>
	</g>
	<g>
		<g class="st5">
			<path class="st1" d="M350.1,275.9l-1.8-2.8c-0.3,0-0.5,0-0.6,0h-2.3v2.8h-0.8v-8.5h3.2c1.1,0,1.9,0.2,2.5,0.7
				c0.6,0.5,0.9,1.2,0.9,2.1c0,0.7-0.2,1.3-0.5,1.8c-0.3,0.5-0.8,0.8-1.5,1l2.1,2.9H350.1z M347.7,272.4c0.8,0,1.4-0.2,1.9-0.6
				s0.7-0.9,0.7-1.6c0-0.7-0.2-1.2-0.7-1.6s-1.1-0.5-1.9-0.5h-2.3v4.3H347.7z"/>
			<path class="st1" d="M357.9,270.4c0.5,0.6,0.8,1.5,0.7,2.5h-5.3c0.1,0.7,0.3,1.2,0.8,1.7c0.4,0.4,1,0.6,1.7,0.6
				c0.4,0,0.8-0.1,1.1-0.2c0.4-0.1,0.7-0.4,0.9-0.6l0.5,0.5c-0.3,0.3-0.7,0.6-1.1,0.8c-0.4,0.2-0.9,0.3-1.4,0.3
				c-0.6,0-1.2-0.1-1.6-0.4c-0.5-0.3-0.9-0.7-1.1-1.1c-0.3-0.5-0.4-1-0.4-1.7c0-0.6,0.1-1.2,0.4-1.7c0.3-0.5,0.6-0.9,1.1-1.1
				c0.5-0.3,1-0.4,1.6-0.4C356.7,269.5,357.4,269.8,357.9,270.4z M357.9,272.3c0-0.7-0.3-1.2-0.7-1.6c-0.4-0.4-0.9-0.6-1.6-0.6
				c-0.6,0-1.2,0.2-1.6,0.6c-0.4,0.4-0.7,0.9-0.7,1.6H357.9z"/>
			<path class="st1" d="M359,269.5h0.9l2.1,5.6l2.1-5.6h0.9l-2.5,6.4h-0.9L359,269.5z"/>
			<path class="st1" d="M367,267.2c0.1,0.1,0.2,0.2,0.2,0.4s-0.1,0.3-0.2,0.4s-0.2,0.2-0.4,0.2c-0.2,0-0.3-0.1-0.4-0.2
				s-0.2-0.3-0.2-0.4s0.1-0.3,0.2-0.4c0.1-0.1,0.2-0.2,0.4-0.2S366.9,267.1,367,267.2z M366.2,269.5h0.8v6.4h-0.8V269.5z"/>
			<path class="st1" d="M371.9,270.3c-0.3-0.1-0.6-0.1-0.9-0.1c-0.4,0-0.7,0.1-1,0.2c-0.2,0.2-0.4,0.4-0.4,0.7
				c0,0.2,0.1,0.4,0.2,0.5s0.3,0.3,0.5,0.3s0.5,0.2,0.8,0.3c0.4,0.1,0.8,0.3,1.1,0.4c0.3,0.1,0.5,0.3,0.7,0.5
				c0.2,0.2,0.3,0.6,0.3,0.9c0,0.6-0.2,1-0.7,1.3s-1,0.5-1.6,0.5c-0.5,0-0.9-0.1-1.3-0.2c-0.4-0.2-0.8-0.4-1.1-0.7l0.3-0.6
				c0.3,0.3,0.6,0.5,1,0.6s0.8,0.2,1.2,0.2c0.4,0,0.8-0.1,1.1-0.3c0.3-0.2,0.4-0.4,0.4-0.8c0-0.2-0.1-0.4-0.2-0.6
				c-0.1-0.2-0.3-0.3-0.5-0.4s-0.5-0.2-0.9-0.3c-0.4-0.1-0.8-0.3-1.1-0.4c-0.3-0.1-0.5-0.3-0.7-0.5s-0.3-0.5-0.3-0.9
				c0-0.6,0.2-1,0.6-1.3s0.9-0.4,1.6-0.4c0.4,0,0.7,0,1.1,0.1c0.3,0.1,0.6,0.2,0.9,0.4l-0.3,0.6
				C372.4,270.5,372.2,270.3,371.9,270.3z"/>
			<path class="st1" d="M379.6,270.4c0.5,0.6,0.8,1.5,0.7,2.5H375c0.1,0.7,0.3,1.2,0.8,1.7c0.4,0.4,1,0.6,1.7,0.6
				c0.4,0,0.8-0.1,1.1-0.2c0.4-0.1,0.7-0.4,0.9-0.6l0.5,0.5c-0.3,0.3-0.7,0.6-1.1,0.8c-0.4,0.2-0.9,0.3-1.4,0.3
				c-0.6,0-1.2-0.1-1.6-0.4c-0.5-0.3-0.9-0.7-1.1-1.1c-0.3-0.5-0.4-1-0.4-1.7c0-0.6,0.1-1.2,0.4-1.7c0.3-0.5,0.6-0.9,1.1-1.1
				c0.5-0.3,1-0.4,1.6-0.4C378.3,269.5,379.1,269.8,379.6,270.4z M379.6,272.3c0-0.7-0.3-1.2-0.7-1.6c-0.4-0.4-0.9-0.6-1.6-0.6
				c-0.6,0-1.2,0.2-1.6,0.6c-0.4,0.4-0.7,0.9-0.7,1.6H379.6z"/>
		</g>
	</g>
	<g>
		<g class="st5">
			<path class="st1" d="M359.2,50.4h0.8v3.9h5.3v-3.9h0.8V59h-0.8v-3.9h-5.3V59h-0.8V50.4z"/>
			<path class="st1" d="M369.9,61c-0.3,0.3-0.7,0.4-1.1,0.4c-0.5,0-0.9-0.1-1.3-0.4l0.4-0.6c0.3,0.2,0.6,0.3,0.9,0.3
				c0.3,0,0.5-0.1,0.7-0.3c0.2-0.2,0.4-0.4,0.5-0.7l0.3-0.7l-2.7-6.4h0.9l2.2,5.5l2.1-5.5h0.8l-3,7.3
				C370.5,60.4,370.2,60.8,369.9,61z"/>
			<path class="st1" d="M379.9,53c0.5,0.3,0.8,0.7,1.1,1.1c0.3,0.5,0.4,1.1,0.4,1.7c0,0.6-0.1,1.2-0.4,1.7c-0.3,0.5-0.6,0.9-1.1,1.1
				c-0.5,0.3-1,0.4-1.6,0.4c-0.6,0-1.1-0.1-1.5-0.4c-0.4-0.3-0.8-0.6-1-1.1v3.8h-0.8v-8.8h0.8v1.5c0.2-0.5,0.6-0.8,1-1.1
				s1-0.4,1.5-0.4C378.9,52.6,379.4,52.7,379.9,53z M379.4,58c0.4-0.2,0.7-0.5,0.9-0.9s0.3-0.8,0.3-1.3c0-0.5-0.1-0.9-0.3-1.3
				s-0.5-0.7-0.9-0.9s-0.8-0.3-1.2-0.3c-0.5,0-0.9,0.1-1.2,0.3c-0.4,0.2-0.6,0.5-0.9,0.9c-0.2,0.4-0.3,0.8-0.3,1.3
				c0,0.5,0.1,0.9,0.3,1.3s0.5,0.7,0.9,0.9s0.8,0.3,1.2,0.3C378.6,58.3,379,58.2,379.4,58z"/>
			<path class="st1" d="M387.3,53c0.5,0.3,0.9,0.7,1.1,1.1c0.3,0.5,0.4,1,0.4,1.7c0,0.6-0.1,1.2-0.4,1.7c-0.3,0.5-0.7,0.9-1.1,1.1
				c-0.5,0.3-1,0.4-1.7,0.4s-1.2-0.1-1.7-0.4c-0.5-0.3-0.9-0.7-1.1-1.1c-0.3-0.5-0.4-1.1-0.4-1.7c0-0.6,0.1-1.2,0.4-1.7
				c0.3-0.5,0.7-0.9,1.1-1.1c0.5-0.3,1-0.4,1.7-0.4S386.8,52.7,387.3,53z M384.4,53.6c-0.4,0.2-0.7,0.5-0.9,0.9
				c-0.2,0.4-0.3,0.8-0.3,1.3c0,0.5,0.1,0.9,0.3,1.3c0.2,0.4,0.5,0.7,0.9,0.9c0.4,0.2,0.8,0.3,1.2,0.3s0.9-0.1,1.2-0.3
				c0.4-0.2,0.7-0.5,0.9-0.9s0.3-0.8,0.3-1.3c0-0.5-0.1-0.9-0.3-1.3s-0.5-0.7-0.9-0.9c-0.4-0.2-0.8-0.3-1.2-0.3
				S384.8,53.4,384.4,53.6z"/>
			<path class="st1" d="M393.8,58.5c-0.4,0.3-0.9,0.5-1.4,0.5c-0.5,0-0.9-0.2-1.2-0.5c-0.3-0.3-0.4-0.8-0.4-1.4v-3.8h-0.9l0-0.6h0.9
				v-1.6h0.8v1.6l2.1,0v0.6h-2.1v3.7c0,0.8,0.3,1.2,0.9,1.2c0.3,0,0.7-0.1,1.1-0.3L393.8,58.5z"/>
			<path class="st1" d="M400.5,53.2c0.4,0.4,0.7,1.1,0.7,1.8V59h-0.8v-3.7c0-0.6-0.2-1.1-0.5-1.4c-0.3-0.3-0.8-0.5-1.4-0.5
				c-0.7,0-1.3,0.2-1.7,0.7c-0.4,0.5-0.6,1.1-0.6,1.8V59h-0.8v-9.1h0.8v4.2c0.4-1,1.3-1.5,2.5-1.5C399.5,52.6,400.1,52.8,400.5,53.2
				z"/>
			<path class="st1" d="M408.1,53.5c0.5,0.6,0.8,1.5,0.7,2.5h-5.3c0.1,0.7,0.3,1.2,0.8,1.7c0.4,0.4,1,0.6,1.7,0.6
				c0.4,0,0.8-0.1,1.1-0.2c0.4-0.1,0.7-0.4,0.9-0.6l0.5,0.5c-0.3,0.3-0.7,0.6-1.1,0.8c-0.4,0.2-0.9,0.3-1.4,0.3
				c-0.6,0-1.2-0.1-1.6-0.4c-0.5-0.3-0.9-0.7-1.1-1.1c-0.3-0.5-0.4-1-0.4-1.7c0-0.6,0.1-1.2,0.4-1.7c0.3-0.5,0.6-0.9,1.1-1.1
				c0.5-0.3,1-0.4,1.6-0.4C406.9,52.6,407.6,52.9,408.1,53.5z M408.1,55.4c0-0.7-0.3-1.2-0.7-1.6c-0.4-0.4-0.9-0.6-1.6-0.6
				c-0.6,0-1.2,0.2-1.6,0.6c-0.4,0.4-0.7,0.9-0.7,1.6H408.1z"/>
			<path class="st1" d="M413.1,53.4c-0.3-0.1-0.6-0.1-0.9-0.1c-0.4,0-0.7,0.1-1,0.2c-0.2,0.2-0.4,0.4-0.4,0.7c0,0.2,0.1,0.4,0.2,0.5
				s0.3,0.3,0.5,0.3s0.5,0.2,0.8,0.3c0.4,0.1,0.8,0.3,1.1,0.4c0.3,0.1,0.5,0.3,0.7,0.5c0.2,0.2,0.3,0.6,0.3,0.9c0,0.6-0.2,1-0.7,1.3
				s-1,0.5-1.6,0.5c-0.5,0-0.9-0.1-1.3-0.2c-0.4-0.2-0.8-0.4-1.1-0.7l0.3-0.6c0.3,0.3,0.6,0.5,1,0.6s0.8,0.2,1.2,0.2
				c0.4,0,0.8-0.1,1.1-0.3c0.3-0.2,0.4-0.4,0.4-0.8c0-0.2-0.1-0.4-0.2-0.6c-0.1-0.2-0.3-0.3-0.5-0.4s-0.5-0.2-0.9-0.3
				c-0.4-0.1-0.8-0.3-1.1-0.4c-0.3-0.1-0.5-0.3-0.7-0.5s-0.3-0.5-0.3-0.9c0-0.6,0.2-1,0.6-1.3s0.9-0.4,1.6-0.4c0.4,0,0.7,0,1.1,0.1
				c0.3,0.1,0.6,0.2,0.9,0.4l-0.3,0.6C413.6,53.6,413.4,53.4,413.1,53.4z"/>
			<path class="st1" d="M416.9,50.3c0.1,0.1,0.2,0.2,0.2,0.4s-0.1,0.3-0.2,0.4s-0.2,0.2-0.4,0.2c-0.2,0-0.3-0.1-0.4-0.2
				s-0.2-0.3-0.2-0.4s0.1-0.3,0.2-0.4c0.1-0.1,0.2-0.2,0.4-0.2S416.8,50.2,416.9,50.3z M416.1,52.6h0.8V59h-0.8V52.6z"/>
			<path class="st1" d="M421.8,53.4c-0.3-0.1-0.6-0.1-0.9-0.1c-0.4,0-0.7,0.1-1,0.2c-0.2,0.2-0.4,0.4-0.4,0.7c0,0.2,0.1,0.4,0.2,0.5
				c0.1,0.1,0.3,0.3,0.5,0.3c0.2,0.1,0.5,0.2,0.8,0.3c0.4,0.1,0.8,0.3,1.1,0.4c0.3,0.1,0.5,0.3,0.7,0.5c0.2,0.2,0.3,0.6,0.3,0.9
				c0,0.6-0.2,1-0.7,1.3s-1,0.5-1.6,0.5c-0.5,0-0.9-0.1-1.3-0.2c-0.4-0.2-0.8-0.4-1.1-0.7l0.3-0.6c0.3,0.3,0.6,0.5,1,0.6
				s0.8,0.2,1.2,0.2c0.4,0,0.8-0.1,1.1-0.3c0.3-0.2,0.4-0.4,0.4-0.8c0-0.2-0.1-0.4-0.2-0.6c-0.1-0.2-0.3-0.3-0.5-0.4
				c-0.2-0.1-0.5-0.2-0.9-0.3c-0.4-0.1-0.8-0.3-1.1-0.4c-0.3-0.1-0.5-0.3-0.7-0.5s-0.3-0.5-0.3-0.9c0-0.6,0.2-1,0.6-1.3
				s0.9-0.4,1.6-0.4c0.4,0,0.7,0,1.1,0.1s0.6,0.2,0.9,0.4l-0.3,0.6C422.3,53.6,422.1,53.4,421.8,53.4z"/>
		</g>
	</g>
	<g>
		<g class="st5">
			<path class="st1" d="M157.1,52.6c0.5,0.4,0.8,0.9,0.8,1.6c0,0.5-0.1,0.9-0.4,1.2s-0.6,0.6-1.1,0.7c0.6,0.1,1,0.4,1.3,0.7
				c0.3,0.4,0.5,0.9,0.5,1.4c0,0.7-0.3,1.3-0.8,1.7c-0.6,0.4-1.3,0.6-2.3,0.6h-3.9v-8.6h3.8C155.8,52.1,156.5,52.3,157.1,52.6z
				 M155.8,55.3c0.2-0.2,0.4-0.4,0.4-0.8c0-0.3-0.1-0.6-0.4-0.8c-0.2-0.2-0.6-0.3-1-0.3h-2.1v2.1h2.1
				C155.2,55.6,155.6,55.5,155.8,55.3z M156,58.9c0.3-0.2,0.4-0.5,0.4-0.9c0-0.3-0.1-0.6-0.4-0.8c-0.3-0.2-0.7-0.3-1.2-0.3h-2.1v2.3
				h2.1C155.3,59.2,155.7,59.1,156,58.9z"/>
			<path class="st1" d="M162.2,54.4c0.4-0.2,0.8-0.3,1.3-0.3v1.5c-0.7,0-1.2,0.1-1.6,0.5c-0.4,0.4-0.6,0.8-0.6,1.4v3.2h-1.6v-6.5
				h1.6v1.3C161.5,54.9,161.8,54.6,162.2,54.4z"/>
			<path class="st1" d="M168.3,60.6v-0.8c-0.2,0.3-0.5,0.5-0.9,0.6s-0.8,0.2-1.2,0.2c-0.5,0-0.9-0.1-1.2-0.3
				c-0.3-0.2-0.6-0.4-0.8-0.7c-0.2-0.3-0.3-0.7-0.3-1c0-0.6,0.2-1.1,0.6-1.4c0.4-0.3,1-0.5,1.8-0.5h1.9v-0.2c0-0.4-0.1-0.7-0.4-0.9
				s-0.6-0.3-1.1-0.3c-0.6,0-1.3,0.2-1.9,0.6l-0.6-1.1c0.5-0.3,1-0.5,1.4-0.6s0.9-0.2,1.5-0.2c0.8,0,1.5,0.2,2,0.6
				c0.5,0.4,0.7,1,0.7,1.7l0,4.3H168.3z M167.7,59.1c0.3-0.2,0.5-0.5,0.5-0.8v-0.6h-1.6c-0.4,0-0.7,0.1-0.9,0.2s-0.3,0.3-0.3,0.6
				c0,0.3,0.1,0.5,0.3,0.7c0.2,0.2,0.5,0.2,0.8,0.2C167,59.5,167.4,59.4,167.7,59.1z"/>
			<path class="st1" d="M173,51.5c0.2,0.2,0.3,0.4,0.3,0.7c0,0.3-0.1,0.5-0.3,0.7c-0.2,0.2-0.4,0.3-0.6,0.3s-0.5-0.1-0.6-0.3
				c-0.2-0.2-0.3-0.4-0.3-0.7c0-0.3,0.1-0.5,0.3-0.7c0.2-0.2,0.4-0.3,0.6-0.3S172.9,51.4,173,51.5z M171.6,54.1h1.6v6.5h-1.6V54.1z"
				/>
			<path class="st1" d="M180.9,54.7c0.4,0.5,0.6,1.1,0.6,1.8v4.1h-1.6V57c0-0.5-0.1-0.8-0.4-1.1s-0.6-0.4-1.1-0.4
				c-0.5,0-0.9,0.2-1.3,0.5c-0.3,0.3-0.5,0.8-0.5,1.3v3.2h-1.6v-6.5h1.6v1.2c0.4-0.8,1.2-1.3,2.3-1.3
				C179.8,54,180.4,54.2,180.9,54.7z"/>
			<path class="st1" d="M186.2,55.4c-0.3-0.1-0.6-0.2-0.9-0.2c-0.3,0-0.5,0-0.6,0.1c-0.2,0.1-0.2,0.2-0.2,0.4c0,0.2,0.1,0.4,0.3,0.5
				c0.2,0.1,0.5,0.2,0.9,0.3c0.5,0.1,0.8,0.3,1.1,0.4c0.3,0.1,0.5,0.3,0.8,0.6c0.2,0.3,0.3,0.6,0.3,1c0,0.6-0.2,1.1-0.7,1.5
				s-1.1,0.5-1.8,0.5c-0.5,0-1-0.1-1.5-0.2c-0.5-0.2-0.9-0.4-1.2-0.7l0.5-1.1c0.3,0.3,0.6,0.5,1.1,0.6c0.4,0.1,0.8,0.2,1.2,0.2
				c0.3,0,0.5-0.1,0.7-0.2s0.3-0.3,0.3-0.5c0-0.2-0.1-0.4-0.3-0.5s-0.5-0.2-1-0.4c-0.4-0.1-0.8-0.3-1.1-0.4s-0.5-0.3-0.7-0.6
				s-0.3-0.6-0.3-1c0-0.6,0.2-1.1,0.7-1.5s1.1-0.5,1.8-0.5c0.4,0,0.9,0.1,1.3,0.2c0.4,0.1,0.8,0.3,1.1,0.5l-0.6,1.1
				C186.9,55.7,186.5,55.5,186.2,55.4z"/>
			<path class="st1" d="M193,60.2c-0.5,0.3-1.1,0.5-1.6,0.5c-0.6,0-1-0.2-1.4-0.5c-0.4-0.3-0.5-0.8-0.5-1.5v-3.2h-0.9l0-1.2h0.9
				v-1.8h1.6v1.8h1.9v1.2H191v2.9c0,0.3,0.1,0.5,0.2,0.6c0.1,0.1,0.3,0.2,0.5,0.2c0.2,0,0.6-0.1,0.9-0.3L193,60.2z"/>
			<path class="st1" d="M198.8,54.5c0.5,0.3,0.9,0.7,1.2,1.2s0.4,1.1,0.4,1.7c0,0.7-0.1,1.2-0.4,1.7s-0.7,0.9-1.2,1.2
				c-0.5,0.3-1.1,0.4-1.8,0.4c-0.7,0-1.3-0.1-1.8-0.4c-0.5-0.3-0.9-0.7-1.2-1.2s-0.4-1.1-0.4-1.7c0-0.7,0.1-1.2,0.4-1.7
				s0.7-0.9,1.2-1.2s1.1-0.4,1.8-0.4C197.7,54,198.3,54.2,198.8,54.5z M195.7,55.9c-0.3,0.4-0.5,0.8-0.5,1.4c0,0.6,0.2,1.1,0.5,1.4
				c0.3,0.4,0.8,0.5,1.3,0.5c0.5,0,1-0.2,1.3-0.5c0.3-0.4,0.5-0.8,0.5-1.4c0-0.6-0.2-1.1-0.5-1.4c-0.3-0.4-0.8-0.6-1.3-0.6
				C196.5,55.4,196.1,55.6,195.7,55.9z"/>
			<path class="st1" d="M204.4,54.4c0.4-0.2,0.8-0.3,1.3-0.3v1.5c-0.7,0-1.2,0.1-1.6,0.5c-0.4,0.4-0.6,0.8-0.6,1.4v3.2h-1.6v-6.5
				h1.6v1.3C203.7,54.9,204,54.6,204.4,54.4z"/>
			<path class="st1" d="M217.1,54.7c0.4,0.5,0.6,1.1,0.6,1.8v4.1h-1.6V57c0-0.5-0.1-0.8-0.4-1.1c-0.3-0.3-0.6-0.4-1-0.4
				c-0.5,0-0.9,0.2-1.2,0.5c-0.3,0.3-0.4,0.8-0.4,1.3v3.2h-1.6V57c0-0.5-0.1-0.8-0.4-1.1s-0.6-0.4-1-0.4c-0.5,0-0.9,0.2-1.2,0.5
				c-0.3,0.3-0.4,0.8-0.4,1.3v3.2h-1.6v-6.5h1.6v1.2c0.4-0.8,1.2-1.3,2.3-1.3c0.6,0,1,0.1,1.4,0.4c0.4,0.3,0.7,0.7,0.8,1.2
				c0.4-1,1.2-1.5,2.4-1.6C216.1,54,216.7,54.2,217.1,54.7z"/>
		</g>
		<g class="st5">
			<path class="st1" d="M156.2,68.4c-0.4-0.2-0.8-0.3-1.3-0.3c-0.5,0-1,0.1-1.5,0.4c-0.4,0.3-0.8,0.6-1,1c-0.3,0.4-0.4,0.9-0.4,1.5
				s0.1,1,0.4,1.5c0.3,0.4,0.6,0.8,1,1.1c0.4,0.3,0.9,0.4,1.5,0.4c0.4,0,0.8-0.1,1.2-0.3c0.4-0.2,0.8-0.4,1.1-0.7l1,1.1
				c-0.4,0.5-1,0.8-1.6,1.1c-0.6,0.3-1.2,0.4-1.8,0.4c-0.8,0-1.6-0.2-2.3-0.6c-0.7-0.4-1.2-0.9-1.6-1.6c-0.4-0.7-0.6-1.4-0.6-2.2
				s0.2-1.6,0.6-2.2c0.4-0.7,0.9-1.2,1.6-1.6c0.7-0.4,1.5-0.6,2.3-0.6c0.6,0,1.2,0.1,1.8,0.4c0.6,0.2,1.1,0.6,1.5,1l-1,1.2
				C157,68.9,156.6,68.6,156.2,68.4z"/>
			<path class="st1" d="M164,69.2c0.5,0.3,0.9,0.7,1.2,1.2s0.4,1.1,0.4,1.7c0,0.7-0.1,1.2-0.4,1.7s-0.7,0.9-1.2,1.2
				c-0.5,0.3-1.1,0.4-1.8,0.4c-0.7,0-1.3-0.1-1.8-0.4c-0.5-0.3-0.9-0.7-1.2-1.2s-0.4-1.1-0.4-1.7c0-0.7,0.1-1.2,0.4-1.7
				s0.7-0.9,1.2-1.2s1.1-0.4,1.8-0.4C162.9,68.7,163.5,68.9,164,69.2z M160.9,70.6c-0.3,0.4-0.5,0.8-0.5,1.4c0,0.6,0.2,1.1,0.5,1.4
				c0.3,0.4,0.8,0.5,1.3,0.5c0.5,0,1-0.2,1.3-0.5c0.3-0.4,0.5-0.8,0.5-1.4c0-0.6-0.2-1.1-0.5-1.4c-0.3-0.4-0.8-0.6-1.3-0.6
				C161.7,70.1,161.2,70.3,160.9,70.6z"/>
			<path class="st1" d="M172.8,69.4c0.4,0.5,0.6,1.1,0.6,1.8v4.1h-1.6v-3.6c0-0.5-0.1-0.8-0.4-1.1s-0.6-0.4-1.1-0.4
				c-0.5,0-0.9,0.2-1.3,0.5c-0.3,0.3-0.5,0.8-0.5,1.3v3.2H167v-6.5h1.6V70c0.4-0.8,1.2-1.3,2.3-1.3
				C171.7,68.7,172.3,68.9,172.8,69.4z"/>
			<path class="st1" d="M178,70.1c-0.5,0-1,0.2-1.3,0.5c-0.3,0.4-0.5,0.8-0.5,1.4c0,0.6,0.2,1.1,0.5,1.4c0.3,0.4,0.8,0.5,1.3,0.5
				c0.8,0,1.4-0.3,1.8-0.8l1,0.8c-0.3,0.4-0.7,0.8-1.2,1c-0.5,0.2-1,0.3-1.7,0.3c-0.6,0-1.2-0.1-1.7-0.4c-0.5-0.3-0.9-0.7-1.2-1.2
				c-0.3-0.5-0.4-1.1-0.4-1.7c0-0.7,0.1-1.2,0.4-1.7c0.3-0.5,0.7-0.9,1.2-1.2s1.1-0.4,1.7-0.4c0.6,0,1.1,0.1,1.6,0.3
				c0.5,0.2,0.8,0.5,1.1,0.9l-1,0.9C179.2,70.4,178.7,70.1,178,70.1z"/>
			<path class="st1" d="M186.9,69.6c0.5,0.6,0.8,1.4,0.8,2.5c0,0.2,0,0.4,0,0.5h-4.8c0.1,0.5,0.3,0.8,0.7,1.1s0.7,0.4,1.2,0.4
				c0.3,0,0.7-0.1,1-0.2c0.3-0.1,0.6-0.3,0.8-0.5l0.9,0.9c-0.3,0.4-0.7,0.6-1.2,0.8c-0.5,0.2-1,0.3-1.6,0.3c-0.7,0-1.3-0.1-1.8-0.4
				c-0.5-0.3-0.9-0.7-1.2-1.2c-0.3-0.5-0.4-1.1-0.4-1.7c0-0.7,0.1-1.2,0.4-1.7c0.3-0.5,0.7-0.9,1.2-1.2c0.5-0.3,1.1-0.4,1.7-0.4
				C185.6,68.7,186.4,69,186.9,69.6z M186.3,71.5c0-0.5-0.2-0.9-0.5-1.1c-0.3-0.3-0.7-0.4-1.2-0.4c-0.5,0-0.9,0.1-1.2,0.4
				c-0.3,0.3-0.5,0.7-0.6,1.2H186.3z"/>
			<path class="st1" d="M194.5,69.2c0.5,0.3,0.8,0.7,1.1,1.2c0.3,0.5,0.4,1.1,0.4,1.7c0,0.7-0.1,1.2-0.4,1.7
				c-0.3,0.5-0.6,0.9-1.1,1.2c-0.5,0.3-1,0.4-1.6,0.4c-0.5,0-0.9-0.1-1.3-0.3c-0.4-0.2-0.7-0.5-0.9-0.8v3.4h-1.6v-8.9h1.6v1.1
				c0.2-0.4,0.5-0.6,0.9-0.8s0.8-0.3,1.3-0.3C193.5,68.7,194.1,68.9,194.5,69.2z M193.9,73.5c0.3-0.4,0.5-0.8,0.5-1.4
				s-0.2-1.1-0.5-1.4c-0.3-0.4-0.8-0.6-1.3-0.6c-0.5,0-1,0.2-1.3,0.6c-0.3,0.4-0.5,0.8-0.5,1.4c0,0.6,0.2,1.1,0.5,1.4
				c0.3,0.4,0.8,0.5,1.3,0.5C193.1,74,193.5,73.8,193.9,73.5z"/>
			<path class="st1" d="M201.2,74.9c-0.5,0.3-1.1,0.5-1.6,0.5c-0.6,0-1-0.2-1.4-0.5c-0.4-0.3-0.5-0.8-0.5-1.5v-3.2h-0.9l0-1.2h0.9
				v-1.8h1.6v1.8h1.9v1.2h-1.9v2.9c0,0.3,0.1,0.5,0.2,0.6c0.1,0.1,0.3,0.2,0.5,0.2c0.2,0,0.6-0.1,0.9-0.3L201.2,74.9z"/>
			<path class="st1" d="M205.4,70.1c-0.3-0.1-0.6-0.2-0.9-0.2c-0.3,0-0.5,0-0.6,0.1c-0.2,0.1-0.2,0.2-0.2,0.4c0,0.2,0.1,0.4,0.3,0.5
				c0.2,0.1,0.5,0.2,0.9,0.3c0.5,0.1,0.8,0.3,1.1,0.4c0.3,0.1,0.5,0.3,0.8,0.6c0.2,0.3,0.3,0.6,0.3,1c0,0.6-0.2,1.1-0.7,1.5
				s-1.1,0.5-1.8,0.5c-0.5,0-1-0.1-1.5-0.2c-0.5-0.2-0.9-0.4-1.2-0.7l0.5-1.1c0.3,0.3,0.6,0.5,1.1,0.6c0.4,0.1,0.8,0.2,1.2,0.2
				c0.3,0,0.5-0.1,0.7-0.2s0.3-0.3,0.3-0.5c0-0.2-0.1-0.4-0.3-0.5s-0.5-0.2-1-0.4c-0.4-0.1-0.8-0.3-1.1-0.4s-0.5-0.3-0.7-0.6
				s-0.3-0.6-0.3-1c0-0.6,0.2-1.1,0.7-1.5s1.1-0.5,1.8-0.5c0.4,0,0.9,0.1,1.3,0.2c0.4,0.1,0.8,0.3,1.1,0.5l-0.6,1.1
				C206,70.4,205.7,70.2,205.4,70.1z"/>
		</g>
	</g>
	<g>
		<g class="st5">
			<path class="st1" d="M175.5,249.2c-0.4-0.2-0.9-0.3-1.4-0.3c-0.7,0-1.3,0.2-1.8,0.5c-0.5,0.3-1,0.8-1.3,1.3s-0.5,1.2-0.5,1.8
				s0.2,1.3,0.5,1.8c0.3,0.5,0.8,1,1.3,1.3c0.5,0.3,1.2,0.5,1.8,0.5c0.5,0,0.9-0.1,1.4-0.3c0.4-0.2,0.8-0.4,1.2-0.8l0.5,0.5
				c-0.4,0.4-0.9,0.7-1.5,0.9c-0.5,0.2-1.1,0.3-1.7,0.3c-0.8,0-1.5-0.2-2.2-0.6c-0.7-0.4-1.2-0.9-1.6-1.6c-0.4-0.7-0.6-1.4-0.6-2.2
				s0.2-1.5,0.6-2.2c0.4-0.7,0.9-1.2,1.6-1.6s1.4-0.6,2.2-0.6c0.6,0,1.1,0.1,1.7,0.3s1,0.5,1.4,0.9l-0.5,0.6
				C176.4,249.6,176,249.4,175.5,249.2z"/>
			<path class="st1" d="M179,247.7h0.8v9.1H179V247.7z"/>
			<path class="st1" d="M187,251.3c0.5,0.6,0.8,1.5,0.7,2.5h-5.3c0.1,0.7,0.3,1.2,0.8,1.7c0.4,0.4,1,0.6,1.7,0.6
				c0.4,0,0.8-0.1,1.1-0.2c0.4-0.1,0.7-0.4,0.9-0.6l0.5,0.5c-0.3,0.3-0.7,0.6-1.1,0.8c-0.4,0.2-0.9,0.3-1.4,0.3
				c-0.6,0-1.2-0.1-1.6-0.4c-0.5-0.3-0.9-0.7-1.1-1.1c-0.3-0.5-0.4-1-0.4-1.7c0-0.6,0.1-1.2,0.4-1.7c0.3-0.5,0.6-0.9,1.1-1.1
				c0.5-0.3,1-0.4,1.6-0.4C185.8,250.3,186.5,250.7,187,251.3z M187,253.2c0-0.7-0.3-1.2-0.7-1.6c-0.4-0.4-0.9-0.6-1.6-0.6
				c-0.6,0-1.2,0.2-1.6,0.6c-0.4,0.4-0.7,0.9-0.7,1.6H187z"/>
			<path class="st1" d="M193.5,256.8l0-1.1c-0.3,0.4-0.6,0.7-1,0.8c-0.4,0.2-0.9,0.3-1.4,0.3c-0.4,0-0.8-0.1-1.1-0.3
				s-0.6-0.4-0.8-0.7s-0.3-0.6-0.3-1c0-0.6,0.2-1,0.6-1.3c0.4-0.3,1-0.5,1.8-0.5h2.2v-0.5c0-0.5-0.2-0.9-0.5-1.2s-0.7-0.4-1.3-0.4
				c-0.7,0-1.4,0.3-2.1,0.8l-0.4-0.6c0.4-0.3,0.8-0.5,1.2-0.7s0.8-0.2,1.3-0.2c0.8,0,1.4,0.2,1.8,0.6c0.4,0.4,0.6,0.9,0.6,1.6l0,4.2
				H193.5z M192.7,255.7c0.4-0.3,0.7-0.6,0.8-1.1v-0.9h-2.1c-0.6,0-1,0.1-1.3,0.3s-0.4,0.5-0.4,0.8c0,0.4,0.1,0.7,0.4,0.9
				c0.3,0.2,0.7,0.3,1.1,0.3C191.8,256.1,192.3,256,192.7,255.7z"/>
			<path class="st1" d="M198.2,250.7c0.4-0.3,0.9-0.4,1.4-0.4v0.8c-0.7,0-1.2,0.2-1.6,0.6c-0.4,0.4-0.6,1-0.7,1.6v3.4h-0.8v-6.4h0.8
				v1.5C197.5,251.4,197.8,251,198.2,250.7z"/>
			<path class="st1" d="M210.7,248.2h0.8v8.5h-0.9l-5.3-7.2v7.2h-0.8v-8.5h0.9l5.3,7.2V248.2z"/>
			<path class="st1" d="M218.8,251.3c0.5,0.6,0.8,1.5,0.7,2.5h-5.3c0.1,0.7,0.3,1.2,0.8,1.7c0.4,0.4,1,0.6,1.7,0.6
				c0.4,0,0.8-0.1,1.1-0.2c0.4-0.1,0.7-0.4,0.9-0.6l0.5,0.5c-0.3,0.3-0.7,0.6-1.1,0.8c-0.4,0.2-0.9,0.3-1.4,0.3
				c-0.6,0-1.2-0.1-1.6-0.4c-0.5-0.3-0.9-0.7-1.1-1.1c-0.3-0.5-0.4-1-0.4-1.7c0-0.6,0.1-1.2,0.4-1.7c0.3-0.5,0.6-0.9,1.1-1.1
				c0.5-0.3,1-0.4,1.6-0.4C217.5,250.3,218.3,250.7,218.8,251.3z M218.8,253.2c0-0.7-0.3-1.2-0.7-1.6c-0.4-0.4-0.9-0.6-1.6-0.6
				c-0.6,0-1.2,0.2-1.6,0.6c-0.4,0.4-0.7,0.9-0.7,1.6H218.8z"/>
			<path class="st1" d="M226,251.3c0.5,0.6,0.8,1.5,0.7,2.5h-5.3c0.1,0.7,0.3,1.2,0.8,1.7c0.4,0.4,1,0.6,1.7,0.6
				c0.4,0,0.8-0.1,1.1-0.2c0.4-0.1,0.7-0.4,0.9-0.6l0.5,0.5c-0.3,0.3-0.7,0.6-1.1,0.8c-0.4,0.2-0.9,0.3-1.4,0.3
				c-0.6,0-1.2-0.1-1.6-0.4c-0.5-0.3-0.9-0.7-1.1-1.1c-0.3-0.5-0.4-1-0.4-1.7c0-0.6,0.1-1.2,0.4-1.7c0.3-0.5,0.6-0.9,1.1-1.1
				c0.5-0.3,1-0.4,1.6-0.4C224.7,250.3,225.5,250.7,226,251.3z M226,253.2c0-0.7-0.3-1.2-0.7-1.6c-0.4-0.4-0.9-0.6-1.6-0.6
				c-0.6,0-1.2,0.2-1.6,0.6c-0.4,0.4-0.7,0.9-0.7,1.6H226z"/>
			<path class="st1" d="M234.3,247.7v9.1h-0.8v-1.5c-0.2,0.5-0.6,0.9-1,1.1c-0.4,0.3-1,0.4-1.5,0.4c-0.6,0-1.1-0.1-1.6-0.4
				c-0.5-0.3-0.8-0.7-1.1-1.2s-0.4-1.1-0.4-1.7c0-0.6,0.1-1.2,0.4-1.7c0.3-0.5,0.6-0.9,1.1-1.1c0.5-0.3,1-0.4,1.6-0.4
				c0.6,0,1.1,0.1,1.5,0.4c0.4,0.3,0.8,0.6,1,1.1v-4.1H234.3z M232.3,255.8c0.4-0.2,0.7-0.5,0.9-0.9s0.3-0.8,0.3-1.3
				c0-0.5-0.1-0.9-0.3-1.3s-0.5-0.7-0.9-0.9c-0.4-0.2-0.8-0.3-1.2-0.3s-0.9,0.1-1.2,0.3c-0.4,0.2-0.7,0.5-0.9,0.9
				c-0.2,0.4-0.3,0.8-0.3,1.3c0,0.5,0.1,0.9,0.3,1.3s0.5,0.7,0.9,0.9s0.8,0.3,1.3,0.3S231.9,256,232.3,255.8z"/>
		</g>
		<g class="st5">
			<path class="st1" d="M171.4,264.8c-0.2,0.9-0.4,1.9-0.4,2.9c0,1,0.1,2,0.4,2.9c0.2,0.9,0.6,1.7,1,2.4h-0.8
				c-0.5-0.7-0.8-1.5-1.1-2.4c-0.2-0.9-0.4-1.9-0.4-2.9c0-1,0.1-2,0.4-2.9c0.2-0.9,0.6-1.7,1.1-2.4h0.8
				C172,263.1,171.6,263.9,171.4,264.8z"/>
			<path class="st1" d="M177.7,263.8c-0.4-0.1-0.8-0.2-1.2-0.2c-0.6,0-1.1,0.1-1.4,0.3c-0.4,0.2-0.5,0.5-0.5,0.9
				c0,0.3,0.1,0.6,0.3,0.9c0.2,0.2,0.4,0.4,0.7,0.5c0.3,0.1,0.7,0.3,1.2,0.4c0.6,0.2,1,0.3,1.4,0.5s0.7,0.4,0.9,0.7
				c0.2,0.3,0.4,0.7,0.4,1.3c0,0.5-0.1,0.9-0.4,1.2c-0.3,0.4-0.6,0.6-1.1,0.8s-1,0.3-1.6,0.3c-0.6,0-1.2-0.1-1.7-0.4
				c-0.6-0.2-1.1-0.5-1.5-0.9l0.4-0.7c0.4,0.4,0.8,0.7,1.3,0.9c0.5,0.2,1,0.3,1.5,0.3c0.7,0,1.2-0.1,1.6-0.4s0.6-0.6,0.6-1.1
				c0-0.4-0.1-0.7-0.3-0.9c-0.2-0.2-0.4-0.4-0.7-0.5s-0.7-0.3-1.2-0.4c-0.6-0.2-1-0.3-1.4-0.5c-0.4-0.2-0.6-0.4-0.9-0.7
				c-0.2-0.3-0.4-0.7-0.4-1.2c0-0.4,0.1-0.8,0.4-1.1c0.2-0.3,0.6-0.6,1-0.8s0.9-0.3,1.5-0.3c0.5,0,0.9,0.1,1.4,0.2
				c0.5,0.1,0.9,0.3,1.2,0.5l-0.4,0.7C178.5,264.1,178.1,263.9,177.7,263.8z"/>
			<path class="st1" d="M183.9,265.8c-0.5,0-0.9,0.1-1.2,0.3c-0.4,0.2-0.7,0.5-0.9,0.9c-0.2,0.4-0.3,0.8-0.3,1.3
				c0,0.5,0.1,0.9,0.3,1.3c0.2,0.4,0.5,0.7,0.9,0.9c0.4,0.2,0.8,0.3,1.2,0.3c0.4,0,0.8-0.1,1.1-0.2s0.6-0.4,0.9-0.6l0.5,0.5
				c-0.3,0.3-0.6,0.6-1.1,0.8c-0.4,0.2-0.9,0.3-1.4,0.3c-0.6,0-1.2-0.1-1.6-0.4c-0.5-0.3-0.9-0.7-1.1-1.1c-0.3-0.5-0.4-1-0.4-1.7
				s0.1-1.2,0.4-1.7c0.3-0.5,0.6-0.9,1.1-1.1c0.5-0.3,1-0.4,1.6-0.4c0.5,0,1,0.1,1.4,0.2c0.4,0.2,0.8,0.4,1.1,0.7l-0.5,0.5
				C185.3,266,184.7,265.8,183.9,265.8z"/>
			<path class="st1" d="M192.2,265.5c0.5,0.3,0.9,0.7,1.1,1.1c0.3,0.5,0.4,1,0.4,1.7c0,0.6-0.1,1.2-0.4,1.7
				c-0.3,0.5-0.7,0.9-1.1,1.1c-0.5,0.3-1,0.4-1.7,0.4s-1.2-0.1-1.7-0.4c-0.5-0.3-0.9-0.7-1.1-1.1c-0.3-0.5-0.4-1.1-0.4-1.7
				c0-0.6,0.1-1.2,0.4-1.7c0.3-0.5,0.7-0.9,1.1-1.1c0.5-0.3,1-0.4,1.7-0.4S191.7,265.2,192.2,265.5z M189.2,266.1
				c-0.4,0.2-0.7,0.5-0.9,0.9c-0.2,0.4-0.3,0.8-0.3,1.3c0,0.5,0.1,0.9,0.3,1.3c0.2,0.4,0.5,0.7,0.9,0.9c0.4,0.2,0.8,0.3,1.2,0.3
				s0.9-0.1,1.2-0.3c0.4-0.2,0.7-0.5,0.9-0.9s0.3-0.8,0.3-1.3c0-0.5-0.1-0.9-0.3-1.3s-0.5-0.7-0.9-0.9c-0.4-0.2-0.8-0.3-1.2-0.3
				S189.6,265.9,189.2,266.1z"/>
			<path class="st1" d="M200.5,265.5c0.5,0.3,0.8,0.7,1.1,1.1c0.3,0.5,0.4,1.1,0.4,1.7c0,0.6-0.1,1.2-0.4,1.7
				c-0.3,0.5-0.6,0.9-1.1,1.1c-0.5,0.3-1,0.4-1.6,0.4c-0.6,0-1.1-0.1-1.5-0.4c-0.4-0.3-0.8-0.6-1-1.1v3.8h-0.8v-8.8h0.8v1.5
				c0.2-0.5,0.6-0.8,1-1.1s1-0.4,1.5-0.4C199.5,265,200,265.2,200.5,265.5z M200,270.5c0.4-0.2,0.7-0.5,0.9-0.9s0.3-0.8,0.3-1.3
				c0-0.5-0.1-0.9-0.3-1.3s-0.5-0.7-0.9-0.9s-0.8-0.3-1.2-0.3c-0.5,0-0.9,0.1-1.2,0.3c-0.4,0.2-0.6,0.5-0.9,0.9
				c-0.2,0.4-0.3,0.8-0.3,1.3c0,0.5,0.1,0.9,0.3,1.3s0.5,0.7,0.9,0.9s0.8,0.3,1.2,0.3C199.2,270.8,199.6,270.7,200,270.5z"/>
			<path class="st1" d="M208.5,266c0.5,0.6,0.8,1.5,0.7,2.5h-5.3c0.1,0.7,0.3,1.2,0.8,1.7c0.4,0.4,1,0.6,1.7,0.6
				c0.4,0,0.8-0.1,1.1-0.2c0.4-0.1,0.7-0.4,0.9-0.6l0.5,0.5c-0.3,0.3-0.7,0.6-1.1,0.8c-0.4,0.2-0.9,0.3-1.4,0.3
				c-0.6,0-1.2-0.1-1.6-0.4c-0.5-0.3-0.9-0.7-1.1-1.1c-0.3-0.5-0.4-1-0.4-1.7c0-0.6,0.1-1.2,0.4-1.7c0.3-0.5,0.6-0.9,1.1-1.1
				c0.5-0.3,1-0.4,1.6-0.4C207.2,265,207.9,265.4,208.5,266z M208.5,267.9c0-0.7-0.3-1.2-0.7-1.6c-0.4-0.4-0.9-0.6-1.6-0.6
				c-0.6,0-1.2,0.2-1.6,0.6c-0.4,0.4-0.7,0.9-0.7,1.6H208.5z"/>
			<path class="st1" d="M210.8,262.4c0.5,0.7,0.8,1.5,1.1,2.4c0.2,0.9,0.4,1.9,0.4,2.9c0,1-0.1,2-0.4,2.9c-0.2,0.9-0.6,1.7-1.1,2.4
				H210c0.4-0.7,0.8-1.5,1-2.4c0.2-0.9,0.4-1.9,0.4-2.9c0-1-0.1-2-0.4-2.9c-0.2-0.9-0.6-1.7-1-2.4H210.8z"/>
		</g>
	</g>
	<g>
		<g class="st5">
			<path class="st1" d="M192.5,202l-1.8-2.8c-0.3,0-0.5,0-0.6,0h-2.3v2.8h-0.8v-8.5h3.2c1.1,0,1.9,0.2,2.5,0.7
				c0.6,0.5,0.9,1.2,0.9,2.1c0,0.7-0.2,1.3-0.5,1.8c-0.3,0.5-0.8,0.8-1.5,1l2.1,2.9H192.5z M190,198.4c0.8,0,1.4-0.2,1.9-0.6
				s0.7-0.9,0.7-1.6c0-0.7-0.2-1.2-0.7-1.6s-1.1-0.5-1.9-0.5h-2.3v4.3H190z"/>
			<path class="st1" d="M200.3,196.5c0.5,0.6,0.8,1.5,0.7,2.5h-5.3c0.1,0.7,0.3,1.2,0.8,1.7c0.4,0.4,1,0.6,1.7,0.6
				c0.4,0,0.8-0.1,1.1-0.2c0.4-0.1,0.7-0.4,0.9-0.6l0.5,0.5c-0.3,0.3-0.7,0.6-1.1,0.8c-0.4,0.2-0.9,0.3-1.4,0.3
				c-0.6,0-1.2-0.1-1.6-0.4c-0.5-0.3-0.9-0.7-1.1-1.1c-0.3-0.5-0.4-1-0.4-1.7c0-0.6,0.1-1.2,0.4-1.7c0.3-0.5,0.6-0.9,1.1-1.1
				c0.5-0.3,1-0.4,1.6-0.4C199,195.5,199.8,195.9,200.3,196.5z M200.3,198.4c0-0.7-0.3-1.2-0.7-1.6c-0.4-0.4-0.9-0.6-1.6-0.6
				c-0.6,0-1.2,0.2-1.6,0.6c-0.4,0.4-0.7,0.9-0.7,1.6H200.3z"/>
			<path class="st1" d="M205.2,196.3c-0.3-0.1-0.6-0.1-0.9-0.1c-0.4,0-0.7,0.1-1,0.2c-0.2,0.2-0.4,0.4-0.4,0.7
				c0,0.2,0.1,0.4,0.2,0.5s0.3,0.3,0.5,0.3s0.5,0.2,0.8,0.3c0.4,0.1,0.8,0.3,1.1,0.4c0.3,0.1,0.5,0.3,0.7,0.5
				c0.2,0.2,0.3,0.6,0.3,0.9c0,0.6-0.2,1-0.7,1.3s-1,0.5-1.6,0.5c-0.5,0-0.9-0.1-1.3-0.2c-0.4-0.2-0.8-0.4-1.1-0.7l0.3-0.6
				c0.3,0.3,0.6,0.5,1,0.6s0.8,0.2,1.2,0.2c0.4,0,0.8-0.1,1.1-0.3c0.3-0.2,0.4-0.4,0.4-0.8c0-0.2-0.1-0.4-0.2-0.6
				c-0.1-0.2-0.3-0.3-0.5-0.4s-0.5-0.2-0.9-0.3c-0.4-0.1-0.8-0.3-1.1-0.4c-0.3-0.1-0.5-0.3-0.7-0.5s-0.3-0.5-0.3-0.9
				c0-0.6,0.2-1,0.6-1.3s0.9-0.4,1.6-0.4c0.4,0,0.7,0,1.1,0.1c0.3,0.1,0.6,0.2,0.9,0.4l-0.3,0.6
				C205.8,196.5,205.5,196.4,205.2,196.3z"/>
			<path class="st1" d="M213,196.5c0.5,0.6,0.8,1.5,0.7,2.5h-5.3c0.1,0.7,0.3,1.2,0.8,1.7c0.4,0.4,1,0.6,1.7,0.6
				c0.4,0,0.8-0.1,1.1-0.2c0.4-0.1,0.7-0.4,0.9-0.6l0.5,0.5c-0.3,0.3-0.7,0.6-1.1,0.8c-0.4,0.2-0.9,0.3-1.4,0.3
				c-0.6,0-1.2-0.1-1.6-0.4c-0.5-0.3-0.9-0.7-1.1-1.1c-0.3-0.5-0.4-1-0.4-1.7c0-0.6,0.1-1.2,0.4-1.7c0.3-0.5,0.6-0.9,1.1-1.1
				c0.5-0.3,1-0.4,1.6-0.4C211.7,195.5,212.5,195.9,213,196.5z M213,198.4c0-0.7-0.3-1.2-0.7-1.6c-0.4-0.4-0.9-0.6-1.6-0.6
				c-0.6,0-1.2,0.2-1.6,0.6c-0.4,0.4-0.7,0.9-0.7,1.6H213z"/>
			<path class="st1" d="M219.4,202l0-1.1c-0.3,0.4-0.6,0.7-1,0.8c-0.4,0.2-0.9,0.3-1.4,0.3c-0.4,0-0.8-0.1-1.1-0.3s-0.6-0.4-0.8-0.7
				s-0.3-0.6-0.3-1c0-0.6,0.2-1,0.6-1.3c0.4-0.3,1-0.5,1.8-0.5h2.2v-0.5c0-0.5-0.2-0.9-0.5-1.2s-0.7-0.4-1.3-0.4
				c-0.7,0-1.4,0.3-2.1,0.8l-0.4-0.6c0.4-0.3,0.8-0.5,1.2-0.7s0.8-0.2,1.3-0.2c0.8,0,1.4,0.2,1.8,0.6c0.4,0.4,0.6,0.9,0.6,1.6l0,4.2
				H219.4z M218.6,200.9c0.4-0.3,0.7-0.6,0.8-1.1v-0.9h-2.1c-0.6,0-1,0.1-1.3,0.3s-0.4,0.5-0.4,0.8c0,0.4,0.1,0.7,0.4,0.9
				c0.3,0.2,0.7,0.3,1.1,0.3C217.7,201.3,218.2,201.2,218.6,200.9z"/>
			<path class="st1" d="M224.2,195.9c0.4-0.3,0.9-0.4,1.4-0.4v0.8c-0.7,0-1.2,0.2-1.6,0.6c-0.4,0.4-0.6,1-0.7,1.6v3.4h-0.8v-6.4h0.8
				v1.5C223.5,196.6,223.8,196.2,224.2,195.9z"/>
			<path class="st1" d="M229.4,196.3c-0.5,0-0.9,0.1-1.2,0.3c-0.4,0.2-0.7,0.5-0.9,0.9c-0.2,0.4-0.3,0.8-0.3,1.3
				c0,0.5,0.1,0.9,0.3,1.3c0.2,0.4,0.5,0.7,0.9,0.9c0.4,0.2,0.8,0.3,1.2,0.3c0.4,0,0.8-0.1,1.1-0.2s0.6-0.4,0.9-0.6l0.5,0.5
				c-0.3,0.3-0.6,0.6-1.1,0.8c-0.4,0.2-0.9,0.3-1.4,0.3c-0.6,0-1.2-0.1-1.6-0.4c-0.5-0.3-0.9-0.7-1.1-1.1c-0.3-0.5-0.4-1-0.4-1.7
				s0.1-1.2,0.4-1.7c0.3-0.5,0.6-0.9,1.1-1.1c0.5-0.3,1-0.4,1.6-0.4c0.5,0,1,0.1,1.4,0.2c0.4,0.2,0.8,0.4,1.1,0.7l-0.5,0.5
				C230.8,196.5,230.2,196.3,229.4,196.3z"/>
			<path class="st1" d="M239,196.2c0.4,0.4,0.7,1.1,0.7,1.8v3.9h-0.8v-3.7c0-0.6-0.2-1.1-0.5-1.4c-0.3-0.3-0.8-0.5-1.4-0.5
				c-0.7,0-1.3,0.2-1.7,0.7c-0.4,0.5-0.6,1.1-0.6,1.8v3.1h-0.8v-9.1h0.8v4.2c0.4-1,1.3-1.5,2.5-1.5
				C237.9,195.5,238.5,195.8,239,196.2z"/>
			<path class="st1" d="M251.3,202.1c-0.4-0.4-0.9-0.8-1.5-1.4c-0.4,0.4-0.8,0.8-1.3,1c-0.5,0.2-0.9,0.3-1.4,0.3
				c-0.5,0-0.9-0.1-1.3-0.3c-0.4-0.2-0.7-0.5-0.9-0.8c-0.2-0.4-0.3-0.7-0.3-1.2c0-0.6,0.2-1,0.5-1.4c0.3-0.4,0.8-0.7,1.5-1.1
				c-0.3-0.4-0.5-0.8-0.7-1.1c-0.2-0.3-0.2-0.7-0.2-1c0-0.3,0.1-0.6,0.3-0.9c0.2-0.3,0.4-0.5,0.7-0.6c0.3-0.2,0.7-0.2,1.1-0.2
				c0.6,0,1,0.2,1.4,0.5s0.5,0.7,0.5,1.2c0,0.4-0.1,0.7-0.3,1c-0.2,0.3-0.4,0.5-0.7,0.7s-0.7,0.4-1.1,0.7c0.4,0.5,1.2,1.3,2.2,2.3
				c0.3-0.5,0.6-1.1,0.9-1.7l0.6,0.4c-0.3,0.7-0.6,1.3-1,1.8l1.5,1.5L251.3,202.1z M249.4,200.2c-1.1-1.1-1.9-1.9-2.4-2.5
				c-0.5,0.3-0.9,0.6-1.2,0.9s-0.4,0.6-0.4,1.1c0,0.5,0.2,0.9,0.5,1.2s0.8,0.5,1.3,0.5C248,201.4,248.7,201,249.4,200.2z
				 M247.2,196.9c0.4-0.2,0.7-0.4,1-0.6s0.5-0.4,0.6-0.6c0.2-0.2,0.2-0.5,0.2-0.8c0-0.3-0.1-0.6-0.3-0.8s-0.5-0.3-0.9-0.3
				c-0.4,0-0.7,0.1-1,0.4s-0.4,0.5-0.4,0.9C246.5,195.7,246.7,196.2,247.2,196.9z"/>
		</g>
		<g class="st5">
			<path class="st1" d="M192.7,208.6c0.7,0.4,1.2,0.9,1.6,1.6c0.4,0.7,0.6,1.4,0.6,2.2s-0.2,1.5-0.6,2.2c-0.4,0.7-0.9,1.2-1.6,1.6
				c-0.7,0.4-1.4,0.6-2.2,0.6c-0.8,0-1.6-0.2-2.2-0.6c-0.7-0.4-1.2-0.9-1.6-1.6c-0.4-0.7-0.6-1.4-0.6-2.2s0.2-1.5,0.6-2.2
				c0.4-0.7,0.9-1.2,1.6-1.6s1.4-0.6,2.2-0.6C191.3,208,192,208.2,192.7,208.6z M188.7,209.3c-0.6,0.3-1,0.8-1.3,1.3
				c-0.3,0.5-0.5,1.1-0.5,1.8s0.2,1.3,0.5,1.8c0.3,0.6,0.8,1,1.3,1.3c0.6,0.3,1.2,0.5,1.8,0.5c0.6,0,1.2-0.2,1.8-0.5
				c0.5-0.3,1-0.8,1.3-1.3s0.5-1.2,0.5-1.8s-0.2-1.3-0.5-1.8s-0.8-1-1.3-1.3c-0.5-0.3-1.1-0.5-1.8-0.5
				C189.8,208.8,189.2,209,188.7,209.3z"/>
			<path class="st1" d="M201.7,210.6c0.5,0.3,0.8,0.7,1.1,1.1c0.3,0.5,0.4,1.1,0.4,1.7c0,0.6-0.1,1.2-0.4,1.7
				c-0.3,0.5-0.6,0.9-1.1,1.1c-0.5,0.3-1,0.4-1.6,0.4c-0.6,0-1.1-0.1-1.5-0.4c-0.4-0.3-0.8-0.6-1-1.1v1.5h-0.8v-9.1h0.8v4.1
				c0.2-0.5,0.6-0.8,1-1.1s1-0.4,1.5-0.4C200.7,210.2,201.2,210.4,201.7,210.6z M201.2,215.7c0.4-0.2,0.7-0.5,0.9-0.9
				s0.3-0.8,0.3-1.3c0-0.5-0.1-0.9-0.3-1.3s-0.5-0.7-0.9-0.9s-0.8-0.3-1.2-0.3c-0.5,0-0.9,0.1-1.2,0.3c-0.4,0.2-0.6,0.5-0.9,0.9
				c-0.2,0.4-0.3,0.8-0.3,1.3c0,0.5,0.1,0.9,0.3,1.3s0.5,0.7,0.9,0.9s0.8,0.3,1.2,0.3C200.4,216,200.8,215.9,201.2,215.7z"/>
			<path class="st1" d="M207.4,211c-0.3-0.1-0.6-0.1-0.9-0.1c-0.4,0-0.7,0.1-1,0.2c-0.2,0.2-0.4,0.4-0.4,0.7c0,0.2,0.1,0.4,0.2,0.5
				s0.3,0.3,0.5,0.3s0.5,0.2,0.8,0.3c0.4,0.1,0.8,0.3,1.1,0.4c0.3,0.1,0.5,0.3,0.7,0.5c0.2,0.2,0.3,0.6,0.3,0.9c0,0.6-0.2,1-0.7,1.3
				s-1,0.5-1.6,0.5c-0.5,0-0.9-0.1-1.3-0.2c-0.4-0.2-0.8-0.4-1.1-0.7l0.3-0.6c0.3,0.3,0.6,0.5,1,0.6s0.8,0.2,1.2,0.2
				c0.4,0,0.8-0.1,1.1-0.3c0.3-0.2,0.4-0.4,0.4-0.8c0-0.2-0.1-0.4-0.2-0.6c-0.1-0.2-0.3-0.3-0.5-0.4s-0.5-0.2-0.9-0.3
				c-0.4-0.1-0.8-0.3-1.1-0.4c-0.3-0.1-0.5-0.3-0.7-0.5s-0.3-0.5-0.3-0.9c0-0.6,0.2-1,0.6-1.3s0.9-0.4,1.6-0.4c0.4,0,0.7,0,1.1,0.1
				c0.3,0.1,0.6,0.2,0.9,0.4l-0.3,0.6C208,211.2,207.7,211.1,207.4,211z"/>
			<path class="st1" d="M215.1,211.2c0.5,0.6,0.8,1.5,0.7,2.5h-5.3c0.1,0.7,0.3,1.2,0.8,1.7c0.4,0.4,1,0.6,1.7,0.6
				c0.4,0,0.8-0.1,1.1-0.2c0.4-0.1,0.7-0.4,0.9-0.6l0.5,0.5c-0.3,0.3-0.7,0.6-1.1,0.8c-0.4,0.2-0.9,0.3-1.4,0.3
				c-0.6,0-1.2-0.1-1.6-0.4c-0.5-0.3-0.9-0.7-1.1-1.1c-0.3-0.5-0.4-1-0.4-1.7c0-0.6,0.1-1.2,0.4-1.7c0.3-0.5,0.6-0.9,1.1-1.1
				c0.5-0.3,1-0.4,1.6-0.4C213.9,210.2,214.6,210.6,215.1,211.2z M215.1,213.1c0-0.7-0.3-1.2-0.7-1.6c-0.4-0.4-0.9-0.6-1.6-0.6
				c-0.6,0-1.2,0.2-1.6,0.6c-0.4,0.4-0.7,0.9-0.7,1.6H215.1z"/>
			<path class="st1" d="M219.3,210.6c0.4-0.3,0.9-0.4,1.4-0.4v0.8c-0.7,0-1.2,0.2-1.6,0.6c-0.4,0.4-0.6,1-0.7,1.6v3.4h-0.8v-6.4h0.8
				v1.5C218.6,211.3,218.9,210.9,219.3,210.6z"/>
			<path class="st1" d="M221.3,210.3h0.9l2.1,5.6l2.1-5.6h0.9l-2.5,6.4h-0.9L221.3,210.3z"/>
			<path class="st1" d="M233,211.2c0.5,0.6,0.8,1.5,0.7,2.5h-5.3c0.1,0.7,0.3,1.2,0.8,1.7c0.4,0.4,1,0.6,1.7,0.6
				c0.4,0,0.8-0.1,1.1-0.2c0.4-0.1,0.7-0.4,0.9-0.6l0.5,0.5c-0.3,0.3-0.7,0.6-1.1,0.8c-0.4,0.2-0.9,0.3-1.4,0.3
				c-0.6,0-1.2-0.1-1.6-0.4c-0.5-0.3-0.9-0.7-1.1-1.1c-0.3-0.5-0.4-1-0.4-1.7c0-0.6,0.1-1.2,0.4-1.7c0.3-0.5,0.6-0.9,1.1-1.1
				c0.5-0.3,1-0.4,1.6-0.4C231.7,210.2,232.4,210.6,233,211.2z M232.9,213.1c0-0.7-0.3-1.2-0.7-1.6c-0.4-0.4-0.9-0.6-1.6-0.6
				c-0.6,0-1.2,0.2-1.6,0.6c-0.4,0.4-0.7,0.9-0.7,1.6H232.9z"/>
		</g>
	</g>
	<g>
		<g class="st5">
			<path class="st1" d="M204.7,131.9h0.8v8.5h-0.8V131.9z"/>
			<path class="st1" d="M213.3,134.7c0.4,0.4,0.7,1.1,0.7,1.8v3.9h-0.8v-3.7c0-0.6-0.2-1.1-0.5-1.4c-0.3-0.3-0.8-0.5-1.4-0.5
				c-0.7,0-1.2,0.2-1.6,0.6c-0.4,0.4-0.6,0.9-0.7,1.6v3.4h-0.8v-6.4h0.8v1.5c0.2-0.5,0.5-0.9,1-1.1c0.4-0.3,0.9-0.4,1.6-0.4
				C212.2,134,212.8,134.3,213.3,134.7z"/>
			<path class="st1" d="M218.6,134.9c-0.3-0.1-0.6-0.1-0.9-0.1c-0.4,0-0.7,0.1-1,0.2c-0.2,0.2-0.4,0.4-0.4,0.7
				c0,0.2,0.1,0.4,0.2,0.5s0.3,0.3,0.5,0.3s0.5,0.2,0.8,0.3c0.4,0.1,0.8,0.3,1.1,0.4c0.3,0.1,0.5,0.3,0.7,0.5
				c0.2,0.2,0.3,0.6,0.3,0.9c0,0.6-0.2,1-0.7,1.3s-1,0.5-1.6,0.5c-0.5,0-0.9-0.1-1.3-0.2c-0.4-0.2-0.8-0.4-1.1-0.7l0.3-0.6
				c0.3,0.3,0.6,0.5,1,0.6s0.8,0.2,1.2,0.2c0.4,0,0.8-0.1,1.1-0.3c0.3-0.2,0.4-0.4,0.4-0.8c0-0.2-0.1-0.4-0.2-0.6
				c-0.1-0.2-0.3-0.3-0.5-0.4s-0.5-0.2-0.9-0.3c-0.4-0.1-0.8-0.3-1.1-0.4c-0.3-0.1-0.5-0.3-0.7-0.5s-0.3-0.5-0.3-0.9
				c0-0.6,0.2-1,0.6-1.3s0.9-0.4,1.6-0.4c0.4,0,0.7,0,1.1,0.1c0.3,0.1,0.6,0.2,0.9,0.4l-0.3,0.6
				C219.2,135.1,218.9,134.9,218.6,134.9z"/>
			<path class="st1" d="M222.4,131.8c0.1,0.1,0.2,0.2,0.2,0.4s-0.1,0.3-0.2,0.4s-0.2,0.2-0.4,0.2c-0.2,0-0.3-0.1-0.4-0.2
				s-0.2-0.3-0.2-0.4s0.1-0.3,0.2-0.4c0.1-0.1,0.2-0.2,0.4-0.2S222.3,131.7,222.4,131.8z M221.6,134.1h0.8v6.4h-0.8V134.1z"/>
			<path class="st1" d="M230.3,134.1v5.7c0,0.6-0.1,1.2-0.4,1.6c-0.3,0.5-0.6,0.8-1.1,1.1c-0.5,0.2-1,0.4-1.7,0.4
				c-0.9,0-1.8-0.3-2.6-1l0.4-0.6c0.3,0.3,0.7,0.5,1,0.6s0.7,0.2,1.2,0.2c0.7,0,1.3-0.2,1.8-0.6c0.4-0.4,0.7-1,0.7-1.7v-1
				c-0.2,0.4-0.6,0.8-1,1.1c-0.4,0.3-0.9,0.4-1.5,0.4c-0.6,0-1.1-0.1-1.5-0.4c-0.4-0.3-0.8-0.6-1-1.1s-0.4-1-0.4-1.6
				s0.1-1.1,0.4-1.6c0.2-0.5,0.6-0.8,1-1.1s1-0.4,1.5-0.4c0.6,0,1,0.1,1.5,0.4c0.4,0.2,0.7,0.6,1,1.1v-1.4H230.3z M228.4,139.2
				c0.4-0.2,0.6-0.5,0.8-0.9c0.2-0.4,0.3-0.8,0.3-1.2c0-0.5-0.1-0.9-0.3-1.2c-0.2-0.4-0.5-0.7-0.8-0.9c-0.4-0.2-0.7-0.3-1.2-0.3
				s-0.8,0.1-1.2,0.3c-0.4,0.2-0.6,0.5-0.8,0.9c-0.2,0.4-0.3,0.8-0.3,1.2c0,0.5,0.1,0.9,0.3,1.2s0.5,0.6,0.8,0.9
				c0.3,0.2,0.7,0.3,1.2,0.3C227.6,139.5,228,139.4,228.4,139.2z"/>
			<path class="st1" d="M237.8,134.7c0.4,0.4,0.7,1.1,0.7,1.8v3.9h-0.8v-3.7c0-0.6-0.2-1.1-0.5-1.4c-0.3-0.3-0.8-0.5-1.4-0.5
				c-0.7,0-1.3,0.2-1.7,0.7c-0.4,0.5-0.6,1.1-0.6,1.8v3.1h-0.8v-9.1h0.8v4.2c0.4-1,1.3-1.5,2.5-1.5
				C236.7,134,237.3,134.3,237.8,134.7z"/>
			<path class="st1" d="M243.8,140c-0.4,0.3-0.9,0.5-1.4,0.5c-0.5,0-0.9-0.2-1.2-0.5c-0.3-0.3-0.4-0.8-0.4-1.4v-3.8h-0.9l0-0.6h0.9
				v-1.6h0.8v1.6l2.1,0v0.6h-2.1v3.7c0,0.8,0.3,1.2,0.9,1.2c0.3,0,0.7-0.1,1.1-0.3L243.8,140z"/>
			<path class="st1" d="M247.8,134.9c-0.3-0.1-0.6-0.1-0.9-0.1c-0.4,0-0.7,0.1-1,0.2c-0.2,0.2-0.4,0.4-0.4,0.7
				c0,0.2,0.1,0.4,0.2,0.5s0.3,0.3,0.5,0.3s0.5,0.2,0.8,0.3c0.4,0.1,0.8,0.3,1.1,0.4c0.3,0.1,0.5,0.3,0.7,0.5
				c0.2,0.2,0.3,0.6,0.3,0.9c0,0.6-0.2,1-0.7,1.3s-1,0.5-1.6,0.5c-0.5,0-0.9-0.1-1.3-0.2c-0.4-0.2-0.8-0.4-1.1-0.7l0.3-0.6
				c0.3,0.3,0.6,0.5,1,0.6s0.8,0.2,1.2,0.2c0.4,0,0.8-0.1,1.1-0.3c0.3-0.2,0.4-0.4,0.4-0.8c0-0.2-0.1-0.4-0.2-0.6
				c-0.1-0.2-0.3-0.3-0.5-0.4s-0.5-0.2-0.9-0.3c-0.4-0.1-0.8-0.3-1.1-0.4c-0.3-0.1-0.5-0.3-0.7-0.5s-0.3-0.5-0.3-0.9
				c0-0.6,0.2-1,0.6-1.3s0.9-0.4,1.6-0.4c0.4,0,0.7,0,1.1,0.1c0.3,0.1,0.6,0.2,0.9,0.4l-0.3,0.6
				C248.4,135.1,248.1,134.9,247.8,134.9z"/>
		</g>
	</g>
	<g>
		<g class="st5">
			<path class="st6" d="M747.7,235.4c-0.3,1.1-0.4,2.1-0.4,3.1c0,1.8,0.4,3.3,1.1,4.3c0.7,1.1,1.7,1.6,2.9,1.6c1,0,1.9-0.3,2.5-0.8
				c0.7-0.6,1.2-1.2,1.5-2.1c0.4-0.8,0.8-1.9,1.2-3.3c0.5-1.5,0.9-2.8,1.3-3.8c0.4-1,1.1-1.8,1.9-2.4c0.8-0.7,1.9-1,3.3-1
				c1.2,0,2.2,0.3,3.1,1c0.9,0.7,1.6,1.6,2.1,2.8c0.5,1.2,0.7,2.6,0.7,4.2c0,1.5-0.3,3-0.9,4.4s-1.4,2.7-2.4,3.7l-1.2-0.7
				c1-0.9,1.7-2,2.3-3.4c0.6-1.3,0.8-2.7,0.8-4c0-2-0.4-3.5-1.2-4.7c-0.8-1.2-1.9-1.7-3.3-1.7c-1.1,0-1.9,0.3-2.6,0.8
				c-0.7,0.6-1.2,1.3-1.6,2.1s-0.8,2-1.2,3.3c-0.5,1.6-0.9,2.8-1.4,3.7s-1,1.7-1.9,2.4c-0.8,0.6-1.9,1-3.2,1c-1.1,0-2-0.3-2.9-0.9
				c-0.8-0.6-1.5-1.5-1.9-2.6c-0.4-1.1-0.7-2.5-0.7-3.9c0-1.2,0.2-2.3,0.5-3.5c0.3-1.2,0.8-2.2,1.4-3.1l1.2,0.6
				C748.4,233.4,747.9,234.3,747.7,235.4z"/>
			<path class="st6" d="M747.4,209.7c1-1.8,2.4-3.3,4.2-4.3c1.8-1.1,3.7-1.6,5.8-1.6c2.1,0,4,0.5,5.8,1.6c1.8,1.1,3.2,2.5,4.2,4.3
				c1,1.8,1.6,3.8,1.6,5.9c0,2.1-0.5,4.1-1.6,5.9s-2.5,3.3-4.2,4.3c-1.8,1.1-3.7,1.6-5.8,1.6c-2.1,0-4-0.5-5.8-1.6
				c-1.8-1.1-3.2-2.5-4.2-4.3c-1-1.8-1.6-3.8-1.6-5.9C745.8,213.5,746.4,211.5,747.4,209.7z M748.5,220.8c0.9,1.6,2.1,2.9,3.7,3.8
				c1.6,0.9,3.3,1.4,5.1,1.4s3.6-0.5,5.1-1.4c1.6-0.9,2.8-2.2,3.7-3.8c0.9-1.6,1.4-3.3,1.4-5.2c0-1.9-0.5-3.6-1.4-5.2
				c-0.9-1.6-2.2-2.9-3.7-3.8c-1.6-0.9-3.3-1.4-5.1-1.4s-3.6,0.5-5.1,1.4c-1.6,0.9-2.8,2.2-3.7,3.8c-0.9,1.6-1.4,3.3-1.4,5.2
				C747.2,217.5,747.6,219.2,748.5,220.8z"/>
			<path class="st6" d="M746,198.3V197h21.5v-10.2h1.3v11.5H746z"/>
			<path class="st6" d="M765.5,179.1c1.4-1.4,2.1-3.3,2.1-5.8c0-2.5-0.7-4.4-2.1-5.8c-1.4-1.4-3.4-2.1-5.9-2.1H746v-1.4h13.6
				c3,0,5.3,0.8,6.9,2.4s2.5,3.9,2.5,6.8c0,2.9-0.8,5.2-2.5,6.8c-1.6,1.6-3.9,2.4-6.9,2.4H746v-1.4h13.6
				C762.1,181.2,764.1,180.5,765.5,179.1z"/>
			<path class="st6" d="M746,160.3v-16.8h1.3v7.7h21.5v1.4h-21.5v7.7H746z"/>
			<path class="st6" d="M746,139.3v-1.4h22.8v1.4H746z"/>
			<path class="st6" d="M747.4,114.7c1-1.8,2.4-3.3,4.2-4.3c1.8-1.1,3.7-1.6,5.8-1.6c2.1,0,4,0.5,5.8,1.6c1.8,1.1,3.2,2.5,4.2,4.3
				c1,1.8,1.6,3.8,1.6,5.9c0,2.1-0.5,4.1-1.6,5.9s-2.5,3.3-4.2,4.3c-1.8,1.1-3.7,1.6-5.8,1.6c-2.1,0-4-0.5-5.8-1.6
				c-1.8-1.1-3.2-2.5-4.2-4.3c-1-1.8-1.6-3.8-1.6-5.9C745.8,118.5,746.4,116.5,747.4,114.7z M748.5,125.9c0.9,1.6,2.1,2.9,3.7,3.8
				c1.6,0.9,3.3,1.4,5.1,1.4s3.6-0.5,5.1-1.4c1.6-0.9,2.8-2.2,3.7-3.8c0.9-1.6,1.4-3.3,1.4-5.2c0-1.9-0.5-3.6-1.4-5.2
				c-0.9-1.6-2.2-2.9-3.7-3.8c-1.6-0.9-3.3-1.4-5.1-1.4s-3.6,0.5-5.1,1.4c-1.6,0.9-2.8,2.2-3.7,3.8c-0.9,1.6-1.4,3.3-1.4,5.2
				C747.2,122.5,747.6,124.3,748.5,125.9z"/>
			<path class="st6" d="M746,86.6v-1.3h22.8v1.6L748.1,102h20.8v1.4H746v-1.6l20.8-15.2H746z"/>
		</g>
	</g>
	<g>
		<g class="st5">
			<path class="st1" d="M160.1,341.1h1.1v11.4h-1.1V341.1z"/>
			<path class="st1" d="M171.5,344.8c0.6,0.6,0.9,1.4,0.9,2.4v5.2h-1.1v-5c0-0.8-0.2-1.4-0.7-1.9c-0.4-0.5-1.1-0.7-1.9-0.7
				c-0.9,0-1.6,0.3-2.1,0.8c-0.5,0.5-0.8,1.2-0.9,2.2v4.6h-1.1v-8.5h1.1v2c0.3-0.7,0.7-1.2,1.3-1.5c0.6-0.3,1.3-0.5,2.1-0.5
				C170.1,343.9,170.9,344.2,171.5,344.8z"/>
			<path class="st1" d="M178.6,344.9c-0.4-0.1-0.8-0.2-1.2-0.2c-0.5,0-1,0.1-1.3,0.3c-0.3,0.2-0.5,0.5-0.5,1c0,0.3,0.1,0.5,0.3,0.7
				s0.4,0.3,0.7,0.4s0.6,0.2,1.1,0.4c0.6,0.2,1.1,0.3,1.4,0.5c0.4,0.2,0.7,0.4,0.9,0.7s0.4,0.7,0.4,1.3c0,0.8-0.3,1.4-0.9,1.8
				s-1.3,0.6-2.2,0.6c-0.6,0-1.2-0.1-1.8-0.3c-0.6-0.2-1.1-0.5-1.5-0.9l0.4-0.8c0.4,0.3,0.8,0.6,1.3,0.8s1,0.3,1.5,0.3
				c0.6,0,1-0.1,1.4-0.4c0.4-0.2,0.5-0.6,0.5-1c0-0.3-0.1-0.6-0.3-0.8c-0.2-0.2-0.4-0.4-0.7-0.5c-0.3-0.1-0.7-0.2-1.1-0.4
				c-0.6-0.2-1-0.3-1.4-0.5s-0.7-0.4-0.9-0.7c-0.3-0.3-0.4-0.7-0.4-1.2c0-0.7,0.3-1.3,0.8-1.7c0.6-0.4,1.3-0.6,2.1-0.6
				c0.5,0,1,0.1,1.4,0.2c0.5,0.1,0.9,0.3,1.2,0.5l-0.4,0.8C179.3,345.2,179,345.1,178.6,344.9z"/>
			<path class="st1" d="M183.7,340.9c0.1,0.1,0.2,0.3,0.2,0.5c0,0.2-0.1,0.4-0.2,0.6c-0.1,0.2-0.3,0.2-0.5,0.2
				c-0.2,0-0.4-0.1-0.5-0.2c-0.1-0.2-0.2-0.3-0.2-0.6c0-0.2,0.1-0.4,0.2-0.5c0.1-0.1,0.3-0.2,0.5-0.2S183.5,340.8,183.7,340.9z
				 M182.6,343.9h1.1v8.5h-1.1V343.9z"/>
			<path class="st1" d="M194.2,343.9v7.6c0,0.8-0.2,1.5-0.5,2.2c-0.3,0.6-0.8,1.1-1.5,1.4c-0.6,0.3-1.4,0.5-2.2,0.5
				c-1.3,0-2.4-0.4-3.5-1.3l0.5-0.8c0.4,0.4,0.9,0.7,1.4,0.9c0.5,0.2,1,0.3,1.6,0.3c1,0,1.8-0.3,2.3-0.9s0.9-1.3,0.9-2.3v-1.4
				c-0.3,0.6-0.7,1.1-1.3,1.4c-0.6,0.3-1.2,0.5-2,0.5c-0.8,0-1.4-0.2-2-0.5c-0.6-0.4-1.1-0.8-1.4-1.5c-0.3-0.6-0.5-1.3-0.5-2.1
				c0-0.8,0.2-1.5,0.5-2.1c0.3-0.6,0.8-1.1,1.4-1.5s1.3-0.5,2-0.5c0.7,0,1.4,0.2,1.9,0.5c0.6,0.3,1,0.8,1.3,1.4v-1.9H194.2z
				 M191.6,350.8c0.5-0.3,0.8-0.7,1.1-1.1c0.3-0.5,0.4-1,0.4-1.6c0-0.6-0.1-1.2-0.4-1.7c-0.3-0.5-0.6-0.9-1.1-1.1
				c-0.5-0.3-1-0.4-1.6-0.4s-1.1,0.1-1.6,0.4c-0.5,0.3-0.8,0.7-1.1,1.1c-0.3,0.5-0.4,1-0.4,1.7s0.1,1.2,0.4,1.7s0.6,0.9,1.1,1.1
				c0.5,0.3,1,0.4,1.6,0.4C190.6,351.2,191.2,351.1,191.6,350.8z"/>
			<path class="st1" d="M204.1,344.8c0.6,0.6,0.9,1.4,0.9,2.4v5.2h-1.1v-5c0-0.8-0.2-1.4-0.7-1.9s-1.1-0.7-1.9-0.7
				c-0.9,0-1.7,0.3-2.2,0.9s-0.8,1.4-0.8,2.4v4.2h-1.1v-12.1h1.1v5.6c0.6-1.3,1.7-2,3.4-2.1C202.8,343.9,203.6,344.2,204.1,344.8z"
				/>
			<path class="st1" d="M212.2,351.9c-0.6,0.4-1.2,0.6-1.9,0.6c-0.7,0-1.2-0.2-1.5-0.6c-0.4-0.4-0.6-1-0.6-1.8V345H207l0-0.8h1.2
				v-2.2h1.1v2.2l2.8,0v0.9h-2.8v4.9c0,1.1,0.4,1.6,1.2,1.6c0.4,0,0.9-0.2,1.4-0.5L212.2,351.9z"/>
		</g>
	</g>
	<g>
		<g class="st5">
			<path class="st1" d="M55.2,284.9c0.5-0.9,1.2-1.6,2.1-2.1s1.8-0.8,2.9-0.8s2,0.3,2.9,0.8s1.6,1.2,2.1,2.1c0.5,0.9,0.7,1.9,0.7,3
				v4.5H54.5v-4.6C54.5,286.8,54.7,285.8,55.2,284.9z M64.2,285.5c-0.4-0.7-1-1.3-1.7-1.7c-0.7-0.4-1.5-0.6-2.4-0.6
				s-1.7,0.2-2.4,0.6c-0.7,0.4-1.3,1-1.7,1.7c-0.4,0.7-0.6,1.5-0.6,2.4v3.4h9.4v-3.5C64.9,287,64.7,286.2,64.2,285.5z"/>
			<path class="st1" d="M54.3,278.7c0.1-0.1,0.3-0.2,0.5-0.2c0.2,0,0.4,0.1,0.6,0.2s0.2,0.3,0.2,0.5c0,0.2-0.1,0.4-0.2,0.5
				c-0.2,0.1-0.3,0.2-0.6,0.2c-0.2,0-0.4-0.1-0.5-0.2c-0.1-0.1-0.2-0.3-0.2-0.5C54.1,279,54.2,278.8,54.3,278.7z M57.3,279.8v-1.1
				h8.5v1.1H57.3z"/>
			<path class="st1" d="M57.8,273.2c-0.3-0.5-0.5-1.2-0.5-1.9h1c0,0.9,0.3,1.6,0.8,2.2c0.5,0.5,1.3,0.9,2.2,0.9h4.6v1.1h-8.5v-1.1h2
				C58.7,274.1,58.2,273.7,57.8,273.2z"/>
			<path class="st1" d="M58.6,263.2c0.8-0.7,2-1,3.4-1v7.1c0.9-0.1,1.6-0.4,2.2-1c0.6-0.6,0.8-1.3,0.8-2.2c0-0.5-0.1-1-0.3-1.5
				c-0.2-0.5-0.5-0.9-0.8-1.2l0.6-0.6c0.4,0.4,0.8,0.9,1,1.5s0.4,1.2,0.4,1.9c0,0.8-0.2,1.6-0.5,2.2c-0.4,0.6-0.9,1.1-1.5,1.5
				c-0.7,0.4-1.4,0.5-2.2,0.5c-0.8,0-1.6-0.2-2.2-0.5c-0.7-0.4-1.2-0.9-1.5-1.5c-0.4-0.6-0.5-1.4-0.5-2.2
				C57.3,264.9,57.7,263.9,58.6,263.2z M61.1,263.2c-0.9,0.1-1.6,0.4-2.1,0.9c-0.5,0.5-0.8,1.2-0.8,2.1c0,0.9,0.3,1.6,0.8,2.2
				c0.5,0.6,1.2,0.9,2.1,1V263.2z"/>
			<path class="st1" d="M58.3,256.5c0,0.6,0.1,1.2,0.4,1.6c0.3,0.5,0.7,0.9,1.2,1.1s1.1,0.4,1.7,0.4c0.7,0,1.2-0.1,1.7-0.4
				c0.5-0.3,0.9-0.7,1.2-1.1c0.3-0.5,0.4-1,0.4-1.6c0-0.6-0.1-1.1-0.3-1.5c-0.2-0.5-0.5-0.8-0.8-1.2l0.7-0.6
				c0.5,0.4,0.8,0.9,1.1,1.4s0.4,1.2,0.4,1.9c0,0.8-0.2,1.5-0.5,2.2c-0.4,0.6-0.9,1.1-1.5,1.5c-0.7,0.4-1.4,0.5-2.2,0.5
				c-0.8,0-1.6-0.2-2.2-0.5c-0.7-0.4-1.2-0.9-1.5-1.5c-0.4-0.6-0.5-1.4-0.5-2.2c0-0.7,0.1-1.3,0.3-1.8c0.2-0.5,0.5-1,0.9-1.4
				l0.7,0.6C58.6,254.7,58.3,255.5,58.3,256.5z"/>
			<path class="st1" d="M65.3,246.5c0.4,0.6,0.6,1.2,0.6,1.9c0,0.7-0.2,1.2-0.6,1.5c-0.4,0.4-1,0.6-1.8,0.6h-5.1v1.2l-0.8,0v-1.2
				h-2.2v-1.1h2.2l0-2.8h0.9v2.8h4.9c1.1,0,1.6-0.4,1.6-1.2c0-0.4-0.2-0.9-0.5-1.4L65.3,246.5z"/>
			<path class="st1" d="M54.3,243.4c0.1-0.1,0.3-0.2,0.5-0.2c0.2,0,0.4,0.1,0.6,0.2s0.2,0.3,0.2,0.5c0,0.2-0.1,0.4-0.2,0.5
				c-0.2,0.1-0.3,0.2-0.6,0.2c-0.2,0-0.4-0.1-0.5-0.2c-0.1-0.1-0.2-0.3-0.2-0.5C54.1,243.8,54.2,243.6,54.3,243.4z M57.3,244.5v-1.1
				h8.5v1.1H57.3z"/>
			<path class="st1" d="M57.9,234.6c0.4-0.7,0.9-1.2,1.5-1.5c0.7-0.4,1.4-0.6,2.2-0.6c0.8,0,1.6,0.2,2.2,0.6
				c0.7,0.4,1.2,0.9,1.5,1.5c0.4,0.7,0.5,1.4,0.5,2.2c0,0.8-0.2,1.6-0.5,2.2c-0.4,0.7-0.9,1.2-1.5,1.5c-0.7,0.4-1.4,0.6-2.2,0.6
				c-0.8,0-1.6-0.2-2.2-0.6s-1.2-0.9-1.5-1.5c-0.4-0.7-0.5-1.4-0.5-2.2C57.3,236,57.5,235.3,57.9,234.6z M58.7,238.5
				c0.3,0.5,0.7,0.9,1.2,1.1c0.5,0.3,1.1,0.4,1.7,0.4c0.7,0,1.2-0.1,1.8-0.4s0.9-0.7,1.2-1.1c0.3-0.5,0.4-1,0.4-1.7
				s-0.1-1.2-0.4-1.7c-0.3-0.5-0.7-0.9-1.2-1.1c-0.5-0.3-1.1-0.4-1.8-0.4c-0.7,0-1.2,0.1-1.7,0.4c-0.5,0.3-0.9,0.7-1.2,1.1
				c-0.3,0.5-0.4,1-0.4,1.7S58.4,238,58.7,238.5z"/>
			<path class="st1" d="M58.2,223.4c0.6-0.6,1.4-0.9,2.4-0.9h5.2v1.1h-5c-0.8,0-1.4,0.2-1.9,0.7c-0.5,0.4-0.7,1.1-0.7,1.9
				c0,0.9,0.3,1.6,0.8,2.1c0.5,0.5,1.2,0.8,2.2,0.9h4.6v1.1h-8.5v-1.1h2c-0.7-0.3-1.2-0.7-1.5-1.3c-0.3-0.6-0.5-1.3-0.5-2.1
				C57.3,224.7,57.6,223.9,58.2,223.4z"/>
		</g>
	</g>
	<g>
		<g class="st5">
			<path class="st1" d="M55.8,144.4c-0.3,0.6-0.4,1.2-0.4,1.9c0,0.9,0.2,1.7,0.6,2.4c0.4,0.7,1,1.3,1.7,1.7c0.7,0.4,1.5,0.6,2.4,0.6
				s1.7-0.2,2.4-0.6c0.7-0.4,1.3-1,1.7-1.7c0.4-0.7,0.6-1.5,0.6-2.4c0-0.6-0.1-1.2-0.4-1.8s-0.6-1.1-1-1.6l0.7-0.7
				c0.5,0.6,0.9,1.2,1.2,1.9c0.3,0.7,0.5,1.5,0.5,2.2c0,1.1-0.3,2.1-0.8,3c-0.5,0.9-1.2,1.6-2.1,2.1s-1.9,0.8-2.9,0.8
				s-2-0.3-2.9-0.8c-0.9-0.5-1.6-1.3-2.1-2.2c-0.5-0.9-0.8-1.9-0.8-3c0-0.8,0.1-1.5,0.4-2.2c0.3-0.7,0.7-1.3,1.2-1.9l0.8,0.7
				C56.4,143.3,56,143.8,55.8,144.4z"/>
			<path class="st1" d="M55.2,132.2c0.5-0.9,1.2-1.6,2.1-2.2c0.9-0.5,1.8-0.8,2.9-0.8s2,0.3,2.9,0.8c0.9,0.5,1.6,1.3,2.1,2.2
				c0.5,0.9,0.8,1.9,0.8,3s-0.3,2.1-0.8,3c-0.5,0.9-1.2,1.6-2.1,2.2s-1.9,0.8-2.9,0.8s-2-0.3-2.9-0.8c-0.9-0.5-1.6-1.3-2.1-2.2
				c-0.5-0.9-0.8-1.9-0.8-3S54.6,133.1,55.2,132.2z M56,137.5c0.4,0.7,1,1.3,1.7,1.8c0.7,0.4,1.5,0.7,2.4,0.7s1.7-0.2,2.4-0.7
				c0.7-0.4,1.3-1,1.8-1.8c0.4-0.7,0.6-1.5,0.6-2.4c0-0.9-0.2-1.7-0.6-2.4s-1-1.3-1.8-1.8c-0.7-0.4-1.5-0.7-2.4-0.7
				s-1.7,0.2-2.4,0.7c-0.7,0.4-1.3,1-1.7,1.8s-0.6,1.5-0.6,2.4C55.4,136,55.6,136.8,56,137.5z"/>
			<path class="st1" d="M54.5,118.5v-1.1h11.4v1.2l-9.6,7.1h9.6v1.1H54.5v-1.2l9.6-7.1H54.5z"/>
			<path class="st1" d="M55.8,107.1c-0.3,0.6-0.4,1.2-0.4,1.9c0,0.9,0.2,1.7,0.6,2.4c0.4,0.7,1,1.3,1.7,1.7c0.7,0.4,1.5,0.6,2.4,0.6
				s1.7-0.2,2.4-0.6c0.7-0.4,1.3-1,1.7-1.7c0.4-0.7,0.6-1.5,0.6-2.4c0-0.6-0.1-1.2-0.4-1.8s-0.6-1.1-1-1.6l0.7-0.7
				c0.5,0.6,0.9,1.2,1.2,1.9c0.3,0.7,0.5,1.5,0.5,2.2c0,1.1-0.3,2.1-0.8,3c-0.5,0.9-1.2,1.6-2.1,2.1s-1.9,0.8-2.9,0.8
				s-2-0.3-2.9-0.8c-0.9-0.5-1.6-1.3-2.1-2.2c-0.5-0.9-0.8-1.9-0.8-3c0-0.8,0.1-1.5,0.4-2.2c0.3-0.7,0.7-1.3,1.2-1.9l0.8,0.7
				C56.4,105.9,56,106.5,55.8,107.1z"/>
			<path class="st1" d="M54.5,102.3v-7.6h1v6.5h4.1v-5.8h1v5.8h4.3v-6.7h1v7.8H54.5z"/>
			<path class="st1" d="M55.5,84.3c0.7-0.8,1.6-1.2,2.8-1.2c1.2,0,2.2,0.4,2.9,1.2c0.7,0.8,1,1.9,1,3.3v3.1h3.7v1.1H54.5v-4.2
				C54.5,86.1,54.8,85,55.5,84.3z M60.4,85.1c-0.5-0.6-1.2-0.9-2.1-0.9c-0.9,0-1.6,0.3-2.1,0.9c-0.5,0.6-0.7,1.4-0.7,2.5v3h5.7v-3
				C61.2,86.5,60.9,85.7,60.4,85.1z"/>
			<path class="st1" d="M54.5,82.5v-8.7h1v3.8h10.4v1.1H55.5v3.8H54.5z"/>
		</g>
	</g>
	<g>
		<g class="st5">
			<path class="st1" d="M329.9,341.1h1.1v11.4h-1.1V341.1z"/>
			<path class="st1" d="M342.1,341.8c0.9,0.5,1.6,1.2,2.1,2.1s0.8,1.8,0.8,2.9s-0.3,2-0.8,2.9s-1.2,1.6-2.1,2.1
				c-0.9,0.5-1.9,0.7-3,0.7h-4.5v-11.4h4.6C340.3,341.1,341.2,341.3,342.1,341.8z M341.6,350.8c0.7-0.4,1.3-1,1.7-1.7
				c0.4-0.7,0.6-1.5,0.6-2.4s-0.2-1.7-0.6-2.4c-0.4-0.7-1-1.3-1.7-1.7c-0.7-0.4-1.5-0.6-2.4-0.6h-3.4v9.4h3.5
				C340.1,351.4,340.8,351.2,341.6,350.8z"/>
			<path class="st1" d="M347.5,341.1h7.6v1h-6.5v4.1h5.8v1h-5.8v4.3h6.7v1h-7.8V341.1z"/>
			<path class="st1" d="M366.6,352.4l-1.4-3h-6.3l-1.3,3h-1.2l5.1-11.4h1.2l5.1,11.4H366.6z M359.4,348.4h5.4l-2.7-6.2L359.4,348.4z
				"/>
			<path class="st1" d="M367,341h8.7v1h-3.8v10.4h-1.1v-10.4H367V341z"/>
			<path class="st1" d="M377.6,341.1h1.1v11.4h-1.1V341.1z"/>
			<path class="st1" d="M390.2,341.7c0.9,0.5,1.6,1.2,2.2,2.1c0.5,0.9,0.8,1.8,0.8,2.9s-0.3,2-0.8,2.9c-0.5,0.9-1.3,1.6-2.2,2.1
				c-0.9,0.5-1.9,0.8-3,0.8s-2.1-0.3-3-0.8c-0.9-0.5-1.6-1.2-2.2-2.1s-0.8-1.9-0.8-2.9s0.3-2,0.8-2.9c0.5-0.9,1.3-1.6,2.2-2.1
				c0.9-0.5,1.9-0.8,3-0.8S389.3,341.2,390.2,341.7z M384.8,342.6c-0.7,0.4-1.3,1-1.8,1.7c-0.4,0.7-0.7,1.5-0.7,2.4s0.2,1.7,0.7,2.4
				c0.4,0.7,1,1.3,1.8,1.8c0.7,0.4,1.5,0.6,2.4,0.6c0.9,0,1.7-0.2,2.4-0.6s1.3-1,1.8-1.8c0.4-0.7,0.7-1.5,0.7-2.4s-0.2-1.7-0.7-2.4
				c-0.4-0.7-1-1.3-1.8-1.7s-1.5-0.6-2.4-0.6C386.3,342,385.5,342.2,384.8,342.6z"/>
			<path class="st1" d="M403.9,341.1h1.1v11.4h-1.2l-7.1-9.6v9.6h-1.1v-11.4h1.2l7.1,9.6V341.1z"/>
		</g>
	</g>
	<g>
		<g class="st5">
			<path class="st1" d="M558.4,342.3c-0.6-0.3-1.2-0.4-1.9-0.4c-0.9,0-1.7,0.2-2.4,0.6c-0.7,0.4-1.3,1-1.7,1.7
				c-0.4,0.7-0.6,1.5-0.6,2.4s0.2,1.7,0.6,2.4c0.4,0.7,1,1.3,1.7,1.7c0.7,0.4,1.5,0.6,2.4,0.6c0.6,0,1.2-0.1,1.8-0.4
				c0.6-0.2,1.1-0.6,1.6-1l0.7,0.7c-0.6,0.5-1.2,0.9-1.9,1.2s-1.5,0.5-2.2,0.5c-1.1,0-2.1-0.3-3-0.8c-0.9-0.5-1.6-1.2-2.1-2.1
				c-0.5-0.9-0.8-1.9-0.8-2.9s0.3-2,0.8-2.9c0.5-0.9,1.3-1.6,2.2-2.1c0.9-0.5,1.9-0.8,3-0.8c0.8,0,1.5,0.1,2.2,0.4
				c0.7,0.3,1.3,0.7,1.9,1.2l-0.7,0.8C559.5,342.9,558.9,342.6,558.4,342.3z"/>
			<path class="st1" d="M565.2,344.4c0.5-0.3,1.2-0.5,1.9-0.5v1c-0.9,0-1.6,0.3-2.2,0.8c-0.5,0.5-0.9,1.3-0.9,2.2v4.6h-1.1v-8.5h1.1
				v2C564.3,345.2,564.7,344.7,565.2,344.4z"/>
			<path class="st1" d="M575.2,345.1c0.7,0.8,1,2,1,3.4H569c0.1,0.9,0.4,1.6,1,2.2s1.3,0.8,2.2,0.8c0.5,0,1-0.1,1.5-0.3
				c0.5-0.2,0.9-0.5,1.2-0.8l0.6,0.6c-0.4,0.4-0.9,0.8-1.5,1c-0.6,0.2-1.2,0.4-1.9,0.4c-0.8,0-1.6-0.2-2.2-0.5
				c-0.6-0.4-1.1-0.9-1.5-1.5s-0.5-1.4-0.5-2.2c0-0.8,0.2-1.6,0.5-2.2c0.4-0.7,0.9-1.2,1.5-1.5c0.6-0.4,1.4-0.5,2.2-0.5
				C573.5,343.9,574.5,344.3,575.2,345.1z M575.2,347.7c-0.1-0.9-0.4-1.6-0.9-2.1s-1.2-0.8-2.1-0.8c-0.9,0-1.6,0.3-2.2,0.8
				c-0.6,0.5-0.9,1.2-1,2.1H575.2z"/>
			<path class="st1" d="M583.8,352.4l0-1.4c-0.3,0.5-0.8,0.9-1.3,1.1c-0.5,0.2-1.2,0.4-1.9,0.4c-0.6,0-1.1-0.1-1.5-0.3
				c-0.4-0.2-0.8-0.5-1-0.9c-0.2-0.4-0.4-0.8-0.4-1.3c0-0.7,0.3-1.3,0.9-1.7c0.6-0.4,1.4-0.6,2.4-0.6h2.9v-0.7
				c0-0.7-0.2-1.2-0.6-1.6s-1-0.6-1.8-0.6c-0.9,0-1.8,0.3-2.8,1l-0.5-0.8c0.6-0.4,1.1-0.7,1.6-0.9c0.5-0.2,1.1-0.3,1.8-0.3
				c1,0,1.8,0.3,2.4,0.8s0.9,1.2,0.9,2.1l0,5.7H583.8z M582.7,351c0.5-0.4,0.9-0.8,1.1-1.5v-1.2H581c-0.8,0-1.3,0.1-1.7,0.4
				s-0.6,0.6-0.6,1.1c0,0.5,0.2,0.9,0.6,1.2c0.4,0.3,0.9,0.5,1.5,0.5C581.5,351.6,582.2,351.4,582.7,351z"/>
			<path class="st1" d="M592.1,351.9c-0.6,0.4-1.2,0.6-1.9,0.6c-0.7,0-1.2-0.2-1.5-0.6s-0.6-1-0.6-1.8V345h-1.2l0-0.8h1.2v-2.2h1.1
				v2.2l2.8,0v0.9h-2.8v4.9c0,1.1,0.4,1.6,1.2,1.6c0.4,0,0.9-0.2,1.4-0.5L592.1,351.9z"/>
			<path class="st1" d="M595.2,340.9c0.1,0.1,0.2,0.3,0.2,0.5c0,0.2-0.1,0.4-0.2,0.6s-0.3,0.2-0.5,0.2c-0.2,0-0.4-0.1-0.5-0.2
				c-0.1-0.2-0.2-0.3-0.2-0.6c0-0.2,0.1-0.4,0.2-0.5c0.1-0.1,0.3-0.2,0.5-0.2S595,340.8,595.2,340.9z M594.1,343.9h1.1v8.5h-1.1
				V343.9z"/>
			<path class="st1" d="M604,344.4c0.7,0.4,1.2,0.9,1.5,1.5c0.4,0.7,0.6,1.4,0.6,2.2c0,0.8-0.2,1.6-0.6,2.2
				c-0.4,0.7-0.9,1.2-1.5,1.5c-0.7,0.4-1.4,0.5-2.2,0.5c-0.8,0-1.6-0.2-2.2-0.5c-0.7-0.4-1.2-0.9-1.5-1.5c-0.4-0.7-0.6-1.4-0.6-2.2
				c0-0.8,0.2-1.6,0.6-2.2s0.9-1.2,1.5-1.5c0.7-0.4,1.4-0.5,2.2-0.5C602.6,343.9,603.3,344.1,604,344.4z M600.1,345.2
				c-0.5,0.3-0.9,0.7-1.1,1.2c-0.3,0.5-0.4,1.1-0.4,1.7c0,0.7,0.1,1.2,0.4,1.8s0.7,0.9,1.1,1.2s1,0.4,1.7,0.4s1.2-0.1,1.7-0.4
				s0.9-0.7,1.1-1.2s0.4-1.1,0.4-1.8c0-0.7-0.1-1.2-0.4-1.7c-0.3-0.5-0.7-0.9-1.1-1.2s-1-0.4-1.7-0.4S600.6,345,600.1,345.2z"/>
			<path class="st1" d="M615.2,344.8c0.6,0.6,0.9,1.4,0.9,2.4v5.2H615v-5c0-0.8-0.2-1.4-0.7-1.9c-0.4-0.5-1.1-0.7-1.9-0.7
				c-0.9,0-1.6,0.3-2.1,0.8s-0.8,1.2-0.9,2.2v4.6h-1.1v-8.5h1.1v2c0.3-0.7,0.7-1.2,1.3-1.5c0.6-0.3,1.3-0.5,2.1-0.5
				C613.8,343.9,614.6,344.2,615.2,344.8z"/>
		</g>
	</g>
	<g>
		<path class="st1" d="M270.2,401H112.9c-8.1,0-14.7-6.6-14.7-14.7l0,0c0-8.1,6.6-14.7,14.7-14.7h157.3c8.1,0,14.7,6.6,14.7,14.7
			l0,0C284.9,394.4,278.3,401,270.2,401z"/>
	</g>
	<g>
		<path class="st1" d="M413.6,401h-92.3c-8.1,0-14.7-6.6-14.7-14.7l0,0c0-8.1,6.6-14.7,14.7-14.7h92.3c8.1,0,14.7,6.6,14.7,14.7l0,0
			C428.3,394.4,421.7,401,413.6,401z"/>
	</g>
	<g>
		<path class="st0" d="M717.4,401H466.6c-8.1,0-14.7-6.6-14.7-14.7l0,0c0-8.1,6.6-14.7,14.7-14.7h250.7c8.1,0,14.7,6.6,14.7,14.7
			l0,0C732.1,394.4,725.5,401,717.4,401z"/>
	</g>
	<g>
		<g class="st5">
			<path class="st4" d="M130.6,381.8h7.9v1.7h-3v8.1h-1.9v-8.1h-3V381.8z"/>
			<path class="st4" d="M139.8,381.8h1.9v4.1h4.8v-4.1h1.9v9.7h-1.9v-3.9h-4.8v3.9h-1.9V381.8z"/>
			<path class="st4" d="M150.8,381.8h1.9v9.7h-1.9V381.8z"/>
			<path class="st4" d="M161.8,381.8h1.8v9.7h-1.8l-5-6.7v6.7H155v-9.7h1.8l5,6.7V381.8z"/>
			<path class="st4" d="M174.7,391.5h-2.2l-3.1-4.2l-1.5,1.7v2.5H166v-9.7h1.9v4.8l4.4-4.8h2.2l-3.7,4.1L174.7,391.5z"/>
			<path class="st4" d="M186.1,382.4c0.8,0.4,1.4,1,1.8,1.7c0.4,0.7,0.7,1.6,0.7,2.5s-0.2,1.8-0.7,2.5c-0.4,0.7-1,1.3-1.8,1.7
				c-0.8,0.4-1.7,0.6-2.7,0.6h-4v-9.7h4C184.5,381.8,185.3,382,186.1,382.4z M185.1,389.5c0.5-0.3,0.8-0.7,1.1-1.1
				c0.3-0.5,0.4-1,0.4-1.7s-0.1-1.2-0.4-1.7c-0.3-0.5-0.7-0.9-1.1-1.2c-0.5-0.3-1-0.4-1.6-0.4h-2.2v6.4h2.2
				C184.1,389.9,184.7,389.8,185.1,389.5z"/>
			<path class="st4" d="M190.2,381.8h7.1v1.6H192v2.4h4.7v1.6H192v2.4h5.4v1.6h-7.3V381.8z"/>
			<path class="st4" d="M203.9,383.6c-0.5-0.2-1-0.3-1.4-0.3c-0.4,0-0.8,0.1-1.1,0.3c-0.3,0.2-0.4,0.4-0.4,0.7
				c0,0.3,0.1,0.5,0.3,0.7c0.2,0.2,0.4,0.3,0.7,0.4c0.3,0.1,0.6,0.2,1.1,0.4c0.7,0.2,1.2,0.4,1.6,0.6c0.4,0.2,0.8,0.5,1.1,0.9
				c0.3,0.4,0.4,0.9,0.4,1.5c0,0.6-0.2,1.1-0.5,1.5c-0.3,0.4-0.8,0.8-1.3,1c-0.6,0.2-1.2,0.3-1.9,0.3c-0.8,0-1.5-0.1-2.2-0.4
				c-0.7-0.3-1.4-0.7-1.9-1.1l0.8-1.6c0.5,0.5,1,0.8,1.7,1.1s1.2,0.4,1.7,0.4c0.5,0,0.9-0.1,1.2-0.3c0.3-0.2,0.4-0.5,0.4-0.8
				c0-0.3-0.1-0.5-0.3-0.7c-0.2-0.2-0.4-0.3-0.7-0.4c-0.3-0.1-0.7-0.2-1.1-0.4c-0.7-0.2-1.2-0.4-1.6-0.6c-0.4-0.2-0.8-0.5-1.1-0.8
				c-0.3-0.4-0.4-0.9-0.4-1.5c0-0.6,0.1-1.1,0.5-1.5c0.3-0.4,0.7-0.7,1.3-1c0.6-0.2,1.2-0.3,1.9-0.3c0.6,0,1.3,0.1,1.9,0.3
				c0.6,0.2,1.2,0.4,1.6,0.8l-0.7,1.6C205,384,204.5,383.8,203.9,383.6z"/>
			<path class="st4" d="M208.1,381.8h1.9v9.7h-1.9V381.8z"/>
			<path class="st4" d="M218.9,386.7h1.6v3.7c-0.5,0.4-1.1,0.7-1.8,0.9c-0.7,0.2-1.4,0.4-2,0.4c-1,0-1.8-0.2-2.6-0.7
				c-0.8-0.4-1.4-1-1.9-1.8c-0.5-0.8-0.7-1.6-0.7-2.5c0-0.9,0.2-1.8,0.7-2.5c0.5-0.8,1.1-1.4,1.9-1.8s1.7-0.7,2.7-0.7
				c0.7,0,1.4,0.1,2.1,0.4c0.7,0.3,1.3,0.6,1.7,1l-1.1,1.4c-0.4-0.4-0.8-0.6-1.3-0.8c-0.5-0.2-1-0.3-1.5-0.3c-0.6,0-1.2,0.1-1.7,0.4
				c-0.5,0.3-0.9,0.7-1.2,1.2c-0.3,0.5-0.4,1.1-0.4,1.7c0,0.6,0.2,1.2,0.5,1.7s0.7,0.9,1.2,1.2s1.1,0.4,1.7,0.4c0.3,0,0.7-0.1,1-0.2
				c0.4-0.1,0.7-0.3,1-0.5V386.7z"/>
			<path class="st4" d="M229.5,381.8h1.8v9.7h-1.8l-5-6.7v6.7h-1.8v-9.7h1.8l5,6.7V381.8z"/>
		</g>
	</g>
	<g>
		<g class="st5">
			<path class="st4" d="M334.2,381.8h1.9v8h4.2v1.7h-6.1V381.8z"/>
			<path class="st4" d="M341.7,381.8h7.1v1.6h-5.3v2.4h4.7v1.6h-4.7v2.4h5.4v1.6h-7.3V381.8z"/>
			<path class="st4" d="M358.1,391.5l-0.9-2.1h-4.7l-0.9,2.1h-1.9l4.3-9.7h1.9l4.2,9.7H358.1z M353.2,387.9h3.4l-1.7-4.1
				L353.2,387.9z"/>
			<path class="st4" d="M368,381.8h1.8v9.7h-1.8l-5-6.7v6.7h-1.8v-9.7h1.8l5,6.7V381.8z"/>
			<path class="st4" d="M378,389.4c0.4,0.4,1,0.7,1.7,0.7s1.3-0.2,1.7-0.7c0.4-0.4,0.6-1,0.6-1.8v-5.7h1.9v5.7
				c0,0.8-0.2,1.6-0.5,2.2c-0.3,0.6-0.8,1.1-1.5,1.4c-0.6,0.3-1.4,0.5-2.2,0.5c-0.9,0-1.6-0.2-2.3-0.5c-0.6-0.3-1.1-0.8-1.5-1.4
				c-0.3-0.6-0.5-1.4-0.5-2.2v-5.7h1.9v5.7C377.3,388.3,377.5,388.9,378,389.4z"/>
			<path class="st4" d="M385.3,381.8h2.2l2.2,3.2l2.2-3.2h2.2l-3.3,4.6l3.5,5.1h-2.2l-2.5-3.5l-2.5,3.5h-2.2l3.5-5L385.3,381.8z"/>
		</g>
	</g>
	<g>
		<g class="st5">
			<path class="st4" d="M510.4,391.5l-0.9-2.1h-4.7l-0.9,2.1H502l4.3-9.7h1.9l4.2,9.7H510.4z M505.5,387.9h3.4l-1.7-4.1L505.5,387.9
				z"/>
			<path class="st4" d="M519.9,386.7h1.6v3.7c-0.5,0.4-1.1,0.7-1.8,0.9c-0.7,0.2-1.4,0.4-2,0.4c-1,0-1.8-0.2-2.6-0.7s-1.4-1-1.9-1.8
				c-0.5-0.8-0.7-1.6-0.7-2.5c0-0.9,0.2-1.8,0.7-2.5s1.1-1.4,1.9-1.8c0.8-0.4,1.7-0.7,2.7-0.7c0.7,0,1.4,0.1,2.1,0.4
				c0.7,0.3,1.3,0.6,1.8,1l-1.1,1.4c-0.4-0.4-0.8-0.6-1.3-0.8c-0.5-0.2-1-0.3-1.5-0.3c-0.6,0-1.2,0.1-1.7,0.4
				c-0.5,0.3-0.9,0.7-1.2,1.2s-0.4,1.1-0.4,1.7c0,0.6,0.2,1.2,0.5,1.7s0.7,0.9,1.2,1.2c0.5,0.3,1.1,0.4,1.7,0.4c0.3,0,0.7-0.1,1-0.2
				s0.7-0.3,1-0.5V386.7z"/>
			<path class="st4" d="M523.7,381.8h1.9v9.7h-1.9V381.8z"/>
			<path class="st4" d="M528,381.8h1.9v8h4.2v1.7H528V381.8z"/>
			<path class="st4" d="M535.5,381.8h7.1v1.6h-5.3v2.4h4.7v1.6h-4.7v2.4h5.4v1.6h-7.3V381.8z"/>
			<path class="st4" d="M548,381.8h2.1l3.2,6.3l3.2-6.3h2.1v9.7H557v-7l-3,6h-1.2l-3-6v7H548V381.8z"/>
			<path class="st4" d="M561.1,381.8h7.1v1.6h-5.3v2.4h4.7v1.6h-4.7v2.4h5.4v1.6h-7.3V381.8z"/>
			<path class="st4" d="M569.2,381.8h7.9v1.7h-3v8.1h-1.9v-8.1h-3V381.8z"/>
			<path class="st4" d="M578.4,381.8h1.9v4.1h4.8v-4.1h1.9v9.7h-1.9v-3.9h-4.8v3.9h-1.9V381.8z"/>
			<path class="st4" d="M596.4,382.4c0.8,0.4,1.4,1,1.9,1.8s0.7,1.6,0.7,2.5c0,0.9-0.2,1.8-0.7,2.5c-0.5,0.8-1.1,1.4-1.9,1.8
				s-1.7,0.7-2.6,0.7c-1,0-1.8-0.2-2.6-0.7s-1.4-1-1.9-1.8c-0.5-0.8-0.7-1.6-0.7-2.5c0-0.9,0.2-1.8,0.7-2.5c0.5-0.8,1.1-1.4,1.9-1.8
				c0.8-0.4,1.7-0.7,2.6-0.7C594.8,381.7,595.6,381.9,596.4,382.4z M592.2,383.8c-0.5,0.3-0.9,0.7-1.2,1.2c-0.3,0.5-0.4,1.1-0.4,1.7
				c0,0.6,0.2,1.2,0.5,1.7s0.7,0.9,1.2,1.2s1.1,0.4,1.6,0.4c0.6,0,1.1-0.1,1.6-0.4s0.9-0.7,1.2-1.2s0.4-1.1,0.4-1.7
				c0-0.6-0.1-1.2-0.4-1.7c-0.3-0.5-0.7-0.9-1.2-1.2c-0.5-0.3-1-0.4-1.6-0.4C593.2,383.4,592.7,383.5,592.2,383.8z"/>
			<path class="st4" d="M607.3,382.4c0.8,0.4,1.4,1,1.8,1.7c0.4,0.7,0.7,1.6,0.7,2.5s-0.2,1.8-0.7,2.5s-1,1.3-1.8,1.7
				c-0.8,0.4-1.7,0.6-2.7,0.6h-4v-9.7h4C605.6,381.8,606.5,382,607.3,382.4z M606.3,389.5c0.5-0.3,0.8-0.7,1.1-1.1
				c0.3-0.5,0.4-1,0.4-1.7s-0.1-1.2-0.4-1.7c-0.3-0.5-0.7-0.9-1.1-1.2c-0.5-0.3-1-0.4-1.6-0.4h-2.2v6.4h2.2
				C605.3,389.9,605.8,389.8,606.3,389.5z"/>
			<path class="st4" d="M618,382.4c0.8,0.4,1.4,1,1.9,1.8c0.5,0.8,0.7,1.6,0.7,2.5c0,0.9-0.2,1.8-0.7,2.5c-0.5,0.8-1.1,1.4-1.9,1.8
				s-1.7,0.7-2.6,0.7s-1.8-0.2-2.6-0.7s-1.4-1-1.9-1.8c-0.5-0.8-0.7-1.6-0.7-2.5c0-0.9,0.2-1.8,0.7-2.5c0.5-0.8,1.1-1.4,1.9-1.8
				c0.8-0.4,1.7-0.7,2.6-0.7S617.3,381.9,618,382.4z M613.8,383.8c-0.5,0.3-0.9,0.7-1.2,1.2c-0.3,0.5-0.4,1.1-0.4,1.7
				c0,0.6,0.2,1.2,0.5,1.7s0.7,0.9,1.2,1.2c0.5,0.3,1.1,0.4,1.6,0.4c0.6,0,1.1-0.1,1.6-0.4c0.5-0.3,0.9-0.7,1.2-1.2
				c0.3-0.5,0.4-1.1,0.4-1.7c0-0.6-0.1-1.2-0.4-1.7c-0.3-0.5-0.7-0.9-1.2-1.2c-0.5-0.3-1-0.4-1.6-0.4
				C614.9,383.4,614.3,383.5,613.8,383.8z"/>
			<path class="st4" d="M622.2,381.8h1.9v8h4.2v1.7h-6.1V381.8z"/>
			<path class="st4" d="M636.8,382.4c0.8,0.4,1.4,1,1.9,1.8c0.5,0.8,0.7,1.6,0.7,2.5c0,0.9-0.2,1.8-0.7,2.5
				c-0.5,0.8-1.1,1.4-1.9,1.8s-1.7,0.7-2.6,0.7s-1.8-0.2-2.6-0.7s-1.4-1-1.9-1.8c-0.5-0.8-0.7-1.6-0.7-2.5c0-0.9,0.2-1.8,0.7-2.5
				c0.5-0.8,1.1-1.4,1.9-1.8c0.8-0.4,1.7-0.7,2.6-0.7S636,381.9,636.8,382.4z M632.5,383.8c-0.5,0.3-0.9,0.7-1.2,1.2
				c-0.3,0.5-0.4,1.1-0.4,1.7c0,0.6,0.2,1.2,0.5,1.7s0.7,0.9,1.2,1.2c0.5,0.3,1.1,0.4,1.6,0.4c0.6,0,1.1-0.1,1.6-0.4
				c0.5-0.3,0.9-0.7,1.2-1.2c0.3-0.5,0.4-1.1,0.4-1.7c0-0.6-0.1-1.2-0.4-1.7c-0.3-0.5-0.7-0.9-1.2-1.2c-0.5-0.3-1-0.4-1.6-0.4
				C633.6,383.4,633,383.5,632.5,383.8z"/>
			<path class="st4" d="M647.2,386.7h1.6v3.7c-0.5,0.4-1.1,0.7-1.8,0.9c-0.7,0.2-1.4,0.4-2,0.4c-1,0-1.8-0.2-2.6-0.7
				c-0.8-0.4-1.4-1-1.9-1.8c-0.5-0.8-0.7-1.6-0.7-2.5c0-0.9,0.2-1.8,0.7-2.5s1.1-1.4,1.9-1.8s1.7-0.7,2.7-0.7c0.7,0,1.4,0.1,2.1,0.4
				c0.7,0.3,1.3,0.6,1.7,1l-1.1,1.4c-0.4-0.4-0.8-0.6-1.3-0.8c-0.5-0.2-1-0.3-1.5-0.3c-0.6,0-1.2,0.1-1.7,0.4
				c-0.5,0.3-0.9,0.7-1.2,1.2c-0.3,0.5-0.4,1.1-0.4,1.7c0,0.6,0.2,1.2,0.5,1.7s0.7,0.9,1.2,1.2s1.1,0.4,1.7,0.4c0.3,0,0.7-0.1,1-0.2
				c0.4-0.1,0.7-0.3,1-0.5V386.7z"/>
			<path class="st4" d="M658.8,381.8l-3.5,6.5v3.2h-1.9v-3.1l-3.6-6.6h1.9l2.7,4.6l2.6-4.6H658.8z"/>
		</g>
	</g>
	<g>
		<path class="st0" d="M487.3,268.5c-11.5,0-20.9-13.4-20.9-29.8c0-16.4,9.4-29.8,20.9-29.8s20.9,13.4,20.9,29.8
			C508.2,255.1,498.8,268.5,487.3,268.5z M487.3,210.9c-10.4,0-18.9,12.5-18.9,27.8s8.5,27.8,18.9,27.8c10.4,0,18.9-12.5,18.9-27.8
			S497.7,210.9,487.3,210.9z"/>
	</g>
	<g>
		<path class="st0" d="M484.3,267.4c-8.3,0-15.1-9.6-15.1-21.4s6.8-21.4,15.1-21.4s15.1,9.6,15.1,21.4S492.6,267.4,484.3,267.4z
			 M484.3,226.6c-7.2,0-13.1,8.7-13.1,19.4s5.9,19.4,13.1,19.4s13.1-8.7,13.1-19.4S491.5,226.6,484.3,226.6z"/>
	</g>
	<g>
		<path class="st0" d="M522,290.3c-7.1,0-12.9-8.2-12.9-18.2s5.8-18.2,12.9-18.2s12.9,8.2,12.9,18.2S529.1,290.3,522,290.3z
			 M522,255.9c-6,0-10.9,7.3-10.9,16.2s4.9,16.2,10.9,16.2s10.9-7.3,10.9-16.2S528,255.9,522,255.9z"/>
	</g>
</g>
</svg>
