<?xml version="1.0" encoding="UTF-8" standalone="no"?>
<!-- Created with Inkscape (http://www.inkscape.org/) -->

<svg
   xmlns:dc="http://purl.org/dc/elements/1.1/"
   xmlns:cc="http://creativecommons.org/ns#"
   xmlns:rdf="http://www.w3.org/1999/02/22-rdf-syntax-ns#"
   xmlns:svg="http://www.w3.org/2000/svg"
   xmlns="http://www.w3.org/2000/svg"
   xmlns:sodipodi="http://sodipodi.sourceforge.net/DTD/sodipodi-0.dtd"
   xmlns:inkscape="http://www.inkscape.org/namespaces/inkscape"
   width="207.67999"
   height="327.34299"
   viewBox="0 0 207.68 327.34299"
   id="svg2"
   version="1.1"
   inkscape:version="0.91 r13725"
   sodipodi:docname="mobile design.svg">
  <defs
     id="defs4">
    <pattern
       y="0"
       x="0"
       height="6"
       width="6"
       patternUnits="userSpaceOnUse"
       id="EMFhbasepattern" />
    <pattern
       y="0"
       x="0"
       height="6"
       width="6"
       patternUnits="userSpaceOnUse"
       id="EMFhbasepattern-3" />
    <pattern
       y="0"
       x="0"
       height="6"
       width="6"
       patternUnits="userSpaceOnUse"
       id="EMFhbasepattern-6" />
    <pattern
       y="0"
       x="0"
       height="6"
       width="6"
       patternUnits="userSpaceOnUse"
       id="EMFhbasepattern-38" />
  </defs>
  <sodipodi:namedview
     id="base"
     pagecolor="#ffffff"
     bordercolor="#666666"
     borderopacity="1.0"
     inkscape:pageopacity="0.0"
     inkscape:pageshadow="2"
     inkscape:zoom="1.4"
     inkscape:cx="76.345202"
     inkscape:cy="191.21123"
     inkscape:document-units="px"
     inkscape:current-layer="layer1"
     showgrid="false"
     units="px"
     inkscape:showpageshadow="false"
     inkscape:window-width="1920"
     inkscape:window-height="1017"
     inkscape:window-x="-8"
     inkscape:window-y="-8"
     inkscape:window-maximized="1" />
  <metadata
     id="metadata7">
    <rdf:RDF>
      <cc:Work
         rdf:about="">
        <dc:format>image/svg+xml</dc:format>
        <dc:type
           rdf:resource="http://purl.org/dc/dcmitype/StillImage" />
        <dc:title></dc:title>
      </cc:Work>
    </rdf:RDF>
  </metadata>
  <g
     inkscape:label="Layer 1"
     inkscape:groupmode="layer"
     id="layer1"
     transform="translate(0,-725.01914)">
    <g
       transform="translate(4147.6726,1303.8557)"
       id="g7349">
      <path
         inkscape:connector-curvature="0"
         id="path4353"
         style="fill:#f6eb16;fill-opacity:1;fill-rule:nonzero;stroke:none"
         d="m -4035.3442,-439.32538 54.3528,0 0,-139.52172 -54.3528,0 0,139.52172 z" />
      <path
         inkscape:connector-curvature="0"
         id="path4355"
         style="fill:#dbba14;fill-opacity:1;fill-rule:nonzero;stroke:none"
         d="m -4035.3442,-439.32538 3.9594,0 0,-139.52172 -3.9594,0 0,139.52172 z" />
      <path
         d="m -3987.9858,-570.64971 -35.2242,0"
         style="fill:none;stroke:#000000;stroke-width:3;stroke-linecap:butt;stroke-linejoin:miter;stroke-miterlimit:10;stroke-dasharray:none;stroke-opacity:1"
         id="path4359"
         inkscape:connector-curvature="0" />
      <path
         d="m -3987.9858,-556.70118 -17.6139,0"
         style="fill:none;stroke:#000000;stroke-width:3;stroke-linecap:butt;stroke-linejoin:miter;stroke-miterlimit:10;stroke-dasharray:none;stroke-opacity:1"
         id="path4363"
         inkscape:connector-curvature="0" />
      <path
         d="m -3987.9858,-542.75675 -17.6139,0"
         style="fill:none;stroke:#000000;stroke-width:3;stroke-linecap:butt;stroke-linejoin:miter;stroke-miterlimit:10;stroke-dasharray:none;stroke-opacity:1"
         id="path4367"
         inkscape:connector-curvature="0" />
      <path
         d="m -3987.9858,-528.80825 -17.6139,0"
         style="fill:none;stroke:#000000;stroke-width:3;stroke-linecap:butt;stroke-linejoin:miter;stroke-miterlimit:10;stroke-dasharray:none;stroke-opacity:1"
         id="path4371"
         inkscape:connector-curvature="0" />
      <path
         d="m -3987.9858,-514.86381 -17.6139,0"
         style="fill:none;stroke:#000000;stroke-width:3;stroke-linecap:butt;stroke-linejoin:miter;stroke-miterlimit:10;stroke-dasharray:none;stroke-opacity:1"
         id="path4375"
         inkscape:connector-curvature="0" />
      <path
         d="m -3987.9858,-500.91529 -35.2242,0"
         style="fill:none;stroke:#000000;stroke-width:3;stroke-linecap:butt;stroke-linejoin:miter;stroke-miterlimit:10;stroke-dasharray:none;stroke-opacity:1"
         id="path4379"
         inkscape:connector-curvature="0" />
      <path
         d="m -3987.9858,-486.9705 -17.6139,0"
         style="fill:none;stroke:#000000;stroke-width:3;stroke-linecap:butt;stroke-linejoin:miter;stroke-miterlimit:10;stroke-dasharray:none;stroke-opacity:1"
         id="path4383"
         inkscape:connector-curvature="0" />
      <path
         d="m -3987.9858,-473.02235 -17.6139,0"
         style="fill:none;stroke:#000000;stroke-width:3;stroke-linecap:butt;stroke-linejoin:miter;stroke-miterlimit:10;stroke-dasharray:none;stroke-opacity:1"
         id="path4387"
         inkscape:connector-curvature="0" />
      <path
         d="m -3987.9858,-459.07753 -17.6139,0"
         style="fill:none;stroke:#000000;stroke-width:3;stroke-linecap:butt;stroke-linejoin:miter;stroke-miterlimit:10;stroke-dasharray:none;stroke-opacity:1"
         id="path4391"
         inkscape:connector-curvature="0" />
      <path
         d="m -3987.9858,-445.12942 -17.6139,0"
         style="fill:none;stroke:#000000;stroke-width:3;stroke-linecap:butt;stroke-linejoin:miter;stroke-miterlimit:10;stroke-dasharray:none;stroke-opacity:1"
         id="path4395"
         inkscape:connector-curvature="0" />
      <path
         d="m -3966.227,-524.00459 c 0,-6.30145 -4.9191,-11.45218 -10.9301,-11.45218 l -131.1799,0 c -6.011,0 -10.9301,5.15073 -10.9301,11.45218 l 0,238.14282 153.0401,0 0,-238.14282 z"
         style="fill:none;stroke:#919191;stroke-width:3;stroke-linecap:butt;stroke-linejoin:miter;stroke-miterlimit:10;stroke-dasharray:none;stroke-opacity:1"
         id="path4399"
         inkscape:connector-curvature="0" />
      <path
         d="m -4120.9331,-285.86766 0,22.90803 c 0,6.29778 5.0257,11.45586 11.1691,11.45586 l 134.0328,0 c 6.1433,0 11.1691,-5.15808 11.1691,-11.45586 l 0,-22.90803 -156.371,0 z"
         style="fill:#969696;fill-opacity:1;fill-rule:nonzero;stroke:none"
         id="path4403"
         inkscape:connector-curvature="0" />
      <path
         d="m -3948.4962,-543.38875 c 0,3.82352 -3.0993,6.92278 -6.9228,6.92278 -3.8235,0 -6.9264,-3.09926 -6.9264,-6.92278 0,-3.82352 3.1029,-6.92645 6.9264,-6.92645 3.8235,0 6.9228,3.10293 6.9228,6.92645 z"
         style="fill:none;stroke:#000000;stroke-width:3;stroke-linecap:butt;stroke-linejoin:miter;stroke-miterlimit:10;stroke-dasharray:none;stroke-opacity:1"
         id="path4407"
         inkscape:connector-curvature="0" />
      <path
         d="m -4134.8307,-341.72523 c 0,3.03676 -2.4632,5.50366 -5.5037,5.50366 -3.0404,0 -5.5036,-2.4669 -5.5036,-5.50366 0,-3.04043 2.4632,-5.50366 5.5036,-5.50366 3.0405,0 5.5037,2.46323 5.5037,5.50366 z"
         style="fill:none;stroke:#000000;stroke-width:3.67646194;stroke-linecap:butt;stroke-linejoin:miter;stroke-miterlimit:10;stroke-dasharray:none;stroke-opacity:1"
         id="path4411"
         inkscape:connector-curvature="0" />
      <path
         d="m -4135.0213,-551.04678 0,14.58084"
         style="fill:none;stroke:#000000;stroke-width:3;stroke-linecap:round;stroke-linejoin:miter;stroke-miterlimit:10;stroke-dasharray:none;stroke-opacity:1"
         id="path4415"
         inkscape:connector-curvature="0" />
      <path
         d="m -4142.313,-543.75822 14.5845,0"
         style="fill:none;stroke:#000000;stroke-width:3;stroke-linecap:round;stroke-linejoin:miter;stroke-miterlimit:10;stroke-dasharray:none;stroke-opacity:1"
         id="path4419"
         inkscape:connector-curvature="0" />
      <path
         d="m -3941.8526,-328.21867 -8.8088,8.8088"
         style="fill:none;stroke:#000000;stroke-width:3.67646194;stroke-linecap:round;stroke-linejoin:miter;stroke-miterlimit:10;stroke-dasharray:none;stroke-opacity:1"
         id="path4423"
         inkscape:connector-curvature="0" />
      <path
         d="m -3950.6632,-328.21867 8.8088,8.8088"
         style="fill:none;stroke:#000000;stroke-width:3.67646194;stroke-linecap:round;stroke-linejoin:miter;stroke-miterlimit:10;stroke-dasharray:none;stroke-opacity:1"
         id="path4427"
         inkscape:connector-curvature="0" />
      <path
         d="m -4063.7823,-509.68294 c 0,6.30513 -5.1103,11.41173 -11.4154,11.41173 -6.3051,0 -11.4118,-5.1066 -11.4118,-11.41173 0,-6.30514 5.1067,-11.41174 11.4118,-11.41174 6.3051,0 11.4154,5.1066 11.4154,11.41174"
         style="fill:#f6eb16;fill-opacity:1;fill-rule:nonzero;stroke:none"
         id="path4443"
         inkscape:connector-curvature="0" />
      <path
         d="m -4055.4312,-407.75816 -10.6287,46.05871 23.4044,48.20577 23.4007,-48.20577 -10.6287,-46.05871 -25.5477,0 z"
         style="fill:none;stroke:#000000;stroke-width:3;stroke-linecap:butt;stroke-linejoin:round;stroke-miterlimit:10;stroke-dasharray:none;stroke-opacity:1"
         id="path4451"
         inkscape:connector-curvature="0" />
      <path
         d="m -4042.6571,-313.49479 0,-47.13224"
         style="fill:none;stroke:#000000;stroke-width:3.67646194;stroke-linecap:butt;stroke-linejoin:round;stroke-miterlimit:10;stroke-dasharray:none;stroke-opacity:1"
         id="path4455"
         inkscape:connector-curvature="0" />
      <path
         d="m -4036.4368,-366.01379 c 0,3.5147 -2.8493,6.36028 -6.3603,6.36028 -3.5147,0 -6.3603,-2.84558 -6.3603,-6.36028 0,-3.51102 2.8456,-6.3566 6.3603,-6.3566 3.511,0 6.3603,2.84558 6.3603,6.3566 z"
         style="fill:none;stroke:#000000;stroke-width:3.67646194;stroke-linecap:butt;stroke-linejoin:round;stroke-miterlimit:10;stroke-dasharray:none;stroke-opacity:1"
         id="path4459"
         inkscape:connector-curvature="0" />
      <path
         inkscape:connector-curvature="0"
         id="path4461"
         style="fill:none;stroke:#000000;stroke-width:3;stroke-linecap:butt;stroke-linejoin:round;stroke-miterlimit:10;stroke-dasharray:none;stroke-opacity:1"
         d="m -4025.4436,-407.75928 -34.7058,0 0,-6.65807 34.7058,0 0,6.65807 z" />
      <path
         d="m -4019.618,-421.32948 0,6.65807 -46.3602,0 0,-6.65807"
         style="fill:none;stroke:#000000;stroke-width:3;stroke-linecap:round;stroke-linejoin:round;stroke-miterlimit:10;stroke-dasharray:none;stroke-opacity:1"
         id="path4465"
         inkscape:connector-curvature="0" />
      <path
         d="m -4095.6967,-312.22015 46.5367,0"
         style="fill:none;stroke:#000000;stroke-width:3;stroke-linecap:round;stroke-linejoin:round;stroke-miterlimit:10;stroke-dasharray:none;stroke-opacity:1"
         id="path4469"
         inkscape:connector-curvature="0" />
      <path
         sodipodi:nodetypes="cc"
         d="m -4035.6619,-311.97015 46.4264,-0.25"
         style="fill:none;stroke:#000000;stroke-width:3;stroke-linecap:round;stroke-linejoin:round;stroke-miterlimit:4;stroke-dasharray:6.39599994, 6.39599994;stroke-dashoffset:0;stroke-opacity:1"
         id="path4477"
         inkscape:connector-curvature="0" />
    </g>
  </g>
</svg>
