<?xml version="1.0" encoding="utf-8"?>
<!-- Generator: Adobe Illustrator 19.0.0, SVG Export Plug-In . SVG Version: 6.00 Build 0)  -->
<svg version="1.1" id="Layer_1" xmlns="http://www.w3.org/2000/svg" xmlns:xlink="http://www.w3.org/1999/xlink" x="0px" y="0px"
	 viewBox="0 0 841.9 595.3" style="enable-background:new 0 0 841.9 595.3;" xml:space="preserve">
<style type="text/css">
	.st0{fill:#F6F6F6;}
	.st1{clip-path:url(#SVGID_2_);fill:none;stroke:#C4C3C3;stroke-width:2;stroke-miterlimit:10;}
	.st2{clip-path:url(#SVGID_2_);fill:none;stroke:#C4C3C3;stroke-width:2;stroke-linecap:round;stroke-miterlimit:10;}
	.st3{clip-path:url(#SVGID_2_);fill:#C4C3C3;}
	.st4{clip-path:url(#SVGID_2_);fill:none;stroke:#010101;stroke-width:2;stroke-miterlimit:10;}
	.st5{clip-path:url(#SVGID_2_);fill:#F5EA14;}
	.st6{clip-path:url(#SVGID_2_);fill:none;stroke:#F5EA14;stroke-width:2;stroke-miterlimit:10;}
	.st7{clip-path:url(#SVGID_2_);fill:#E4E4E6;}
	
		.st8{clip-path:url(#SVGID_2_);fill:none;stroke:#010101;stroke-width:4.02;stroke-linecap:round;stroke-linejoin:round;stroke-miterlimit:10;}
	.st9{clip-path:url(#SVGID_2_);fill:#FFFFFF;}
	.st10{clip-path:url(#SVGID_2_);fill:#060707;}
	.st11{clip-path:url(#SVGID_2_);fill:#010101;}
</style>
<rect class="st0" width="841.9" height="595.3"/>
<g>
	<defs>
		<rect id="SVGID_1_" x="96.1" y="157.4" width="349" height="276.1"/>
	</defs>
	<clipPath id="SVGID_2_">
		<use xlink:href="#SVGID_1_"  style="overflow:visible;"/>
	</clipPath>
	<path class="st1" d="M345.2,349.8c0,8.6-6.9,15.5-15.5,15.5c-8.6,0-15.5-6.9-15.5-15.5c0-8.6,6.9-15.5,15.5-15.5
		C338.3,334.3,345.2,341.2,345.2,349.8z"/>
	<line class="st2" x1="325.3" y1="349.8" x2="334" y2="349.8"/>
	<path class="st1" d="M403.6,323.7c0,12.8-10.5,23.3-23.3,23.3c-12.8,0-23.3-10.5-23.3-23.3c0-12.8,10.5-23.3,23.3-23.3
		C393.1,300.4,403.6,310.8,403.6,323.7z"/>
	<line class="st2" x1="372.5" y1="323.7" x2="388" y2="323.7"/>
	<line class="st2" x1="380.3" y1="315.9" x2="380.3" y2="331.4"/>
	<path class="st1" d="M436.5,298.6c0,7-5.7,12.7-12.7,12.7c-7,0-12.7-5.7-12.7-12.7c0-7,5.7-12.7,12.7-12.7
		C430.9,285.9,436.5,291.6,436.5,298.6z"/>
	<polygon class="st3" points="421.8,295 421.8,302.5 427.2,298.7 	"/>
	<line class="st4" x1="251.9" y1="172.5" x2="246.5" y2="177.9"/>
	<line class="st4" x1="240.9" y1="183.5" x2="235.4" y2="188.9"/>
	<line class="st4" x1="235.4" y1="172.5" x2="240.9" y2="177.9"/>
	<line class="st4" x1="246.5" y1="183.5" x2="251.9" y2="188.9"/>
	<line class="st4" x1="443.8" y1="251.8" x2="438.4" y2="257.3"/>
	<line class="st4" x1="432.9" y1="262.9" x2="427.4" y2="268.3"/>
	<line class="st4" x1="427.4" y1="251.8" x2="432.9" y2="257.3"/>
	<line class="st4" x1="438.4" y1="262.9" x2="443.8" y2="268.3"/>
	<path class="st4" d="M416.6,210.7l-13.6,0l-5.8,0l-10.4,0l-29.2,0l-11,0l-10.1,0l-8.2,0l-19.6,0l-24.5,0l-10.9,0v16.9v31.8
		c0,0,0,2.2,1.2,4.3c1,1.9,3.1,3.8,7,3.8h7.6h8.1h23.7h9.4c0,0,8.1,0,8.1-8.1v-19.2V235c0,0-0.1-8.1,8.1-8.1h0.5
		c7.7,0.3,7.6,8.1,7.6,8.1v24.4c0,0.4,0,0.7,0,1.1c0.3,3.4,2.2,5.1,4,6c2,1,4.1,1,4.1,1h1.1h14.5h33.2c8.1,0,8.1-8.1,8.1-8.1v-48.7
		H416.6z"/>
	<rect x="265.2" y="202.4" class="st5" width="162.7" height="8.1"/>
	<path class="st4" d="M269.2,202.4c0,0,6.9-40.7,61-40.7"/>
	<rect x="329.7" y="159.2" class="st4" width="12.8" height="4.8"/>
	<path class="st4" d="M423.8,202.4c0,0-6.9-40.7-61-40.7"/>
	<rect x="350.6" y="159.2" class="st4" width="12.8" height="4.8"/>
	<rect x="269.2" y="207.3" class="st6" width="18.8" height="18.8"/>
	<path class="st5" d="M281.7,216.6c0,1.7-1.4,3.1-3,3.1c-1.7,0-3.1-1.4-3.1-3.1c0-1.7,1.4-3.1,3.1-3.1
		C280.3,213.6,281.7,214.9,281.7,216.6"/>
	<rect x="288" y="207.3" class="st6" width="26" height="18.8"/>
	<polygon class="st3" points="126.8,298.6 96.1,318 96.1,431.7 126.8,431.7 	"/>
	<rect x="126.8" y="339.5" class="st7" width="30.7" height="92.2"/>
	<polygon class="st7" points="178.1,308.8 157.6,329.3 157.6,431.7 178.1,431.7 	"/>
	<polygon class="st7" points="209.1,298.6 188.6,298.6 188.6,431.7 209.1,431.7 209.1,349.8 	"/>
	<rect x="178.1" y="380.5" class="st3" width="10.2" height="51.2"/>
	<polygon class="st3" points="209.1,339.6 229.2,319.1 249.7,339.5 270.2,339.5 270.2,431.7 209.1,431.7 	"/>
	<polygon class="st7" points="290.7,297.9 270.2,278.1 270.2,431.7 290.7,431.7 	"/>
	<rect x="290.7" y="370.3" class="st3" width="10.3" height="61.5"/>
	<rect x="137.1" y="245.9" class="st4" width="122.9" height="155.6"/>
	<path class="st4" d="M137.1,424c0,4.2,3.5,7.7,7.7,7.7h107.5c4.2,0,7.7-3.4,7.7-7.7v-22.6H137.1V424z"/>
	<path class="st4" d="M260,234.6c0-4.2-3.4-7.7-7.7-7.7H144.8c-4.2,0-7.7,3.4-7.7,7.7v11.3H260V234.6z"/>
	<line class="st4" x1="193.4" y1="237" x2="204.3" y2="237"/>
	<line class="st4" x1="184" y1="416.6" x2="213.7" y2="416.6"/>
	<path class="st8" d="M246.5,416.6c0,1.6-1.3,2.9-2.9,2.9c-1.7,0-3-1.3-3-2.9c0-1.7,1.3-3,3-3C245.2,413.6,246.5,414.9,246.5,416.6z
		"/>
	<polygon class="st5" points="249.7,257.3 147.3,257.3 147.3,288.4 222.3,288.4 229.2,295.2 236,288.4 249.7,288.4 	"/>
	<line class="st4" x1="179.2" y1="267.5" x2="217.2" y2="267.5"/>
	<line class="st4" x1="159.8" y1="278.1" x2="236.6" y2="278.1"/>
	<path class="st5" d="M239.5,349.9c0,5.7-10.3,30.5-10.3,30.5s-10.3-24.8-10.3-30.5c0-5.7,4.6-10.3,10.3-10.3
		C235,339.6,239.5,344.3,239.5,349.9"/>
	<path class="st4" d="M239.5,349.9c0,5.7-10.3,30.5-10.3,30.5s-10.3-24.8-10.3-30.5c0-5.7,4.6-10.3,10.3-10.3
		C235,339.6,239.5,344.3,239.5,349.9z"/>
	<line class="st4" x1="221.4" y1="391" x2="236.6" y2="391"/>
	<path class="st9" d="M233.1,349.8c0,2.1-1.8,3.8-3.9,3.8s-3.8-1.7-3.8-3.8c0-2.1,1.7-3.9,3.8-3.9S233.1,347.7,233.1,349.8"/>
	<path class="st10" d="M233.1,349.8c0,2.1-1.8,3.8-3.9,3.8s-3.8-1.7-3.8-3.8c0-2.1,1.7-3.9,3.8-3.9S233.1,347.7,233.1,349.8"/>
	<rect x="101.5" y="329" class="st9" width="4.9" height="36.2"/>
	<rect x="280.5" y="329" class="st3" width="4.9" height="36.2"/>
	<rect x="114.1" y="365.2" class="st9" width="4.9" height="36.2"/>
	<rect x="275.5" y="380.4" class="st3" width="4.9" height="36.2"/>
	<rect x="290.7" y="380.4" class="st11" width="4.9" height="36.2"/>
	<rect x="141.5" y="345.3" class="st11" width="4.9" height="24.9"/>
	<rect x="150.3" y="345.3" class="st11" width="4.9" height="24.9"/>
	<rect x="160.9" y="370.2" class="st9" width="4.9" height="24.9"/>
	<rect x="169.8" y="370.2" class="st9" width="4.9" height="24.9"/>
	<rect x="191.8" y="308.8" class="st3" width="4.9" height="9.8"/>
	<rect x="200.7" y="308.8" class="st3" width="4.9" height="9.8"/>
	<rect x="191.8" y="329.3" class="st3" width="4.9" height="9.8"/>
	<rect x="200.7" y="329.3" class="st3" width="4.9" height="9.8"/>
	<rect x="191.8" y="360.3" class="st3" width="4.9" height="9.8"/>
	<rect x="200.7" y="360.3" class="st3" width="4.9" height="9.8"/>
	<rect x="101.5" y="394.9" class="st9" width="4.9" height="36.2"/>
</g>
</svg>
