<?xml version="1.0" encoding="utf-8"?>
<!-- Generator: Adobe Illustrator 19.0.0, SVG Export Plug-In . SVG Version: 6.00 Build 0)  -->
<svg version="1.1" id="Layer_1" xmlns="http://www.w3.org/2000/svg" xmlns:xlink="http://www.w3.org/1999/xlink" x="0px" y="0px"
	 viewBox="0 0 841.9 595.3" style="enable-background:new 0 0 841.9 595.3;" xml:space="preserve">
<style type="text/css">
	.st0{fill:#F6F6F6;}
	.st1{fill:none;stroke:#C4C4C4;stroke-width:2;stroke-miterlimit:10;}
	.st2{fill:#F6EB16;}
	.st3{fill:#C4C4C4;}
	.st4{fill:none;stroke:#010101;stroke-width:2;stroke-miterlimit:10;}
	.st5{fill:#010101;}
	.st6{fill:#E5E6E7;}
</style>
<rect class="st0" width="841.9" height="595.3"/>
<g>
	<rect x="463.1" y="123.8" class="st1" width="173.9" height="223.6"/>
	<rect x="487.9" y="148.6" class="st2" width="124.2" height="49.7"/>
	<rect x="487.9" y="223.1" class="st2" width="74.5" height="12.4"/>
	<rect x="487.9" y="248" class="st3" width="74.5" height="12.4"/>
	<rect x="661.8" y="198.3" class="st3" width="37.3" height="198.7"/>
	<polygon class="st4" points="668,198.3 680.4,173.4 692.9,198.3 	"/>
	<rect x="671.7" y="397" class="st4" width="18.6" height="24.8"/>
	<line class="st4" x1="680.4" y1="173.4" x2="680.4" y2="161"/>
	<polyline class="st4" points="699.1,372.2 711.5,372.2 711.5,310.1 	"/>
	<line class="st4" x1="711.5" y1="322.5" x2="705.3" y2="322.5"/>
	<line class="st4" x1="661.8" y1="223.1" x2="699.1" y2="223.1"/>
	<line class="st4" x1="661.8" y1="235.5" x2="699.1" y2="235.5"/>
	<line class="st4" x1="661.8" y1="248" x2="699.1" y2="248"/>
	<line class="st4" x1="661.8" y1="260.4" x2="699.1" y2="260.4"/>
	<polygon class="st2" points="735.5,231.8 742.5,210.7 749.6,231.8 	"/>
	<rect x="723.9" y="248" class="st2" width="37.3" height="198.7"/>
	<polygon class="st4" points="730.1,248 742.5,210.7 755,248 	"/>
	<path class="st5" d="M756.2,466.5h-27.3v-14.9h27.3V466.5z M761.2,446.7h-37.3v24.8h37.3V446.7z"/>
	<line class="st4" x1="723.9" y1="272.8" x2="761.2" y2="272.8"/>
	<line class="st4" x1="723.9" y1="285.2" x2="761.2" y2="285.2"/>
	<line class="st4" x1="723.9" y1="297.6" x2="761.2" y2="297.6"/>
	<line class="st4" x1="723.9" y1="310.1" x2="761.2" y2="310.1"/>
	<rect x="699.1" y="123.8" class="st2" width="62.1" height="33.5"/>
	<line class="st4" x1="748.7" y1="185.9" x2="748.7" y2="148.6"/>
	<line class="st4" x1="736.3" y1="185.9" x2="736.3" y2="148.6"/>
	<line class="st4" x1="723.9" y1="185.9" x2="723.9" y2="148.6"/>
	<rect x="463.1" y="372.2" class="st2" width="86.9" height="49.7"/>
	<rect x="487.9" y="397" class="st4" width="86.9" height="49.7"/>
	<line class="st4" x1="487.9" y1="273.2" x2="611.8" y2="273.2"/>
	<line class="st4" x1="487.9" y1="285.6" x2="611.8" y2="285.6"/>
	<line class="st4" x1="487.9" y1="298.1" x2="611.8" y2="298.1"/>
	<line class="st4" x1="487.9" y1="310.5" x2="536.4" y2="310.5"/>
	<line class="st4" x1="574.9" y1="223.1" x2="612.1" y2="223.1"/>
	<line class="st4" x1="574.9" y1="235.5" x2="612.1" y2="235.5"/>
	<line class="st4" x1="574.9" y1="248" x2="612.1" y2="248"/>
	<line class="st4" x1="574.9" y1="260.4" x2="612.1" y2="260.4"/>
	<rect x="487.9" y="322.5" class="st2" width="24.8" height="9.9"/>
	<rect x="512.8" y="322.5" class="st6" width="24.8" height="9.9"/>
	<rect x="537.5" y="322.5" class="st3" width="24.8" height="9.9"/>
	<rect x="562.4" y="322.5" class="st6" width="24.8" height="9.9"/>
	<rect x="587.3" y="322.5" class="st2" width="24.8" height="9.9"/>
	<path class="st2" d="M627,464.1c0-4.1-3.3-7.5-7.5-7.5s-7.5,3.3-7.5,7.5c0,4.1,3.3,7.5,7.5,7.5S627,468.2,627,464.1"/>
	<path class="st2" d="M627,434.3c0-4.1-3.3-7.5-7.5-7.5s-7.5,3.3-7.5,7.5c0,4.1,3.3,7.5,7.5,7.5S627,438.4,627,434.3"/>
	<path class="st3" d="M619.6,402c1.4,0,2.5,1.1,2.5,2.5c0,1.4-1.1,2.5-2.5,2.5c-1.4,0-2.5-1.1-2.5-2.5
		C617.1,403.1,618.2,402,619.6,402 M619.6,397c-4.1,0-7.5,3.3-7.5,7.5c0,4.1,3.3,7.5,7.5,7.5s7.5-3.3,7.5-7.5
		C627,400.3,623.7,397,619.6,397"/>
</g>
</svg>
