<?xml version="1.0" encoding="utf-8"?>
<!-- Generator: Adobe Illustrator 19.0.0, SVG Export Plug-In . SVG Version: 6.00 Build 0)  -->
<svg version="1.1" id="Layer_1" xmlns="http://www.w3.org/2000/svg" xmlns:xlink="http://www.w3.org/1999/xlink" x="0px" y="0px"
	 viewBox="0 0 841.9 595.3" style="enable-background:new 0 0 841.9 595.3;" xml:space="preserve">
<style type="text/css">
	.st0{fill:#F6F6F6;}
	.st1{clip-path:url(#SVGID_2_);fill:#E4E4E6;}
	.st2{clip-path:url(#SVGID_2_);fill:#C4C3C3;}
	.st3{clip-path:url(#SVGID_2_);fill:none;stroke:#010101;stroke-width:2;stroke-miterlimit:10;}
	.st4{clip-path:url(#SVGID_2_);fill:#FFFFFF;}
	.st5{clip-path:url(#SVGID_2_);fill:#F5EA14;}
</style>
<rect class="st0" width="841.9" height="595.3"/>
<g>
	<defs>
		<rect id="SVGID_1_" x="444.6" y="119.3" width="308.3" height="354.2"/>
	</defs>
	<clipPath id="SVGID_2_">
		<use xlink:href="#SVGID_1_"  style="overflow:visible;"/>
	</clipPath>
	<path class="st1" d="M687.3,131.9c0-7-5.7-12.7-12.6-12.7H522.9c-7,0-12.7,5.7-12.7,12.7v303.6h177.1V131.9z"/>
	<path class="st2" d="M510.2,435.5v25.3c0,7,5.7,12.6,12.6,12.6h151.8c7,0,12.7-5.7,12.7-12.6v-25.3H510.2z"/>
	<polygon class="st3" points="649.4,220.5 472.3,220.5 447,245.8 447,144.6 649.4,144.6 	"/>
	<line class="st3" x1="472.3" y1="169.9" x2="573.5" y2="169.9"/>
	<line class="st3" x1="472.3" y1="182.5" x2="573.5" y2="182.5"/>
	<line class="st3" x1="472.3" y1="195.2" x2="573.5" y2="195.2"/>
	<rect x="548.2" y="245.8" class="st4" width="101.2" height="101.2"/>
	<path class="st5" d="M624.1,296.4c0,14-11.3,25.3-25.3,25.3s-25.3-11.3-25.3-25.3s11.3-25.3,25.3-25.3S624.1,282.4,624.1,296.4"/>
	<polyline class="st3" points="560.8,271.1 560.8,258.4 573.5,258.4 	"/>
	<polyline class="st3" points="636.7,321.7 636.7,334.3 624.1,334.3 	"/>
	<polyline class="st3" points="573.5,334.3 560.8,334.3 560.8,321.7 	"/>
	<polyline class="st3" points="624.1,258.4 636.7,258.4 636.7,271.1 	"/>
	<rect x="529.2" y="384.9" class="st3" width="25.3" height="25.3"/>
	<rect x="567.1" y="384.9" class="st3" width="25.3" height="25.3"/>
	<rect x="604.9" y="384.8" class="st3" width="25.3" height="25.3"/>
	<rect x="643" y="384.8" class="st3" width="25.3" height="25.3"/>
	<polyline class="st3" points="560.8,364.7 725.3,364.7 725.3,397.6 	"/>
	<circle class="st3" cx="725.3" cy="422.9" r="25.3"/>
	<path class="st5" d="M737.9,422.9c0-7-5.7-12.7-12.6-12.7c-7,0-12.7,5.7-12.7,12.7c0,7,5.7,12.6,12.7,12.6
		C732.3,435.5,737.9,429.9,737.9,422.9"/>
	<line class="st3" x1="750.6" y1="245.8" x2="668.3" y2="245.8"/>
	<line class="st3" x1="725.3" y1="258.4" x2="668.3" y2="258.4"/>
	<line class="st3" x1="750.6" y1="271.1" x2="668.3" y2="271.1"/>
	<line class="st3" x1="750.6" y1="283.7" x2="668.3" y2="283.7"/>
	<line class="st3" x1="750.6" y1="296.4" x2="668.3" y2="296.4"/>
	<line class="st3" x1="702.5" y1="309" x2="668.3" y2="309"/>
	<path class="st5" d="M484.9,440.6c0-2.8-2.3-5.1-5.1-5.1H452c-2.8,0-5.1,2.3-5.1,5.1v27.8c0,2.8,2.3,5.1,5.1,5.1h27.8
		c2.8,0,5.1-2.3,5.1-5.1V440.6z"/>
	<path class="st5" d="M490,390c0-2.8-2.3-5.1-5.1-5.1h-27.8c-2.8,0-5.1,2.3-5.1,5.1v27.8c0,2.8,2.3,5.1,5.1,5.1h27.8
		c2.8,0,5.1-2.3,5.1-5.1V390z"/>
	<path class="st2" d="M495,339.4c0-2.8-2.3-5.1-5.1-5.1h-27.8c-2.8,0-5.1,2.3-5.1,5.1v27.8c0,2.8,2.3,5.1,5.1,5.1H490
		c2.8,0,5.1-2.3,5.1-5.1V339.4z"/>
	<path class="st1" d="M500.1,288.8c0-2.8-2.3-5.1-5.1-5.1h-27.8c-2.8,0-5.1,2.3-5.1,5.1v27.8c0,2.8,2.3,5.1,5.1,5.1H495
		c2.8,0,5.1-2.3,5.1-5.1V288.8z"/>
	<line class="st3" x1="472.3" y1="296.4" x2="522.9" y2="296.4"/>
	<line class="st3" x1="472.3" y1="345.4" x2="522.9" y2="345.4"/>
	<line class="st3" x1="472.3" y1="397.6" x2="522.9" y2="397.6"/>
	<line class="st3" x1="472.3" y1="448.2" x2="522.9" y2="448.2"/>
	<path class="st5" d="M700,169.9c0,14,11.3,25.3,25.3,25.3s25.3-11.3,25.3-25.3c0-14-11.3-25.3-25.3-25.3S700,155.9,700,169.9"/>
	<path class="st5" d="M484.9,252.1c0,3.5-2.8,6.3-6.3,6.3c-3.5,0-6.3-2.8-6.3-6.3c0-3.5,2.8-6.3,6.3-6.3
		C482.1,245.8,484.9,248.6,484.9,252.1"/>
</g>
</svg>
