<?xml version="1.0" encoding="UTF-8" standalone="no"?>
<!-- Generator: Adobe Illustrator 19.0.0, SVG Export Plug-In . SVG Version: 6.00 Build 0)  -->

<svg
   xmlns:dc="http://purl.org/dc/elements/1.1/"
   xmlns:cc="http://creativecommons.org/ns#"
   xmlns:rdf="http://www.w3.org/1999/02/22-rdf-syntax-ns#"
   xmlns:svg="http://www.w3.org/2000/svg"
   xmlns="http://www.w3.org/2000/svg"
   xmlns:sodipodi="http://sodipodi.sourceforge.net/DTD/sodipodi-0.dtd"
   xmlns:inkscape="http://www.inkscape.org/namespaces/inkscape"
   version="1.1"
   id="Layer_1"
   x="0px"
   y="0px"
   viewBox="0 0 841.9 595.3"
   style="enable-background:new 0 0 841.9 595.3;"
   xml:space="preserve"
   inkscape:version="0.91 r13725"
   sodipodi:docname="Product Review 1.svg"><metadata
     id="metadata143"><rdf:RDF><cc:Work
         rdf:about=""><dc:format>image/svg+xml</dc:format><dc:type
           rdf:resource="http://purl.org/dc/dcmitype/StillImage" /><dc:title></dc:title></cc:Work></rdf:RDF></metadata><defs
     id="defs141" /><sodipodi:namedview
     pagecolor="#ffffff"
     bordercolor="#666666"
     borderopacity="1"
     objecttolerance="10"
     gridtolerance="10"
     guidetolerance="10"
     inkscape:pageopacity="0"
     inkscape:pageshadow="2"
     inkscape:window-width="1920"
     inkscape:window-height="1017"
     id="namedview139"
     showgrid="false"
     inkscape:zoom="0.96755789"
     inkscape:cx="224.71413"
     inkscape:cy="367.45832"
     inkscape:window-x="-8"
     inkscape:window-y="-8"
     inkscape:window-maximized="1"
     inkscape:current-layer="Layer_1" /><style
     type="text/css"
     id="style3">
	.st0{fill:#F6F6F6;}
	.st1{clip-path:url(#SVGID_2_);fill:none;stroke:#C4C3C3;stroke-width:2;stroke-miterlimit:10;}
	.st2{clip-path:url(#SVGID_2_);fill:none;stroke:#C4C3C3;stroke-width:2;stroke-linecap:round;stroke-miterlimit:10;}
	.st3{clip-path:url(#SVGID_2_);fill:#C4C3C3;}
	.st4{clip-path:url(#SVGID_2_);fill:none;stroke:#010101;stroke-width:2;stroke-miterlimit:10;}
	.st5{clip-path:url(#SVGID_2_);fill:#F5EA14;}
	.st6{clip-path:url(#SVGID_2_);fill:none;stroke:#F5EA14;stroke-width:2;stroke-miterlimit:10;}
	.st7{clip-path:url(#SVGID_2_);fill:#E4E4E6;}
	
		.st8{clip-path:url(#SVGID_2_);fill:none;stroke:#010101;stroke-width:4.02;stroke-linecap:round;stroke-linejoin:round;stroke-miterlimit:10;}
	.st9{clip-path:url(#SVGID_2_);fill:#FFFFFF;}
	.st10{clip-path:url(#SVGID_2_);fill:#060707;}
	.st11{clip-path:url(#SVGID_2_);fill:#010101;}
</style><rect
     class="st0"
     width="841.9"
     height="595.3"
     id="rect5" /><style
     id="style4420"
     type="text/css">
	.st0{fill:#C4C4C4;}
	.st1{fill:#E5E6E7;}
	.st2{fill:#F6EB16;}
	.st3{fill:none;stroke:#010101;stroke-miterlimit:10;}
	.st4{fill:#FFFFFF;}
	.st5{fill:#010101;}
</style><g
     id="XMLID_21_"
     transform="translate(-40.6,-4.5500015)"><rect
       height="137"
       width="228.3"
       class="st0"
       y="272.29999"
       x="185.89999"
       id="XMLID_43_"
       style="fill:#c4c4c4" /><rect
       height="11.4"
       width="45.700001"
       class="st1"
       y="409.29999"
       x="277.20001"
       id="XMLID_42_"
       style="fill:#e5e6e7" /><rect
       height="11.4"
       width="68.5"
       class="st0"
       y="420.70001"
       x="265.79999"
       id="XMLID_41_"
       style="fill:#c4c4c4" /><rect
       height="114.1"
       width="205.39999"
       class="st1"
       y="283.70001"
       x="197.3"
       id="XMLID_40_"
       style="fill:#e5e6e7" /><path
       d="m 220.1,426.4 c 0,-3.2 -2.6,-5.7 -5.7,-5.7 -3.2,0 -5.7,2.6 -5.7,5.7 0,3.2 2.6,5.7 5.7,5.7 3.2,0 5.7,-2.6 5.7,-5.7"
       class="st2"
       id="XMLID_39_"
       inkscape:connector-curvature="0"
       style="fill:#f6eb16" /><path
       d="m 244,352.8 c 0,-6.9 -5.6,-12.5 -12.5,-12.5 -6.9,0 -12.5,5.6 -12.5,12.5 0,6.9 5.6,12.5 12.5,12.5 6.9,0 12.5,-5.6 12.5,-12.5"
       class="st2"
       id="XMLID_38_"
       inkscape:connector-curvature="0"
       style="fill:#f6eb16" /><path
       d="m 450.3,432.1 c 0,-9.4 -7.6,-16.9 -16.9,-16.9 -9.4,0 -16.9,7.6 -16.9,16.9 0,9.4 7.6,16.9 16.9,16.9 9.4,0 16.9,-7.5 16.9,-16.9"
       class="st2"
       id="XMLID_37_"
       inkscape:connector-curvature="0"
       style="fill:#f6eb16" /><path
       d="m 421,158.5 c 0,-4.1 -3.4,-7.5 -7.5,-7.5 l -90.2,0 c -4.1,0 -7.5,3.4 -7.5,7.5 l 0,143.4 105.2,0 0,-143.4 z"
       class="st1"
       id="XMLID_36_"
       inkscape:connector-curvature="0"
       style="fill:#e5e6e7" /><path
       d="m 315.8,301.9 0,15 c 0,4.1 3.4,7.5 7.5,7.5 l 90.2,0 c 4.1,0 7.5,-3.4 7.5,-7.5 l 0,-15 -105.2,0 z"
       class="st0"
       id="XMLID_35_"
       inkscape:connector-curvature="0"
       style="fill:#c4c4c4" /><polygon
       points="257.4,294.4 257.4,339.5 152.2,339.5 137.2,354.5 137.2,294.4 "
       class="st3"
       id="XMLID_34_"
       style="fill:none;stroke:#010101;stroke-miterlimit:10" /><path
       d="m 296.7,192.9 c 0,2.1 -1.7,3.8 -3.8,3.8 -2.1,0 -3.8,-1.7 -3.8,-3.8 0,-2.1 1.7,-3.8 3.8,-3.8 2.1,0 3.8,1.7 3.8,3.8"
       class="st2"
       id="XMLID_33_"
       inkscape:connector-curvature="0"
       style="fill:#f6eb16" /><path
       d="m 450.6,217 c 0,16.3 -13.2,29.6 -29.6,29.6 -16.3,0 -29.6,-13.2 -29.6,-29.6 0,-16.3 13.2,-29.6 29.6,-29.6 16.4,0 29.6,13.2 29.6,29.6"
       class="st4"
       id="XMLID_32_"
       inkscape:connector-curvature="0"
       style="fill:#ffffff" /><path
       d="m 462.8,217 c 0,23.1 -18.7,41.8 -41.8,41.8 -23.1,0 -41.8,-18.7 -41.8,-41.8 0,-23.1 18.7,-41.8 41.8,-41.8 23.1,-0.1 41.8,18.7 41.8,41.8 z"
       class="st3"
       id="XMLID_31_"
       inkscape:connector-curvature="0"
       style="fill:none;stroke:#010101;stroke-miterlimit:10" /><line
       y2="164.7"
       x2="421"
       y1="175.10001"
       x1="421"
       class="st3"
       id="XMLID_30_"
       style="fill:none;stroke:#010101;stroke-miterlimit:10" /><line
       y2="258.79999"
       x2="421"
       y1="269.20001"
       x1="421"
       class="st3"
       id="XMLID_29_"
       style="fill:none;stroke:#010101;stroke-miterlimit:10" /><line
       y2="217"
       x2="368.79999"
       y1="217"
       x1="379.20001"
       class="st3"
       id="XMLID_28_"
       style="fill:none;stroke:#010101;stroke-miterlimit:10" /><line
       y2="246.5"
       x2="391.5"
       y1="253.89999"
       x1="384.10001"
       class="st3"
       id="XMLID_27_"
       style="fill:none;stroke:#010101;stroke-miterlimit:10" /><line
       y2="180"
       x2="384.10001"
       y1="187.39999"
       x1="391.5"
       class="st3"
       id="XMLID_26_"
       style="fill:none;stroke:#010101;stroke-miterlimit:10" /><path
       d="m 443.8,217 c 0,0 -10.2,11.4 -22.8,11.4 -12.6,0 -22.8,-11.4 -22.8,-11.4 0,0 10.2,-11.4 22.8,-11.4 12.6,-0.1 22.8,11.4 22.8,11.4"
       class="st4"
       id="XMLID_25_"
       inkscape:connector-curvature="0"
       style="fill:#ffffff" /><path
       d="m 443.8,217 c 0,0 -10.2,11.4 -22.8,11.4 -12.6,0 -22.8,-11.4 -22.8,-11.4 0,0 10.2,-11.4 22.8,-11.4 12.6,-0.1 22.8,11.4 22.8,11.4 z"
       class="st3"
       id="XMLID_24_"
       inkscape:connector-curvature="0"
       style="fill:none;stroke:#010101;stroke-miterlimit:10" /><path
       d="m 425.6,217 c 0,2.5 -2,4.6 -4.6,4.6 -2.5,0 -4.6,-2 -4.6,-4.6 0,-2.5 2,-4.6 4.6,-4.6 2.5,0 4.6,2 4.6,4.6"
       class="st5"
       id="XMLID_23_"
       inkscape:connector-curvature="0"
       style="fill:#010101" /><polyline
       points="358.9,359.1 454.7,359.1 454.7,378.2  "
       class="st3"
       id="XMLID_22_"
       style="fill:none;stroke:#010101;stroke-miterlimit:10" /></g></svg>