<?xml version="1.0" encoding="utf-8"?>
<!-- Generator: Adobe Illustrator 19.0.0, SVG Export Plug-In . SVG Version: 6.00 Build 0)  -->
<svg version="1.1" id="Layer_1" xmlns="http://www.w3.org/2000/svg" xmlns:xlink="http://www.w3.org/1999/xlink" x="0px" y="0px"
	 viewBox="0 0 600 600" style="enable-background:new 0 0 600 600;" xml:space="preserve">
<style type="text/css">
	.st0{fill:#C4C4C4;}
	.st1{fill:#E5E6E7;}
	.st2{fill:#F6EB16;}
	.st3{fill:none;stroke:#010101;stroke-miterlimit:10;}
	.st4{fill:#FFFFFF;}
	.st5{fill:#010101;}
</style>
<g id="XMLID_21_">
	<rect id="XMLID_43_" x="185.9" y="272.3" class="st0" width="228.3" height="137"/>
	<rect id="XMLID_42_" x="277.2" y="409.3" class="st1" width="45.7" height="11.4"/>
	<rect id="XMLID_41_" x="265.8" y="420.7" class="st0" width="68.5" height="11.4"/>
	<rect id="XMLID_40_" x="197.3" y="283.7" class="st1" width="205.4" height="114.1"/>
	<path id="XMLID_39_" class="st2" d="M220.1,426.4c0-3.2-2.6-5.7-5.7-5.7c-3.2,0-5.7,2.6-5.7,5.7c0,3.2,2.6,5.7,5.7,5.7
		C217.6,432.1,220.1,429.5,220.1,426.4"/>
	<path id="XMLID_38_" class="st2" d="M244,352.8c0-6.9-5.6-12.5-12.5-12.5c-6.9,0-12.5,5.6-12.5,12.5c0,6.9,5.6,12.5,12.5,12.5
		C238.4,365.3,244,359.7,244,352.8"/>
	<path id="XMLID_37_" class="st2" d="M450.3,432.1c0-9.4-7.6-16.9-16.9-16.9c-9.4,0-16.9,7.6-16.9,16.9c0,9.4,7.6,16.9,16.9,16.9
		C442.8,449,450.3,441.5,450.3,432.1"/>
	<path id="XMLID_36_" class="st1" d="M421,158.5c0-4.1-3.4-7.5-7.5-7.5h-90.2c-4.1,0-7.5,3.4-7.5,7.5v143.4H421V158.5z"/>
	<path id="XMLID_35_" class="st0" d="M315.8,301.9v15c0,4.1,3.4,7.5,7.5,7.5h90.2c4.1,0,7.5-3.4,7.5-7.5v-15H315.8z"/>
	<polygon id="XMLID_34_" class="st3" points="257.4,339.5 152.2,339.5 137.2,354.5 137.2,294.4 257.4,294.4 	"/>
	<path id="XMLID_33_" class="st2" d="M296.7,192.9c0,2.1-1.7,3.8-3.8,3.8c-2.1,0-3.8-1.7-3.8-3.8c0-2.1,1.7-3.8,3.8-3.8
		C295,189.1,296.7,190.8,296.7,192.9"/>
	<path id="XMLID_32_" class="st4" d="M450.6,217c0,16.3-13.2,29.6-29.6,29.6c-16.3,0-29.6-13.2-29.6-29.6
		c0-16.3,13.2-29.6,29.6-29.6C437.4,187.4,450.6,200.6,450.6,217"/>
	<path id="XMLID_31_" class="st3" d="M462.8,217c0,23.1-18.7,41.8-41.8,41.8c-23.1,0-41.8-18.7-41.8-41.8
		c0-23.1,18.7-41.8,41.8-41.8C444.1,175.1,462.8,193.9,462.8,217z"/>
	<line id="XMLID_30_" class="st3" x1="421" y1="175.1" x2="421" y2="164.7"/>
	<line id="XMLID_29_" class="st3" x1="421" y1="269.2" x2="421" y2="258.8"/>
	<line id="XMLID_28_" class="st3" x1="379.2" y1="217" x2="368.8" y2="217"/>
	<line id="XMLID_27_" class="st3" x1="384.1" y1="253.9" x2="391.5" y2="246.5"/>
	<line id="XMLID_26_" class="st3" x1="391.5" y1="187.4" x2="384.1" y2="180"/>
	<path id="XMLID_25_" class="st4" d="M443.8,217c0,0-10.2,11.4-22.8,11.4c-12.6,0-22.8-11.4-22.8-11.4s10.2-11.4,22.8-11.4
		C433.6,205.5,443.8,217,443.8,217"/>
	<path id="XMLID_24_" class="st3" d="M443.8,217c0,0-10.2,11.4-22.8,11.4c-12.6,0-22.8-11.4-22.8-11.4s10.2-11.4,22.8-11.4
		C433.6,205.5,443.8,217,443.8,217z"/>
	<path id="XMLID_23_" class="st5" d="M425.6,217c0,2.5-2,4.6-4.6,4.6c-2.5,0-4.6-2-4.6-4.6c0-2.5,2-4.6,4.6-4.6
		C423.5,212.4,425.6,214.4,425.6,217"/>
	<polyline id="XMLID_22_" class="st3" points="358.9,359.1 454.7,359.1 454.7,378.2 	"/>
</g>
</svg>
