<?xml version="1.0" encoding="utf-8"?>
<!-- Generator: Adobe Illustrator 19.0.0, SVG Export Plug-In . SVG Version: 6.00 Build 0)  -->
<svg version="1.1" id="Layer_1" xmlns="http://www.w3.org/2000/svg" xmlns:xlink="http://www.w3.org/1999/xlink" x="0px" y="0px"
	 viewBox="0 0 841.9 595.3" style="enable-background:new 0 0 841.9 595.3;" xml:space="preserve">
<style type="text/css">
	.st0{fill:#F6F6F6;}
	.st1{clip-path:url(#SVGID_2_);fill:#E4E4E6;}
	.st2{clip-path:url(#SVGID_2_);fill:#F5EA14;}
	.st3{clip-path:url(#SVGID_2_);fill:none;stroke:#010101;stroke-width:2;stroke-miterlimit:10;}
	.st4{clip-path:url(#SVGID_2_);fill:#C4C3C3;}
	.st5{clip-path:url(#SVGID_2_);fill:#FFFFFF;}
	.st6{clip-path:url(#SVGID_2_);fill:none;stroke:#C4C3C3;stroke-width:2;stroke-miterlimit:10;}
	.st7{clip-path:url(#SVGID_2_);fill:#010101;}
</style>
<rect class="st0" width="841.9" height="595.3"/>
<g>
	<defs>
		<rect id="SVGID_1_" x="85.3" y="117.7" width="299.5" height="351.4"/>
	</defs>
	<clipPath id="SVGID_2_">
		<use xlink:href="#SVGID_1_"  style="overflow:visible;"/>
	</clipPath>
	<path class="st1" d="M327.1,191.1c0-15.5-12.5-28-28-28c-15.5,0-28,12.5-28,28c0,15.5,12.5,28,28,28
		C314.6,219.1,327.1,206.5,327.1,191.1"/>
	<rect x="85.3" y="132.4" class="st2" width="37.2" height="37.2"/>
	<line class="st3" x1="91.3" y1="163.5" x2="116.5" y2="138.4"/>
	<line class="st3" x1="91.3" y1="138.4" x2="116.5" y2="163.5"/>
	<rect x="134.8" y="132.4" class="st4" width="37.2" height="37.2"/>
	<line class="st3" x1="140.8" y1="163.5" x2="166" y2="138.4"/>
	<line class="st3" x1="140.8" y1="138.4" x2="166" y2="163.5"/>
	<rect x="184.4" y="132.4" class="st1" width="37.2" height="37.2"/>
	<line class="st3" x1="190.4" y1="163.5" x2="215.6" y2="138.4"/>
	<line class="st3" x1="190.4" y1="138.4" x2="215.6" y2="163.5"/>
	<path class="st4" d="M97.7,397.4V262c0-7.3,5.9-13.2,13.2-13.2H357c7.3,0,13.2,5.9,13.2,13.2v135.4"/>
	<path class="st1" d="M233.9,397.4h148.6v7.4c0,0-24.8,12.4-37.2,12.4H233.9H122.5c-12.4,0-37.2-12.4-37.2-12.4v-7.4H233.9z"/>
	<rect x="108.4" y="260.4" class="st5" width="250.2" height="126.3"/>
	<path class="st3" d="M239.6,225.1c0,30.5-24.7,55.2-55.2,55.2c-30.5,0-55.2-24.7-55.2-55.2c0-30.5,24.7-55.2,55.2-55.2
		C214.9,169.9,239.6,194.6,239.6,225.1z"/>
	<path class="st3" d="M145.2,186.6c21.7,21.7,56.7,21.7,78.4,0"/>
	<path class="st3" d="M223.6,263.7c-21.7-21.7-56.7-21.7-78.4,0"/>
	<path class="st3" d="M184.4,169.5c37,32.6,38.4,77.9,0,111.4"/>
	<path class="st3" d="M183.7,281c-37-32.6-38.4-77.9,0-111.4"/>
	<line class="st3" x1="128.6" y1="225.1" x2="240.1" y2="225.1"/>
	<line class="st3" x1="184.4" y1="169.9" x2="184.4" y2="281"/>
	<line class="st6" x1="258.7" y1="120" x2="295.9" y2="120"/>
	<line class="st6" x1="258.7" y1="132.4" x2="345.4" y2="132.4"/>
	<line class="st6" x1="258.7" y1="144.8" x2="357.8" y2="144.8"/>
	<line class="st6" x1="258.7" y1="157.1" x2="333" y2="157.1"/>
	<line class="st6" x1="258.7" y1="169.5" x2="357.8" y2="169.5"/>
	<line class="st6" x1="258.7" y1="181.9" x2="283.5" y2="181.9"/>
	<line class="st6" x1="119.6" y1="293.4" x2="156.7" y2="293.4"/>
	<line class="st6" x1="119.6" y1="293.4" x2="206.3" y2="293.4"/>
	<line class="st6" x1="134.4" y1="305.8" x2="218.6" y2="305.8"/>
	<line class="st6" x1="119.6" y1="318.2" x2="193.9" y2="318.2"/>
	<line class="st6" x1="134.4" y1="330.5" x2="218.6" y2="330.5"/>
	<line class="st6" x1="119.6" y1="342.9" x2="144.3" y2="342.9"/>
	<line class="st6" x1="134.4" y1="355.3" x2="218.6" y2="355.3"/>
	<line class="st6" x1="119.6" y1="367.7" x2="144.3" y2="367.7"/>
	<rect x="243.8" y="263.7" class="st2" width="109" height="9.9"/>
	<line class="st3" x1="338.6" y1="268.6" x2="347.6" y2="268.6"/>
	<rect x="258.7" y="283.5" class="st3" width="80" height="14.9"/>
	<path class="st2" d="M265.2,316.6c0,2.2-1.8,4-4,4c-2.2,0-4-1.8-4-4s1.8-4,4-4C263.4,312.6,265.2,314.4,265.2,316.6"/>
	<path class="st4" d="M289.9,316.5c0,2.2-1.8,4-4,4c-2.2,0-4-1.8-4-4s1.8-4,4-4C288.1,312.5,289.9,314.3,289.9,316.5"/>
	<path class="st1" d="M314.7,316.6c0,2.2-1.8,4-4,4s-4-1.8-4-4s1.8-4,4-4S314.7,314.4,314.7,316.6"/>
	<path class="st4" d="M339.5,316.6c0,2.2-1.8,4-4,4c-2.2,0-4-1.8-4-4s1.8-4,4-4C337.7,312.6,339.5,314.4,339.5,316.6"/>
	<line class="st3" x1="233.9" y1="267" x2="233.9" y2="380.1"/>
	<line class="st3" x1="255" y1="328.1" x2="267.4" y2="328.1"/>
	<line class="st3" x1="255" y1="367.7" x2="341.9" y2="367.7"/>
	<line class="st3" x1="255" y1="377.6" x2="283.5" y2="377.6"/>
	<line class="st3" x1="279.7" y1="328.1" x2="292.1" y2="328.1"/>
	<line class="st3" x1="304.8" y1="327.9" x2="317.2" y2="327.9"/>
	<line class="st3" x1="329.6" y1="327.9" x2="341.9" y2="327.9"/>
	<rect x="255" y="342.9" class="st1" width="37.1" height="12.4"/>
	<rect x="304.8" y="342.9" class="st1" width="37.1" height="12.4"/>
	<rect x="258.7" y="407.3" class="st3" width="99.1" height="59.4"/>
	<line class="st3" x1="258.7" y1="427.1" x2="357.8" y2="427.1"/>
	<polyline class="st3" points="297.4,445.7 305.6,455.6 322.2,435.8 	"/>
	<path class="st7" d="M327.1,417.2c0-1.4-1.1-2.5-2.5-2.5c-1.4,0-2.5,1.1-2.5,2.5c0,1.4,1.1,2.5,2.5,2.5
		C326,419.7,327.1,418.6,327.1,417.2"/>
	<path class="st7" d="M338,417.2c0-1.4-1.1-2.5-2.5-2.5c-1.4,0-2.5,1.1-2.5,2.5c0,1.4,1.1,2.5,2.5,2.5
		C336.9,419.7,338,418.6,338,417.2"/>
	<path class="st7" d="M348.8,417.2c0-1.4-1.1-2.5-2.5-2.5c-1.4,0-2.5,1.1-2.5,2.5c0,1.4,1.1,2.5,2.5,2.5
		C347.7,419.7,348.8,418.6,348.8,417.2"/>
	<polyline class="st3" points="134.8,449.5 123.4,444.5 118.5,455.8 	"/>
	<polyline class="st3" points="169.5,424.8 180.9,429.6 185.8,418.2 	"/>
	<path class="st3" d="M180.9,429.6c-3.3-12.8-14.9-22.3-28.8-22.3c-13.8,0-25.4,9.5-28.7,22.3"/>
	<path class="st3" d="M123.4,444.5c3.3,12.8,14.9,22.3,28.7,22.3c13.8,0,25.4-9.5,28.8-22.3"/>
	<rect x="308.2" y="206.7" class="st2" width="49.5" height="24.8"/>
	<line class="st3" x1="295.9" y1="231.5" x2="295.9" y2="206.7"/>
	<line class="st3" x1="283.5" y1="231.5" x2="283.5" y2="206.7"/>
	<line class="st3" x1="382.6" y1="231.5" x2="382.6" y2="206.7"/>
	<line class="st3" x1="370.2" y1="231.5" x2="370.2" y2="206.7"/>
</g>
</svg>
