<?xml version="1.0" encoding="UTF-8" standalone="no"?>
<!-- Created with Inkscape (http://www.inkscape.org/) -->

<svg
   xmlns:dc="http://purl.org/dc/elements/1.1/"
   xmlns:cc="http://creativecommons.org/ns#"
   xmlns:rdf="http://www.w3.org/1999/02/22-rdf-syntax-ns#"
   xmlns:svg="http://www.w3.org/2000/svg"
   xmlns="http://www.w3.org/2000/svg"
   xmlns:sodipodi="http://sodipodi.sourceforge.net/DTD/sodipodi-0.dtd"
   xmlns:inkscape="http://www.inkscape.org/namespaces/inkscape"
   width="447.52301"
   height="285.52399"
   viewBox="0 0 447.52302 285.52399"
   id="svg2"
   version="1.1"
   inkscape:version="0.91 r13725"
   sodipodi:docname="unity _app_design_and_development.svg">
  <defs
     id="defs4">
    <pattern
       y="0"
       x="0"
       height="6"
       width="6"
       patternUnits="userSpaceOnUse"
       id="EMFhbasepattern" />
    <pattern
       y="0"
       x="0"
       height="6"
       width="6"
       patternUnits="userSpaceOnUse"
       id="EMFhbasepattern-3" />
    <pattern
       y="0"
       x="0"
       height="6"
       width="6"
       patternUnits="userSpaceOnUse"
       id="EMFhbasepattern-6" />
    <pattern
       y="0"
       x="0"
       height="6"
       width="6"
       patternUnits="userSpaceOnUse"
       id="EMFhbasepattern-38" />
  </defs>
  <sodipodi:namedview
     id="base"
     pagecolor="#ffffff"
     bordercolor="#666666"
     borderopacity="1.0"
     inkscape:pageopacity="0.0"
     inkscape:pageshadow="2"
     inkscape:zoom="0.98994949"
     inkscape:cx="-38.873106"
     inkscape:cy="152.83244"
     inkscape:document-units="px"
     inkscape:current-layer="layer1"
     showgrid="false"
     units="px"
     inkscape:showpageshadow="false"
     inkscape:window-width="1920"
     inkscape:window-height="1017"
     inkscape:window-x="-8"
     inkscape:window-y="-8"
     inkscape:window-maximized="1" />
  <metadata
     id="metadata7">
    <rdf:RDF>
      <cc:Work
         rdf:about="">
        <dc:format>image/svg+xml</dc:format>
        <dc:type
           rdf:resource="http://purl.org/dc/dcmitype/StillImage" />
        <dc:title></dc:title>
      </cc:Work>
    </rdf:RDF>
  </metadata>
  <g
     inkscape:label="Layer 1"
     inkscape:groupmode="layer"
     id="layer1"
     transform="translate(0,-766.83811)">
    <g
       id="g18037"
       transform="translate(4755.6776,-482.42768)">
      <path
         inkscape:connector-curvature="0"
         id="path14974"
         style="fill:#e4e5e7;fill-opacity:1;fill-rule:nonzero;stroke:none"
         d="m -4418.7275,1372.8328 -196.5222,0 0,-63.5948 196.5222,0 0,63.5948 z" />
      <path
         sodipodi:nodetypes="ccccc"
         inkscape:connector-curvature="0"
         id="path14976"
         style="fill:#e4e5e7;fill-opacity:1;stroke:#919191;stroke-width:3;stroke-linecap:butt;stroke-linejoin:miter;stroke-miterlimit:10;stroke-dasharray:none;stroke-opacity:1"
         d="m -4498.0401,1504.4987 -65.2609,0 0,-25.5823 65.2609,0 z" />
      <path
         inkscape:connector-curvature="0"
         id="path14978"
         style="fill:#919191;fill-opacity:1;stroke:none;stroke-width:1.25;stroke-linecap:butt;stroke-linejoin:miter;stroke-miterlimit:10;stroke-dasharray:none;stroke-opacity:1"
         d="m -4384.225,1534.7797 -292.891,0 0,-13.0522 292.891,0 0,13.0522 z" />
      <path
         inkscape:connector-curvature="0"
         id="path14982"
         style="fill:none;stroke:#000000;stroke-width:3;stroke-linecap:butt;stroke-linejoin:miter;stroke-miterlimit:9.99076939;stroke-dasharray:none;stroke-opacity:1"
         d="m -4618.5982,1329.5696 23.1925,0" />
      <path
         inkscape:connector-curvature="0"
         id="path14984"
         style="fill:none;stroke:#000000;stroke-width:3;stroke-linecap:butt;stroke-linejoin:miter;stroke-miterlimit:9.99076939;stroke-dasharray:none;stroke-opacity:1"
         d="m -4607.002,1341.1659 23.1925,0" />
      <path
         inkscape:connector-curvature="0"
         id="path14986"
         style="fill:none;stroke:#000000;stroke-width:3;stroke-linecap:butt;stroke-linejoin:miter;stroke-miterlimit:9.99076939;stroke-dasharray:none;stroke-opacity:1"
         d="m -4607.002,1352.7622 34.7889,0" />
      <path
         inkscape:connector-curvature="0"
         id="path14988"
         style="fill:none;stroke:#000000;stroke-width:3;stroke-linecap:butt;stroke-linejoin:miter;stroke-miterlimit:9.99076939;stroke-dasharray:none;stroke-opacity:1"
         d="m -4560.6169,1352.7622 23.1926,0" />
      <path
         inkscape:connector-curvature="0"
         id="path14990"
         style="fill:none;stroke:#000000;stroke-width:3;stroke-linecap:butt;stroke-linejoin:miter;stroke-miterlimit:9.99076939;stroke-dasharray:none;stroke-opacity:1"
         d="m -4525.8279,1352.7622 23.1926,0" />
      <path
         inkscape:connector-curvature="0"
         id="path14992"
         style="fill:none;stroke:#000000;stroke-width:3;stroke-linecap:butt;stroke-linejoin:miter;stroke-miterlimit:9.99076939;stroke-dasharray:none;stroke-opacity:1"
         d="m -4560.6169,1445.5326 23.1926,0" />
      <path
         inkscape:connector-curvature="0"
         id="path14994"
         style="fill:none;stroke:#000000;stroke-width:3;stroke-linecap:butt;stroke-linejoin:miter;stroke-miterlimit:9.99076939;stroke-dasharray:none;stroke-opacity:1"
         d="m -4525.8279,1445.5326 23.1926,0" />
      <path
         inkscape:connector-curvature="0"
         id="path14996"
         style="fill:none;stroke:#000000;stroke-width:3;stroke-linecap:butt;stroke-linejoin:miter;stroke-miterlimit:9.99076939;stroke-dasharray:none;stroke-opacity:1"
         d="m -4491.0389,1445.5326 11.5964,0" />
      <path
         inkscape:connector-curvature="0"
         id="path14998"
         style="fill:none;stroke:#000000;stroke-width:3;stroke-linecap:butt;stroke-linejoin:miter;stroke-miterlimit:9.99076939;stroke-dasharray:none;stroke-opacity:1"
         d="m -4467.8463,1445.5326 23.1925,0" />
      <path
         inkscape:connector-curvature="0"
         id="path15000"
         style="fill:none;stroke:#000000;stroke-width:3;stroke-linecap:butt;stroke-linejoin:miter;stroke-miterlimit:9.99076939;stroke-dasharray:none;stroke-opacity:1"
         d="m -4618.5982,1375.9548 34.7889,0" />
      <path
         inkscape:connector-curvature="0"
         id="path15002"
         style="fill:none;stroke:#000000;stroke-width:3;stroke-linecap:butt;stroke-linejoin:miter;stroke-miterlimit:9.99076939;stroke-dasharray:none;stroke-opacity:1"
         d="m -4595.4057,1387.5511 46.3852,0" />
      <path
         inkscape:connector-curvature="0"
         id="path15004"
         style="fill:none;stroke:#000000;stroke-width:3;stroke-linecap:butt;stroke-linejoin:miter;stroke-miterlimit:9.99076939;stroke-dasharray:none;stroke-opacity:1"
         d="m -4537.4243,1387.5511 11.5964,0" />
      <path
         inkscape:connector-curvature="0"
         id="path15006"
         style="fill:none;stroke:#000000;stroke-width:3;stroke-linecap:butt;stroke-linejoin:miter;stroke-miterlimit:9.99076939;stroke-dasharray:none;stroke-opacity:1"
         d="m -4514.2317,1387.5511 23.1926,0" />
      <path
         inkscape:connector-curvature="0"
         id="path15008"
         style="fill:none;stroke:#000000;stroke-width:3;stroke-linecap:butt;stroke-linejoin:miter;stroke-miterlimit:9.99076939;stroke-dasharray:none;stroke-opacity:1"
         d="m -4479.4427,1387.5511 11.5964,0" />
      <path
         inkscape:connector-curvature="0"
         id="path15010"
         style="fill:none;stroke:#000000;stroke-width:3;stroke-linecap:butt;stroke-linejoin:miter;stroke-miterlimit:9.99076939;stroke-dasharray:none;stroke-opacity:1"
         d="m -4433.0576,1399.1474 11.5964,0" />
      <path
         inkscape:connector-curvature="0"
         id="path15012"
         style="fill:none;stroke:#000000;stroke-width:3;stroke-linecap:butt;stroke-linejoin:miter;stroke-miterlimit:9.99076939;stroke-dasharray:none;stroke-opacity:1"
         d="m -4595.4057,1399.1474 11.5964,0" />
      <path
         inkscape:connector-curvature="0"
         id="path15014"
         style="fill:none;stroke:#000000;stroke-width:3;stroke-linecap:butt;stroke-linejoin:miter;stroke-miterlimit:9.99076939;stroke-dasharray:none;stroke-opacity:1"
         d="m -4572.2131,1399.1474 23.1926,0" />
      <path
         inkscape:connector-curvature="0"
         id="path15016"
         style="fill:none;stroke:#000000;stroke-width:3;stroke-linecap:butt;stroke-linejoin:miter;stroke-miterlimit:9.99076939;stroke-dasharray:none;stroke-opacity:1"
         d="m -4537.4243,1399.1474 23.1926,0" />
      <path
         inkscape:connector-curvature="0"
         id="path15018"
         style="fill:none;stroke:#000000;stroke-width:3;stroke-linecap:butt;stroke-linejoin:miter;stroke-miterlimit:9.99076939;stroke-dasharray:none;stroke-opacity:1"
         d="m -4502.6353,1399.1474 23.1926,0" />
      <path
         inkscape:connector-curvature="0"
         id="path15020"
         style="fill:none;stroke:#000000;stroke-width:3;stroke-linecap:butt;stroke-linejoin:miter;stroke-miterlimit:9.99076939;stroke-dasharray:none;stroke-opacity:1"
         d="m -4467.8463,1399.1474 23.1925,0" />
      <path
         inkscape:connector-curvature="0"
         id="path15022"
         style="fill:none;stroke:#000000;stroke-width:3;stroke-linecap:butt;stroke-linejoin:miter;stroke-miterlimit:9.99076939;stroke-dasharray:none;stroke-opacity:1"
         d="m -4607.002,1422.34 34.7889,0" />
      <path
         inkscape:connector-curvature="0"
         id="path15024"
         style="fill:none;stroke:#000000;stroke-width:3;stroke-linecap:butt;stroke-linejoin:miter;stroke-miterlimit:9.99076939;stroke-dasharray:none;stroke-opacity:1"
         d="m -4595.4057,1433.9363 11.5964,0" />
      <path
         inkscape:connector-curvature="0"
         id="path15026"
         style="fill:none;stroke:#000000;stroke-width:3;stroke-linecap:butt;stroke-linejoin:miter;stroke-miterlimit:9.99076939;stroke-dasharray:none;stroke-opacity:1"
         d="m -4572.2131,1433.9363 23.1926,0" />
      <path
         inkscape:connector-curvature="0"
         id="path15028"
         style="fill:none;stroke:#000000;stroke-width:3;stroke-linecap:butt;stroke-linejoin:miter;stroke-miterlimit:9.99076939;stroke-dasharray:none;stroke-opacity:1"
         d="m -4535.875,1433.9363 21.6433,0" />
      <path
         inkscape:connector-curvature="0"
         id="path15030"
         style="fill:none;stroke:#000000;stroke-width:3;stroke-linecap:butt;stroke-linejoin:miter;stroke-miterlimit:9.99076939;stroke-dasharray:none;stroke-opacity:1"
         d="m -4502.6353,1433.9363 11.5964,0" />
      <path
         id="path15032"
         d="m -4677.0488,1295.4688 0,18.6464 3,0 0,-15.6464 286.7578,0 0,178.6874 -286.7578,0 0,-34.1855 -3,0 0,37.1855 292.7578,0 0,-1.5 0,-183.1874 -292.7578,0 z"
         style="color:#000000;font-style:normal;font-variant:normal;font-weight:normal;font-stretch:normal;font-size:medium;line-height:normal;font-family:sans-serif;text-indent:0;text-align:start;text-decoration:none;text-decoration-line:none;text-decoration-style:solid;text-decoration-color:#000000;letter-spacing:normal;word-spacing:normal;text-transform:none;direction:ltr;block-progression:tb;writing-mode:lr-tb;baseline-shift:baseline;text-anchor:start;white-space:normal;clip-rule:nonzero;display:inline;overflow:visible;visibility:visible;opacity:1;isolation:auto;mix-blend-mode:normal;color-interpolation:sRGB;color-interpolation-filters:linearRGB;solid-color:#000000;solid-opacity:1;fill:#919191;fill-opacity:1;fill-rule:nonzero;stroke:none;stroke-width:3;stroke-linecap:butt;stroke-linejoin:miter;stroke-miterlimit:9.76000023;stroke-dasharray:none;stroke-dashoffset:0;stroke-opacity:1;color-rendering:auto;image-rendering:auto;shape-rendering:auto;text-rendering:auto;enable-background:accumulate"
         inkscape:connector-curvature="0" />
      <path
         d="m -4347.7726,1450.3962 c 0,-22.1127 -17.925,-40.0376 -40.0377,-40.0376 -22.1126,0 -40.0376,17.9249 -40.0376,40.0376 0,22.1127 17.925,40.0376 40.0376,40.0376 22.1127,0 40.0377,-17.9249 40.0377,-40.0376"
         style="fill:#f6eb16;fill-opacity:1;fill-rule:nonzero;stroke:none"
         id="path15036"
         inkscape:connector-curvature="0" />
      <g
         id="g16465">
        <path
           inkscape:connector-curvature="0"
           id="path15040"
           style="fill:none;stroke:#000000;stroke-width:3;stroke-linecap:butt;stroke-linejoin:miter;stroke-miterlimit:10;stroke-dasharray:none;stroke-opacity:1"
           d="m -4396.1902,1442.0162 -16.7599,8.3799 16.7599,8.38" />
        <path
           inkscape:connector-curvature="0"
           id="path15042"
           style="fill:none;stroke:#000000;stroke-width:3;stroke-linecap:butt;stroke-linejoin:miter;stroke-miterlimit:10;stroke-dasharray:none;stroke-opacity:1"
           d="m -4379.4303,1458.7761 16.7599,-8.38 -16.7599,-8.3799" />
        <path
           inkscape:connector-curvature="0"
           id="path15044"
           style="fill:none;stroke:#000000;stroke-width:3;stroke-linecap:butt;stroke-linejoin:miter;stroke-miterlimit:10;stroke-dasharray:none;stroke-opacity:1"
           d="m -4384.9865,1437.4508 -5.6477,25.8892" />
      </g>
      <g
         style="stroke-width:0.86093313;stroke-miterlimit:10;stroke-dasharray:none"
         id="g15054"
         transform="matrix(3.4845912,0,0,-3.4845912,-4317.3115,1336.2674)">
        <path
           d="M 0,0 -24.586,0"
           style="fill:none;stroke:#000000;stroke-width:0.86093313;stroke-linecap:butt;stroke-linejoin:miter;stroke-miterlimit:10;stroke-dasharray:none;stroke-opacity:1"
           id="path15056"
           inkscape:connector-curvature="0" />
      </g>
      <g
         style="stroke-width:0.86093313;stroke-miterlimit:10;stroke-dasharray:none"
         id="g15058"
         transform="matrix(3.4845912,0,0,-3.4845912,-4317.3115,1351.0393)">
        <path
           d="M 0,0 -24.586,0"
           style="fill:none;stroke:#000000;stroke-width:0.86093313;stroke-linecap:butt;stroke-linejoin:miter;stroke-miterlimit:10;stroke-dasharray:none;stroke-opacity:1"
           id="path15060"
           inkscape:connector-curvature="0" />
      </g>
      <g
         style="stroke-width:0.86093313;stroke-miterlimit:10;stroke-dasharray:none"
         id="g15062"
         transform="matrix(3.4845912,0,0,-3.4845912,-4358.6708,1365.8081)">
        <path
           d="M 0,0 -12.717,0"
           style="fill:none;stroke:#000000;stroke-width:0.86093313;stroke-linecap:butt;stroke-linejoin:miter;stroke-miterlimit:10;stroke-dasharray:none;stroke-opacity:1"
           id="path15064"
           inkscape:connector-curvature="0" />
      </g>
      <path
         d="m -4351.7765,1314.0572 -12.8025,0 0,-12.806 12.8025,0 0,12.806 z"
         style="fill:none;stroke:#000000;stroke-width:3;stroke-linecap:butt;stroke-linejoin:miter;stroke-miterlimit:10;stroke-dasharray:none;stroke-opacity:1"
         id="path15066"
         inkscape:connector-curvature="0" />
      <path
         d="m -4741.3788,1457.2138 -12.8024,0 0,-12.8057 12.8024,0 0,12.8057 z"
         style="fill:none;stroke:#000000;stroke-width:3;stroke-linecap:butt;stroke-linejoin:miter;stroke-miterlimit:10;stroke-dasharray:none;stroke-opacity:1"
         id="path15082"
         inkscape:connector-curvature="0" />
      <path
         d="m -4660.4859,1263.5579 -12.8025,0 0,-12.8024 12.8025,0 0,12.8024 z"
         style="fill:none;stroke:#ffff00;stroke-width:3;stroke-linecap:butt;stroke-linejoin:miter;stroke-miterlimit:10;stroke-dasharray:none;stroke-opacity:1"
         id="path15084"
         inkscape:connector-curvature="0" />
      <path
         d="m -4309.6587,1465.2202 -12.8024,0 0,-12.8061 12.8024,0 0,12.8061 z"
         style="fill:none;stroke:#919191;stroke-width:3;stroke-linecap:butt;stroke-linejoin:miter;stroke-miterlimit:9.76000023;stroke-dasharray:none;stroke-opacity:1"
         id="path15086"
         inkscape:connector-curvature="0" />
      <g
         id="g15154"
         transform="matrix(2.3568961,0,0,-2.3568961,-4650.0161,1348.8554)"
         style="fill:#666666">
        <path
           d="m -3.5442366,0 c -0.168,-0.133 -0.224,-0.156 -0.249,-0.198 -2.294,-3.97 -4.595,-7.937 -6.8580004,-11.924 -0.146,-0.257 -0.119,-0.749 0.032,-1.017 1.6530004,-2.929 3.3460004,-5.837 5.0290004,-8.749 0.632,-1.092 1.267,-2.183 1.949,-3.36 0.114,0.221 0.179,0.309 0.206,0.407 1.111,3.973 2.224,7.945 3.31400002,11.924 0.073,0.266 0.022,0.592 -0.053,0.867 -0.596,2.2 -1.20700002,4.397 -1.82200002,6.591 -0.504,1.799 -1.019,3.595 -1.548,5.459 M -28.997236,-10.488 c 0.256,-0.034 0.411,-0.074 0.565,-0.074 4.489,-0.002 8.977,-0.014 13.465,0.023 0.314,0.003 0.753,0.296 0.92,0.579 2.203,3.743 4.3689994,7.508 6.5399994,11.271 0.111,0.192 0.177,0.41 0.296,0.688 -0.232,0 -0.341,0.022 -0.438,-0.003 -3.9770004,-1.017 -7.9539994,-2.035 -11.9259994,-3.067 -0.222,-0.058 -0.449,-0.202 -0.613,-0.366 -1.721,-1.74 -3.433,-3.488 -5.139,-5.242 -1.207,-1.239 -2.401,-2.491 -3.67,-3.809 m -0.059,-4.144 c 0.22,-0.258 0.3,-0.363 0.392,-0.458 2.752,-2.822 5.499,-5.648 8.266,-8.455 0.271,-0.274 0.642,-0.522 1.009,-0.62 3.758,-0.993 7.525,-1.954 11.2899994,-2.921 0.251,-0.064 0.509,-0.104 0.97,-0.196 -0.206,0.406 -0.311,0.64 -0.439,0.862 -2.131,3.692 -4.2789994,7.374 -6.3829994,11.081 -0.318,0.561 -0.675,0.724 -1.288,0.72 -4.271,-0.024 -8.542,-0.013 -12.812,-0.013 l -1.005,0 z m 27.8099994,-18.826 c -5.315,1.422 -10.5349994,2.822 -15.7599994,4.208 -0.533,0.142 -0.888,0.386 -1.15,0.901 -0.54,1.065 -1.145,2.098 -1.782,3.108 -0.149,0.238 -0.523,0.462 -0.803,0.472 -1.304,0.05 -2.611,-0.001 -3.916,0.04 -0.316,0.009 -0.707,0.146 -0.926,0.363 -3.841,3.813 -7.662,7.648 -11.485,11.48 -0.074,0.074 -0.13,0.166 -0.23,0.296 0.187,0.206 0.357,0.409 0.544,0.596 3.633,3.637 7.277,7.265 10.896,10.916 0.461,0.466 0.932,0.672 1.58,0.639 1.139,-0.061 2.282,-0.045 3.421,-0.096 0.471,-0.021 0.734,0.142 0.957,0.564 0.595,1.127 1.23,2.234 1.882,3.329 0.138,0.232 0.387,0.485 0.633,0.552 5.346,1.456 10.6989994,2.887 16.1709994,4.356 0.22300004,-0.803 0.44100004,-1.575 0.64900002,-2.348 1.248,-4.613 2.49699998,-9.228 3.72399998,-13.847 0.058,-0.218 -0.025,-0.523 -0.142,-0.731 -0.639,-1.136 -1.279,-2.273 -1.981,-3.369 -0.28199998,-0.44 -0.31099998,-0.765 0.021,-1.155 0.12,-0.141 0.175,-0.337 0.271,-0.501 0.641,-1.1 1.658,-2.147 1.821,-3.313 0.158,-1.135 -0.566,-2.39 -0.89,-3.595 -1.1,-4.093 -2.19499998,-8.186 -3.295,-12.279 -0.048,-0.178 -0.124,-0.348 -0.21,-0.586"
           style="fill:#919191;fill-opacity:1;fill-rule:nonzero;stroke:none"
           id="path15156"
           inkscape:connector-curvature="0" />
      </g>
    </g>
  </g>
</svg>
