<?xml version="1.0" standalone="no"?>
<!DOCTYPE svg PUBLIC "-//W3C//DTD SVG 1.1//EN" "http://www.w3.org/Graphics/SVG/1.1/DTD/svg11.dtd" >
<svg>
<metadata>
Created by FontForge 20090622 at Thu May 18 08:57:26 2017
 By deploy user
Copyright (c) 2014 by Hanken Design Co.. All rights reserved.
</metadata>
<defs>
<font id="ArcaMajora-Heavy" horiz-adv-x="70" >
  <font-face 
    font-family="Arca Majora Heavy"
    font-weight="900"
    font-stretch="normal"
    units-per-em="1000"
    panose-1="0 0 0 0 0 0 0 0 0 0"
    ascent="800"
    descent="-200"
    x-height="770"
    cap-height="770"
    bbox="-227 -227 1171 1043"
    underline-thickness="50"
    underline-position="-50"
    unicode-range="U+000D-U+F8FF"
  />
<missing-glyph 
 />
    <glyph glyph-name=".notdef" 
 />
    <glyph glyph-name="NULL" horiz-adv-x="0" 
 />
    <glyph glyph-name="NULL" horiz-adv-x="0" 
 />
    <glyph glyph-name="nonmarkingreturn" unicode="&#xd;" 
 />
    <glyph glyph-name="space" unicode=" " horiz-adv-x="350" 
 />
    <glyph glyph-name="uni0010" 
 />
    <glyph glyph-name="uni0011" 
 />
    <glyph glyph-name="uni0012" 
 />
    <glyph glyph-name="uni0013" 
 />
    <glyph glyph-name="uni0014" 
 />
    <glyph glyph-name="uni001D" horiz-adv-x="0" 
 />
    <glyph glyph-name="uni001E" 
 />
    <glyph glyph-name="uni001F" 
 />
    <glyph glyph-name="exclam" unicode="!" horiz-adv-x="333" 
d="M236 247h-140v523h140v-523zM263 86q0 -40 -27.5 -68t-69.5 -28q-40 0 -68 28t-28 68q0 20 7.5 37.5t20.5 31t30.5 21t37.5 7.5t38 -7.5t31 -21t20.5 -31t7.5 -37.5z" />
    <glyph glyph-name="quotedbl" unicode="&#x22;" horiz-adv-x="483" 
d="M423 770v-347h-133v347h133zM193 770v-347h-133v347h133z" />
    <glyph glyph-name="numbersign" unicode="#" horiz-adv-x="736" 
d="M662 531l-13 -98h-101l-25 -180h100l-12 -98h-102l-21 -155h-107l21 155h-121l-21 -155h-107l21 155h-101l14 98h101l25 180h-101l14 98h100l22 155h107l-22 -155h121l22 155h107l-22 -155h101zM441 433h-121l-25 -180h121z" />
    <glyph glyph-name="dollar" unicode="$" horiz-adv-x="1060" 
 />
    <glyph glyph-name="percent" unicode="%" horiz-adv-x="839" 
d="M380 620q0 -33 -12.5 -62.5t-33.5 -51t-49.5 -34t-59.5 -12.5q-32 0 -60 12.5t-49 34t-33.5 51t-12.5 62.5t12.5 62.5t33.5 51t49 34t60 12.5q31 0 59.5 -12.5t49.5 -34t33.5 -51t12.5 -62.5zM284 620q0 24 -16.5 41.5t-42.5 17.5q-25 0 -42 -17.5t-17 -41.5t17 -41.5
t42 -17.5q26 0 42.5 17.5t16.5 41.5zM732 770l-483 -771h-144l483 771h144zM769 150q0 -33 -12.5 -62.5t-33.5 -51t-49.5 -34t-59.5 -12.5q-32 0 -60.5 12.5t-49.5 34t-33.5 51t-12.5 62.5t12.5 62.5t33.5 51t49.5 34t60.5 12.5q31 0 59.5 -12.5t49.5 -34t33.5 -51
t12.5 -62.5zM673 150q0 24 -17.5 41.5t-41.5 17.5q-26 0 -43 -17.5t-17 -41.5t17 -41.5t43 -17.5q24 0 41.5 17.5t17.5 41.5z" />
    <glyph glyph-name="ampersand" unicode="&#x26;" horiz-adv-x="756" 
d="M712 295l-107 -108l105 -107l-82 -83l-105 106l-28 -29q-35 -36 -80 -55t-96 -19q-53 0 -98 20t-79 54.5t-53 80.5t-19 98q0 51 19 97.5t54 82.5l29 30q-36 52 -36 115q0 38 14 72t39 59t58.5 39.5t71.5 14.5q36 0 68.5 -13.5t57 -37t39 -55t14.5 -68.5q0 -38 -14 -73.5
t-34 -67.5l-83 83q7 12 12 26t5 28q0 26 -20 43t-45 17q-29 0 -49 -20t-20 -49t20 -49l253 -257l107 108zM253 378l-27.5 -28t-21.5 -27t-14 -31t-5 -39q0 -27 10.5 -51.5t28.5 -43t42.5 -29.5t52.5 -11q22 0 38.5 5.5t30.5 14.5t26.5 21.5l26.5 27.5z" />
    <glyph glyph-name="quotesingle" unicode="'" horiz-adv-x="253" 
d="M193 770v-347h-133v347h133z" />
    <glyph glyph-name="asterisk" unicode="*" horiz-adv-x="360" 
d="M290 631l-56 -9l21 -52l-40 -23l-35 43l-35 -43l-40 23l21 52l-56 9v45l56 9l-21 52l40 23l35 -43l35 43l40 -23l-21 -52l56 -9v-45z" />
    <glyph glyph-name="plus" unicode="+" horiz-adv-x="698" 
d="M621 328h-214v-199h-116v199h-213v114h213v200h116v-200h214v-114z" />
    <glyph glyph-name="comma" unicode="," horiz-adv-x="353" 
d="M253 101l-50 -297h-103v297h153z" />
    <glyph glyph-name="hyphen" unicode="-" horiz-adv-x="548" 
d="M478 328h-408v114h408v-114z" />
    <glyph glyph-name="period" unicode="." horiz-adv-x="333" 
d="M263 86q0 -40 -27.5 -68t-69.5 -28q-40 0 -68 28t-28 68q0 20 7.5 37.5t20.5 31t30.5 21t37.5 7.5t38 -7.5t31 -21t20.5 -31t7.5 -37.5z" />
    <glyph glyph-name="slash" unicode="/" horiz-adv-x="639" 
d="M599 800l-415 -1000h-144l415 1000h144z" />
    <glyph glyph-name="zero" unicode="0" horiz-adv-x="672" 
d="M602 391q0 -39 -6.5 -84.5t-20 -90t-35 -86t-51 -73t-67.5 -50.5t-86 -19t-86 19t-67.5 50.5t-51 73t-35 86.5t-20 90t-6.5 84q0 40 6.5 84.5t20 87.5t35 82.5t51 69.5t67.5 47.5t86 17.5q47 0 85.5 -17.5t68 -47.5t51 -69.5t35 -82.5t20 -87.5t6.5 -84.5zM467 389
q0 30 -4 73t-17.5 83t-39.5 68.5t-70 28.5t-69.5 -28t-39.5 -67.5t-18 -82.5t-4 -72q0 -19 1.5 -46.5t6 -57t13.5 -58.5t23.5 -52t35.5 -37.5t51 -14.5q29 0 50 14t35.5 37t23.5 52t14 58t6.5 56t1.5 46z" />
    <glyph glyph-name="one" unicode="1" horiz-adv-x="334" 
d="M234 0h-131v641h-83v129h214v-770z" />
    <glyph glyph-name="two" unicode="2" horiz-adv-x="639" 
d="M594 0h-554l295 368l29.5 38t29 41.5t22.5 44.5t9 46q0 22 -9 42.5t-24.5 36t-36 24.5t-43.5 9q-61 0 -90.5 -36.5t-34.5 -90.5h-125q5 53 23 100t49 82t75 55t102 20q49 0 92.5 -19.5t75.5 -52.5t50.5 -77t18.5 -93q0 -42 -13 -79.5t-33 -72t-45 -66.5l-50 -63
l-102 -127h289v-130z" />
    <glyph glyph-name="three" unicode="3" horiz-adv-x="614" 
d="M544 233q0 -48 -18 -92.5t-49.5 -78t-74.5 -54t-92 -20.5q-112 0 -171.5 60t-68.5 169h123q12 -51 37 -75t80 -24q24 0 44.5 9.5t35.5 25t23.5 36.5t8.5 44t-8.5 43.5t-23.5 35.5t-35.5 24t-44.5 9h-81v130h81q19 0 34 8.5t25 22t15.5 30t5.5 33.5q0 33 -22.5 57
t-57.5 24q-23 0 -38.5 -6.5t-25.5 -18t-16 -28t-10 -36.5h-123q3 45 19 85t43 70t65 47t86 17q43 0 80 -17.5t64 -46.5t42.5 -67t15.5 -80q0 -39 -12.5 -78.5t-40.5 -71.5q85 -77 85 -186z" />
    <glyph glyph-name="four" unicode="4" horiz-adv-x="653" 
d="M593 135h-85v-135h-124v135h-344l402 635h66v-506h85v-129zM384 264v216l-127 -216h127z" />
    <glyph glyph-name="five" unicode="5" horiz-adv-x="636" 
d="M536 245q0 -54 -18.5 -101t-52 -81.5t-80 -54.5t-101.5 -20q-39 0 -72.5 12.5t-62 33.5t-52.5 49t-45 59l100 75q11 -17 24.5 -34.5t30.5 -31.5t37 -23.5t43 -9.5q27 0 50 10.5t39.5 28t26 41t9.5 49.5t-9.5 49.5t-26 41t-39.5 28t-50 10.5q-20 0 -40.5 -5.5t-39.5 -11.5
l-66 56l79 355h302v-130h-205l-34 -163h9q11 0 21 1.5t21 1.5q52 0 90 -18.5t63 -51t37 -75t12 -90.5z" />
    <glyph glyph-name="six" unicode="6" horiz-adv-x="640" 
d="M570 246q0 -52 -19 -99t-52.5 -82t-79.5 -56t-99 -21q-54 0 -99.5 20.5t-79 56t-52.5 82t-19 99.5q0 48 17.5 91t43.5 84l219 349h149l-166 -266q54 -3 97.5 -25.5t74.5 -58t48 -81t17 -93.5zM444 246q0 25 -9.5 48.5t-26 41t-39 28t-49.5 10.5t-49.5 -10.5t-39 -28
t-26 -41t-9.5 -48.5q0 -26 9.5 -49t26 -40.5t39 -28t49.5 -10.5t49.5 10.5t39 28t26 40.5t9.5 49z" />
    <glyph glyph-name="seven" unicode="7" horiz-adv-x="536" 
d="M566 770l-381 -770h-153l324 641h-336v129h546z" />
    <glyph glyph-name="eight" unicode="8" horiz-adv-x="608" 
d="M544 234q0 -48 -18.5 -92.5t-51 -78t-76.5 -53.5t-94 -20t-94 20t-76 53.5t-50.5 78t-18.5 92.5q0 54 22 104.5t64 89.5q-54 64 -54 142q0 43 16 81t43.5 66.5t65.5 45.5t82 17t82 -17t66 -45.5t44 -66.5t16 -81q0 -77 -55 -142q43 -39 65 -89.5t22 -104.5zM386 570
q0 16 -6.5 31.5t-17.5 26.5t-26 18t-32 7q-34 0 -57.5 -25t-23.5 -58t23 -57.5t58 -24.5q34 0 58 24.5t24 57.5zM418 236q0 24 -8.5 46t-23.5 38t-36 25.5t-46 9.5t-46 -9.5t-36 -25.5t-23.5 -38t-8.5 -46t8.5 -44.5t23.5 -36t36 -24t46 -8.5t46 8.5t36 24t23.5 36t8.5 44.5
z" />
    <glyph glyph-name="nine" unicode="9" horiz-adv-x="640" 
d="M570 524q0 -48 -17.5 -91t-43.5 -84l-219 -349h-149l166 266q-54 3 -97.5 25.5t-74.5 58t-48 81t-17 93.5q0 52 19 99t52.5 82t79.5 56t99 21q54 0 99.5 -20.5t79 -56t52.5 -82.5t19 -99zM444 524q0 25 -9.5 48.5t-26 41t-39 28t-49.5 10.5t-49.5 -10.5t-39 -28t-26 -41
t-9.5 -48.5q0 -26 9.5 -49t26 -40.5t39 -28t49.5 -10.5t49.5 10.5t39 28t26 40.5t9.5 49z" />
    <glyph glyph-name="colon" unicode=":" horiz-adv-x="334" 
d="M263 86q0 -40 -27.5 -68t-69.5 -28q-40 0 -68 28t-28 68q0 20 7.5 37.5t20.5 31t30.5 21t37.5 7.5t38 -7.5t31 -21t20.5 -31t7.5 -37.5zM263 509q0 -40 -27.5 -68t-69.5 -28q-40 0 -68 28t-28 68q0 20 7.5 37.5t20.5 31t30.5 21t37.5 7.5t38 -7.5t31 -21t20.5 -31
t7.5 -37.5z" />
    <glyph glyph-name="semicolon" unicode=";" horiz-adv-x="354" 
d="M273 509q0 -40 -27.5 -68t-69.5 -28q-40 0 -68 28t-28 68q0 20 7.5 37.5t20.5 31t30.5 21t37.5 7.5t38 -7.5t31 -21t20.5 -31t7.5 -37.5zM254 101l-50 -297h-104v297h154z" />
    <glyph glyph-name="less" unicode="&#x3c;" horiz-adv-x="536" 
d="M461 136l-386 205v89l386 188v-129l-216 -106l216 -114v-133z" />
    <glyph glyph-name="equal" unicode="=" horiz-adv-x="558" 
d="M483 452h-408v137h408v-137zM483 182h-408v137h408v-137z" />
    <glyph glyph-name="greater" unicode="&#x3e;" horiz-adv-x="536" 
d="M461 341l-386 -205v133l216 114l-216 106v129l386 -188v-89z" />
    <glyph glyph-name="question" unicode="?" horiz-adv-x="555" 
d="M480 592q0 -50 -21.5 -87t-47.5 -65t-47.5 -48.5t-21.5 -37.5v-108h-130v109q0 44 21.5 76t47.5 58t47.5 50t21.5 53q0 30 -20 54t-50 24q-21 0 -35.5 -9t-23.5 -23.5t-13 -31.5t-4 -33h-129q0 45 12.5 86.5t38 72.5t63 49.5t88.5 18.5q43 0 80.5 -16t64.5 -44t42.5 -66
t15.5 -82zM374 87q0 -21 -7.5 -38.5t-21 -30.5t-31 -20.5t-37.5 -7.5t-37.5 7.5t-31 20.5t-21 31t-7.5 38q0 19 7.5 37t20.5 31t31 21t38 8t38 -7.5t31 -21t20.5 -31t7.5 -37.5z" />
    <glyph glyph-name="at" unicode="@" 
 />
    <glyph glyph-name="A" unicode="A" horiz-adv-x="700" 
d="M700 0h-142l-57 130h-302l-57 -130h-142l350 800zM444 260l-94 216l-94 -216h188z" />
    <glyph glyph-name="B" unicode="B" horiz-adv-x="673" 
d="M643 225q0 -47 -17.5 -87.5t-48.5 -71.5t-72 -48.5t-87 -17.5h-188h-130v770h263q46 0 87 -17.5t72 -48.5t48.5 -72t17.5 -87q0 -36 -11.5 -70.5t-32.5 -63.5q46 -32 72.5 -80.5t26.5 -105.5zM458 545q0 19 -7.5 36.5t-20.5 30.5t-30.5 20.5t-36.5 7.5h-133v-190h133
q19 0 36.5 7.5t30.5 20.5t20.5 30t7.5 37zM513 225q0 19 -7.5 36.5t-20.5 30.5t-30.5 20.5t-36.5 7.5h-188v-190h188q19 0 36.5 7.5t30.5 20.5t20.5 30t7.5 37z" />
    <glyph glyph-name="C" unicode="C" horiz-adv-x="639" 
d="M426 122q51 0 98.5 19t84.5 54v-160q-42 -22 -88.5 -33.5t-94.5 -11.5q-82 0 -154 31t-126 84.5t-85 125.5t-31 154t31 154t85 125.5t126 84.5t154 31q48 0 94.5 -11.5t88.5 -33.5v-160q-37 35 -84.5 54t-98.5 19q-55 0 -103 -20.5t-84 -56.5t-56.5 -84t-20.5 -102
t20.5 -102t56.5 -84t84 -56.5t103 -20.5z" />
    <glyph glyph-name="D" unicode="D" horiz-adv-x="739" 
d="M709 385q0 -80 -30 -150t-82.5 -122.5t-122.5 -82.5t-150 -30h-224v770h224q80 0 150 -30t122.5 -82.5t82.5 -122.5t30 -150zM579 385q0 53 -20 99.5t-54.5 81t-81 54.5t-99.5 20h-94v-510h94q53 0 99.5 20t81 54.5t54.5 81t20 99.5z" />
    <glyph glyph-name="E" unicode="E" horiz-adv-x="660" 
d="M580 0h-480v770h480v-130h-350v-190h310v-130h-310v-190h350v-130z" />
    <glyph glyph-name="F" unicode="F" horiz-adv-x="590" 
d="M580 640h-350v-190h310v-130h-310v-320h-130v770h480v-130z" />
    <glyph glyph-name="G" unicode="G" horiz-adv-x="789" 
d="M704 108l-2 -6q-57 -54 -127.5 -83t-148.5 -29q-82 0 -154 31t-126 84.5t-85 125.5t-31 154t31 154t85 125.5t126 84.5t154 31q78 0 148.5 -29t127.5 -83l-93 -93q-37 35 -84.5 54t-98.5 19q-55 0 -103 -20.5t-84 -56.5t-56.5 -84t-20.5 -102t20.5 -102t56.5 -84
t84 -56.5t103 -20.5q42 0 82 12.5t75 38.5v147h-156v130h277v-342z" />
    <glyph glyph-name="H" unicode="H" horiz-adv-x="741" 
d="M641 0h-130v320h-281v-320h-130v770h130v-320h281v320h130v-770z" />
    <glyph glyph-name="I" unicode="I" horiz-adv-x="330" 
d="M230 0h-130v770h130v-770z" />
    <glyph glyph-name="J" unicode="J" horiz-adv-x="578" 
d="M498 189q0 -67 -32.5 -111t-81 -66t-105.5 -22t-105.5 22.5t-81 66.5t-32.5 110v105h130v-105q0 -24 13 -40t33 -24t43 -8t43 8t33 24t13 40v581h130v-581z" />
    <glyph glyph-name="K" unicode="K" horiz-adv-x="637" 
d="M637 0h-160l-247 327v-327h-130v770h130v-327l247 327h160l-300 -385z" />
    <glyph glyph-name="L" unicode="L" horiz-adv-x="585" 
d="M580 0h-480v770h130v-640h350v-130z" />
    <glyph glyph-name="M" unicode="M" horiz-adv-x="932" 
d="M832 0h-129v403l-237 -307l-236 307v-403h-130v800l366 -501l366 501v-800z" />
    <glyph glyph-name="N" unicode="N" horiz-adv-x="793" 
d="M693 -32l-463 502v-470h-130v800l463 -502v472h130v-802z" />
    <glyph glyph-name="O" unicode="O" horiz-adv-x="850" 
d="M820 385q0 -82 -31 -154t-84.5 -125.5t-125.5 -84.5t-154 -31t-154 31t-125.5 84.5t-84.5 125.5t-31 154t31 154t84.5 125.5t125.5 84.5t154 31t154 -31t125.5 -84.5t84.5 -125.5t31 -154zM688 385q0 54 -20.5 102t-56.5 84t-84 56.5t-102 20.5t-102 -20.5t-84 -56.5
t-56.5 -84t-20.5 -102t20.5 -102t56.5 -84t84 -56.5t102 -20.5t102 20.5t84 56.5t56.5 84t20.5 102z" />
    <glyph glyph-name="P" unicode="P" horiz-adv-x="638" 
d="M628 545q0 -47 -17.5 -87.5t-48.5 -71.5t-72 -48.5t-87 -17.5h-173v-320h-130v770h303q46 0 87 -17.5t72 -48.5t48.5 -72t17.5 -87zM498 545q0 19 -7.5 36.5t-20.5 30.5t-30.5 20.5t-36.5 7.5h-173v-190h173q19 0 36.5 7.5t30.5 20.5t20.5 30t7.5 37z" />
    <glyph glyph-name="Q" unicode="Q" horiz-adv-x="850" 
d="M486 -125h-122v121q-73 12 -134 47.5t-105.5 87.5t-69.5 117.5t-25 137.5q0 81 31 153t84.5 125.5t125.5 84.5t154 31t154 -31t125.5 -84.5t84.5 -125.5t31 -153q0 -72 -25 -137.5t-69.5 -117.5t-105.5 -87.5t-134 -47.5v-121zM425 649q-54 0 -102 -20.5t-84 -56.5
t-56.5 -84t-20.5 -102q0 -45 14.5 -86t41 -75t63.5 -58.5t83 -36.5v124h122v-124q46 12 83 36.5t63.5 58.5t41 75t14.5 86q0 54 -20.5 102t-56.5 84t-84 56.5t-102 20.5z" />
    <glyph glyph-name="R" unicode="R" horiz-adv-x="663" 
d="M633 0h-150l-160 320h-93v-320h-130v770h303q46 0 87 -17.5t72 -48.5t48.5 -72t17.5 -87q0 -38 -12 -73t-34 -63.5t-52.5 -49.5t-67.5 -31zM498 545q0 19 -7.5 36.5t-20.5 30.5t-30.5 20.5t-36.5 7.5h-173v-190h173q19 0 36.5 7.5t30.5 20.5t20.5 30t7.5 37z" />
    <glyph glyph-name="S" unicode="S" horiz-adv-x="599" 
d="M534 213q0 -53 -21 -94.5t-56 -70t-81 -43.5t-96 -15q-84 0 -144 47t-86 125l110 49q14 -39 37.5 -60.5t50.5 -29.5t55 -3.5t50.5 17.5t36.5 33.5t14 44.5q0 31 -23 52t-58 40t-75.5 38.5t-75.5 47.5t-58 67.5t-23 98.5q0 45 16.5 85t46 71t69 49t84.5 18q72 0 126 -36
t83 -102l-113 -52q-19 40 -51.5 54.5t-63.5 7.5t-54 -32t-23 -63q0 -30 24 -51t60 -39l77.5 -38t77.5 -48t60 -68.5t24 -99.5z" />
    <glyph glyph-name="T" unicode="T" horiz-adv-x="555" 
d="M540 640h-197v-640h-130v640h-198v130h525v-130z" />
    <glyph glyph-name="U" unicode="U" horiz-adv-x="758" 
d="M683 294q0 -63 -24 -118q-18 -42 -46.5 -76.5t-65 -59t-79.5 -37.5t-89 -13q-63 0 -118.5 24t-96.5 65t-65 96.5t-24 118.5v476h130v-476q0 -36 13.5 -67.5t37.5 -55.5t55.5 -37.5t67.5 -13.5t67.5 13.5t55.5 37.5t37.5 55.5t13.5 67.5v476h130v-476z" />
    <glyph glyph-name="V" unicode="V" horiz-adv-x="700" 
d="M700 770l-350 -800l-350 800h142l208 -476l208 476h142z" />
    <glyph glyph-name="W" unicode="W" horiz-adv-x="993" 
d="M993 770l-350 -800l-146 335l-147 -335l-350 800h142l208 -476l76 173l-133 303h142l62 -141l61 141h142l-132 -303l75 -173l208 476h142z" />
    <glyph glyph-name="X" unicode="X" horiz-adv-x="604" 
d="M604 0h-150l-152 257l-151 -257h-151l227 385l-227 385h151l151 -257l152 257h150l-226 -385z" />
    <glyph glyph-name="Y" unicode="Y" horiz-adv-x="604" 
d="M604 770l-237 -403v-367h-130v367l-237 403h151l151 -257l152 257h150z" />
    <glyph glyph-name="Z" unicode="Z" horiz-adv-x="624" 
d="M614 0h-604l377 640h-359v130h586l-377 -640h377v-130z" />
    <glyph glyph-name="bracketleft" unicode="[" horiz-adv-x="438" 
d="M368 -200h-268v1180h268v-109h-139v-962h139v-109z" />
    <glyph glyph-name="backslash" unicode="\" horiz-adv-x="639" 
d="M599 -200h-144l-415 1000h144z" />
    <glyph glyph-name="bracketright" unicode="]" horiz-adv-x="440" 
d="M340 980l-3 -1180h-267v109h138l3 962h-138v109h267z" />
    <glyph glyph-name="asciicircum" unicode="^" horiz-adv-x="1060" 
 />
    <glyph glyph-name="underscore" unicode="_" horiz-adv-x="758" 
d="M658 0h-558v115h558v-115z" />
    <glyph glyph-name="grave" unicode="`" horiz-adv-x="0" 
d="M142 830h-134l-130 117l134 80z" />
    <glyph glyph-name="a" unicode="a" horiz-adv-x="700" 
d="M700 0h-142l-57 130h-302l-57 -130h-142l350 800zM444 260l-94 216l-94 -216h188z" />
    <glyph glyph-name="b" unicode="b" horiz-adv-x="673" 
d="M643 225q0 -47 -17.5 -87.5t-48.5 -71.5t-72 -48.5t-87 -17.5h-188h-130v770h263q46 0 87 -17.5t72 -48.5t48.5 -72t17.5 -87q0 -36 -11.5 -70.5t-32.5 -63.5q46 -32 72.5 -80.5t26.5 -105.5zM458 545q0 19 -7.5 36.5t-20.5 30.5t-30.5 20.5t-36.5 7.5h-133v-190h133
q19 0 36.5 7.5t30.5 20.5t20.5 30t7.5 37zM513 225q0 19 -7.5 36.5t-20.5 30.5t-30.5 20.5t-36.5 7.5h-188v-190h188q19 0 36.5 7.5t30.5 20.5t20.5 30t7.5 37z" />
    <glyph glyph-name="c" unicode="c" horiz-adv-x="679" 
d="M426 122q51 0 98.5 19t84.5 54v-160q-42 -22 -88.5 -33.5t-94.5 -11.5q-82 0 -154 31t-126 84.5t-85 125.5t-31 154t31 154t85 125.5t126 84.5t154 31q48 0 94.5 -11.5t88.5 -33.5v-160q-37 35 -84.5 54t-98.5 19q-55 0 -103 -20.5t-84 -56.5t-56.5 -84t-20.5 -102
t20.5 -102t56.5 -84t84 -56.5t103 -20.5z" />
    <glyph glyph-name="d" unicode="d" horiz-adv-x="759" 
d="M709 385q0 -80 -30 -150t-82.5 -122.5t-122.5 -82.5t-150 -30h-224v770h224q80 0 150 -30t122.5 -82.5t82.5 -122.5t30 -150zM579 385q0 53 -20 99.5t-54.5 81t-81 54.5t-99.5 20h-94v-510h94q53 0 99.5 20t81 54.5t54.5 81t20 99.5z" />
    <glyph glyph-name="e" unicode="e" horiz-adv-x="660" 
d="M580 0h-480v770h480v-130h-350v-190h310v-130h-310v-190h350v-130z" />
    <glyph glyph-name="f" unicode="f" horiz-adv-x="590" 
d="M580 640h-350v-190h310v-130h-310v-320h-130v770h480v-130z" />
    <glyph glyph-name="g" unicode="g" horiz-adv-x="789" 
d="M704 108l-2 -6q-57 -54 -127.5 -83t-148.5 -29q-82 0 -154 31t-126 84.5t-85 125.5t-31 154t31 154t85 125.5t126 84.5t154 31q78 0 148.5 -29t127.5 -83l-93 -93q-37 35 -84.5 54t-98.5 19q-55 0 -103 -20.5t-84 -56.5t-56.5 -84t-20.5 -102t20.5 -102t56.5 -84
t84 -56.5t103 -20.5q42 0 82 12.5t75 38.5v147h-156v130h277v-342z" />
    <glyph glyph-name="h" unicode="h" horiz-adv-x="741" 
d="M641 0h-130v320h-281v-320h-130v770h130v-320h281v320h130v-770z" />
    <glyph glyph-name="i" unicode="i" horiz-adv-x="330" 
d="M230 0h-130v770h130v-770z" />
    <glyph glyph-name="j" unicode="j" horiz-adv-x="578" 
d="M498 189q0 -67 -32.5 -111t-81 -66t-105.5 -22t-105.5 22.5t-81 66.5t-32.5 110v105h130v-105q0 -24 13 -40t33 -24t43 -8t43 8t33 24t13 40v581h130v-581z" />
    <glyph glyph-name="k" unicode="k" horiz-adv-x="637" 
d="M637 0h-160l-247 327v-327h-130v770h130v-327l247 327h160l-300 -385z" />
    <glyph glyph-name="l" unicode="l" horiz-adv-x="585" 
d="M580 0h-480v770h130v-640h350v-130z" />
    <glyph glyph-name="m" unicode="m" horiz-adv-x="932" 
d="M832 0h-129v403l-237 -307l-236 307v-403h-130v800l366 -501l366 501v-800z" />
    <glyph glyph-name="n" unicode="n" horiz-adv-x="793" 
d="M693 -32l-463 502v-470h-130v800l463 -502v472h130v-802z" />
    <glyph glyph-name="o" unicode="o" horiz-adv-x="850" 
d="M820 385q0 -82 -31 -154t-84.5 -125.5t-125.5 -84.5t-154 -31t-154 31t-125.5 84.5t-84.5 125.5t-31 154t31 154t84.5 125.5t125.5 84.5t154 31t154 -31t125.5 -84.5t84.5 -125.5t31 -154zM688 385q0 54 -20.5 102t-56.5 84t-84 56.5t-102 20.5t-102 -20.5t-84 -56.5
t-56.5 -84t-20.5 -102t20.5 -102t56.5 -84t84 -56.5t102 -20.5t102 20.5t84 56.5t56.5 84t20.5 102z" />
    <glyph glyph-name="p" unicode="p" horiz-adv-x="638" 
d="M628 545q0 -47 -17.5 -87.5t-48.5 -71.5t-72 -48.5t-87 -17.5h-173v-320h-130v770h303q46 0 87 -17.5t72 -48.5t48.5 -72t17.5 -87zM498 545q0 19 -7.5 36.5t-20.5 30.5t-30.5 20.5t-36.5 7.5h-173v-190h173q19 0 36.5 7.5t30.5 20.5t20.5 30t7.5 37z" />
    <glyph glyph-name="q" unicode="q" horiz-adv-x="850" 
d="M486 -125h-122v121q-73 12 -134 47.5t-105.5 87.5t-69.5 117.5t-25 137.5q0 81 31 153t84.5 125.5t125.5 84.5t154 31t154 -31t125.5 -84.5t84.5 -125.5t31 -153q0 -72 -25 -137.5t-69.5 -117.5t-105.5 -87.5t-134 -47.5v-121zM425 649q-54 0 -102 -20.5t-84 -56.5
t-56.5 -84t-20.5 -102q0 -45 14.5 -86t41 -75t63.5 -58.5t83 -36.5v124h122v-124q46 12 83 36.5t63.5 58.5t41 75t14.5 86q0 54 -20.5 102t-56.5 84t-84 56.5t-102 20.5z" />
    <glyph glyph-name="r" unicode="r" horiz-adv-x="653" 
d="M633 0h-150l-160 320h-93v-320h-130v770h303q46 0 87 -17.5t72 -48.5t48.5 -72t17.5 -87q0 -38 -12 -73t-34 -63.5t-52.5 -49.5t-67.5 -31zM498 545q0 19 -7.5 36.5t-20.5 30.5t-30.5 20.5t-36.5 7.5h-173v-190h173q19 0 36.5 7.5t30.5 20.5t20.5 30t7.5 37z" />
    <glyph glyph-name="s" unicode="s" horiz-adv-x="599" 
d="M534 213q0 -53 -21 -94.5t-56 -70t-81 -43.5t-96 -15q-84 0 -144 47t-86 125l110 49q14 -39 37.5 -60.5t50.5 -29.5t55 -3.5t50.5 17.5t36.5 33.5t14 44.5q0 31 -23 52t-58 40t-75.5 38.5t-75.5 47.5t-58 67.5t-23 98.5q0 45 16.5 85t46 71t69 49t84.5 18q72 0 126 -36
t83 -102l-113 -52q-19 40 -51.5 54.5t-63.5 7.5t-54 -32t-23 -63q0 -30 24 -51t60 -39l77.5 -38t77.5 -48t60 -68.5t24 -99.5z" />
    <glyph glyph-name="t" unicode="t" horiz-adv-x="555" 
d="M540 640h-197v-640h-130v640h-198v130h525v-130z" />
    <glyph glyph-name="u" unicode="u" horiz-adv-x="758" 
d="M683 294q0 -63 -24 -118q-18 -42 -46.5 -76.5t-65 -59t-79.5 -37.5t-89 -13q-63 0 -118.5 24t-96.5 65t-65 96.5t-24 118.5v476h130v-476q0 -36 13.5 -67.5t37.5 -55.5t55.5 -37.5t67.5 -13.5t67.5 13.5t55.5 37.5t37.5 55.5t13.5 67.5v476h130v-476z" />
    <glyph glyph-name="v" unicode="v" horiz-adv-x="700" 
d="M700 770l-350 -800l-350 800h142l208 -476l208 476h142z" />
    <glyph glyph-name="w" unicode="w" horiz-adv-x="993" 
d="M993 770l-350 -800l-146 335l-147 -335l-350 800h142l208 -476l76 173l-133 303h142l62 -141l61 141h142l-132 -303l75 -173l208 476h142z" />
    <glyph glyph-name="x" unicode="x" horiz-adv-x="604" 
d="M604 0h-150l-152 257l-151 -257h-151l227 385l-227 385h151l151 -257l152 257h150l-226 -385z" />
    <glyph glyph-name="y" unicode="y" horiz-adv-x="604" 
d="M604 770l-237 -403v-367h-130v367l-237 403h151l151 -257l152 257h150z" />
    <glyph glyph-name="z" unicode="z" horiz-adv-x="624" 
d="M614 0h-604l377 640h-359v130h586l-377 -640h377v-130z" />
    <glyph glyph-name="bar" unicode="|" horiz-adv-x="310" 
d="M210 -227h-110v997h110v-997z" />
    <glyph glyph-name="asciitilde" unicode="~" horiz-adv-x="760" 
d="M587 447q-11 -24 -24.5 -50t-31.5 -48t-41 -36t-54 -14q-24 0 -48 10t-44.5 22.5l-36.5 22.5t-26 10q-5 0 -11 -10t-12 -23t-11 -25.5t-7 -16.5l-111 47q11 22 25.5 47.5t33 47.5t41.5 36.5t52 14.5q24 0 48 -10t44.5 -22.5l36.5 -22.5t26 -10q4 0 10.5 10t12.5 23t11 25
t7 16z" />
    <glyph glyph-name="uni007F" 
 />
    <glyph glyph-name="quotesinglbase" unicode="&#x201a;" horiz-adv-x="353" 
d="M253 101l-50 -297h-103v297h153z" />
    <glyph glyph-name="quotedblbase" unicode="&#x201e;" horiz-adv-x="548" 
d="M253 101l-50 -297h-103v297h153zM473 101l-50 -297h-103v297h153z" />
    <glyph glyph-name="ellipsis" unicode="&#x2026;" horiz-adv-x="894" 
d="M263 86q0 -40 -27.5 -68t-69.5 -28q-40 0 -68 28t-28 68q0 20 7.5 37.5t20.5 31t30.5 21t37.5 7.5t38 -7.5t31 -21t20.5 -31t7.5 -37.5zM543 86q0 -40 -27.5 -68t-69.5 -28q-40 0 -68 28t-28 68q0 20 7.5 37.5t20.5 31t30.5 21t37.5 7.5t38 -7.5t31 -21t20.5 -31
t7.5 -37.5zM823 86q0 -40 -27.5 -68t-69.5 -28q-40 0 -68 28t-28 68q0 20 7.5 37.5t20.5 31t30.5 21t37.5 7.5t38 -7.5t31 -21t20.5 -31t7.5 -37.5z" />
    <glyph glyph-name="circumflex" unicode="&#x2c6;" horiz-adv-x="0" 
d="M152 830h-104l-68 82l-68 -82h-104l110 197h124z" />
    <glyph glyph-name="Scaron" unicode="&#x160;" horiz-adv-x="599" 
d="M534 213q0 -53 -21 -94.5t-56 -70t-81 -43.5t-96 -15q-84 0 -144 47t-86 125l110 49q14 -39 37.5 -60.5t50.5 -29.5t55 -3.5t50.5 17.5t36.5 33.5t14 44.5q0 31 -23 52t-58 40t-75.5 38.5t-75.5 47.5t-58 67.5t-23 98.5q0 45 16.5 85t46 71t69 49t84.5 18q72 0 126 -36
t83 -102l-113 -52q-19 40 -51.5 54.5t-63.5 7.5t-54 -32t-23 -63q0 -30 24 -51t60 -39l77.5 -38t77.5 -48t60 -68.5t24 -99.5zM476 1027l-110 -197h-123l-110 197h103l69 -82l68 82h103z" />
    <glyph glyph-name="OE" unicode="&#x152;" horiz-adv-x="1251" 
d="M688 385q0 54 -20.5 102t-56.5 84t-84 56.5t-102 20.5t-102 -20.5t-84 -56.5t-56.5 -84t-20.5 -102t20.5 -102t56.5 -84t84 -56.5t102 -20.5t102 20.5t84 56.5t56.5 84t20.5 102zM1171 0h-480v93q-54 -48 -121 -75.5t-145 -27.5q-82 0 -154 31t-125.5 84.5t-84.5 125.5
t-31 154t31 154t84.5 125.5t125.5 84.5t154 31q78 0 145 -27.5t121 -75.5v93h480v-130h-350v-190h310v-130h-310v-190h350v-130z" />
    <glyph glyph-name="quoteleft" unicode="&#x2018;" horiz-adv-x="253" 
d="M50 770h153v-297h-113z" />
    <glyph glyph-name="quoteright" unicode="&#x2019;" horiz-adv-x="253" 
d="M203 770l-40 -297h-113v297h153z" />
    <glyph glyph-name="quotedblleft" unicode="&#x201c;" horiz-adv-x="473" 
d="M50 770h153v-297h-113zM270 770h153v-297h-113z" />
    <glyph glyph-name="quotedblright" unicode="&#x201d;" horiz-adv-x="473" 
d="M423 770l-40 -297h-113v297h153zM203 770l-40 -297h-113v297h153z" />
    <glyph glyph-name="bullet" unicode="&#x2022;" horiz-adv-x="334" 
d="M264 384q0 -21 -7.5 -38.5t-21 -30.5t-31 -20.5t-37.5 -7.5q-42 0 -69.5 27.5t-27.5 69.5q0 19 7.5 37t20.5 31t30.5 21t38.5 8q20 0 37.5 -7.5t31 -21t21 -31t7.5 -37.5z" />
    <glyph glyph-name="endash" unicode="&#x2013;" horiz-adv-x="688" 
d="M608 320h-538v130h538v-130z" />
    <glyph glyph-name="emdash" unicode="&#x2014;" horiz-adv-x="887" 
d="M817 320h-747v130h747v-130z" />
    <glyph glyph-name="tilde" unicode="&#x2dc;" horiz-adv-x="760" 
d="M587 968q-11 -24 -24.5 -50t-31.5 -47.5t-41.5 -36t-53.5 -14.5q-24 0 -48 10t-44.5 22.5l-36.5 22.5t-26 10q-5 0 -11 -10t-12 -23t-11 -25.5t-7 -16.5l-111 47q11 22 25.5 47.5t33 47.5t41.5 36.5t52 14.5q24 0 48 -10t44.5 -22.5l36.5 -22.5t26 -10q4 0 10.5 10
t12.5 23t11 25l7 17z" />
    <glyph glyph-name="trademark" unicode="&#x2122;" 
 />
    <glyph glyph-name="scaron" unicode="&#x161;" horiz-adv-x="599" 
d="M534 213q0 -53 -21 -94.5t-56 -70t-81 -43.5t-96 -15q-84 0 -144 47t-86 125l110 49q14 -39 37.5 -60.5t50.5 -29.5t55 -3.5t50.5 17.5t36.5 33.5t14 44.5q0 31 -23 52t-58 40t-75.5 38.5t-75.5 47.5t-58 67.5t-23 98.5q0 45 16.5 85t46 71t69 49t84.5 18q72 0 126 -36
t83 -102l-113 -52q-19 40 -51.5 54.5t-63.5 7.5t-54 -32t-23 -63q0 -30 24 -51t60 -39l77.5 -38t77.5 -48t60 -68.5t24 -99.5zM476 1027l-110 -197h-123l-110 197h103l69 -82l68 82h103z" />
    <glyph glyph-name="oe" unicode="&#x153;" horiz-adv-x="1251" 
d="M688 385q0 54 -20.5 102t-56.5 84t-84 56.5t-102 20.5t-102 -20.5t-84 -56.5t-56.5 -84t-20.5 -102t20.5 -102t56.5 -84t84 -56.5t102 -20.5t102 20.5t84 56.5t56.5 84t20.5 102zM1171 0h-480v93q-54 -48 -121 -75.5t-145 -27.5q-82 0 -154 31t-125.5 84.5t-84.5 125.5
t-31 154t31 154t84.5 125.5t125.5 84.5t154 31q78 0 145 -27.5t121 -75.5v93h480v-130h-350v-190h310v-130h-310v-190h350v-130z" />
    <glyph glyph-name="Ydieresis" unicode="&#x178;" horiz-adv-x="604" 
d="M604 770l-237 -403v-367h-130v367l-237 403h151l151 -257l152 257h150zM269 947q0 -20 -7.5 -38t-21 -31t-31 -20.5t-37.5 -7.5q-40 0 -68 27.5t-28 69.5q0 40 28 68t68 28q20 0 37.5 -7.5t31 -20.5t21 -30.5t7.5 -37.5zM529 947q0 -20 -7.5 -38t-21 -31t-31 -20.5
t-37.5 -7.5q-40 0 -68 27.5t-28 69.5q0 40 28 68t68 28q20 0 37.5 -7.5t31 -20.5t21 -30.5t7.5 -37.5z" />
    <glyph glyph-name="uni00A0" unicode="&#xa0;" 
 />
    <glyph glyph-name="brokenbar" unicode="&#xa6;" 
 />
    <glyph glyph-name="dieresis" unicode="&#xa8;" horiz-adv-x="0" 
d="M-34 947q0 -42 -27.5 -69.5t-69.5 -27.5q-40 0 -68 27.5t-28 69.5q0 40 28 68t68 28q42 0 69.5 -28t27.5 -68zM226 947q0 -42 -27.5 -69.5t-69.5 -27.5q-40 0 -68 27.5t-28 69.5q0 40 28 68t68 28q42 0 69.5 -28t27.5 -68z" />
    <glyph glyph-name="copyright" unicode="&#xa9;" horiz-adv-x="916" 
d="M836 378q0 -78 -29.5 -147t-81 -120.5t-120.5 -81t-147 -29.5t-147 29.5t-120.5 81t-81 120.5t-29.5 147t29.5 147t81 120.5t120.5 81t147 29.5t147 -29.5t120.5 -81t81 -120.5t29.5 -147zM801 378q0 71 -27 133.5t-73.5 109t-109 73.5t-133.5 27t-133.5 -27t-109 -73.5
t-73.5 -109t-27 -133.5t27 -133.5t73.5 -109t109 -73.5t133.5 -27t133.5 27t109 73.5t73.5 109t27 133.5zM667 235q-12 -12 -24 0l-132 131q-12 12 0 24l132 131q3 4 5.5 4.5t7.5 0.5h2q3 -1 4 -1.5t2 -0.5l3 -3q12 -12 0 -24l-119 -119l119 -119q12 -12 0 -24zM475 247
q0 -17 -17 -17t-17 17v262q0 18 17 18t17 -18v-262zM410 378q0 -17 -18 -17h-65q-17 0 -17 17t17 17h65q18 0 18 -17zM279 247q0 -17 -18 -17q-7 0 -12 4.5t-5 12.5v262q0 8 5 13t12 5q18 0 18 -18v-262z" />
    <glyph glyph-name="registered" unicode="&#xae;" horiz-adv-x="916" 
d="M731 507q0 -57 -21.5 -106.5t-58.5 -86.5t-86.5 -58.5t-106.5 -21.5t-106.5 21.5t-86.5 58.5t-58.5 86.5t-21.5 106.5t21.5 106.5t58.5 86.5t86.5 58.5t106.5 21.5t106.5 -21.5t86.5 -58.5t58.5 -86.5t21.5 -106.5zM682 507q0 46 -17.5 87t-48 71.5t-71.5 48t-87 17.5
q-47 0 -87.5 -17.5t-71 -48t-48 -71.5t-17.5 -87q0 -47 17.5 -87.5t48 -71t71 -48t87.5 -17.5q46 0 87 17.5t71.5 48t48 71t17.5 87.5zM570 362h-56l-59 118h-34v-118h-48v285h112q35 0 59 -24.5t24 -59.5q0 -28 -17 -50t-44 -30zM520 563q0 15 -10.5 25.5t-24.5 10.5h-64
v-71h64q14 0 24.5 10.5t10.5 24.5z" />
    <glyph glyph-name="macron" unicode="&#xaf;" 
 />
    <glyph glyph-name="uni00B2" unicode="&#xb2;" 
 />
    <glyph glyph-name="uni00B3" unicode="&#xb3;" 
 />
    <glyph glyph-name="acute" unicode="&#xb4;" horiz-adv-x="0" 
d="M-141 830l130 197l133 -80l-130 -117h-133z" />
    <glyph glyph-name="paragraph" unicode="&#xb6;" 
 />
    <glyph glyph-name="cedilla" unicode="&#xb8;" horiz-adv-x="794" 
d="M120 -119q0 -36 -24.5 -60.5t-59.5 -24.5q-17 0 -33 8t-37 28l40 41q13 -14 19 -17t11 -3q11 0 19 8t8 20q0 11 -8 19.5t-19 8.5q-5 0 -11 -3.5t-19 -16.5l-38 38l30 73h59l-30 -34h9q35 0 59.5 -24.5t24.5 -60.5z" />
    <glyph glyph-name="uni00B9" unicode="&#xb9;" 
 />
    <glyph glyph-name="ordmasculine" unicode="&#xba;" horiz-adv-x="511" 
d="M255 364q-44 0 -82 16.5t-66.5 45t-45 66.5t-16.5 82t16.5 82.5t45 67t66.5 45t82 16.5t82.5 -16.5t67 -45t45 -67t16.5 -82.5t-16.5 -82t-45 -66.5t-67 -45t-82.5 -16.5zM255 678q-21 0 -39.5 -8t-33 -22.5t-22.5 -33.5t-8 -40t8 -40t22.5 -33t33 -22t39.5 -8t40 8
t33.5 22t22.5 33t8 40t-8 40t-22.5 33.5t-33.5 22.5t-40 8z" />
    <glyph glyph-name="onequarter" unicode="&#xbc;" 
 />
    <glyph glyph-name="onehalf" unicode="&#xbd;" 
 />
    <glyph glyph-name="threequarters" unicode="&#xbe;" 
 />
    <glyph glyph-name="Agrave" unicode="&#xc0;" horiz-adv-x="700" 
d="M700 0h-142l-57 130h-302l-57 -130h-142l350 800zM444 260l-94 216l-94 -216h188zM422 830h-134l-130 117l134 80z" />
    <glyph glyph-name="Aacute" unicode="&#xc1;" horiz-adv-x="700" 
d="M700 0h-142l-57 130h-302l-57 -130h-142l350 800zM444 260l-94 216l-94 -216h188zM274 830l130 197l133 -80l-130 -117h-133z" />
    <glyph glyph-name="Acircumflex" unicode="&#xc2;" horiz-adv-x="700" 
d="M700 0h-142l-57 130h-302l-57 -130h-142l350 800zM444 260l-94 216l-94 -216h188zM522 830h-104l-68 82l-68 -82h-104l110 197h124z" />
    <glyph glyph-name="Atilde" unicode="&#xc3;" horiz-adv-x="700" 
d="M700 0h-142l-57 130h-302l-57 -130h-142l350 800zM444 260l-94 216l-94 -216h188zM559 968q-11 -24 -24.5 -50t-31.5 -47.5t-41.5 -36t-53.5 -14.5q-24 0 -48 10t-44.5 22.5l-36.5 22.5t-26 10q-5 0 -11 -10t-12 -23t-11 -25.5t-7 -16.5l-111 47q11 22 25.5 47.5t33 47.5
t41.5 36.5t52 14.5q24 0 48 -10t44.5 -22.5l36.5 -22.5t26 -10q4 0 10.5 10t12.5 23t11 25l7 17z" />
    <glyph glyph-name="Adieresis" unicode="&#xc4;" horiz-adv-x="700" 
d="M700 0h-142l-57 130h-302l-57 -130h-142l350 800zM444 260l-94 216l-94 -216h188zM316 947q0 -42 -28 -69.5t-68 -27.5t-68 27.5t-28 69.5q0 40 28 68t68 28t68 -28t28 -68zM576 947q0 -42 -28 -69.5t-68 -27.5t-68 27.5t-28 69.5q0 40 28 68t68 28t68 -28t28 -68z" />
    <glyph glyph-name="Aring" unicode="&#xc5;" horiz-adv-x="700" 
d="M444 260l-94 216l-94 -216h188zM508 878q0 -29 -9.5 -54.5t-26 -45.5t-39 -34.5t-49.5 -20.5l316 -723h-142l-57 130h-302l-57 -130h-142l317 723q-27 6 -50 20t-39.5 34.5t-26 46t-9.5 54.5q0 33 12.5 61.5t34 50t50 34t61.5 12.5t61.5 -12.5t50 -34t34 -50t12.5 -61.5z
M406 878q0 23 -16.5 39.5t-39.5 16.5t-39.5 -16.5t-16.5 -39.5t16.5 -39.5t39.5 -16.5t39.5 16.5t16.5 39.5z" />
    <glyph glyph-name="AE" unicode="&#xc6;" 
 />
    <glyph glyph-name="Ccedilla" unicode="&#xc7;" horiz-adv-x="679" 
d="M491 -119q0 -36 -24.5 -60.5t-58.5 -24.5q-17 0 -33.5 8t-36.5 28l39 41q14 -14 20 -17t11 -3q11 0 19 8t8 20q0 11 -8 19.5t-19 8.5q-5 0 -11 -3.5t-20 -16.5l-37 38l27 67q-71 11 -132.5 45.5t-107 86.5t-71.5 118.5t-26 140.5q0 82 31 154t85 125.5t126 84.5t154 31
q48 0 94.5 -11.5t88.5 -33.5v-160q-37 35 -84.5 54t-98.5 19q-55 0 -103 -20.5t-84 -56.5t-56.5 -84t-20.5 -102t20.5 -102t56.5 -84t84 -56.5t103 -20.5q51 0 98.5 19t84.5 54v-160q-42 -22 -88.5 -33.5t-94.5 -11.5h-6l-21 -24h9q34 0 58.5 -24.5t24.5 -60.5z" />
    <glyph glyph-name="Egrave" unicode="&#xc8;" horiz-adv-x="660" 
d="M580 0h-480v770h480v-130h-350v-190h310v-130h-310v-190h350v-130zM467 830h-134l-130 117l134 80z" />
    <glyph glyph-name="Eacute" unicode="&#xc9;" horiz-adv-x="660" 
d="M580 0h-480v770h480v-130h-350v-190h310v-130h-310v-190h350v-130zM233 830l130 197l134 -80l-130 -117h-134z" />
    <glyph glyph-name="Ecircumflex" unicode="&#xca;" horiz-adv-x="660" 
d="M580 0h-480v770h480v-130h-350v-190h310v-130h-310v-190h350v-130zM517 830h-104l-68 82l-68 -82h-104l110 197h124z" />
    <glyph glyph-name="Edieresis" unicode="&#xcb;" horiz-adv-x="660" 
d="M580 0h-480v770h480v-130h-350v-190h310v-130h-310v-190h350v-130zM305 947q0 -42 -28 -69.5t-68 -27.5t-68 27.5t-28 69.5q0 40 28 68t68 28t68 -28t28 -68zM565 947q0 -42 -28 -69.5t-68 -27.5t-68 27.5t-28 69.5q0 40 28 68t68 28t68 -28t28 -68z" />
    <glyph glyph-name="Igrave" unicode="&#xcc;" horiz-adv-x="330" 
d="M230 0h-130v770h130v-770zM230 830h-134l-130 117l134 80z" />
    <glyph glyph-name="Iacute" unicode="&#xcd;" horiz-adv-x="330" 
d="M230 0h-130v770h130v-770zM103 830l130 197l133 -80l-130 -117h-133z" />
    <glyph glyph-name="Icircumflex" unicode="&#xce;" horiz-adv-x="330" 
d="M230 0h-130v770h130v-770zM337 830h-104l-68 82l-68 -82h-104l110 197h124z" />
    <glyph glyph-name="Idieresis" unicode="&#xcf;" horiz-adv-x="330" 
d="M230 0h-130v770h130v-770zM131 947q0 -42 -28 -69.5t-68 -27.5t-68 27.5t-28 69.5q0 40 28 68t68 28t68 -28t28 -68zM391 947q0 -42 -28 -69.5t-68 -27.5t-68 27.5t-28 69.5q0 40 28 68t68 28t68 -28t28 -68z" />
    <glyph glyph-name="Eth" unicode="&#xd0;" horiz-adv-x="739" 
d="M100 328h-90v114h90v328h224q80 0 150 -30t122.5 -82.5t82.5 -122.5t30 -150t-30 -150t-82.5 -122.5t-122.5 -82.5t-150 -30h-224v328zM418 328h-188v-198h94q53 0 99.5 20t81 54.5t54.5 81t20 99.5t-20 99.5t-54.5 81t-81 54.5t-99.5 20h-94v-198h188v-114z" />
    <glyph glyph-name="Ntilde" unicode="&#xd1;" horiz-adv-x="793" 
d="M693 -32l-463 502v-470h-130v800l463 -502v472h130v-802zM625 968q-11 -24 -24.5 -50t-31 -47.5t-41 -36t-53.5 -14.5q-25 0 -48.5 10t-44 22.5l-37 22.5t-26.5 10q-4 0 -10 -10t-12 -23t-11 -25.5t-7 -16.5l-111 47q11 22 25.5 47.5t33 47.5t41.5 36.5t51 14.5
q24 0 48 -10t44.5 -22.5l37 -22.5t26.5 -10q4 0 10 10t12 23t11 25l7 17z" />
    <glyph glyph-name="Ograve" unicode="&#xd2;" horiz-adv-x="850" 
d="M820 385q0 -82 -31 -154t-84.5 -125.5t-125.5 -84.5t-154 -31t-154 31t-125.5 84.5t-84.5 125.5t-31 154t31 154t84.5 125.5t125.5 84.5t154 31t154 -31t125.5 -84.5t84.5 -125.5t31 -154zM688 385q0 54 -20.5 102t-56.5 84t-84 56.5t-102 20.5t-102 -20.5t-84 -56.5
t-56.5 -84t-20.5 -102t20.5 -102t56.5 -84t84 -56.5t102 -20.5t102 20.5t84 56.5t56.5 84t20.5 102zM507 830h-134l-130 117l134 80z" />
    <glyph glyph-name="Oacute" unicode="&#xd3;" horiz-adv-x="850" 
d="M820 385q0 -82 -31 -154t-84.5 -125.5t-125.5 -84.5t-154 -31t-154 31t-125.5 84.5t-84.5 125.5t-31 154t31 154t84.5 125.5t125.5 84.5t154 31t154 -31t125.5 -84.5t84.5 -125.5t31 -154zM688 385q0 54 -20.5 102t-56.5 84t-84 56.5t-102 20.5t-102 -20.5t-84 -56.5
t-56.5 -84t-20.5 -102t20.5 -102t56.5 -84t84 -56.5t102 -20.5t102 20.5t84 56.5t56.5 84t20.5 102zM334 830l130 197l133 -80l-130 -117h-133z" />
    <glyph glyph-name="Ocircumflex" unicode="&#xd4;" horiz-adv-x="850" 
d="M820 385q0 -82 -31 -154t-84.5 -125.5t-125.5 -84.5t-154 -31t-154 31t-125.5 84.5t-84.5 125.5t-31 154t31 154t84.5 125.5t125.5 84.5t154 31t154 -31t125.5 -84.5t84.5 -125.5t31 -154zM688 385q0 54 -20.5 102t-56.5 84t-84 56.5t-102 20.5t-102 -20.5t-84 -56.5
t-56.5 -84t-20.5 -102t20.5 -102t56.5 -84t84 -56.5t102 -20.5t102 20.5t84 56.5t56.5 84t20.5 102zM597 830h-104l-68 82l-68 -82h-104l110 197h124z" />
    <glyph glyph-name="Otilde" unicode="&#xd5;" horiz-adv-x="850" 
d="M820 385q0 -82 -31 -154t-84.5 -125.5t-125.5 -84.5t-154 -31t-154 31t-125.5 84.5t-84.5 125.5t-31 154t31 154t84.5 125.5t125.5 84.5t154 31t154 -31t125.5 -84.5t84.5 -125.5t31 -154zM688 385q0 54 -20.5 102t-56.5 84t-84 56.5t-102 20.5t-102 -20.5t-84 -56.5
t-56.5 -84t-20.5 -102t20.5 -102t56.5 -84t84 -56.5t102 -20.5t102 20.5t84 56.5t56.5 84t20.5 102zM654 968q-11 -24 -24.5 -50t-31.5 -47.5t-41.5 -36t-53.5 -14.5q-24 0 -48 10t-44.5 22.5l-36.5 22.5t-26 10q-5 0 -11 -10t-12 -23t-11 -25.5t-7 -16.5l-111 47
q11 22 25.5 47.5t33 47.5t41.5 36.5t52 14.5q24 0 48 -10t44.5 -22.5l36.5 -22.5t26 -10q4 0 10.5 10t12.5 23t11 25l7 17z" />
    <glyph glyph-name="Odieresis" unicode="&#xd6;" horiz-adv-x="850" 
d="M820 385q0 -82 -31 -154t-84.5 -125.5t-125.5 -84.5t-154 -31t-154 31t-125.5 84.5t-84.5 125.5t-31 154t31 154t84.5 125.5t125.5 84.5t154 31t154 -31t125.5 -84.5t84.5 -125.5t31 -154zM688 385q0 54 -20.5 102t-56.5 84t-84 56.5t-102 20.5t-102 -20.5t-84 -56.5
t-56.5 -84t-20.5 -102t20.5 -102t56.5 -84t84 -56.5t102 -20.5t102 20.5t84 56.5t56.5 84t20.5 102zM391 947q0 -42 -28 -69.5t-68 -27.5t-68 27.5t-28 69.5q0 40 28 68t68 28t68 -28t28 -68zM651 947q0 -42 -28 -69.5t-68 -27.5t-68 27.5t-28 69.5q0 40 28 68t68 28t68 -28
t28 -68z" />
    <glyph glyph-name="multiply" unicode="&#xd7;" horiz-adv-x="614" 
d="M539 538l-150 -151l141 -141l-83 -82l-141 141l-150 -151l-81 81l151 150l-141 142l82 82l141 -141l151 151z" />
    <glyph glyph-name="Oslash" unicode="&#xd8;" horiz-adv-x="850" 
d="M820 385q0 -82 -31 -154t-84.5 -125.5t-125.5 -84.5t-154 -31q-60 0 -115 17t-103 48l-45 -45l-92 92l42 42q-38 51 -60 111.5t-22 129.5q0 82 31 154t84.5 125.5t125.5 84.5t154 31q69 0 129.5 -22t111.5 -60l62 62l92 -92l-65 -65q31 -48 48 -103t17 -115zM572 604
q-32 21 -68.5 32.5t-78.5 11.5q-54 0 -102 -20.5t-84 -56.5t-56.5 -84t-20.5 -102q0 -42 11.5 -78.5t32.5 -68.5zM688 385q0 66 -29 122l-356 -356q56 -29 122 -29q54 0 102 20.5t84 56.5t56.5 84t20.5 102z" />
    <glyph glyph-name="Ugrave" unicode="&#xd9;" horiz-adv-x="758" 
d="M683 294q0 -63 -24 -118q-18 -42 -46.5 -76.5t-65 -59t-79.5 -37.5t-89 -13q-63 0 -118.5 24t-96.5 65t-65 96.5t-24 118.5v476h130v-476q0 -36 13.5 -67.5t37.5 -55.5t55.5 -37.5t67.5 -13.5t67.5 13.5t55.5 37.5t37.5 55.5t13.5 67.5v476h130v-476zM461 830h-134
l-130 117l134 80z" />
    <glyph glyph-name="Uacute" unicode="&#xda;" horiz-adv-x="758" 
d="M683 294q0 -63 -24 -118q-18 -42 -46.5 -76.5t-65 -59t-79.5 -37.5t-89 -13q-63 0 -118.5 24t-96.5 65t-65 96.5t-24 118.5v476h130v-476q0 -36 13.5 -67.5t37.5 -55.5t55.5 -37.5t67.5 -13.5t67.5 13.5t55.5 37.5t37.5 55.5t13.5 67.5v476h130v-476zM297 830l130 197
l134 -80l-130 -117h-134z" />
    <glyph glyph-name="Ucircumflex" unicode="&#xdb;" horiz-adv-x="758" 
d="M683 294q0 -63 -24 -118q-18 -42 -46.5 -76.5t-65 -59t-79.5 -37.5t-89 -13q-63 0 -118.5 24t-96.5 65t-65 96.5t-24 118.5v476h130v-476q0 -36 13.5 -67.5t37.5 -55.5t55.5 -37.5t67.5 -13.5t67.5 13.5t55.5 37.5t37.5 55.5t13.5 67.5v476h130v-476zM551 830h-104
l-68 82l-68 -82h-104l110 197h124z" />
    <glyph glyph-name="Udieresis" unicode="&#xdc;" horiz-adv-x="758" 
d="M683 294q0 -63 -24 -118q-18 -42 -46.5 -76.5t-65 -59t-79.5 -37.5t-89 -13q-63 0 -118.5 24t-96.5 65t-65 96.5t-24 118.5v476h130v-476q0 -36 13.5 -67.5t37.5 -55.5t55.5 -37.5t67.5 -13.5t67.5 13.5t55.5 37.5t37.5 55.5t13.5 67.5v476h130v-476zM345 947
q0 -42 -28 -69.5t-68 -27.5q-20 0 -37.5 7.5t-31 20.5t-21 31t-7.5 38t7.5 37.5t21 30.5t31 20.5t37.5 7.5q40 0 68 -28t28 -68zM605 947q0 -42 -28 -69.5t-68 -27.5q-20 0 -37.5 7.5t-31 20.5t-21 31t-7.5 38t7.5 37.5t21 30.5t31 20.5t37.5 7.5q40 0 68 -28t28 -68z" />
    <glyph glyph-name="Yacute" unicode="&#xdd;" horiz-adv-x="604" 
d="M604 770l-237 -403v-367h-130v367l-237 403h151l151 -257l152 257h150zM231 830l130 197l133 -80l-130 -117h-133z" />
    <glyph glyph-name="Thorn" unicode="&#xde;" 
 />
    <glyph glyph-name="germandbls" unicode="&#xdf;" horiz-adv-x="589" 
d="M559 261q0 -58 -15.5 -107.5t-45.5 -86t-74.5 -57t-101.5 -20.5v128q32 0 52.5 12t32 32t16 45.5t4.5 53.5q0 57 -24 96t-81 50v116q28 6 40.5 25t12.5 47q0 29 -20.5 51t-50.5 22t-51 -22t-21 -51v-596h-132v596q0 46 15.5 80.5t43 57.5t64.5 35t81 12q38 0 73 -14.5
t61.5 -39t42.5 -58.5t16 -73q0 -34 -16.5 -64.5t-40.5 -53.5q58 -34 88.5 -91.5t30.5 -124.5z" />
    <glyph glyph-name="agrave" unicode="&#xe0;" horiz-adv-x="700" 
d="M700 0h-142l-57 130h-302l-57 -130h-142l350 800zM444 260l-94 216l-94 -216h188zM412 830h-134l-130 117l134 80z" />
    <glyph glyph-name="aacute" unicode="&#xe1;" horiz-adv-x="700" 
d="M700 0h-142l-57 130h-302l-57 -130h-142l350 800zM444 260l-94 216l-94 -216h188zM274 830l130 197l133 -80l-130 -117h-133z" />
    <glyph glyph-name="acircumflex" unicode="&#xe2;" horiz-adv-x="700" 
d="M700 0h-142l-57 130h-302l-57 -130h-142l350 800zM444 260l-94 216l-94 -216h188zM522 830h-104l-68 82l-68 -82h-104l110 197h124z" />
    <glyph glyph-name="atilde" unicode="&#xe3;" horiz-adv-x="700" 
d="M700 0h-142l-57 130h-302l-57 -130h-142l350 800zM444 260l-94 216l-94 -216h188zM579 968q-11 -24 -24.5 -50t-31.5 -47.5t-41.5 -36t-53.5 -14.5q-24 0 -48 10t-44.5 22.5l-36.5 22.5t-26 10q-5 0 -11 -10t-12 -23t-11 -25.5t-7 -16.5l-111 47q11 22 25.5 47.5t33 47.5
t41.5 36.5t52 14.5q24 0 48 -10t44.5 -22.5l36.5 -22.5t26 -10q4 0 10.5 10t12.5 23t11 25l7 17z" />
    <glyph glyph-name="adieresis" unicode="&#xe4;" horiz-adv-x="700" 
d="M700 0h-142l-57 130h-302l-57 -130h-142l350 800zM444 260l-94 216l-94 -216h188zM316 947q0 -42 -28 -69.5t-68 -27.5t-68 27.5t-28 69.5q0 40 28 68t68 28t68 -28t28 -68zM576 947q0 -42 -28 -69.5t-68 -27.5t-68 27.5t-28 69.5q0 40 28 68t68 28t68 -28t28 -68z" />
    <glyph glyph-name="aring" unicode="&#xe5;" horiz-adv-x="700" 
d="M444 260l-94 216l-94 -216h188zM508 878q0 -29 -9.5 -54.5t-26 -45.5t-39 -34.5t-49.5 -20.5l316 -723h-142l-57 130h-302l-57 -130h-142l317 723q-27 6 -50 20t-39.5 34.5t-26 46t-9.5 54.5q0 33 12.5 61.5t34 50t50 34t61.5 12.5t61.5 -12.5t50 -34t34 -50t12.5 -61.5z
M406 878q0 23 -16.5 39.5t-39.5 16.5t-39.5 -16.5t-16.5 -39.5t16.5 -39.5t39.5 -16.5t39.5 16.5t16.5 39.5z" />
    <glyph glyph-name="ccedilla" unicode="&#xe7;" horiz-adv-x="679" 
d="M491 -119q0 -36 -24.5 -60.5t-58.5 -24.5q-17 0 -33.5 8t-36.5 28l39 41q14 -14 20 -17t11 -3q11 0 19 8t8 20q0 11 -8 19.5t-19 8.5q-5 0 -11 -3.5t-20 -16.5l-37 38l27 67q-71 11 -132.5 45.5t-107 86.5t-71.5 118.5t-26 140.5q0 82 31 154t85 125.5t126 84.5t154 31
q48 0 94.5 -11.5t88.5 -33.5v-160q-37 35 -84.5 54t-98.5 19q-55 0 -103 -20.5t-84 -56.5t-56.5 -84t-20.5 -102t20.5 -102t56.5 -84t84 -56.5t103 -20.5q51 0 98.5 19t84.5 54v-160q-42 -22 -88.5 -33.5t-94.5 -11.5h-6l-21 -24h9q34 0 58.5 -24.5t24.5 -60.5z" />
    <glyph glyph-name="egrave" unicode="&#xe8;" horiz-adv-x="660" 
d="M580 0h-480v770h480v-130h-350v-190h310v-130h-310v-190h350v-130zM467 830h-134l-130 117l134 80z" />
    <glyph glyph-name="eacute" unicode="&#xe9;" horiz-adv-x="660" 
d="M580 0h-480v770h480v-130h-350v-190h310v-130h-310v-190h350v-130zM233 830l130 197l134 -80l-130 -117h-134z" />
    <glyph glyph-name="ecircumflex" unicode="&#xea;" horiz-adv-x="660" 
d="M580 0h-480v770h480v-130h-350v-190h310v-130h-310v-190h350v-130zM517 830h-104l-68 82l-68 -82h-104l110 197h124z" />
    <glyph glyph-name="edieresis" unicode="&#xeb;" horiz-adv-x="660" 
d="M580 0h-480v770h480v-130h-350v-190h310v-130h-310v-190h350v-130zM305 947q0 -42 -28 -69.5t-68 -27.5t-68 27.5t-28 69.5q0 40 28 68t68 28t68 -28t28 -68zM565 947q0 -42 -28 -69.5t-68 -27.5t-68 27.5t-28 69.5q0 40 28 68t68 28t68 -28t28 -68z" />
    <glyph glyph-name="igrave" unicode="&#xec;" horiz-adv-x="330" 
d="M230 0h-130v770h130v-770zM230 830h-134l-130 117l134 80z" />
    <glyph glyph-name="iacute" unicode="&#xed;" horiz-adv-x="330" 
d="M230 0h-130v770h130v-770zM103 830l130 197l133 -80l-130 -117h-133z" />
    <glyph glyph-name="icircumflex" unicode="&#xee;" horiz-adv-x="330" 
d="M230 0h-130v770h130v-770zM337 830h-104l-68 82l-68 -82h-104l110 197h124z" />
    <glyph glyph-name="idieresis" unicode="&#xef;" horiz-adv-x="330" 
d="M230 0h-130v770h130v-770zM131 947q0 -42 -28 -69.5t-68 -27.5t-68 27.5t-28 69.5q0 40 28 68t68 28t68 -28t28 -68zM391 947q0 -42 -28 -69.5t-68 -27.5t-68 27.5t-28 69.5q0 40 28 68t68 28t68 -28t28 -68z" />
    <glyph glyph-name="eth" unicode="&#xf0;" 
 />
    <glyph glyph-name="ntilde" unicode="&#xf1;" horiz-adv-x="793" 
d="M693 -32l-463 502v-470h-130v800l463 -502v472h130v-802zM625 968q-11 -24 -24.5 -50t-31 -47.5t-41 -36t-53.5 -14.5q-25 0 -48.5 10t-44 22.5l-37 22.5t-26.5 10q-4 0 -10 -10t-12 -23t-11 -25.5t-7 -16.5l-111 47q11 22 25.5 47.5t33 47.5t41.5 36.5t51 14.5
q24 0 48 -10t44.5 -22.5l37 -22.5t26.5 -10q4 0 10 10t12 23t11 25l7 17z" />
    <glyph glyph-name="ograve" unicode="&#xf2;" horiz-adv-x="850" 
d="M820 385q0 -82 -31 -154t-84.5 -125.5t-125.5 -84.5t-154 -31t-154 31t-125.5 84.5t-84.5 125.5t-31 154t31 154t84.5 125.5t125.5 84.5t154 31t154 -31t125.5 -84.5t84.5 -125.5t31 -154zM688 385q0 54 -20.5 102t-56.5 84t-84 56.5t-102 20.5t-102 -20.5t-84 -56.5
t-56.5 -84t-20.5 -102t20.5 -102t56.5 -84t84 -56.5t102 -20.5t102 20.5t84 56.5t56.5 84t20.5 102zM507 830h-134l-130 117l134 80z" />
    <glyph glyph-name="oacute" unicode="&#xf3;" horiz-adv-x="850" 
d="M820 385q0 -82 -31 -154t-84.5 -125.5t-125.5 -84.5t-154 -31t-154 31t-125.5 84.5t-84.5 125.5t-31 154t31 154t84.5 125.5t125.5 84.5t154 31t154 -31t125.5 -84.5t84.5 -125.5t31 -154zM688 385q0 54 -20.5 102t-56.5 84t-84 56.5t-102 20.5t-102 -20.5t-84 -56.5
t-56.5 -84t-20.5 -102t20.5 -102t56.5 -84t84 -56.5t102 -20.5t102 20.5t84 56.5t56.5 84t20.5 102zM334 830l130 197l133 -80l-130 -117h-133z" />
    <glyph glyph-name="ocircumflex" unicode="&#xf4;" horiz-adv-x="850" 
d="M820 385q0 -82 -31 -154t-84.5 -125.5t-125.5 -84.5t-154 -31t-154 31t-125.5 84.5t-84.5 125.5t-31 154t31 154t84.5 125.5t125.5 84.5t154 31t154 -31t125.5 -84.5t84.5 -125.5t31 -154zM688 385q0 54 -20.5 102t-56.5 84t-84 56.5t-102 20.5t-102 -20.5t-84 -56.5
t-56.5 -84t-20.5 -102t20.5 -102t56.5 -84t84 -56.5t102 -20.5t102 20.5t84 56.5t56.5 84t20.5 102zM597 830h-104l-68 82l-68 -82h-104l110 197h124z" />
    <glyph glyph-name="otilde" unicode="&#xf5;" horiz-adv-x="850" 
d="M820 385q0 -82 -31 -154t-84.5 -125.5t-125.5 -84.5t-154 -31t-154 31t-125.5 84.5t-84.5 125.5t-31 154t31 154t84.5 125.5t125.5 84.5t154 31t154 -31t125.5 -84.5t84.5 -125.5t31 -154zM688 385q0 54 -20.5 102t-56.5 84t-84 56.5t-102 20.5t-102 -20.5t-84 -56.5
t-56.5 -84t-20.5 -102t20.5 -102t56.5 -84t84 -56.5t102 -20.5t102 20.5t84 56.5t56.5 84t20.5 102zM654 968q-11 -24 -24.5 -50t-31.5 -47.5t-41.5 -36t-53.5 -14.5q-24 0 -48 10t-44.5 22.5l-36.5 22.5t-26 10q-5 0 -11 -10t-12 -23t-11 -25.5t-7 -16.5l-111 47
q11 22 25.5 47.5t33 47.5t41.5 36.5t52 14.5q24 0 48 -10t44.5 -22.5l36.5 -22.5t26 -10q4 0 10.5 10t12.5 23t11 25l7 17z" />
    <glyph glyph-name="odieresis" unicode="&#xf6;" horiz-adv-x="850" 
d="M820 385q0 -82 -31 -154t-84.5 -125.5t-125.5 -84.5t-154 -31t-154 31t-125.5 84.5t-84.5 125.5t-31 154t31 154t84.5 125.5t125.5 84.5t154 31t154 -31t125.5 -84.5t84.5 -125.5t31 -154zM688 385q0 54 -20.5 102t-56.5 84t-84 56.5t-102 20.5t-102 -20.5t-84 -56.5
t-56.5 -84t-20.5 -102t20.5 -102t56.5 -84t84 -56.5t102 -20.5t102 20.5t84 56.5t56.5 84t20.5 102zM391 947q0 -42 -28 -69.5t-68 -27.5t-68 27.5t-28 69.5q0 40 28 68t68 28t68 -28t28 -68zM651 947q0 -42 -28 -69.5t-68 -27.5t-68 27.5t-28 69.5q0 40 28 68t68 28t68 -28
t28 -68z" />
    <glyph glyph-name="divide" unicode="&#xf7;" 
 />
    <glyph glyph-name="oslash" unicode="&#xf8;" horiz-adv-x="850" 
d="M820 385q0 -82 -31 -154t-84.5 -125.5t-125.5 -84.5t-154 -31q-60 0 -115 17t-103 48l-45 -45l-92 92l42 42q-38 51 -60 111.5t-22 129.5q0 82 31 154t84.5 125.5t125.5 84.5t154 31q69 0 129.5 -22t111.5 -60l62 62l92 -92l-65 -65q31 -48 48 -103t17 -115zM572 604
q-32 21 -68.5 32.5t-78.5 11.5q-54 0 -102 -20.5t-84 -56.5t-56.5 -84t-20.5 -102q0 -42 11.5 -78.5t32.5 -68.5zM688 385q0 66 -29 122l-356 -356q56 -29 122 -29q54 0 102 20.5t84 56.5t56.5 84t20.5 102z" />
    <glyph glyph-name="ugrave" unicode="&#xf9;" horiz-adv-x="758" 
d="M683 294q0 -63 -24 -118q-18 -42 -46.5 -76.5t-65 -59t-79.5 -37.5t-89 -13q-63 0 -118.5 24t-96.5 65t-65 96.5t-24 118.5v476h130v-476q0 -36 13.5 -67.5t37.5 -55.5t55.5 -37.5t67.5 -13.5t67.5 13.5t55.5 37.5t37.5 55.5t13.5 67.5v476h130v-476zM461 830h-134
l-130 117l134 80z" />
    <glyph glyph-name="uacute" unicode="&#xfa;" horiz-adv-x="758" 
d="M683 294q0 -63 -24 -118q-18 -42 -46.5 -76.5t-65 -59t-79.5 -37.5t-89 -13q-63 0 -118.5 24t-96.5 65t-65 96.5t-24 118.5v476h130v-476q0 -36 13.5 -67.5t37.5 -55.5t55.5 -37.5t67.5 -13.5t67.5 13.5t55.5 37.5t37.5 55.5t13.5 67.5v476h130v-476zM297 830l130 197
l134 -80l-130 -117h-134z" />
    <glyph glyph-name="ucircumflex" unicode="&#xfb;" horiz-adv-x="758" 
d="M683 294q0 -63 -24 -118q-18 -42 -46.5 -76.5t-65 -59t-79.5 -37.5t-89 -13q-63 0 -118.5 24t-96.5 65t-65 96.5t-24 118.5v476h130v-476q0 -36 13.5 -67.5t37.5 -55.5t55.5 -37.5t67.5 -13.5t67.5 13.5t55.5 37.5t37.5 55.5t13.5 67.5v476h130v-476zM551 830h-104
l-68 82l-68 -82h-104l110 197h124z" />
    <glyph glyph-name="udieresis" unicode="&#xfc;" horiz-adv-x="758" 
d="M683 294q0 -63 -24 -118q-18 -42 -46.5 -76.5t-65 -59t-79.5 -37.5t-89 -13q-63 0 -118.5 24t-96.5 65t-65 96.5t-24 118.5v476h130v-476q0 -36 13.5 -67.5t37.5 -55.5t55.5 -37.5t67.5 -13.5t67.5 13.5t55.5 37.5t37.5 55.5t13.5 67.5v476h130v-476zM345 947
q0 -42 -28 -69.5t-68 -27.5q-20 0 -37.5 7.5t-31 20.5t-21 31t-7.5 38t7.5 37.5t21 30.5t31 20.5t37.5 7.5q40 0 68 -28t28 -68zM605 947q0 -42 -28 -69.5t-68 -27.5q-20 0 -37.5 7.5t-31 20.5t-21 31t-7.5 38t7.5 37.5t21 30.5t31 20.5t37.5 7.5q40 0 68 -28t28 -68z" />
    <glyph glyph-name="yacute" unicode="&#xfd;" horiz-adv-x="604" 
d="M604 770l-237 -403v-367h-130v367l-237 403h151l151 -257l152 257h150zM231 830l130 197l133 -80l-130 -117h-133z" />
    <glyph glyph-name="thorn" unicode="&#xfe;" 
 />
    <glyph glyph-name="ydieresis" unicode="&#xff;" horiz-adv-x="604" 
d="M604 770l-237 -403v-367h-130v367l-237 403h151l151 -257l152 257h150zM269 947q0 -20 -7.5 -38t-21 -31t-31 -20.5t-37.5 -7.5q-40 0 -68 27.5t-28 69.5q0 40 28 68t68 28q20 0 37.5 -7.5t31 -20.5t21 -30.5t7.5 -37.5zM529 947q0 -20 -7.5 -38t-21 -31t-31 -20.5
t-37.5 -7.5q-40 0 -68 27.5t-28 69.5q0 40 28 68t68 28q20 0 37.5 -7.5t31 -20.5t21 -30.5t7.5 -37.5z" />
    <glyph glyph-name="CR.002" 
 />
    <glyph glyph-name="CR.001" 
 />
    <glyph glyph-name="Lslash" unicode="&#x141;" horiz-adv-x="585" 
d="M425 402l-195 -71v-201h350v-130h-480v283l-58 -21l-39 107l97 36v365h130v-318l156 57z" />
    <glyph glyph-name="lslash" unicode="&#x142;" horiz-adv-x="585" 
d="M425 402l-195 -71v-201h350v-130h-480v283l-58 -21l-39 107l97 36v365h130v-318l156 57z" />
    <glyph glyph-name="Zcaron" unicode="&#x17d;" horiz-adv-x="624" 
d="M614 0h-604l377 640h-359v130h586l-377 -640h377v-130zM484 1027l-110 -197h-124l-110 197h104l68 -82l68 82h104z" />
    <glyph glyph-name="zcaron" unicode="&#x17e;" horiz-adv-x="624" 
d="M614 0h-604l377 640h-359v130h586l-377 -640h377v-130zM484 1027l-110 -197h-124l-110 197h104l68 -82l68 82h104z" />
    <glyph glyph-name="caron" unicode="&#x2c7;" horiz-adv-x="0" 
d="M152 1027l-110 -197h-124l-110 197h104l68 -82l68 82h104z" />
    <glyph glyph-name="breve" unicode="&#x2d8;" 
 />
    <glyph glyph-name="dotaccent" unicode="&#x2d9;" 
 />
    <glyph glyph-name="ring" unicode="&#x2da;" horiz-adv-x="0" 
d="M158 878q0 -33 -12.5 -61.5t-34 -50t-50 -34t-61.5 -12.5t-61.5 12.5t-50 34t-34 50t-12.5 61.5t12.5 61.5t34 50t50 34t61.5 12.5t61.5 -12.5t50 -34t34 -50t12.5 -61.5zM56 878q0 23 -16.5 39.5t-39.5 16.5t-39.5 -16.5t-16.5 -39.5t16.5 -39.5t39.5 -16.5t39.5 16.5
t16.5 39.5z" />
    <glyph glyph-name="ogonek" unicode="&#x2db;" 
 />
    <glyph glyph-name="hungarumlaut" unicode="&#x2dd;" horiz-adv-x="0" 
d="M-194 830l130 197l133 -80l-130 -117h-133zM56 830l130 197l133 -80l-130 -117h-133z" />
    <glyph glyph-name="minus" unicode="&#x2212;" horiz-adv-x="548" 
d="M478 328h-408v114h408v-114z" />
    <glyph glyph-name="notequal" unicode="&#x2260;" 
 />
    <glyph glyph-name="apple" unicode="&#xf8ff;" horiz-adv-x="916" 
d="M836 378q0 -78 -29.5 -147t-81 -120.5t-120.5 -81t-147 -29.5t-147 29.5t-120.5 81t-81 120.5t-29.5 147t29.5 147t81 120.5t120.5 81t147 29.5t147 -29.5t120.5 -81t81 -120.5t29.5 -147zM801 378q0 71 -27 133.5t-73.5 109t-109 73.5t-133.5 27t-133.5 -27t-109 -73.5
t-73.5 -109t-27 -133.5t27 -133.5t73.5 -109t109 -73.5t133.5 -27t133.5 27t109 73.5t73.5 109t27 133.5zM667 235q-12 -12 -24 0l-132 131q-12 12 0 24l132 131q3 4 5.5 4.5t7.5 0.5h2q3 -1 4 -1.5t2 -0.5l3 -3q12 -12 0 -24l-119 -119l119 -119q12 -12 0 -24zM475 247
q0 -17 -17 -17t-17 17v262q0 18 17 18t17 -18v-262zM410 378q0 -17 -18 -17h-65q-17 0 -17 17t17 17h65q18 0 18 -17zM279 247q0 -17 -18 -17q-7 0 -12 4.5t-5 12.5v262q0 8 5 13t12 5q18 0 18 -18v-262z" />
    </font>
</defs>
</svg>
