<?xml version="1.0" encoding="utf-8"?>
<!-- Generator: Adobe Illustrator 19.0.0, SVG Export Plug-In . SVG Version: 6.00 Build 0)  -->
<svg version="1.1" id="Layer_1" xmlns="http://www.w3.org/2000/svg" xmlns:xlink="http://www.w3.org/1999/xlink" x="0px" y="0px"
	 viewBox="0 0 300 300" style="enable-background:new 0 0 300 300;" xml:space="preserve">
<style type="text/css">
	.st0{fill:#1D1D1D;}
</style>
<g id="XMLID_97_">
	<g id="XMLID_95_">
		<path class="st0" d="M128.4,194.1c-0.8,0-1.5-0.7-1.5-1.5v-5c0-0.8,0.7-1.5,1.5-1.5s1.5,0.7,1.5,1.5v5
			C129.9,193.4,129.2,194.1,128.4,194.1z"/>
	</g>
	<g id="XMLID_94_">
		<path class="st0" d="M154.3,194.1c-0.8,0-1.5-0.7-1.5-1.5v-5c0-0.8,0.7-1.5,1.5-1.5s1.5,0.7,1.5,1.5v5
			C155.8,193.4,155.1,194.1,154.3,194.1z"/>
	</g>
	<g id="XMLID_93_">
		<path class="st0" d="M145.7,194.1c-0.8,0-1.5-0.7-1.5-1.5v-5c0-0.8,0.7-1.5,1.5-1.5s1.5,0.7,1.5,1.5v5
			C147.2,193.4,146.5,194.1,145.7,194.1z"/>
	</g>
	<g id="XMLID_92_">
		<path class="st0" d="M171.6,194.1c-0.8,0-1.5-0.7-1.5-1.5v-5c0-0.8,0.7-1.5,1.5-1.5s1.5,0.7,1.5,1.5v5
			C173.1,193.4,172.4,194.1,171.6,194.1z"/>
	</g>
	<g id="XMLID_91_">
		<path class="st0" d="M251.2,290.4c-0.8,0-1.5-0.7-1.5-1.5V188.7c0-0.8,0.7-1.5,1.5-1.5s1.5,0.7,1.5,1.5v100.2
			C252.7,289.7,252,290.4,251.2,290.4z"/>
	</g>
	<g id="XMLID_90_">
		<path class="st0" d="M198.3,290.1c-0.8,0-1.5-0.7-1.5-1.5V188c0-0.8,0.7-1.5,1.5-1.5s1.5,0.7,1.5,1.5v100.6
			C199.8,289.4,199.1,290.1,198.3,290.1z"/>
	</g>
	<g id="XMLID_89_">
		<path class="st0" d="M225.1,290.4c-0.8,0-1.5-0.7-1.5-1.5V188.7c0-0.8,0.7-1.5,1.5-1.5s1.5,0.7,1.5,1.5v100.2
			C226.6,289.7,225.9,290.4,225.1,290.4z"/>
	</g>
	<g id="XMLID_88_">
		<path class="st0" d="M214.7,194.1c-0.8,0-1.5-0.7-1.5-1.5v-59.3c0-0.8,0.7-1.5,1.5-1.5s1.5,0.7,1.5,1.5v59.3
			C216.2,193.4,215.5,194.1,214.7,194.1z"/>
	</g>
	<g id="XMLID_87_">
		<path class="st0" d="M101.7,290.1c-0.8,0-1.5-0.7-1.5-1.5V188c0-0.8,0.7-1.5,1.5-1.5s1.5,0.7,1.5,1.5v100.6
			C103.2,289.4,102.5,290.1,101.7,290.1z"/>
	</g>
	<g id="XMLID_86_">
		<path class="st0" d="M74.9,290.4c-0.8,0-1.5-0.7-1.5-1.5v-100c0-0.8,0.7-1.5,1.5-1.5s1.5,0.7,1.5,1.5v100
			C76.4,289.7,75.7,290.4,74.9,290.4z"/>
	</g>
	<g id="XMLID_85_">
		<path class="st0" d="M48.8,290.4c-0.8,0-1.5-0.7-1.5-1.5v-100c0-0.8,0.7-1.5,1.5-1.5s1.5,0.7,1.5,1.5v100
			C50.3,289.7,49.6,290.4,48.8,290.4z"/>
	</g>
	<g id="XMLID_84_">
		<path class="st0" d="M263.5,290.1h-227c-0.8,0-1.5-0.7-1.5-1.5s0.7-1.5,1.5-1.5h227c0.8,0,1.5,0.7,1.5,1.5
			S264.3,290.1,263.5,290.1z"/>
	</g>
	<g id="XMLID_83_">
		<path class="st0" d="M227.9,108.9H72.7c-0.8,0-1.5-0.7-1.5-1.5s0.7-1.5,1.5-1.5h155.2c0.8,0,1.5,0.7,1.5,1.5
			S228.7,108.9,227.9,108.9z"/>
	</g>
	<g id="XMLID_82_">
		<path class="st0" d="M228.8,133.3c-0.8,0-1.5-0.7-1.5-1.5v-31.2c0-0.8,0.7-1.5,1.5-1.5s1.5,0.7,1.5,1.5v31.2
			C230.3,132.6,229.6,133.3,228.8,133.3z"/>
	</g>
	<g id="XMLID_81_">
		<path class="st0" d="M247.5,133.3c-0.8,0-1.5-0.7-1.5-1.5v-31.2c0-0.8,0.7-1.5,1.5-1.5s1.5,0.7,1.5,1.5v31.2
			C249,132.6,248.3,133.3,247.5,133.3z"/>
	</g>
	<g id="XMLID_80_">
		<path class="st0" d="M255.1,101.1h-34c-0.8,0-1.5-0.7-1.5-1.5V81.7c0-0.8,0.7-1.5,1.5-1.5h34c0.8,0,1.5,0.7,1.5,1.5v17.9
			C256.6,100.4,255.9,101.1,255.1,101.1z M222.6,98.1h31V83.2h-31V98.1z"/>
	</g>
	<g id="XMLID_79_">
		<path class="st0" d="M228.8,81.7c-0.8,0-1.5-0.7-1.5-1.5V64c0-0.8,0.7-1.5,1.5-1.5s1.5,0.7,1.5,1.5v16.2
			C230.3,81,229.6,81.7,228.8,81.7z"/>
	</g>
	<g id="XMLID_78_">
		<path class="st0" d="M247.5,81.7c-0.8,0-1.5-0.7-1.5-1.5V64c0-0.8,0.7-1.5,1.5-1.5s1.5,0.7,1.5,1.5v16.2
			C249,81,248.3,81.7,247.5,81.7z"/>
	</g>
	<g id="XMLID_77_">
		<path class="st0" d="M252.5,64h-28.6c-0.8,0-1.5-0.7-1.5-1.5V48.1c0-0.8,0.7-1.5,1.5-1.5h28.6c0.8,0,1.5,0.7,1.5,1.5v14.4
			C254,63.3,253.3,64,252.5,64z M225.4,61H251V49.6h-25.6V61z"/>
	</g>
	<g id="XMLID_76_">
		<path class="st0" d="M246.8,34.9H230c-0.8,0-1.5-0.7-1.5-1.5s0.7-1.5,1.5-1.5h16.8c0.8,0,1.5,0.7,1.5,1.5S247.6,34.9,246.8,34.9z"
			/>
	</g>
	<g id="XMLID_75_">
		<path class="st0" d="M238.1,21.4C238.1,21.4,238.1,21.4,238.1,21.4c-0.9,0-1.5-0.7-1.5-1.5l0.2-8.8c0-0.8,0.7-1.5,1.5-1.5
			c0.8,0,1.5,0.7,1.5,1.5l-0.2,8.8C239.6,20.8,238.9,21.4,238.1,21.4z"/>
	</g>
	<g id="XMLID_74_">
		<path class="st0" d="M185,211c-1.1,0-2.1-0.3-3-0.8c-3-1.7-4-5.3-2.4-8.3c0.8-1.4,2.1-2.5,3.7-3c1.6-0.5,3.3-0.2,4.7,0.6
			c1.4,0.7,2.5,2,2.9,3.6c0.5,1.6,0.2,3.3-0.6,4.7c-0.7,1.4-2,2.5-3.6,2.9C186.1,210.9,185.5,211,185,211z M184.9,201.7
			c-0.3,0-0.6,0-0.8,0.1c-0.8,0.2-1.5,0.8-1.8,1.5c-0.9,1.6-0.3,3.4,1.2,4.3c0,0,0,0,0,0c0.7,0.4,1.6,0.5,2.4,0.3
			c0.8-0.2,1.5-0.8,1.8-1.5c0.5-0.8,0.6-1.6,0.3-2.4c-0.2-0.8-0.8-1.5-1.5-1.8C186,201.8,185.4,201.7,184.9,201.7z"/>
	</g>
	<g id="XMLID_73_">
		<path class="st0" d="M115.1,211c-1.1,0-2.1-0.3-3-0.8c-1.5-0.8-2.5-2.2-3-3.8c-0.4-1.6-0.2-3.2,0.6-4.6c0.7-1.4,2-2.5,3.6-2.9
			c1.6-0.5,3.3-0.2,4.7,0.6c1.4,0.7,2.5,2,2.9,3.6c0.5,1.6,0.2,3.3-0.6,4.7c-0.7,1.4-2,2.5-3.6,2.9C116.2,210.9,115.6,211,115.1,211
			z M115,201.7c-0.3,0-0.6,0-0.8,0.1c-0.8,0.2-1.5,0.8-1.8,1.5c-0.4,0.8-0.6,1.6-0.4,2.3c0.2,0.8,0.8,1.5,1.6,2c0,0,0,0,0,0
			c0.7,0.4,1.6,0.5,2.4,0.3c0.8-0.2,1.5-0.8,1.8-1.5c0.5-0.8,0.6-1.6,0.3-2.4c-0.2-0.8-0.8-1.5-1.5-1.8
			C116.1,201.8,115.5,201.7,115,201.7z"/>
	</g>
	<g id="XMLID_72_">
		<path class="st0" d="M149.9,165.6c-1.1,0-2.1-0.3-3.1-0.8c-2.9-1.7-4-5.4-2.4-8.3c0.8-1.5,2.1-2.5,3.7-3c1.6-0.5,3.3-0.2,4.7,0.6
			c1.4,0.7,2.5,2,2.9,3.6c0.5,1.6,0.2,3.3-0.6,4.7c-0.7,1.4-2,2.5-3.6,2.9C151,165.5,150.4,165.6,149.9,165.6z M149.8,156.3
			c-0.3,0-0.6,0-0.8,0.1c-0.8,0.2-1.5,0.8-1.8,1.5c-0.8,1.5-0.3,3.4,1.2,4.3l0,0c0.7,0.4,1.6,0.5,2.4,0.3c0.8-0.2,1.5-0.8,1.8-1.5
			c0.5-0.8,0.6-1.6,0.3-2.4c-0.2-0.8-0.8-1.5-1.5-1.8C150.9,156.4,150.3,156.3,149.8,156.3z"/>
	</g>
	<g id="XMLID_71_">
		<path class="st0" d="M242.9,157.7h-9.5c-0.8,0-1.5-0.7-1.5-1.5s0.7-1.5,1.5-1.5h9.5c0.8,0,1.5,0.7,1.5,1.5
			S243.7,157.7,242.9,157.7z"/>
	</g>
	<g id="XMLID_70_">
		<path class="st0" d="M242.9,157.7c-0.8,0-1.5-0.7-1.5-1.5v-8.9c-0.3-0.6-1.3-2.8-3.8-3.7c-0.8-0.3-1.2-1.1-0.9-1.9
			s1.1-1.2,1.9-0.9c4.4,1.5,5.7,5.6,5.7,5.8c0,0.1,0.1,0.3,0.1,0.5v9.2C244.4,157,243.7,157.7,242.9,157.7z"/>
	</g>
	<g id="XMLID_69_">
		<path class="st0" d="M233.4,157.7c-0.8,0-1.5-0.7-1.5-1.5V147c0-0.2,0-0.3,0.1-0.4c0.1-0.2,1.4-4.2,5.7-5.8
			c0.8-0.3,1.6,0.1,1.9,0.9s-0.1,1.6-0.9,1.9c-2.5,0.9-3.5,3-3.8,3.7v8.9C234.9,157,234.2,157.7,233.4,157.7z"/>
	</g>
	<g id="XMLID_68_">
		<path class="st0" d="M242.9,179.6h-9.5c-0.8,0-1.5-0.7-1.5-1.5s0.7-1.5,1.5-1.5h9.5c0.8,0,1.5,0.7,1.5,1.5
			S243.7,179.6,242.9,179.6z"/>
	</g>
	<g id="XMLID_67_">
		<path class="st0" d="M242.9,179.6c-0.8,0-1.5-0.7-1.5-1.5v-8.9c-0.3-0.6-1.3-2.8-3.8-3.7c-0.8-0.3-1.2-1.1-0.9-1.9
			s1.1-1.2,1.9-0.9c4.4,1.5,5.7,5.6,5.7,5.8c0,0.1,0.1,0.3,0.1,0.5v9.2C244.4,178.9,243.7,179.6,242.9,179.6z"/>
	</g>
	<g id="XMLID_66_">
		<path class="st0" d="M233.4,179.6c-0.8,0-1.5-0.7-1.5-1.5v-9.2c0-0.2,0-0.3,0.1-0.4c0.1-0.2,1.4-4.2,5.7-5.8
			c0.8-0.3,1.6,0.1,1.9,0.9s-0.1,1.6-0.9,1.9c-2.5,0.9-3.5,3-3.8,3.7v8.9C234.9,178.9,234.2,179.6,233.4,179.6z"/>
	</g>
	<g id="XMLID_65_">
		<path class="st0" d="M66.6,157.7h-9.5c-0.8,0-1.5-0.7-1.5-1.5s0.7-1.5,1.5-1.5h9.5c0.8,0,1.5,0.7,1.5,1.5S67.4,157.7,66.6,157.7z"
			/>
	</g>
	<g id="XMLID_64_">
		<path class="st0" d="M57.1,157.7c-0.8,0-1.5-0.7-1.5-1.5V147c0-0.2,0-0.3,0.1-0.4c0.1-0.2,1.4-4.2,5.7-5.8
			c0.8-0.3,1.6,0.1,1.9,0.9c0.3,0.8-0.1,1.6-0.9,1.9c-2.5,0.9-3.5,3-3.8,3.7v8.9C58.6,157,57.9,157.7,57.1,157.7z"/>
	</g>
	<g id="XMLID_63_">
		<path class="st0" d="M66.6,157.7c-0.8,0-1.5-0.7-1.5-1.5v-8.9c-0.3-0.6-1.3-2.8-3.8-3.7c-0.8-0.3-1.2-1.1-0.9-1.9
			c0.3-0.8,1.1-1.2,1.9-0.9c4.4,1.5,5.7,5.6,5.7,5.8c0,0.1,0.1,0.3,0.1,0.4v9.2C68.1,157,67.4,157.7,66.6,157.7z"/>
	</g>
	<g id="XMLID_62_">
		<path class="st0" d="M66.6,179.6h-9.5c-0.8,0-1.5-0.7-1.5-1.5s0.7-1.5,1.5-1.5h9.5c0.8,0,1.5,0.7,1.5,1.5S67.4,179.6,66.6,179.6z"
			/>
	</g>
	<g id="XMLID_61_">
		<path class="st0" d="M57.1,179.6c-0.8,0-1.5-0.7-1.5-1.5v-9.2c0-0.2,0-0.3,0.1-0.5c0.1-0.2,1.4-4.2,5.7-5.8
			c0.8-0.3,1.6,0.1,1.9,0.9c0.3,0.8-0.1,1.6-0.9,1.9c-2.5,0.9-3.5,3-3.8,3.7v8.9C58.6,178.9,57.9,179.6,57.1,179.6z"/>
	</g>
	<g id="XMLID_60_">
		<path class="st0" d="M66.6,179.6c-0.8,0-1.5-0.7-1.5-1.5v-8.9c-0.3-0.6-1.3-2.8-3.8-3.7c-0.8-0.3-1.2-1.1-0.9-1.9
			c0.3-0.8,1.1-1.2,1.9-0.9c4.4,1.5,5.7,5.6,5.7,5.8c0,0.1,0.1,0.3,0.1,0.5v9.2C68.1,178.9,67.4,179.6,66.6,179.6z"/>
	</g>
	<g id="XMLID_59_">
		<path class="st0" d="M207,194.1c-0.8,0-1.5-0.7-1.5-1.5v-32.2c-0.4-1-2.4-5.7-7.7-7.5c-0.8-0.3-1.2-1.1-0.9-1.9
			c0.3-0.8,1.1-1.2,1.9-0.9c7.3,2.5,9.6,9.4,9.6,9.7c0,0.1,0.1,0.3,0.1,0.4v32.5C208.5,193.4,207.8,194.1,207,194.1z"/>
	</g>
	<g id="XMLID_58_">
		<path class="st0" d="M189.6,194.1c-0.8,0-1.5-0.7-1.5-1.5v-32.5c0-0.2,0-0.3,0.1-0.4c0.1-0.3,2.3-7.2,9.6-9.7
			c0.8-0.3,1.6,0.1,1.9,0.9c0.3,0.8-0.1,1.6-0.9,1.9c-5.2,1.8-7.3,6.5-7.7,7.5v32.2C191.1,193.4,190.4,194.1,189.6,194.1z"/>
	</g>
	<g id="XMLID_57_">
		<path class="st0" d="M180.3,194.1c-0.8,0-1.5-0.7-1.5-1.5v-32.2c-0.4-1-2.4-5.7-7.7-7.5c-0.8-0.3-1.2-1.1-0.9-1.9
			c0.3-0.8,1.1-1.2,1.9-0.9c7.3,2.5,9.6,9.4,9.6,9.7c0,0.1,0.1,0.3,0.1,0.4v32.5C181.8,193.4,181.1,194.1,180.3,194.1z"/>
	</g>
	<g id="XMLID_56_">
		<path class="st0" d="M162.9,194.1c-0.8,0-1.5-0.7-1.5-1.5v-32.5c0-0.2,0-0.3,0.1-0.4c0.1-0.3,2.3-7.2,9.6-9.7
			c0.8-0.3,1.6,0.1,1.9,0.9c0.3,0.8-0.1,1.6-0.9,1.9c-5.2,1.8-7.3,6.5-7.7,7.5v32.2C164.4,193.4,163.7,194.1,162.9,194.1z"/>
	</g>
	<g id="XMLID_55_">
		<path class="st0" d="M137.1,194.1c-0.8,0-1.5-0.7-1.5-1.5v-32.2c-0.4-1-2.4-5.7-7.7-7.5c-0.8-0.3-1.2-1.1-0.9-1.9
			c0.3-0.8,1.1-1.2,1.9-0.9c7.3,2.5,9.6,9.4,9.6,9.7c0,0.1,0.1,0.3,0.1,0.4v32.5C138.6,193.4,137.9,194.1,137.1,194.1z"/>
	</g>
	<g id="XMLID_54_">
		<path class="st0" d="M119.7,194.1c-0.8,0-1.5-0.7-1.5-1.5v-32.5c0-0.2,0-0.3,0.1-0.4c0.1-0.3,2.3-7.2,9.6-9.7
			c0.8-0.3,1.6,0.1,1.9,0.9c0.3,0.8-0.1,1.6-0.9,1.9c-5.3,1.8-7.3,6.5-7.7,7.5v32.2C121.2,193.4,120.5,194.1,119.7,194.1z"/>
	</g>
	<g id="XMLID_53_">
		<path class="st0" d="M110.4,194.1c-0.8,0-1.5-0.7-1.5-1.5v-32.2c-0.4-1-2.4-5.7-7.7-7.5c-0.8-0.3-1.2-1.1-0.9-1.9
			c0.3-0.8,1.1-1.2,1.9-0.9c7.3,2.5,9.6,9.4,9.6,9.7c0,0.1,0.1,0.3,0.1,0.4v32.5C111.9,193.4,111.2,194.1,110.4,194.1z"/>
	</g>
	<g id="XMLID_52_">
		<path class="st0" d="M93,194.1c-0.8,0-1.5-0.7-1.5-1.5v-32.5c0-0.2,0-0.3,0.1-0.4c0.1-0.3,2.3-7.2,9.6-9.7
			c0.8-0.3,1.6,0.1,1.9,0.9c0.3,0.8-0.1,1.6-0.9,1.9c-5.2,1.8-7.3,6.5-7.7,7.5v32.2C94.5,193.4,93.8,194.1,93,194.1z"/>
	</g>
	<g id="XMLID_51_">
		<path class="st0" d="M91.8,134.3c-0.8,0-1.5-0.6-1.5-1.5l-0.1-2.9c-0.2-0.6-1.3-2.8-3.8-3.7c-0.8-0.3-1.2-1.1-0.9-1.9
			c0.3-0.8,1.1-1.2,1.9-0.9c4.4,1.5,5.7,5.6,5.7,5.8c0,0.1,0.1,0.3,0.1,0.4l0.1,3.1C93.3,133.6,92.7,134.3,91.8,134.3
			C91.8,134.3,91.8,134.3,91.8,134.3z"/>
	</g>
	<g id="XMLID_50_">
		<path class="st0" d="M82.1,134.1c-0.8,0-1.5-0.7-1.5-1.5v-2.9c0-0.2,0-0.3,0.1-0.4c0.1-0.2,1.4-4.2,5.7-5.8
			c0.8-0.3,1.6,0.1,1.9,0.9c0.3,0.8-0.1,1.6-0.9,1.9c-2.5,0.9-3.5,3-3.8,3.7v2.6C83.6,133.4,82.9,134.1,82.1,134.1z"/>
	</g>
	<g id="XMLID_49_">
		<path class="st0" d="M217.8,134.2c-0.8,0-1.5-0.7-1.5-1.5V130c-0.3-0.6-1.3-2.8-3.8-3.7c-0.8-0.3-1.2-1.1-0.9-1.9
			c0.3-0.8,1.1-1.2,1.9-0.9c4.4,1.5,5.7,5.6,5.7,5.8c0,0.1,0.1,0.3,0.1,0.4v3C219.3,133.5,218.6,134.2,217.8,134.2z"/>
	</g>
	<g id="XMLID_48_">
		<path class="st0" d="M208.4,134.3c-0.8,0-1.5-0.6-1.5-1.5l-0.1-3.1c0-0.2,0-0.3,0.1-0.5c0.1-0.2,1.4-4.2,5.7-5.8
			c0.8-0.3,1.6,0.1,1.9,0.9c0.3,0.8-0.1,1.6-0.9,1.9c-2.5,0.9-3.5,3-3.8,3.6l0.1,2.8C209.9,133.6,209.3,134.3,208.4,134.3
			C208.4,134.3,208.4,134.3,208.4,134.3z"/>
	</g>
	<g id="XMLID_47_">
		<path class="st0" d="M197,134.3c-0.8,0-1.5-0.6-1.5-1.5l-0.1-2.9c-0.2-0.6-1.3-2.8-3.8-3.7c-0.8-0.3-1.2-1.1-0.9-1.9
			c0.3-0.8,1.1-1.2,1.9-0.9c4.4,1.5,5.7,5.6,5.7,5.8c0,0.1,0.1,0.3,0.1,0.4l0.1,3.1C198.5,133.6,197.9,134.3,197,134.3
			C197,134.3,197,134.3,197,134.3z"/>
	</g>
	<g id="XMLID_46_">
		<path class="st0" d="M187.4,134.3c-0.8,0-1.5-0.6-1.5-1.5l-0.1-3.1c0-0.2,0-0.3,0.1-0.5c0.1-0.2,1.4-4.2,5.7-5.8
			c0.8-0.3,1.6,0.1,1.9,0.9c0.3,0.8-0.1,1.6-0.9,1.9c-2.5,0.9-3.5,3-3.8,3.6l0.1,2.8C188.9,133.6,188.3,134.3,187.4,134.3
			C187.4,134.3,187.4,134.3,187.4,134.3z"/>
	</g>
	<g id="XMLID_45_">
		<path class="st0" d="M175.9,134.3c-0.8,0-1.5-0.6-1.5-1.5l-0.1-2.9c-0.2-0.6-1.3-2.8-3.8-3.7c-0.8-0.3-1.2-1.1-0.9-1.9
			c0.3-0.8,1.1-1.2,1.9-0.9c4.4,1.5,5.7,5.6,5.7,5.8c0,0.1,0.1,0.3,0.1,0.4l0.1,3.1C177.4,133.6,176.8,134.3,175.9,134.3
			C175.9,134.3,175.9,134.3,175.9,134.3z"/>
	</g>
	<g id="XMLID_44_">
		<path class="st0" d="M166.4,134.3c-0.8,0-1.5-0.6-1.5-1.5l-0.1-3.1c0-0.2,0-0.3,0.1-0.5c0.1-0.2,1.4-4.2,5.7-5.8
			c0.8-0.3,1.6,0.1,1.9,0.9c0.3,0.8-0.1,1.6-0.9,1.9c-2.5,0.9-3.5,3-3.8,3.6l0.1,2.8C167.9,133.6,167.3,134.3,166.4,134.3
			C166.4,134.3,166.4,134.3,166.4,134.3z"/>
	</g>
	<g id="XMLID_43_">
		<path class="st0" d="M154.9,134.3c-0.8,0-1.5-0.6-1.5-1.5l-0.1-2.9c-0.2-0.6-1.3-2.8-3.8-3.7c-0.8-0.3-1.2-1.1-0.9-1.9
			c0.3-0.8,1.1-1.2,1.9-0.9c4.4,1.5,5.7,5.6,5.7,5.8c0,0.1,0.1,0.3,0.1,0.4l0.1,3.1C156.4,133.6,155.8,134.3,154.9,134.3
			C154.9,134.3,154.9,134.3,154.9,134.3z"/>
	</g>
	<g id="XMLID_42_">
		<path class="st0" d="M145.4,134.3c-0.8,0-1.5-0.6-1.5-1.5l-0.1-3.1c0-0.2,0-0.3,0.1-0.5c0.1-0.2,1.4-4.2,5.7-5.8
			c0.8-0.3,1.6,0.1,1.9,0.9c0.3,0.8-0.1,1.6-0.9,1.9c-2.5,0.9-3.5,3-3.8,3.6l0.1,2.8C146.9,133.6,146.3,134.3,145.4,134.3
			C145.4,134.3,145.4,134.3,145.4,134.3z"/>
	</g>
	<g id="XMLID_41_">
		<path class="st0" d="M133.9,134.3c-0.8,0-1.5-0.6-1.5-1.5l-0.1-2.9c-0.2-0.6-1.3-2.8-3.8-3.7c-0.8-0.3-1.2-1.1-0.9-1.9
			c0.3-0.8,1.1-1.2,1.9-0.9c4.4,1.5,5.7,5.6,5.7,5.8c0,0.1,0.1,0.3,0.1,0.4l0.1,3.1C135.4,133.6,134.8,134.3,133.9,134.3
			C133.9,134.3,133.9,134.3,133.9,134.3z"/>
	</g>
	<g id="XMLID_40_">
		<path class="st0" d="M124.3,134.3c-0.8,0-1.5-0.6-1.5-1.5l-0.1-3.1c0-0.2,0-0.3,0.1-0.5c0.1-0.2,1.4-4.2,5.7-5.8
			c0.8-0.3,1.6,0.1,1.9,0.9c0.3,0.8-0.1,1.6-0.9,1.9c-2.5,0.9-3.5,3-3.8,3.6l0.1,2.8C125.8,133.6,125.2,134.3,124.3,134.3
			C124.3,134.3,124.3,134.3,124.3,134.3z"/>
	</g>
	<g id="XMLID_39_">
		<path class="st0" d="M112.9,134.3c-0.8,0-1.5-0.6-1.5-1.5l-0.1-2.9c-0.2-0.6-1.3-2.8-3.8-3.7c-0.8-0.3-1.2-1.1-0.9-1.9
			c0.3-0.8,1.1-1.2,1.9-0.9c4.4,1.5,5.7,5.6,5.7,5.8c0,0.1,0.1,0.3,0.1,0.4l0.1,3.1C114.4,133.6,113.8,134.3,112.9,134.3
			C112.9,134.3,112.9,134.3,112.9,134.3z"/>
	</g>
	<g id="XMLID_38_">
		<path class="st0" d="M103.3,134.3c-0.8,0-1.5-0.6-1.5-1.5l-0.1-3.1c0-0.2,0-0.3,0.1-0.5c0.1-0.2,1.4-4.2,5.7-5.8
			c0.8-0.3,1.6,0.1,1.9,0.9c0.3,0.8-0.1,1.6-0.9,1.9c-2.5,0.9-3.5,3-3.8,3.6l0.1,2.8C104.8,133.6,104.2,134.3,103.3,134.3
			C103.3,134.3,103.3,134.3,103.3,134.3z"/>
	</g>
	<g id="XMLID_37_">
		<path class="st0" d="M216.5,220.4h-9.6c-0.8,0-1.5-0.7-1.5-1.5s0.7-1.5,1.5-1.5h9.6c0.8,0,1.5,0.7,1.5,1.5
			S217.3,220.4,216.5,220.4z"/>
	</g>
	<g id="XMLID_36_">
		<path class="st0" d="M216.5,220.4c-0.8,0-1.5-0.7-1.5-1.5V210c-0.3-0.6-1.3-2.8-3.8-3.7c-0.8-0.3-1.2-1.1-0.9-1.9s1.1-1.2,1.9-0.9
			c4.4,1.5,5.7,5.6,5.7,5.8c0,0.1,0.1,0.3,0.1,0.4v9.2C218,219.7,217.3,220.4,216.5,220.4z"/>
	</g>
	<g id="XMLID_35_">
		<path class="st0" d="M206.9,220.4c-0.8,0-1.5-0.7-1.5-1.5v-9.2c0-0.2,0-0.3,0.1-0.4c0.1-0.2,1.4-4.2,5.7-5.8
			c0.8-0.3,1.6,0.1,1.9,0.9s-0.1,1.6-0.9,1.9c-2.5,0.9-3.5,3-3.8,3.7v8.9C208.4,219.7,207.7,220.4,206.9,220.4z"/>
	</g>
	<g id="XMLID_34_">
		<path class="st0" d="M216.5,250.7h-9.6c-0.8,0-1.5-0.7-1.5-1.5s0.7-1.5,1.5-1.5h9.6c0.8,0,1.5,0.7,1.5,1.5
			S217.3,250.7,216.5,250.7z"/>
	</g>
	<g id="XMLID_33_">
		<path class="st0" d="M216.5,250.7c-0.8,0-1.5-0.7-1.5-1.5v-8.9c-0.3-0.6-1.3-2.8-3.8-3.7c-0.8-0.3-1.2-1.1-0.9-1.9
			s1.1-1.2,1.9-0.9c4.4,1.5,5.7,5.6,5.7,5.8c0,0.1,0.1,0.3,0.1,0.4v9.2C218,250,217.3,250.7,216.5,250.7z"/>
	</g>
	<g id="XMLID_32_">
		<path class="st0" d="M206.9,250.7c-0.8,0-1.5-0.7-1.5-1.5V240c0-0.2,0-0.3,0.1-0.4c0.1-0.2,1.4-4.2,5.7-5.8
			c0.8-0.3,1.6,0.1,1.9,0.9s-0.1,1.6-0.9,1.9c-2.5,0.9-3.5,3-3.8,3.7v8.9C208.4,250,207.7,250.7,206.9,250.7z"/>
	</g>
	<g id="XMLID_31_">
		<path class="st0" d="M216.5,281.1h-9.6c-0.8,0-1.5-0.7-1.5-1.5s0.7-1.5,1.5-1.5h9.6c0.8,0,1.5,0.7,1.5,1.5
			S217.3,281.1,216.5,281.1z"/>
	</g>
	<g id="XMLID_30_">
		<path class="st0" d="M216.5,281c-0.8,0-1.5-0.7-1.5-1.5v-8.9c-0.3-0.6-1.3-2.8-3.8-3.7c-0.8-0.3-1.2-1.1-0.9-1.9s1.1-1.2,1.9-0.9
			c4.4,1.5,5.7,5.6,5.7,5.8c0,0.1,0.1,0.3,0.1,0.4v9.2C218,280.3,217.3,281,216.5,281z"/>
	</g>
	<g id="XMLID_29_">
		<path class="st0" d="M206.9,281.1c-0.8,0-1.5-0.7-1.5-1.5v-9.2c0-0.2,0-0.3,0.1-0.4c0.1-0.2,1.4-4.2,5.7-5.8
			c0.8-0.3,1.6,0.1,1.9,0.9c0.3,0.8-0.1,1.6-0.9,1.9c-2.5,0.9-3.5,3-3.8,3.7v8.9C208.4,280.4,207.7,281.1,206.9,281.1z"/>
	</g>
	<g id="XMLID_28_">
		<path class="st0" d="M92.9,220.4h-9.6c-0.8,0-1.5-0.7-1.5-1.5s0.7-1.5,1.5-1.5h9.6c0.8,0,1.5,0.7,1.5,1.5S93.7,220.4,92.9,220.4z"
			/>
	</g>
	<g id="XMLID_27_">
		<path class="st0" d="M92.9,220.4c-0.8,0-1.5-0.7-1.5-1.5V210c-0.3-0.6-1.3-2.8-3.8-3.7c-0.8-0.3-1.2-1.1-0.9-1.9s1.1-1.2,1.9-0.9
			c4.4,1.5,5.7,5.6,5.7,5.8c0,0.1,0.1,0.3,0.1,0.5v9.2C94.4,219.7,93.7,220.4,92.9,220.4z"/>
	</g>
	<g id="XMLID_26_">
		<path class="st0" d="M83.3,220.4c-0.8,0-1.5-0.7-1.5-1.5v-9.2c0-0.2,0-0.3,0.1-0.5c0.1-0.2,1.4-4.2,5.7-5.8
			c0.8-0.3,1.6,0.1,1.9,0.9c0.3,0.8-0.1,1.6-0.9,1.9c-2.5,0.9-3.5,3-3.8,3.7v8.9C84.8,219.7,84.1,220.4,83.3,220.4z"/>
	</g>
	<g id="XMLID_25_">
		<path class="st0" d="M92.9,250.7h-9.6c-0.8,0-1.5-0.7-1.5-1.5s0.7-1.5,1.5-1.5h9.6c0.8,0,1.5,0.7,1.5,1.5S93.7,250.7,92.9,250.7z"
			/>
	</g>
	<g id="XMLID_24_">
		<path class="st0" d="M92.9,250.7c-0.8,0-1.5-0.7-1.5-1.5v-8.9c-0.3-0.6-1.3-2.8-3.8-3.7c-0.8-0.3-1.2-1.1-0.9-1.9s1.1-1.2,1.9-0.9
			c4.4,1.5,5.7,5.6,5.7,5.8c0,0.1,0.1,0.3,0.1,0.5v9.2C94.4,250,93.7,250.7,92.9,250.7z"/>
	</g>
	<g id="XMLID_23_">
		<path class="st0" d="M83.3,250.7c-0.8,0-1.5-0.7-1.5-1.5V240c0-0.2,0-0.3,0.1-0.5c0.1-0.2,1.4-4.2,5.7-5.8
			c0.8-0.3,1.6,0.1,1.9,0.9c0.3,0.8-0.1,1.6-0.9,1.9c-2.5,0.9-3.5,3-3.8,3.7v8.9C84.8,250,84.1,250.7,83.3,250.7z"/>
	</g>
	<g id="XMLID_22_">
		<path class="st0" d="M92.9,281.1h-9.6c-0.8,0-1.5-0.7-1.5-1.5s0.7-1.5,1.5-1.5h9.6c0.8,0,1.5,0.7,1.5,1.5S93.7,281.1,92.9,281.1z"
			/>
	</g>
	<g id="XMLID_21_">
		<path class="st0" d="M92.9,281c-0.8,0-1.5-0.7-1.5-1.5v-8.9c-0.3-0.6-1.3-2.8-3.8-3.7c-0.8-0.3-1.2-1.1-0.9-1.9s1.1-1.2,1.9-0.9
			c4.4,1.5,5.7,5.6,5.7,5.8c0,0.1,0.1,0.3,0.1,0.5v9.2C94.4,280.3,93.7,281,92.9,281z"/>
	</g>
	<g id="XMLID_20_">
		<path class="st0" d="M83.3,281.1c-0.8,0-1.5-0.7-1.5-1.5v-9.2c0-0.2,0-0.3,0.1-0.5c0.1-0.2,1.4-4.2,5.7-5.8
			c0.8-0.3,1.6,0.1,1.9,0.9c0.3,0.8-0.1,1.6-0.9,1.9c-2.5,0.9-3.5,3-3.8,3.7v8.9C84.8,280.4,84.1,281.1,83.3,281.1z"/>
	</g>
	<g id="XMLID_19_">
		<path class="st0" d="M261.6,134.3H38.4c-0.8,0-1.5-0.7-1.5-1.5s0.7-1.5,1.5-1.5h223.2c0.8,0,1.5,0.7,1.5,1.5
			S262.4,134.3,261.6,134.3z"/>
	</g>
	<g id="XMLID_18_">
		<path class="st0" d="M261.6,189H38.4c-0.8,0-1.5-0.7-1.5-1.5s0.7-1.5,1.5-1.5h223.2c0.8,0,1.5,0.7,1.5,1.5S262.4,189,261.6,189z"
			/>
	</g>
	<g id="XMLID_17_">
		<path class="st0" d="M38.4,189c-0.8,0-1.5-0.7-1.5-1.5v-54.7c0-0.8,0.7-1.5,1.5-1.5s1.5,0.7,1.5,1.5v54.7
			C39.9,188.3,39.2,189,38.4,189z"/>
	</g>
	<g id="XMLID_16_">
		<path class="st0" d="M261.6,189c-0.8,0-1.5-0.7-1.5-1.5v-54.7c0-0.8,0.7-1.5,1.5-1.5s1.5,0.7,1.5,1.5v54.7
			C263.1,188.3,262.4,189,261.6,189z"/>
	</g>
	<g id="XMLID_15_">
		<path class="st0" d="M85.3,194.1c-0.8,0-1.5-0.7-1.5-1.5v-59.3c0-0.8,0.7-1.5,1.5-1.5s1.5,0.7,1.5,1.5v59.3
			C86.8,193.4,86.1,194.1,85.3,194.1z"/>
	</g>
	<g id="XMLID_14_">
		<path class="st0" d="M246.9,49.2c-0.8,0-1.5-0.7-1.5-1.5V29c-0.4-1-2.4-5.7-7.7-7.5c-0.8-0.3-1.2-1.1-0.9-1.9
			c0.3-0.8,1.1-1.2,1.9-0.9c7.3,2.5,9.6,9.4,9.6,9.7c0,0.1,0.1,0.3,0.1,0.4v19C248.4,48.5,247.7,49.2,246.9,49.2z"/>
	</g>
	<g id="XMLID_13_">
		<path class="st0" d="M229.4,49.3c-0.8,0-1.5-0.7-1.5-1.5v-19c0-0.2,0-0.3,0.1-0.4c0.1-0.3,2.3-7.2,9.6-9.7
			c0.8-0.3,1.6,0.1,1.9,0.9c0.3,0.8-0.1,1.6-0.9,1.9c-5.2,1.8-7.3,6.5-7.7,7.5v18.7C230.9,48.6,230.2,49.3,229.4,49.3z"/>
	</g>
	<g id="XMLID_12_">
		<path class="st0" d="M185.3,289.7c-0.8,0-1.5-0.7-1.5-1.5v-52.5c-0.9-2.4-9.5-25.5-34.2-34c-0.8-0.3-1.2-1.1-0.9-1.9
			c0.3-0.8,1.1-1.2,1.9-0.9c27.4,9.4,35.8,35.1,36.1,36.2c0,0.1,0.1,0.3,0.1,0.5v52.7C186.8,289,186.1,289.7,185.3,289.7z"/>
	</g>
	<g id="XMLID_11_">
		<path class="st0" d="M114.9,289.8c-0.8,0-1.5-0.7-1.5-1.5v-52.9c0-0.2,0-0.3,0.1-0.5c0.3-1.1,8.7-26.7,36.1-36.2
			c0.8-0.3,1.6,0.1,1.9,0.9c0.3,0.8-0.1,1.6-0.9,1.9c-24.7,8.5-33.3,31.6-34.2,34v52.7C116.4,289.1,115.7,289.8,114.9,289.8z"/>
	</g>
	<g id="XMLID_10_">
		<path class="st0" d="M52.5,133.3c-0.8,0-1.5-0.7-1.5-1.5v-31.2c0-0.8,0.7-1.5,1.5-1.5s1.5,0.7,1.5,1.5v31.2
			C54,132.6,53.3,133.3,52.5,133.3z"/>
	</g>
	<g id="XMLID_9_">
		<path class="st0" d="M71.2,133.3c-0.8,0-1.5-0.7-1.5-1.5v-31.2c0-0.8,0.7-1.5,1.5-1.5s1.5,0.7,1.5,1.5v31.2
			C72.7,132.6,72,133.3,71.2,133.3z"/>
	</g>
	<g id="XMLID_8_">
		<path class="st0" d="M78.8,101.1h-34c-0.8,0-1.5-0.7-1.5-1.5V81.7c0-0.8,0.7-1.5,1.5-1.5h34c0.8,0,1.5,0.7,1.5,1.5v17.9
			C80.3,100.4,79.6,101.1,78.8,101.1z M46.3,98.1h31V83.2h-31V98.1z"/>
	</g>
	<g id="XMLID_7_">
		<path class="st0" d="M52.5,81.7c-0.8,0-1.5-0.7-1.5-1.5V64c0-0.8,0.7-1.5,1.5-1.5S54,63.2,54,64v16.2C54,81,53.3,81.7,52.5,81.7z"
			/>
	</g>
	<g id="XMLID_6_">
		<path class="st0" d="M71.2,81.7c-0.8,0-1.5-0.7-1.5-1.5V64c0-0.8,0.7-1.5,1.5-1.5s1.5,0.7,1.5,1.5v16.2C72.7,81,72,81.7,71.2,81.7
			z"/>
	</g>
	<g id="XMLID_5_">
		<path class="st0" d="M76.1,64H47.5c-0.8,0-1.5-0.7-1.5-1.5V48.1c0-0.8,0.7-1.5,1.5-1.5h28.6c0.8,0,1.5,0.7,1.5,1.5v14.4
			C77.6,63.3,76.9,64,76.1,64z M49,61h25.6V49.6H49V61z"/>
	</g>
	<g id="XMLID_4_">
		<path class="st0" d="M70.5,34.9H53.7c-0.8,0-1.5-0.7-1.5-1.5s0.7-1.5,1.5-1.5h16.8c0.8,0,1.5,0.7,1.5,1.5S71.3,34.9,70.5,34.9z"/>
	</g>
	<g id="XMLID_3_">
		<path class="st0" d="M61.7,21.4C61.7,21.4,61.7,21.4,61.7,21.4c-0.9,0-1.5-0.7-1.5-1.5l0.2-8.8c0-0.8,0.7-1.5,1.5-1.5
			c0.8,0,1.5,0.7,1.5,1.5l-0.2,8.8C63.2,20.8,62.5,21.4,61.7,21.4z"/>
	</g>
	<g id="XMLID_2_">
		<path class="st0" d="M70.6,49.2c-0.8,0-1.5-0.7-1.5-1.5V29c-0.4-1-2.4-5.7-7.7-7.5c-0.8-0.3-1.2-1.1-0.9-1.9
			c0.3-0.8,1.1-1.2,1.9-0.9c7.3,2.5,9.6,9.4,9.6,9.7c0,0.1,0.1,0.3,0.1,0.4v19C72.1,48.5,71.4,49.2,70.6,49.2z"/>
	</g>
	<g id="XMLID_1_">
		<path class="st0" d="M53.1,49.3c-0.8,0-1.5-0.7-1.5-1.5v-19c0-0.2,0-0.3,0.1-0.4c0.1-0.3,2.3-7.2,9.6-9.7c0.8-0.3,1.6,0.1,1.9,0.9
			c0.3,0.8-0.1,1.6-0.9,1.9C57,23.3,55,28,54.6,29.1v18.7C54.6,48.6,53.9,49.3,53.1,49.3z"/>
	</g>
</g>
</svg>
