<?xml version="1.0" encoding="utf-8"?>
<!-- Generator: Adobe Illustrator 19.0.0, SVG Export Plug-In . SVG Version: 6.00 Build 0)  -->
<svg version="1.1" id="Layer_1" xmlns="http://www.w3.org/2000/svg" xmlns:xlink="http://www.w3.org/1999/xlink" x="0px" y="0px"
	 viewBox="0 0 300 300" style="enable-background:new 0 0 300 300;" xml:space="preserve">
<style type="text/css">
	.st0{fill:#1D1D1D;}
</style>
<g>
	<g id="XMLID_35_">
		<path class="st0" d="M289.6,282.1H10.4c-0.8,0-1.5-0.7-1.5-1.5s0.7-1.5,1.5-1.5h279.2c0.8,0,1.5,0.7,1.5,1.5
			S290.4,282.1,289.6,282.1z"/>
	</g>
	<g id="XMLID_34_">
		<path class="st0" d="M249.1,282H141c-0.8,0-1.5-0.7-1.5-1.5V19.4c0-0.8,0.7-1.5,1.5-1.5h108.1c0.8,0,1.5,0.7,1.5,1.5v261.1
			C250.6,281.3,249.9,282,249.1,282z M142.5,279h105.1V20.9H142.5V279z"/>
	</g>
	<g id="XMLID_33_">
		<path class="st0" d="M226.5,201h-63c-0.8,0-1.5-0.7-1.5-1.5v-45c0-0.8,0.7-1.5,1.5-1.5h7.5v-7.5c0-0.8,0.7-1.5,1.5-1.5h45
			c0.8,0,1.5,0.7,1.5,1.5v7.5h7.5c0.8,0,1.5,0.7,1.5,1.5v45C228,200.3,227.3,201,226.5,201z M165,198h60v-42h-7.5
			c-0.8,0-1.5-0.7-1.5-1.5V147h-42v7.5c0,0.8-0.7,1.5-1.5,1.5H165V198z"/>
	</g>
	<g id="XMLID_32_">
		<path class="st0" d="M226.5,282.1h-63c-0.8,0-1.5-0.7-1.5-1.5v-36.1c0-0.8,0.7-1.5,1.5-1.5h7.5v-7.5c0-0.8,0.7-1.5,1.5-1.5h45
			c0.8,0,1.5,0.7,1.5,1.5v7.5h7.5c0.8,0,1.5,0.7,1.5,1.5v36.1C228,281.4,227.3,282.1,226.5,282.1z M165,279.1h60V246h-7.5
			c-0.8,0-1.5-0.7-1.5-1.5V237h-42v7.5c0,0.8-0.7,1.5-1.5,1.5H165V279.1z"/>
	</g>
	<g id="XMLID_31_">
		<path class="st0" d="M226.5,111h-63c-0.8,0-1.5-0.7-1.5-1.5v-45c0-0.8,0.7-1.5,1.5-1.5h7.5v-7.5c0-0.8,0.7-1.5,1.5-1.5h45
			c0.8,0,1.5,0.7,1.5,1.5V63h7.5c0.8,0,1.5,0.7,1.5,1.5v45C228,110.3,227.3,111,226.5,111z M165,108h60V66h-7.5
			c-0.8,0-1.5-0.7-1.5-1.5V57h-42v7.5c0,0.8-0.7,1.5-1.5,1.5H165V108z"/>
	</g>
	<g id="XMLID_30_">
		<path class="st0" d="M186,282.1c-0.8,0-1.5-0.7-1.5-1.5v-45.1c0-0.8,0.7-1.5,1.5-1.5s1.5,0.7,1.5,1.5v45.1
			C187.5,281.4,186.8,282.1,186,282.1z"/>
	</g>
	<g id="XMLID_29_">
		<path class="st0" d="M204,282.1c-0.8,0-1.5-0.7-1.5-1.5v-45.1c0-0.8,0.7-1.5,1.5-1.5s1.5,0.7,1.5,1.5v45.1
			C205.5,281.4,204.8,282.1,204,282.1z"/>
	</g>
	<g id="XMLID_28_">
		<path class="st0" d="M186,201c-0.8,0-1.5-0.7-1.5-1.5v-54c0-0.8,0.7-1.5,1.5-1.5s1.5,0.7,1.5,1.5v54
			C187.5,200.3,186.8,201,186,201z"/>
	</g>
	<g id="XMLID_27_">
		<path class="st0" d="M204,201c-0.8,0-1.5-0.7-1.5-1.5v-54c0-0.8,0.7-1.5,1.5-1.5s1.5,0.7,1.5,1.5v54
			C205.5,200.3,204.8,201,204,201z"/>
	</g>
	<g id="XMLID_26_">
		<path class="st0" d="M186,111c-0.8,0-1.5-0.7-1.5-1.5v-54c0-0.8,0.7-1.5,1.5-1.5s1.5,0.7,1.5,1.5v54
			C187.5,110.3,186.8,111,186,111z"/>
	</g>
	<g id="XMLID_25_">
		<path class="st0" d="M204,111c-0.8,0-1.5-0.7-1.5-1.5v-54c0-0.8,0.7-1.5,1.5-1.5s1.5,0.7,1.5,1.5v54
			C205.5,110.3,204.8,111,204,111z"/>
	</g>
	<g id="XMLID_24_">
		<path class="st0" d="M222,38.9c-0.4,0-0.8-0.2-1.1-0.4c-0.3-0.3-0.4-0.7-0.4-1.1s0.2-0.8,0.4-1.1c0.6-0.6,1.6-0.6,2.1,0
			c0.3,0.3,0.4,0.7,0.4,1.1s-0.2,0.8-0.4,1.1C222.8,38.7,222.4,38.9,222,38.9z"/>
	</g>
	<g id="XMLID_23_">
		<path class="st0" d="M204,38.9c-0.4,0-0.8-0.2-1.1-0.4c-0.3-0.3-0.4-0.7-0.4-1.1s0.2-0.8,0.4-1.1c0.6-0.6,1.6-0.6,2.1,0
			c0.3,0.3,0.4,0.7,0.4,1.1s-0.2,0.8-0.4,1.1C204.8,38.7,204.4,38.9,204,38.9z"/>
	</g>
	<g id="XMLID_22_">
		<path class="st0" d="M186,38.9c-0.4,0-0.8-0.2-1.1-0.4c-0.3-0.3-0.4-0.7-0.4-1.1s0.2-0.8,0.4-1.1c0.6-0.6,1.6-0.6,2.1,0
			c0.3,0.3,0.4,0.7,0.4,1.1s-0.2,0.8-0.4,1.1C186.8,38.7,186.4,38.9,186,38.9z"/>
	</g>
	<g id="XMLID_21_">
		<path class="st0" d="M168,38.9c-0.4,0-0.8-0.2-1.1-0.4c-0.3-0.3-0.4-0.7-0.4-1.1s0.2-0.8,0.4-1.1c0.6-0.6,1.6-0.6,2.1,0
			c0.3,0.3,0.4,0.7,0.4,1.1s-0.2,0.8-0.4,1.1C168.8,38.7,168.4,38.9,168,38.9z"/>
	</g>
	<g id="XMLID_20_">
		<path class="st0" d="M222,129c-0.4,0-0.8-0.2-1.1-0.4c-0.3-0.3-0.4-0.7-0.4-1.1c0-0.4,0.2-0.8,0.4-1.1c0.6-0.6,1.6-0.6,2.1,0
			c0.3,0.3,0.4,0.7,0.4,1.1c0,0.4-0.2,0.8-0.4,1.1C222.8,128.8,222.4,129,222,129z"/>
	</g>
	<g id="XMLID_19_">
		<path class="st0" d="M204,129c-0.4,0-0.8-0.2-1.1-0.4c-0.3-0.3-0.4-0.7-0.4-1.1c0-0.4,0.2-0.8,0.4-1.1c0.6-0.6,1.6-0.6,2.1,0
			c0.3,0.3,0.4,0.7,0.4,1.1c0,0.4-0.2,0.8-0.4,1.1C204.8,128.8,204.4,129,204,129z"/>
	</g>
	<g id="XMLID_18_">
		<path class="st0" d="M186,129c-0.4,0-0.8-0.2-1.1-0.4c-0.3-0.3-0.4-0.7-0.4-1.1c0-0.4,0.2-0.8,0.4-1.1c0.6-0.6,1.6-0.6,2.1,0
			c0.3,0.3,0.4,0.7,0.4,1.1c0,0.4-0.2,0.8-0.4,1.1C186.8,128.8,186.4,129,186,129z"/>
	</g>
	<g id="XMLID_17_">
		<path class="st0" d="M168,129c-0.4,0-0.8-0.2-1.1-0.4c-0.3-0.3-0.4-0.7-0.4-1.1c0-0.4,0.2-0.8,0.4-1.1c0.6-0.6,1.6-0.6,2.1,0
			c0.3,0.3,0.4,0.7,0.4,1.1c0,0.4-0.2,0.8-0.4,1.1C168.8,128.8,168.4,129,168,129z"/>
	</g>
	<g id="XMLID_16_">
		<path class="st0" d="M222,219c-0.4,0-0.8-0.2-1.1-0.4c-0.3-0.3-0.4-0.7-0.4-1.1c0-0.4,0.2-0.8,0.4-1.1c0.6-0.6,1.6-0.6,2.1,0
			c0.3,0.3,0.4,0.7,0.4,1.1c0,0.4-0.2,0.8-0.4,1.1C222.8,218.8,222.4,219,222,219z"/>
	</g>
	<g id="XMLID_15_">
		<path class="st0" d="M204,219c-0.4,0-0.8-0.2-1.1-0.4c-0.3-0.3-0.4-0.7-0.4-1.1c0-0.4,0.2-0.8,0.4-1.1c0.6-0.6,1.6-0.6,2.1,0
			c0.3,0.3,0.4,0.7,0.4,1.1c0,0.4-0.2,0.8-0.4,1.1C204.8,218.8,204.4,219,204,219z"/>
	</g>
	<g id="XMLID_14_">
		<path class="st0" d="M186,219c-0.4,0-0.8-0.2-1.1-0.4c-0.3-0.3-0.4-0.7-0.4-1.1c0-0.4,0.2-0.8,0.4-1.1c0.6-0.6,1.6-0.6,2.1,0
			c0.3,0.3,0.4,0.7,0.4,1.1c0,0.4-0.2,0.8-0.4,1.1C186.8,218.8,186.4,219,186,219z"/>
	</g>
	<g id="XMLID_13_">
		<path class="st0" d="M168,219c-0.4,0-0.8-0.2-1.1-0.4c-0.3-0.3-0.4-0.7-0.4-1.1c0-0.4,0.2-0.8,0.4-1.1c0.6-0.6,1.6-0.6,2.1,0
			c0.3,0.3,0.4,0.7,0.4,1.1c0,0.4-0.2,0.8-0.4,1.1C168.8,218.8,168.4,219,168,219z"/>
	</g>
	<g id="XMLID_12_">
		<path class="st0" d="M253.6,219h-9.1c-0.8,0-1.5-0.7-1.5-1.5s0.7-1.5,1.5-1.5h9.1c0.8,0,1.5,0.7,1.5,1.5S254.4,219,253.6,219z"/>
	</g>
	<g id="XMLID_11_">
		<path class="st0" d="M145.5,219h-9c-0.8,0-1.5-0.7-1.5-1.5s0.7-1.5,1.5-1.5h9c0.8,0,1.5,0.7,1.5,1.5S146.3,219,145.5,219z"/>
	</g>
	<g id="XMLID_10_">
		<path class="st0" d="M253.6,129h-9.1c-0.8,0-1.5-0.7-1.5-1.5s0.7-1.5,1.5-1.5h9.1c0.8,0,1.5,0.7,1.5,1.5S254.4,129,253.6,129z"/>
	</g>
	<g id="XMLID_9_">
		<path class="st0" d="M145.5,129h-9c-0.8,0-1.5-0.7-1.5-1.5s0.7-1.5,1.5-1.5h9c0.8,0,1.5,0.7,1.5,1.5S146.3,129,145.5,129z"/>
	</g>
	<g id="XMLID_8_">
		<path class="st0" d="M253.6,38.9h-9.1c-0.8,0-1.5-0.7-1.5-1.5s0.7-1.5,1.5-1.5h9.1c0.8,0,1.5,0.7,1.5,1.5S254.4,38.9,253.6,38.9z"
			/>
	</g>
	<g id="XMLID_7_">
		<path class="st0" d="M145.5,38.9h-9c-0.8,0-1.5-0.7-1.5-1.5s0.7-1.5,1.5-1.5h9c0.8,0,1.5,0.7,1.5,1.5S146.3,38.9,145.5,38.9z"/>
	</g>
	<g id="XMLID_6_">
		<path class="st0" d="M107.4,187.9c-11.9,0-26.7-2-44.2-8.1c-17.3-6-35.3-15.4-53.7-27.9c-0.7-0.5-0.9-1.4-0.4-2.1s1.4-0.9,2.1-0.4
			c18.1,12.4,35.9,21.6,52.9,27.5c48.3,16.7,75.8,1.4,76.1,1.2c0.7-0.4,1.6-0.2,2,0.5c0.4,0.7,0.2,1.6-0.5,2
			C141,181.2,129.2,187.9,107.4,187.9z"/>
	</g>
	<g id="XMLID_5_">
		<path class="st0" d="M10.4,207.8c-0.6,0-1.2-0.4-1.4-1c-0.3-0.8,0.2-1.6,1-1.9c19.1-6.3,36.9-15.6,52.9-27.7
			c62-46.9,76.6-121,76.7-121.8c0.2-0.8,0.9-1.3,1.8-1.2c0.8,0.2,1.4,0.9,1.2,1.8c-0.1,0.8-14.9,76-77.9,123.6
			c-16.3,12.2-34.4,21.7-53.7,28.1C10.7,207.8,10.6,207.8,10.4,207.8z"/>
	</g>
	<g id="XMLID_4_">
		<path class="st0" d="M114,282.1c-0.8,0-1.5-0.7-1.5-1.5V121.9c0-0.8,0.7-1.5,1.5-1.5s1.5,0.7,1.5,1.5v158.7
			C115.5,281.4,114.8,282.1,114,282.1z"/>
	</g>
	<g id="XMLID_3_">
		<path class="st0" d="M87,282.1c-0.8,0-1.5-0.7-1.5-1.5v-123c0-0.8,0.7-1.5,1.5-1.5s1.5,0.7,1.5,1.5v123
			C88.5,281.4,87.8,282.1,87,282.1z"/>
	</g>
	<g id="XMLID_2_">
		<path class="st0" d="M60,282.1c-0.8,0-1.5-0.7-1.5-1.5V177.1c0-0.8,0.7-1.5,1.5-1.5s1.5,0.7,1.5,1.5v103.5
			C61.5,281.4,60.8,282.1,60,282.1z"/>
	</g>
	<g id="XMLID_1_">
		<path class="st0" d="M32.9,282.1c-0.8,0-1.5-0.7-1.5-1.5v-116c0-0.8,0.7-1.5,1.5-1.5s1.5,0.7,1.5,1.5v116
			C34.4,281.4,33.7,282.1,32.9,282.1z"/>
	</g>
</g>
</svg>
