<?xml version="1.0" encoding="utf-8"?>
<!-- Generator: Adobe Illustrator 19.0.0, SVG Export Plug-In . SVG Version: 6.00 Build 0)  -->
<svg version="1.1" id="Layer_1" xmlns="http://www.w3.org/2000/svg" xmlns:xlink="http://www.w3.org/1999/xlink" x="0px" y="0px"
	 viewBox="0 0 300 300" style="enable-background:new 0 0 300 300;" xml:space="preserve">
<style type="text/css">
	.st0{fill:#1D1D1D;}
</style>
<g id="XMLID_98_">
	<g id="XMLID_134_">
		<path class="st0" d="M163.6,29h-27.2c-0.5,0-0.9-0.2-1.2-0.6s-0.4-0.8-0.3-1.3L139.4,9c0.2-0.7,0.8-1.1,1.5-1.1h18.2
			c0.7,0,1.3,0.5,1.5,1.1l4.5,18.1c0.1,0.4,0,0.9-0.3,1.3S164.1,29,163.6,29z M138.3,26h23.4l-3.8-15.1h-15.9L138.3,26z"/>
	</g>
	<g id="XMLID_133_">
		<path class="st0" d="M150,264.9c-65.8,0-119.4-53.6-119.4-119.4c0-32,12.4-62,35-84.6c22.5-22.5,52.4-34.8,84.2-34.8
			c0.1,0,0.1,0,0.2,0c65.8,0,119.4,53.6,119.4,119.4C269.4,211.3,215.8,264.9,150,264.9z M149.8,29.1c-31,0-60.1,12.1-82.1,34
			c-22,22-34.2,51.3-34.2,82.4c0,64.2,52.2,116.4,116.4,116.4c64.2,0,116.4-52.2,116.4-116.4c0-64.2-52.2-116.4-116.4-116.4
			C149.9,29.1,149.9,29.1,149.8,29.1z"/>
	</g>
	<g id="XMLID_132_">
		<path class="st0" d="M150,237.7c-50.8,0-92.2-41.4-92.2-92.2c0-50.8,41.4-92.2,92.2-92.2c50.8,0,92.2,41.4,92.2,92.2
			C242.2,196.3,200.8,237.7,150,237.7z M150,56.3c-49.2,0-89.2,40-89.2,89.2c0,49.2,40,89.2,89.2,89.2c49.2,0,89.2-40,89.2-89.2
			C239.2,96.3,199.2,56.3,150,56.3z"/>
	</g>
	<g id="XMLID_131_">
		<path class="st0" d="M32.1,160.6c-0.1,0-0.2,0-0.4,0L13.5,156c-0.7-0.2-1.1-0.8-1.1-1.5v-18.1c0-0.7,0.5-1.3,1.1-1.5l18.2-4.5
			c0.4-0.1,0.9,0,1.3,0.3c0.4,0.3,0.6,0.7,0.6,1.2v27.2c0,0.5-0.2,0.9-0.6,1.2C32.8,160.5,32.4,160.6,32.1,160.6z M15.4,153.3
			l15.2,3.8v-23.4l-15.2,3.8V153.3z"/>
	</g>
	<g id="XMLID_130_">
		<path class="st0" d="M267.9,160.6c-0.3,0-0.7-0.1-0.9-0.3c-0.4-0.3-0.6-0.7-0.6-1.2v-27.2c0-0.5,0.2-0.9,0.6-1.2
			c0.4-0.3,0.8-0.4,1.3-0.3l18.2,4.5c0.7,0.2,1.1,0.8,1.1,1.5v18.1c0,0.7-0.5,1.3-1.1,1.5l-18.2,4.6
			C268.1,160.6,268,160.6,267.9,160.6z M269.4,133.8v23.4l15.2-3.8v-15.8L269.4,133.8z"/>
	</g>
	<g id="XMLID_129_">
		<path class="st0" d="M57,73.2c-0.1,0-0.1,0-0.2,0c-0.5-0.1-0.9-0.3-1.1-0.7l-9.6-16c-0.4-0.6-0.3-1.3,0.2-1.8l12.8-12.9
			c0.5-0.5,1.2-0.6,1.8-0.2l16,9.7c0.4,0.2,0.7,0.6,0.7,1.1c0.1,0.5-0.1,0.9-0.4,1.2L58.1,72.8C57.8,73,57.4,73.2,57,73.2z
			 M49.3,55.9l8,13.4l16.5-16.5l-13.4-8.1L49.3,55.9z"/>
	</g>
	<g id="XMLID_128_">
		<path class="st0" d="M239.8,249.6c-0.3,0-0.5-0.1-0.8-0.2l-16-9.6c-0.4-0.2-0.7-0.6-0.7-1.1c-0.1-0.5,0.1-0.9,0.4-1.2l19.2-19.3
			c0.3-0.3,0.8-0.5,1.2-0.4c0.5,0.1,0.9,0.3,1.1,0.7l9.6,16.1c0.4,0.6,0.3,1.3-0.2,1.8l-12.8,12.8
			C240.6,249.4,240.2,249.6,239.8,249.6z M226.2,238.2l13.4,8l11.1-11.1l-8-13.4L226.2,238.2z"/>
	</g>
	<g id="XMLID_127_">
		<path class="st0" d="M60.2,249.6c-0.4,0-0.8-0.2-1.1-0.4l-12.8-12.8c-0.5-0.5-0.6-1.2-0.2-1.8l9.6-16.1c0.2-0.4,0.6-0.7,1.1-0.7
			c0.5-0.1,0.9,0.1,1.2,0.4l19.2,19.3c0.3,0.3,0.5,0.8,0.4,1.2c-0.1,0.5-0.3,0.9-0.7,1.1l-16,9.6C60.7,249.5,60.5,249.6,60.2,249.6z
			 M49.3,235.1l11.1,11.1l13.4-8l-16.5-16.6L49.3,235.1z"/>
	</g>
	<g id="XMLID_126_">
		<path class="st0" d="M243,73.2c-0.4,0-0.8-0.2-1.1-0.4l-19.2-19.2c-0.3-0.3-0.5-0.8-0.4-1.2c0.1-0.5,0.3-0.9,0.7-1.1l16-9.7
			c0.6-0.4,1.4-0.3,1.8,0.2l12.8,12.9c0.5,0.5,0.6,1.2,0.2,1.8l-9.6,16c-0.2,0.4-0.6,0.7-1.1,0.7C243.1,73.2,243.1,73.2,243,73.2z
			 M226.2,52.8l16.5,16.5l8-13.4l-11.1-11.2L226.2,52.8z"/>
	</g>
	<g id="XMLID_125_">
		<path class="st0" d="M92.3,43.2c-0.3,0-0.5-0.1-0.7-0.2c-0.4-0.2-0.7-0.6-0.7-1.1l-2.7-18.5c-0.1-0.7,0.3-1.3,0.9-1.6l16.7-6.9
			c0.6-0.3,1.4-0.1,1.8,0.5l11.1,15c0.3,0.4,0.4,0.8,0.2,1.3c-0.1,0.4-0.4,0.8-0.9,1L92.9,43.1C92.7,43.2,92.5,43.2,92.3,43.2z
			 M91.3,24.1l2.3,15.4l21.5-8.9l-9.3-12.5L91.3,24.1z"/>
	</g>
	<g id="XMLID_124_">
		<path class="st0" d="M193.7,276.1c-0.5,0-0.9-0.2-1.2-0.6l-11.1-15c-0.3-0.4-0.4-0.8-0.2-1.3c0.1-0.4,0.4-0.8,0.9-1l25.1-10.4
			c0.4-0.2,0.9-0.1,1.3,0.1c0.4,0.2,0.7,0.6,0.7,1.1l2.7,18.5c0.1,0.7-0.3,1.3-0.9,1.6l-16.7,6.9
			C194.1,276.1,193.9,276.1,193.7,276.1z M184.9,260.3l9.3,12.5l14.5-6l-2.3-15.4L184.9,260.3z"/>
	</g>
	<g id="XMLID_123_">
		<path class="st0" d="M27.8,207.4c-0.6,0-1.1-0.4-1.4-0.9l-7-16.7c-0.3-0.6-0.1-1.4,0.5-1.8l15-11.2c0.4-0.3,0.8-0.4,1.3-0.2
			c0.4,0.1,0.8,0.4,1,0.9l10.5,25.2c0.2,0.4,0.1,0.9-0.1,1.3c-0.2,0.4-0.6,0.7-1.1,0.7L28,207.4C27.9,207.4,27.9,207.4,27.8,207.4z
			 M22.6,189.7l6.1,14.5l15.4-2.3l-9-21.6L22.6,189.7z"/>
	</g>
	<g id="XMLID_122_">
		<path class="st0" d="M264.2,114.4c-0.1,0-0.3,0-0.4-0.1c-0.4-0.1-0.8-0.4-1-0.9l-10.5-25.1c-0.2-0.4-0.2-0.9,0.1-1.3
			s0.6-0.7,1.1-0.7l18.5-2.8c0.7-0.1,1.3,0.3,1.6,0.9l7,16.8c0.3,0.6,0.1,1.4-0.5,1.8l-15,11.1C264.8,114.3,264.5,114.4,264.2,114.4
			z M255.8,89l9,21.6l12.5-9.3l-6.1-14.6L255.8,89z"/>
	</g>
	<g id="XMLID_121_">
		<path class="st0" d="M35.8,114.4c-0.3,0-0.6-0.1-0.9-0.3l-15-11.1c-0.6-0.4-0.8-1.1-0.5-1.8l7-16.8c0.3-0.6,0.9-1,1.6-0.9
			l18.5,2.8c0.5,0.1,0.9,0.3,1.1,0.7s0.3,0.9,0.1,1.3l-10.5,25.1c-0.2,0.4-0.5,0.7-1,0.9C36.1,114.4,35.9,114.4,35.8,114.4z
			 M22.6,101.3l12.5,9.3l9-21.6l-15.4-2.3L22.6,101.3z"/>
	</g>
	<g id="XMLID_120_">
		<path class="st0" d="M272.2,207.4c-0.1,0-0.1,0-0.2,0l-18.5-2.7c-0.5-0.1-0.9-0.3-1.1-0.7c-0.2-0.4-0.3-0.9-0.1-1.3l10.5-25.2
			c0.2-0.4,0.5-0.7,1-0.9c0.4-0.1,0.9,0,1.3,0.2l15,11.2c0.6,0.4,0.8,1.1,0.5,1.8l-7,16.7C273.3,207,272.8,207.4,272.2,207.4z
			 M255.8,202l15.4,2.3l6.1-14.5l-12.5-9.3L255.8,202z"/>
	</g>
	<g id="XMLID_119_">
		<path class="st0" d="M106.3,276.1c-0.2,0-0.4,0-0.6-0.1l-16.8-6.9c-0.6-0.3-1-0.9-0.9-1.6l2.8-18.5c0.1-0.5,0.3-0.9,0.7-1.1
			c0.4-0.2,0.9-0.3,1.3-0.1l25.1,10.4c0.4,0.2,0.7,0.5,0.9,1c0.1,0.4,0,0.9-0.2,1.3l-11.1,15C107.2,275.9,106.8,276.1,106.3,276.1z
			 M91.2,266.8l14.6,6l9.3-12.5l-21.6-8.9L91.2,266.8z"/>
	</g>
	<g id="XMLID_118_">
		<path class="st0" d="M207.7,43.2c-0.2,0-0.4,0-0.6-0.1L182,32.7c-0.4-0.2-0.7-0.5-0.9-1c-0.1-0.4,0-0.9,0.2-1.3l11.1-15
			c0.4-0.6,1.1-0.8,1.8-0.5l16.7,6.9c0.6,0.3,1,0.9,0.9,1.6l-2.7,18.5c-0.1,0.5-0.3,0.9-0.7,1.1C208.2,43.1,208,43.2,207.7,43.2z
			 M184.9,30.6l21.5,8.9l2.3-15.4l-14.5-6L184.9,30.6z"/>
	</g>
	<g id="XMLID_117_">
		<path class="st0" d="M199.9,292.1h-99.8c-0.8,0-1.5-0.7-1.5-1.5s0.7-1.5,1.5-1.5h99.8c0.8,0,1.5,0.7,1.5,1.5
			S200.7,292.1,199.9,292.1z"/>
	</g>
	<g id="XMLID_116_">
		<path class="st0" d="M131.9,292.1c-0.1,0-0.1,0-0.2,0c-0.8-0.1-1.4-0.9-1.3-1.7l18.1-131.5c0.1-0.8,0.9-1.4,1.7-1.3
			c0.8,0.1,1.4,0.9,1.3,1.7l-18.1,131.5C133.3,291.6,132.6,292.1,131.9,292.1z"/>
	</g>
	<g id="XMLID_115_">
		<path class="st0" d="M168.1,292.1c-0.7,0-1.4-0.5-1.5-1.3l-18.1-131.5c-0.1-0.8,0.5-1.6,1.3-1.7c0.8-0.1,1.6,0.5,1.7,1.3
			l18.1,131.5c0.1,0.8-0.5,1.6-1.3,1.7C168.2,292.1,168.2,292.1,168.1,292.1z"/>
	</g>
	<g id="XMLID_114_">
		<path class="st0" d="M150,160.6c-8.3,0-15.1-6.8-15.1-15.1s6.8-15.1,15.1-15.1s15.1,6.8,15.1,15.1S158.3,160.6,150,160.6z
			 M150,133.4c-6.7,0-12.1,5.4-12.1,12.1s5.4,12.1,12.1,12.1s12.1-5.4,12.1-12.1S156.7,133.4,150,133.4z"/>
	</g>
	<g id="XMLID_113_">
		<path class="st0" d="M150,133.4c-0.8,0-1.5-0.7-1.5-1.5V54.8c0-0.8,0.7-1.5,1.5-1.5c0.8,0,1.5,0.7,1.5,1.5v77.1
			C151.5,132.7,150.8,133.4,150,133.4z"/>
	</g>
	<g id="XMLID_112_">
		<path class="st0" d="M136.4,147H59.3c-0.8,0-1.5-0.7-1.5-1.5s0.7-1.5,1.5-1.5h77.1c0.8,0,1.5,0.7,1.5,1.5S137.2,147,136.4,147z"/>
	</g>
	<g id="XMLID_111_">
		<path class="st0" d="M240.7,147h-77.1c-0.8,0-1.5-0.7-1.5-1.5s0.7-1.5,1.5-1.5h77.1c0.8,0,1.5,0.7,1.5,1.5S241.5,147,240.7,147z"
			/>
	</g>
	<g id="XMLID_110_">
		<path class="st0" d="M140.4,137.4c-0.4,0-0.8-0.1-1.1-0.4L84.8,82.4c-0.6-0.6-0.6-1.5,0-2.1c0.6-0.6,1.5-0.6,2.1,0l54.5,54.6
			c0.6,0.6,0.6,1.5,0,2.1C141.2,137.3,140.8,137.4,140.4,137.4z"/>
	</g>
	<g id="XMLID_109_">
		<path class="st0" d="M214.1,211.1c-0.4,0-0.8-0.1-1.1-0.4l-54.5-54.5c-0.6-0.6-0.6-1.5,0-2.1s1.5-0.6,2.1,0l54.5,54.5
			c0.6,0.6,0.6,1.5,0,2.1C214.9,211,214.5,211.1,214.1,211.1z"/>
	</g>
	<g id="XMLID_108_">
		<path class="st0" d="M85.9,211.1c-0.4,0-0.8-0.1-1.1-0.4c-0.6-0.6-0.6-1.5,0-2.1l54.5-54.5c0.6-0.6,1.5-0.6,2.1,0s0.6,1.5,0,2.1
			L87,210.7C86.7,211,86.3,211.1,85.9,211.1z"/>
	</g>
	<g id="XMLID_107_">
		<path class="st0" d="M159.6,137.3c-0.4,0-0.8-0.1-1.1-0.4c-0.6-0.6-0.6-1.5,0-2.1L213,80.2c0.6-0.6,1.5-0.6,2.1,0
			c0.6,0.6,0.6,1.5,0,2.1l-54.5,54.5C160.4,137.2,160,137.3,159.6,137.3z"/>
	</g>
	<g id="XMLID_106_">
		<path class="st0" d="M144.8,134.4c-0.6,0-1.1-0.3-1.4-0.9l-29.5-71.3c-0.3-0.8,0-1.6,0.8-2c0.8-0.3,1.6,0,2,0.8l29.5,71.3
			c0.3,0.8,0,1.6-0.8,2C145.2,134.4,145,134.4,144.8,134.4z"/>
	</g>
	<g id="XMLID_105_">
		<path class="st0" d="M184.7,230.8c-0.6,0-1.1-0.3-1.4-0.9l-29.5-71.3c-0.3-0.8,0-1.6,0.8-2c0.8-0.3,1.6,0,2,0.8l29.5,71.3
			c0.3,0.8,0,1.6-0.8,2C185.1,230.8,184.9,230.8,184.7,230.8z"/>
	</g>
	<g id="XMLID_104_">
		<path class="st0" d="M66.2,181.7c-0.6,0-1.1-0.3-1.4-0.9c-0.3-0.8,0-1.6,0.8-2l71.2-29.5c0.8-0.3,1.6,0,2,0.8c0.3,0.8,0,1.6-0.8,2
			l-71.2,29.5C66.6,181.7,66.4,181.7,66.2,181.7z"/>
	</g>
	<g id="XMLID_103_">
		<path class="st0" d="M162.6,141.7c-0.6,0-1.1-0.3-1.4-0.9c-0.3-0.8,0-1.6,0.8-2l71.2-29.4c0.8-0.3,1.6,0,2,0.8
			c0.3,0.8,0,1.6-0.8,2l-71.2,29.4C163,141.7,162.8,141.7,162.6,141.7z"/>
	</g>
	<g id="XMLID_102_">
		<path class="st0" d="M137.4,141.8c-0.2,0-0.4,0-0.6-0.1l-71.2-29.5c-0.8-0.3-1.1-1.2-0.8-2c0.3-0.8,1.2-1.1,2-0.8l71.2,29.5
			c0.8,0.3,1.1,1.2,0.8,2C138.5,141.5,138,141.8,137.4,141.8z"/>
	</g>
	<g id="XMLID_101_">
		<path class="st0" d="M233.8,181.7c-0.2,0-0.4,0-0.6-0.1L162,152.1c-0.8-0.3-1.1-1.2-0.8-2c0.3-0.8,1.2-1.1,2-0.8l71.2,29.5
			c0.8,0.3,1.1,1.2,0.8,2C234.9,181.4,234.4,181.7,233.8,181.7z"/>
	</g>
	<g id="XMLID_100_">
		<path class="st0" d="M115.3,230.8c-0.2,0-0.4,0-0.6-0.1c-0.8-0.3-1.1-1.2-0.8-2l29.5-71.3c0.3-0.8,1.2-1.1,2-0.8
			c0.8,0.3,1.1,1.2,0.8,2l-29.5,71.3C116.4,230.5,115.9,230.8,115.3,230.8z"/>
	</g>
	<g id="XMLID_99_">
		<path class="st0" d="M155.2,134.4c-0.2,0-0.4,0-0.6-0.1c-0.8-0.3-1.1-1.2-0.8-2L183.3,61c0.3-0.8,1.2-1.1,2-0.8
			c0.8,0.3,1.1,1.2,0.8,2l-29.5,71.3C156.3,134.1,155.8,134.4,155.2,134.4z"/>
	</g>
</g>
</svg>
