<?xml version="1.0" encoding="utf-8"?>
<!-- Generator: Adobe Illustrator 19.0.0, SVG Export Plug-In . SVG Version: 6.00 Build 0)  -->
<svg version="1.1" id="Layer_1" xmlns="http://www.w3.org/2000/svg" xmlns:xlink="http://www.w3.org/1999/xlink" x="0px" y="0px"
	 viewBox="0 0 400 400" style="enable-background:new 0 0 400 400;" xml:space="preserve">
<style type="text/css">
	.st0{fill:#F6EB16;}
	.st1{fill:#222320;}
</style>
<path id="XMLID_5_" class="st0" d="M268.2,200c0,37.7-30.5,68.2-68.2,68.2s-68.2-30.5-68.2-68.2c0-37.7,30.5-68.2,68.2-68.2
	S268.2,162.3,268.2,200"/>
<path id="XMLID_7_" class="st1" d="M222.8,389h-45.7c-9.1,0-16.7-6.8-17.6-15.9l-4.7-28.1c-8.8-2.7-17.3-6.3-25.5-10.6l-23.5,16.8
	c-2.8,2.3-6.8,3.7-10.9,3.7c-4.7,0-9.1-1.9-12.5-5.2l-32.3-32.3c-6.4-6.5-7-16.6-1.2-23.7l16.5-23.2c-4.3-8.2-7.9-16.7-10.6-25.5
	l-28.5-4.8C17.8,239.5,11,232,11,222.8v-45.7c0-9.1,6.8-16.7,15.9-17.6l28.1-4.7c2.7-8.8,6.3-17.4,10.6-25.5l-16.8-23.5
	c-5.5-6.7-5-16.9,1.4-23.3l32.3-32.3c6.2-6.2,16.9-6.7,23.7-1.2l23.2,16.6c8.1-4.3,16.7-7.8,25.5-10.6l4.7-28.5
	c0.9-8.7,8.4-15.5,17.5-15.5h45.7c9.1,0,16.7,6.8,17.6,15.9l4.7,28.1c8.8,2.7,17.4,6.3,25.5,10.6l23.5-16.8
	c2.8-2.3,6.8-3.7,10.9-3.7c4.7,0,9.1,1.8,12.5,5.2l32.3,32.3c6.4,6.4,7,16.6,1.2,23.7l-16.6,23.2c4.3,8.1,7.8,16.7,10.6,25.5
	l28.5,4.8c8.7,0.9,15.5,8.4,15.5,17.5v45.7c0,9.2-6.8,16.7-15.9,17.6l-28.1,4.7c-2.7,8.8-6.3,17.4-10.6,25.5l16.8,23.5
	c5.5,6.8,5,16.9-1.5,23.4l-32.3,32.3c-6.2,6.2-16.9,6.8-23.7,1.2l-23.2-16.5c-8.2,4.3-16.7,7.9-25.5,10.6l-4.8,28.5
	C239.5,382.2,232,389,222.8,389 M128.9,320.8c1.1,0,2.1,0.3,3,0.8c9.5,5.3,19.7,9.5,30.2,12.5c2.3,0.7,4.1,2.6,4.5,5l5.4,32.3
	c0.3,3,2.6,5,5.2,5h45.7c2.6,0,4.9-2,5.2-4.6l5.5-32.7c0.4-2.4,2.1-4.3,4.5-5c10.5-3,20.6-7.2,30.1-12.5c2.1-1.2,4.7-1.1,6.7,0.4
	l26.7,19c2.7,2.2,5.4,1.7,7.3-0.1l32.3-32.3c1.9-1.9,2-4.9,0.3-7l-19.3-27c-1.4-2-1.6-4.6-0.4-6.7c5.3-9.5,9.6-19.6,12.5-30.1
	c0.6-2.3,2.6-4.1,5-4.5l32.4-5.4c3-0.3,5-2.6,5-5.2v-45.7c0-2.6-2-4.9-4.6-5.1l-32.7-5.5c-2.4-0.4-4.3-2.1-5-4.5
	c-3-10.5-7.2-20.6-12.5-30.1c-1.2-2.1-1-4.7,0.4-6.7l19.1-26.7c1.9-2.4,1.8-5.4-0.1-7.3l-32.3-32.3c-1.8-1.8-5-2-6.9-0.4l-27,19.3
	c-2,1.4-4.6,1.6-6.7,0.4c-9.5-5.3-19.6-9.5-30.1-12.5c-2.3-0.6-4.1-2.6-4.5-5l-5.4-32.3c-0.3-3.1-2.5-5.1-5.2-5.1h-45.7
	c-2.7,0-4.9,2-5.2,4.6l-5.4,32.7c-0.4,2.4-2.1,4.3-4.5,5c-10.5,3-20.7,7.2-30.1,12.5c-2.1,1.2-4.7,1-6.7-0.4L98.6,58.9
	c-2.7-2.1-5.4-1.7-7.3,0.1L59,91.3c-1.9,1.9-2,4.9-0.3,6.9l19.3,27c1.4,2,1.5,4.6,0.4,6.7c-5.3,9.5-9.6,19.6-12.5,30.1
	c-0.7,2.3-2.6,4.1-5,4.4l-32.3,5.4c-3.1,0.3-5,2.5-5,5.2v45.7c0,2.7,2,4.9,4.6,5.2l32.8,5.4c2.4,0.4,4.3,2.1,5,4.5
	c2.9,10.4,7.1,20.6,12.5,30.1c1.2,2.1,1,4.7-0.4,6.7l-19,26.7c-2,2.4-1.8,5.4,0.1,7.3L91.3,341c1.8,1.8,5,2,6.9,0.3l27-19.3
	C126.4,321.2,127.6,320.8,128.9,320.8 M200,274.7c-41.2,0-74.8-33.5-74.8-74.7s33.5-74.8,74.8-74.8c41.2,0,74.8,33.5,74.8,74.8
	S241.2,274.7,200,274.7 M200,137.7c-34.3,0-62.3,28-62.3,62.3c0,34.3,27.9,62.3,62.3,62.3c34.3,0,62.3-27.9,62.3-62.3
	C262.3,165.6,234.3,137.7,200,137.7"/>
</svg>
