<?xml version="1.0" encoding="utf-8"?>
<!-- Generator: Adobe Illustrator 19.0.0, SVG Export Plug-In . SVG Version: 6.00 Build 0)  -->
<svg version="1.1" id="Layer_1" xmlns="http://www.w3.org/2000/svg" xmlns:xlink="http://www.w3.org/1999/xlink" x="0px" y="0px"
	 viewBox="0 0 400 400" style="enable-background:new 0 0 400 400;" xml:space="preserve">
<style type="text/css">
	.st0{fill:#F6EB16;}
	.st1{fill:#222320;}
</style>
<g id="XMLID_5_">
	<polygon id="XMLID_4_" class="st0" points="238.5,321.3 78.7,161.5 78.7,321.3 	"/>
	<path class="st1" d="M20.1,20.1v359.8h359.8L20.1,20.1z M31.8,338.9h17.6v-11.7H31.8v-23.4h29.3V292H31.8v-23.4h17.6v-11.7H31.8
		v-23.4h29.3v-11.7H31.8v-23.4h17.6v-11.7H31.8v-23.4h29.3v-11.7H31.8V128h17.6v-11.7H31.8V92.8h29.3V81.1H31.8V48.4l319.8,319.8
		H313v-17.6h-11.7v17.6h-23.4v-29.3h-11.7v29.3h-23.4v-17.6H231v17.6h-23.4v-29.3h-11.7v29.3h-23.4v-17.6h-11.7v17.6h-23.4v-29.3
		h-11.7v29.3h-23.4v-17.6H90.4v17.6H67v-29.3H55.3v29.3H31.8V338.9z"/>
	<polygon id="XMLID_1_" class="st1" points="172.4,309.6 90.4,309.6 90.4,189.8 210.2,309.6 184.2,309.6 184.2,321.3 238.5,321.3 
		78.7,161.5 78.7,321.3 172.4,321.3 	"/>
</g>
</svg>
