<?xml version="1.0" encoding="utf-8"?>
<!-- Generator: Adobe Illustrator 19.0.0, SVG Export Plug-In . SVG Version: 6.00 Build 0)  -->
<svg version="1.1" id="Layer_1" xmlns="http://www.w3.org/2000/svg" xmlns:xlink="http://www.w3.org/1999/xlink" x="0px" y="0px"
	 viewBox="0 0 400 400" style="enable-background:new 0 0 400 400;" xml:space="preserve">
<style type="text/css">
	.st0{fill:#F6EB16;}
	.st1{clip-path:url(#XMLID_8_);fill:#222320;}
	.st2{fill:#222320;}
</style>
<g id="XMLID_6_">
	<path id="XMLID_5_" class="st0" d="M274.1,227.5c0,46.2-42.2,82.5-90.2,72.6c-28.1-5.8-50.7-28.5-56.6-56.6
		c-10-48,26.3-90.2,72.6-90.2C240.9,153.3,274.1,186.5,274.1,227.5"/>
	<g>
		<defs>
			<polygon id="XMLID_3_" points="12.1,362.6 387.9,362.6 387.9,362.6 387.9,37.4 387.9,37.4 12.1,37.4 12.1,37.4 12.1,362.6 			"/>
		</defs>
		<clipPath id="XMLID_8_">
			<use xlink:href="#XMLID_3_"  style="overflow:visible;"/>
		</clipPath>
		<path id="XMLID_4_" class="st1" d="M388.1,225.4c0-51.4-20.7-98-54.2-131.9c-0.3-0.3-0.5-0.7-0.9-1c-0.3-0.3-0.7-0.6-1-0.9
			c-34-33.5-80.6-54.2-131.9-54.2s-98,20.7-131.9,54.2c-0.3,0.3-0.7,0.5-1,0.9c-0.3,0.3-0.6,0.7-0.9,1
			C21.5,138.9-0.4,207,19.5,278.9c8.4,30.2,25.5,57.3,47.6,79.5l0,0c0,0,0,0,0,0l0,0c1.8,1.8,4.2,2.7,6.5,2.7c2.4,0,4.7-0.9,6.5-2.7
			c0.2-0.2,0.3-0.3,0.4-0.5l28.5-28.5c3.6-3.6,3.6-9.5,0-13.1c-3.6-3.6-9.5-3.6-13.1,0l-22.2,22.2c-25.9-28.9-41-65.2-43-103.9h31.5
			c5.1,0,9.2-4.1,9.2-9.2c0-5.1-4.1-9.2-9.2-9.2H30.9c2.2-39.8,18.1-76,43.1-103.8l22.2,22.2c1.8,1.8,4.2,2.7,6.5,2.7
			c2.4,0,4.7-0.9,6.5-2.7c3.6-3.6,3.6-9.5,0-13.1L87,99.3c27.9-25,64.1-40.9,103.8-43.1v31.5c0,5.1,4.1,9.2,9.2,9.2
			c5.1,0,9.2-4.1,9.2-9.2V56.2c39.8,2.1,76,18.1,103.8,43.1L291,121.4c-3.6,3.6-3.6,9.5,0,13.1c1.8,1.8,4.2,2.7,6.5,2.7
			c2.4,0,4.7-0.9,6.5-2.7l22.2-22.2c25,27.9,41,64.1,43.1,103.8h-31.4c-5.1,0-9.3,4.1-9.3,9.2c0,5.1,4.1,9.2,9.3,9.2h31.4
			c-2.1,38.7-17.1,75.1-43,103.9l-22.2-22.2c-3.6-3.6-9.5-3.6-13.1,0c-3.6,3.6-3.6,9.5,0,13.1l28.9,28.9c1.8,1.8,4.2,2.7,6.5,2.7
			c1.2,0,2.4-0.2,3.5-0.7c1.1-0.5,2.2-1.1,3.1-2C368.6,322.9,388.1,275.7,388.1,225.4"/>
	</g>
	<path class="st2" d="M242.6,119.4c-4.7-1.9-10.1,0.4-12,5.1l-26.7,66.7c0,0,0,0,0,0c-9.1-0.9-17.5,0.6-34.3,18.4
		c-0.1,0.1-0.1,0.1-0.2,0.2c-6.2,12.1-4.6,26.5,4.1,38.7c1.1,1.1,2.3,2.3,3.4,3.4c7.2,5.2,15.2,7.9,23.1,7.9
		c13,0,24.8-7.2,30.7-18.8c6.2-12.1,4.6-26.6-4.2-38.8c-0.9-1.2-2-2.4-3.3-3.3c-0.7-0.5-1.4-0.9-2.1-1.4l26.5-66.2
		C249.6,126.7,247.3,121.3,242.6,119.4 M214.3,232.6c-2.7,5.4-8.2,8.7-14.2,8.7c-3.9,0-7.9-1.4-11.8-4.1c-4.4-6.4-5.3-13.3-2.4-19
		c2.7-5.4,8.2-8.7,14.2-8.7c1.9,0,3.9,0.3,5.8,1c0.1,0,0.1,0.1,0.2,0.1c0.2,0.1,0.4,0.1,0.6,0.2c1.8,0.7,3.5,1.6,5.3,2.8
		C216.4,220,217.3,226.9,214.3,232.6"/>
</g>
</svg>
