<?xml version="1.0" encoding="utf-8"?>
<!-- Generator: Adobe Illustrator 19.0.0, SVG Export Plug-In . SVG Version: 6.00 Build 0)  -->
<svg version="1.1" id="Layer_1" xmlns="http://www.w3.org/2000/svg" xmlns:xlink="http://www.w3.org/1999/xlink" x="0px" y="0px"
	 viewBox="0 0 400 400" style="enable-background:new 0 0 400 400;" xml:space="preserve">
<style type="text/css">
	.st0{fill:#222320;}
	.st1{fill:none;stroke:#010101;stroke-width:0.5;}
	.st2{fill:#F6EB16;}
</style>
<g id="XMLID_26_">
	<path id="XMLID_25_" class="st0" d="M57.1,206.7H18.5c-3.7,0-6.7-3-6.7-6.7c0-3.7,3-6.7,6.7-6.7h38.6c3.7,0,6.7,3,6.7,6.7
		C63.8,203.7,60.8,206.7,57.1,206.7"/>
	<path id="XMLID_24_" class="st1" d="M57.1,206.7H18.5c-3.7,0-6.7-3-6.7-6.7c0-3.7,3-6.7,6.7-6.7h38.6c3.7,0,6.7,3,6.7,6.7
		C63.8,203.7,60.8,206.7,57.1,206.7z"/>
	<path id="XMLID_23_" class="st0" d="M75.5,136.4c-1.2,0-2.4-0.3-3.5-1l-32.8-20.3c-3.1-1.9-4.1-6.1-2.2-9.2c2-3.1,6.1-4.1,9.2-2.2
		L79,124c3.1,2,4.1,6.1,2.2,9.2C79.9,135.3,77.7,136.4,75.5,136.4"/>
	<path id="XMLID_22_" class="st1" d="M75.5,136.4c-1.2,0-2.4-0.3-3.5-1l-32.8-20.3c-3.1-1.9-4.1-6.1-2.2-9.2c2-3.1,6.1-4.1,9.2-2.2
		L79,124c3.1,2,4.1,6.1,2.2,9.2C79.9,135.3,77.7,136.4,75.5,136.4z"/>
	<path id="XMLID_21_" class="st0" d="M127.1,82.3c-2.3,0-4.5-1.2-5.8-3.3l-19.5-33.3c-1.9-3.2-0.8-7.3,2.4-9.2
		c3.2-1.8,7.3-0.8,9.2,2.4l19.5,33.3c1.9,3.2,0.8,7.3-2.4,9.2C129.4,82,128.2,82.3,127.1,82.3"/>
	<path id="XMLID_20_" class="st1" d="M127.1,82.3c-2.3,0-4.5-1.2-5.8-3.3l-19.5-33.3c-1.9-3.2-0.8-7.3,2.4-9.2
		c3.2-1.8,7.3-0.8,9.2,2.4l19.5,33.3c1.9,3.2,0.8,7.3-2.4,9.2C129.4,82,128.2,82.3,127.1,82.3z"/>
	<path id="XMLID_19_" class="st0" d="M200,62.7c-3.7,0-6.7-3-6.7-6.7l-0.1-38.6c0-3.7,3-6.7,6.7-6.7h0c3.7,0,6.7,3,6.7,6.7l0.1,38.6
		C206.7,59.7,203.7,62.7,200,62.7L200,62.7z"/>
	<path id="XMLID_18_" class="st1" d="M200,62.7c-3.7,0-6.7-3-6.7-6.7l-0.1-38.6c0-3.7,3-6.7,6.7-6.7h0c3.7,0,6.7,3,6.7,6.7l0.1,38.6
		C206.7,59.7,203.7,62.7,200,62.7L200,62.7z"/>
	<path id="XMLID_17_" class="st0" d="M381.5,206.7h-38.6c-3.7,0-6.7-3-6.7-6.7c0-3.7,3-6.7,6.7-6.7h38.6c3.7,0,6.7,3,6.7,6.7
		C388.1,203.7,385.2,206.7,381.5,206.7"/>
	<path id="XMLID_16_" class="st1" d="M381.5,206.7h-38.6c-3.7,0-6.7-3-6.7-6.7c0-3.7,3-6.7,6.7-6.7h38.6c3.7,0,6.7,3,6.7,6.7
		C388.1,203.7,385.2,206.7,381.5,206.7z"/>
	<path id="XMLID_15_" class="st0" d="M324.5,136.4c-2.2,0-4.4-1.1-5.7-3.2c-1.9-3.2-1-7.3,2.2-9.2l32.8-20.3c3.1-1.9,7.3-1,9.2,2.2
		c1.9,3.1,1,7.3-2.2,9.2L328,135.4C326.9,136.1,325.7,136.4,324.5,136.4"/>
	<path id="XMLID_14_" class="st1" d="M324.5,136.4c-2.2,0-4.4-1.1-5.7-3.2c-1.9-3.2-1-7.3,2.2-9.2l32.8-20.3c3.1-1.9,7.3-1,9.2,2.2
		c1.9,3.1,1,7.3-2.2,9.2L328,135.4C326.9,136.1,325.7,136.4,324.5,136.4z"/>
	<path id="XMLID_13_" class="st0" d="M272.9,82.3c-1.2,0-2.3-0.3-3.4-0.9c-3.2-1.9-4.3-6-2.4-9.2L286.7,39c1.9-3.2,5.9-4.3,9.2-2.4
		c3.2,1.9,4.3,6,2.4,9.2L278.7,79C277.5,81.1,275.2,82.3,272.9,82.3"/>
	<path id="XMLID_12_" class="st1" d="M272.9,82.3c-1.2,0-2.3-0.3-3.4-0.9c-3.2-1.9-4.3-6-2.4-9.2L286.7,39c1.9-3.2,5.9-4.3,9.2-2.4
		c3.2,1.9,4.3,6,2.4,9.2L278.7,79C277.5,81.1,275.2,82.3,272.9,82.3z"/>
	<path id="XMLID_11_" class="st0" d="M42.7,297.3c-2.2,0-4.4-1.1-5.7-3.2c-1.9-3.2-1-7.3,2.2-9.2L72,264.6c3.1-1.9,7.3-1,9.2,2.2
		c1.9,3.1,1,7.3-2.2,9.2l-32.8,20.3C45.1,297,43.9,297.3,42.7,297.3"/>
	<path id="XMLID_10_" class="st1" d="M42.7,297.3c-2.2,0-4.4-1.1-5.7-3.2c-1.9-3.2-1-7.3,2.2-9.2L72,264.6c3.1-1.9,7.3-1,9.2,2.2
		c1.9,3.1,1,7.3-2.2,9.2l-32.8,20.3C45.1,297,43.9,297.3,42.7,297.3z"/>
	<path id="XMLID_9_" class="st0" d="M107.6,364.3c-1.2,0-2.3-0.3-3.4-0.9c-3.2-1.9-4.3-6-2.4-9.2l19.5-33.3c1.9-3.2,6-4.2,9.2-2.4
		c3.2,1.9,4.3,6,2.4,9.2L113.3,361C112.1,363.1,109.8,364.3,107.6,364.3"/>
	<path id="XMLID_8_" class="st1" d="M107.6,364.3c-1.2,0-2.3-0.3-3.4-0.9c-3.2-1.9-4.3-6-2.4-9.2l19.5-33.3c1.9-3.2,6-4.2,9.2-2.4
		c3.2,1.9,4.3,6,2.4,9.2L113.3,361C112.1,363.1,109.8,364.3,107.6,364.3z"/>
	<path id="XMLID_7_" class="st0" d="M199.9,389.2L199.9,389.2c-3.7,0-6.7-3-6.7-6.7l0.1-38.6c0-3.7,3-6.7,6.7-6.7h0
		c3.7,0,6.7,3,6.7,6.7l-0.1,38.6C206.6,386.3,203.6,389.2,199.9,389.2"/>
	<path id="XMLID_6_" class="st1" d="M199.9,389.2L199.9,389.2c-3.7,0-6.7-3-6.7-6.7l0.1-38.6c0-3.7,3-6.7,6.7-6.7h0
		c3.7,0,6.7,3,6.7,6.7l-0.1,38.6C206.6,386.3,203.6,389.2,199.9,389.2z"/>
	<path id="XMLID_5_" class="st0" d="M357.3,297.3c-1.2,0-2.4-0.3-3.5-1L321,276c-3.1-1.9-4.1-6.1-2.2-9.2c2-3.1,6.1-4.1,9.2-2.2
		l32.8,20.3c3.1,2,4.1,6.1,2.2,9.2C361.7,296.2,359.5,297.3,357.3,297.3"/>
	<path id="XMLID_4_" class="st1" d="M357.3,297.3c-1.2,0-2.4-0.3-3.5-1L321,276c-3.1-1.9-4.1-6.1-2.2-9.2c2-3.1,6.1-4.1,9.2-2.2
		l32.8,20.3c3.1,2,4.1,6.1,2.2,9.2C361.7,296.2,359.5,297.3,357.3,297.3z"/>
	<path id="XMLID_3_" class="st0" d="M292.4,364.3c-2.3,0-4.5-1.2-5.8-3.3l-19.5-33.3c-1.9-3.2-0.8-7.3,2.4-9.2
		c3.2-1.8,7.3-0.8,9.2,2.4l19.5,33.3c1.9,3.2,0.8,7.3-2.4,9.2C294.8,364,293.6,364.3,292.4,364.3"/>
	<path id="XMLID_2_" class="st1" d="M292.4,364.3c-2.3,0-4.5-1.2-5.8-3.3l-19.5-33.3c-1.9-3.2-0.8-7.3,2.4-9.2
		c3.2-1.8,7.3-0.8,9.2,2.4l19.5,33.3c1.9,3.2,0.8,7.3-2.4,9.2C294.8,364,293.6,364.3,292.4,364.3z"/>
	<path id="XMLID_1_" class="st2" d="M202.6,198.4h70.8c-0.9-38.1-31.9-68.7-70.2-68.7c-38.9,0-70.4,31.5-70.4,70.4
		c0,38.7,31.2,70.1,69.9,70.4V198.4z"/>
</g>
</svg>
