<?xml version="1.0" encoding="utf-8"?>
<!-- Generator: Adobe Illustrator 19.0.0, SVG Export Plug-In . SVG Version: 6.00 Build 0)  -->
<svg version="1.1" id="Layer_1" xmlns="http://www.w3.org/2000/svg" xmlns:xlink="http://www.w3.org/1999/xlink" x="0px" y="0px"
	 viewBox="0 0 400 400" style="enable-background:new 0 0 400 400;" xml:space="preserve">
<style type="text/css">
	.st0{fill:#F6EB16;}
</style>
<g id="XMLID_6_">
	<path id="XMLID_5_" class="st0" d="M359.6,383.2l23.6-23.6c3.1-3.1,3.1-8.1,0-11.2L266.9,232.1l-34.8,34.8l116.3,116.3
		C351.5,386.4,356.5,386.4,359.6,383.2"/>
	<path id="XMLID_4_" d="M138.1,63c-41.5,0-75.2,33.8-75.2,75.2c0,3.9,3.2,7.1,7.1,7.1c3.9,0,7.1-3.2,7.1-7.1c0-33.7,27.4-61,61-61
		c3.9,0,7.1-3.2,7.1-7.1C145.2,66.1,142,63,138.1,63"/>
	<path d="M271.9,227.1c-2.7-2.7-7.3-2.7-10,0l-12.4,12.4L233.1,223c20.2-22.5,32.5-52.3,32.5-84.9c0-70.2-57.1-127.4-127.4-127.4
		c-70.2,0-127.5,57.2-127.5,127.4s57.1,127.4,127.4,127.4c32.6,0,62.3-12.3,84.9-32.5l16.5,16.5l-12.4,12.4c-1.3,1.3-2.1,3.1-2.1,5
		c0,1.9,0.8,3.7,2.1,5l110.6,110.6c4.4,4.4,10.1,6.8,16.3,6.8c6.2,0,11.9-2.4,16.3-6.8l12.3-12.2c4.4-4.4,6.8-10.1,6.8-16.3
		c0-6.2-2.4-11.9-6.8-16.3L271.9,227.1z M24.9,138.1c0-62.5,50.8-113.3,113.3-113.3s113.3,50.8,113.3,113.3
		c0,62.4-50.8,113.3-113.3,113.3S24.9,200.6,24.9,138.1 M372.5,360.3l-12.2,12.2c-1.7,1.7-3.9,2.7-6.3,2.7c-2.4,0-4.6-0.9-6.3-2.7
		L242,266.9l24.9-24.9l105.6,105.6c1.7,1.7,2.7,3.9,2.7,6.3C375.2,356.4,374.2,358.7,372.5,360.3"/>
</g>
</svg>
