<?xml version="1.0" encoding="UTF-8" standalone="no"?>
<!-- Created with Inkscape (http://www.inkscape.org/) -->

<svg
   xmlns:dc="http://purl.org/dc/elements/1.1/"
   xmlns:cc="http://creativecommons.org/ns#"
   xmlns:rdf="http://www.w3.org/1999/02/22-rdf-syntax-ns#"
   xmlns:svg="http://www.w3.org/2000/svg"
   xmlns="http://www.w3.org/2000/svg"
   xmlns:sodipodi="http://sodipodi.sourceforge.net/DTD/sodipodi-0.dtd"
   xmlns:inkscape="http://www.inkscape.org/namespaces/inkscape"
   width="365.10199"
   height="268.00201"
   viewBox="0 0 365.102 268.00202"
   id="svg2"
   version="1.1"
   inkscape:version="0.91 r13725"
   sodipodi:docname="product design and strategy.svg">
  <defs
     id="defs4">
    <pattern
       y="0"
       x="0"
       height="6"
       width="6"
       patternUnits="userSpaceOnUse"
       id="EMFhbasepattern" />
    <pattern
       y="0"
       x="0"
       height="6"
       width="6"
       patternUnits="userSpaceOnUse"
       id="EMFhbasepattern-3" />
    <pattern
       y="0"
       x="0"
       height="6"
       width="6"
       patternUnits="userSpaceOnUse"
       id="EMFhbasepattern-6" />
    <pattern
       y="0"
       x="0"
       height="6"
       width="6"
       patternUnits="userSpaceOnUse"
       id="EMFhbasepattern-38" />
  </defs>
  <sodipodi:namedview
     id="base"
     pagecolor="#ffffff"
     bordercolor="#666666"
     borderopacity="1.0"
     inkscape:pageopacity="0.0"
     inkscape:pageshadow="2"
     inkscape:zoom="1.4"
     inkscape:cx="76.345202"
     inkscape:cy="191.21123"
     inkscape:document-units="px"
     inkscape:current-layer="layer1"
     showgrid="false"
     units="px"
     inkscape:showpageshadow="false"
     inkscape:window-width="1920"
     inkscape:window-height="1017"
     inkscape:window-x="-8"
     inkscape:window-y="-8"
     inkscape:window-maximized="1" />
  <metadata
     id="metadata7">
    <rdf:RDF>
      <cc:Work
         rdf:about="">
        <dc:format>image/svg+xml</dc:format>
        <dc:type
           rdf:resource="http://purl.org/dc/dcmitype/StillImage" />
        <dc:title></dc:title>
      </cc:Work>
    </rdf:RDF>
  </metadata>
  <g
     inkscape:label="Layer 1"
     inkscape:groupmode="layer"
     id="layer1"
     transform="translate(0,-784.36009)">
    <g
       transform="translate(5369.6284,537.73614)"
       id="g6143">
      <g
         style="stroke-width:1.1887095;stroke-miterlimit:10;stroke-dasharray:none"
         transform="matrix(2.5237453,0,0,-2.5237453,-5004.53,312.39494)"
         id="g13285">
        <path
           inkscape:connector-curvature="0"
           id="path13287"
           style="fill:none;stroke:#000000;stroke-width:1.1887095;stroke-linecap:butt;stroke-linejoin:miter;stroke-miterlimit:10;stroke-dasharray:none;stroke-opacity:1"
           d="M 0,0 -24.586,0" />
      </g>
      <g
         style="stroke-width:1.1887095;stroke-miterlimit:10;stroke-dasharray:none"
         transform="matrix(2.5237453,0,0,-2.5237453,-5004.53,323.0936)"
         id="g13289">
        <path
           inkscape:connector-curvature="0"
           id="path13291"
           style="fill:none;stroke:#000000;stroke-width:1.1887095;stroke-linecap:butt;stroke-linejoin:miter;stroke-miterlimit:10;stroke-dasharray:none;stroke-opacity:1"
           d="M 0,0 -24.586,0" />
      </g>
      <g
         style="stroke-width:1.1887095;stroke-miterlimit:10;stroke-dasharray:none"
         transform="matrix(2.5237453,0,0,-2.5237453,-5034.4849,333.79003)"
         id="g13293">
        <path
           inkscape:connector-curvature="0"
           id="path13295"
           style="fill:none;stroke:#000000;stroke-width:1.1887095;stroke-linecap:butt;stroke-linejoin:miter;stroke-miterlimit:10;stroke-dasharray:none;stroke-opacity:1"
           d="M 0,0 -12.717,0" />
      </g>
      <path
         inkscape:connector-curvature="0"
         id="path13297"
         style="fill:none;stroke:#000000;stroke-width:3;stroke-linecap:butt;stroke-linejoin:miter;stroke-miterlimit:10;stroke-dasharray:none;stroke-opacity:1"
         d="m -5029.4917,296.30899 -9.2723,0 0,-9.27488 9.2723,0 0,9.27488 z" />
      <path
         sodipodi:nodetypes="cccccccc"
         d="m -5141.1844,248.11357 -211.173,0 0,264.68839 64.0592,0 147.1138,0 85.0784,0 0,-264.68839 z"
         style="fill:none;stroke:#919191;stroke-width:3;stroke-linecap:butt;stroke-linejoin:miter;stroke-miterlimit:10;stroke-dasharray:none;stroke-opacity:1"
         id="path14313"
         inkscape:connector-curvature="0" />
      <path
         sodipodi:nodetypes="ccccc"
         d="m -5054.1595,514.61588 -300.0178,0 0,-25.39875 300.0178,0 z"
         style="fill:#919191;fill-opacity:1;fill-rule:nonzero;stroke:none"
         id="path14542"
         inkscape:connector-curvature="0" />
      <path
         sodipodi:nodetypes="ccc"
         d="m -5352.3574,276.47303 211.173,0 85.0784,0"
         style="fill:none;stroke:#919191;stroke-width:3;stroke-linecap:butt;stroke-linejoin:miter;stroke-miterlimit:10;stroke-dasharray:none;stroke-opacity:1"
         id="path14317"
         inkscape:connector-curvature="0" />
      <path
         d="m -5232.4959,296.94676 c 0,1.80366 -1.4615,3.26511 -3.2651,3.26511 -1.8037,0 -3.2652,-1.46145 -3.2652,-3.26511 0,-1.80367 1.4615,-3.26701 3.2652,-3.26701 1.8036,0 3.2651,1.46334 3.2651,3.26701"
         style="fill:#ffff00;fill-opacity:1;fill-rule:nonzero;stroke:none"
         id="path14349"
         inkscape:connector-curvature="0" />
      <path
         d="m -5211.4766,473.26295 c 0,1.80367 -1.4615,3.26512 -3.2651,3.26512 -1.8037,0 -3.2652,-1.46145 -3.2652,-3.26512 0,-1.80366 1.4615,-3.267 3.2652,-3.267 1.8036,0 3.2651,1.46334 3.2651,3.267"
         style="fill:#ffff00;fill-opacity:1;fill-rule:nonzero;stroke:none"
         id="path14353"
         inkscape:connector-curvature="0" />
      <path
         d="m -5304.3278,332.8633 c 0,1.80367 -1.4614,3.26512 -3.2651,3.26512 -1.8037,0 -3.2651,-1.46145 -3.2651,-3.26512 0,-1.80366 1.4614,-3.267 3.2651,-3.267 1.8037,0 3.2651,1.46334 3.2651,3.267"
         style="fill:#e4e5e7;fill-opacity:1;fill-rule:nonzero;stroke:none"
         id="path14357"
         inkscape:connector-curvature="0" />
      <path
         d="m -5323.9203,293.68081 -45.7117,0"
         style="fill:none;stroke:#000000;stroke-width:3;stroke-linecap:butt;stroke-linejoin:miter;stroke-miterlimit:10;stroke-dasharray:none;stroke-opacity:1"
         id="path14361"
         inkscape:connector-curvature="0" />
      <path
         d="m -5323.9203,306.74159 -45.7117,0"
         style="fill:none;stroke:#000000;stroke-width:3;stroke-linecap:butt;stroke-linejoin:miter;stroke-miterlimit:10;stroke-dasharray:none;stroke-opacity:1"
         id="path14365"
         inkscape:connector-curvature="0" />
      <path
         d="m -5340.205,319.80238 -29.4257,0"
         style="fill:none;stroke:#000000;stroke-width:3;stroke-linecap:butt;stroke-linejoin:miter;stroke-miterlimit:10;stroke-dasharray:none;stroke-opacity:1"
         id="path14369"
         inkscape:connector-curvature="0" />
      <path
         d="m -5288.291,463.46646 -45.7117,0"
         style="fill:none;stroke:#000000;stroke-width:3;stroke-linecap:butt;stroke-linejoin:miter;stroke-miterlimit:10;stroke-dasharray:none;stroke-opacity:1"
         id="path14373"
         inkscape:connector-curvature="0" />
      <path
         d="m -5307.8822,476.52725 -26.121,0"
         style="fill:none;stroke:#000000;stroke-width:3;stroke-linecap:butt;stroke-linejoin:miter;stroke-miterlimit:10;stroke-dasharray:none;stroke-opacity:1"
         id="path14377"
         inkscape:connector-curvature="0" />
      <path
         d="m -5136.3785,463.46646 c 0,7.21276 -5.8476,13.06049 -13.0604,13.06049 -7.2128,0 -13.0605,-5.84773 -13.0605,-13.06049 0,-7.21087 5.8477,-13.05859 13.0605,-13.05859 7.2128,0 13.0604,5.84772 13.0604,13.05859"
         style="fill:#e4e5e7;fill-opacity:1;fill-rule:nonzero;stroke:none"
         id="path14381"
         inkscape:connector-curvature="0" />
      <path
         d="m -5293.2267,306.74159 c 0,4.32765 -3.5071,7.83666 -7.8367,7.83666 -4.3276,0 -7.8367,-3.50901 -7.8367,-7.83666 0,-4.32765 3.5091,-7.83667 7.8367,-7.83667 4.3296,0 7.8367,3.50902 7.8367,7.83667"
         style="fill:#ffff00;fill-opacity:1;fill-rule:nonzero;stroke:none"
         id="path14385"
         inkscape:connector-curvature="0" />
      <g
         style="stroke-width:1.1887095;stroke-miterlimit:10;stroke-dasharray:none"
         id="g13784"
         transform="matrix(2.5237453,0,0,-2.5237453,-5004.53,312.39494)">
        <path
           d="M 0,0 -24.586,0"
           style="fill:none;stroke:#000000;stroke-width:1.1887095;stroke-linecap:butt;stroke-linejoin:miter;stroke-miterlimit:10;stroke-dasharray:none;stroke-opacity:1"
           id="path13786"
           inkscape:connector-curvature="0" />
      </g>
      <g
         style="stroke-width:1.1887095;stroke-miterlimit:10;stroke-dasharray:none"
         id="g13788"
         transform="matrix(2.5237453,0,0,-2.5237453,-5004.53,323.0936)">
        <path
           d="M 0,0 -24.586,0"
           style="fill:none;stroke:#000000;stroke-width:1.1887095;stroke-linecap:butt;stroke-linejoin:miter;stroke-miterlimit:10;stroke-dasharray:none;stroke-opacity:1"
           id="path13790"
           inkscape:connector-curvature="0" />
      </g>
      <g
         style="stroke-width:1.1887095;stroke-miterlimit:10;stroke-dasharray:none"
         id="g13792"
         transform="matrix(2.5237453,0,0,-2.5237453,-5034.4849,333.79003)">
        <path
           d="M 0,0 -12.717,0"
           style="fill:none;stroke:#000000;stroke-width:1.1887095;stroke-linecap:butt;stroke-linejoin:miter;stroke-miterlimit:10;stroke-dasharray:none;stroke-opacity:1"
           id="path13794"
           inkscape:connector-curvature="0" />
      </g>
      <path
         d="m -5029.4917,296.30899 -9.2723,0 0,-9.27488 9.2723,0 0,9.27488 z"
         style="fill:none;stroke:#000000;stroke-width:3;stroke-linecap:butt;stroke-linejoin:miter;stroke-miterlimit:10;stroke-dasharray:none;stroke-opacity:1"
         id="path13796"
         inkscape:connector-curvature="0" />
      <g
         style="stroke-width:1.1887095;stroke-miterlimit:10;stroke-dasharray:none"
         id="g14500"
         transform="matrix(2.5237453,0,0,-2.5237453,-5310.6905,263.08382)">
        <path
           d="m 83.28611,0 4.239,0"
           style="fill:none;stroke:#000000;stroke-width:1.1887095;stroke-linecap:butt;stroke-linejoin:miter;stroke-miterlimit:10;stroke-dasharray:none;stroke-opacity:1"
           id="path14502"
           inkscape:connector-curvature="0" />
      </g>
      <g
         style="stroke-width:1.1887095;stroke-miterlimit:10;stroke-dasharray:none"
         id="g14504"
         transform="matrix(2.5237453,0,0,-2.5237453,-5332.087,263.08382)">
        <path
           d="m 83.28611,0 4.239,0"
           style="fill:none;stroke:#000000;stroke-width:1.1887095;stroke-linecap:butt;stroke-linejoin:miter;stroke-miterlimit:10;stroke-dasharray:none;stroke-opacity:1"
           id="path14506"
           inkscape:connector-curvature="0" />
      </g>
      <g
         style="stroke-width:1.1887095;stroke-miterlimit:10;stroke-dasharray:none"
         id="g14508"
         transform="matrix(2.5237453,0,0,-2.5237453,-5353.4834,263.08382)">
        <path
           d="m 83.28611,0 4.239,0"
           style="fill:none;stroke:#000000;stroke-width:1.1887095;stroke-linecap:butt;stroke-linejoin:miter;stroke-miterlimit:10;stroke-dasharray:none;stroke-opacity:1"
           id="path14510"
           inkscape:connector-curvature="0" />
      </g>
      <path
         inkscape:connector-curvature="0"
         id="path14544"
         style="fill:none;stroke:#919191;stroke-width:3;stroke-linecap:butt;stroke-linejoin:miter;stroke-miterlimit:10;stroke-dasharray:4.36199999, 8.72399995;stroke-dashoffset:0;stroke-opacity:1"
         d="m -5031.9671,460.07422 c 0,13.05292 -10.5781,23.63288 -23.633,23.63288 -13.0528,0 -23.6329,-10.57996 -23.6329,-23.63288 0,-13.05292 10.5801,-23.6329 23.6329,-23.6329 13.0549,0 23.633,10.57998 23.633,23.6329 z" />
      <path
         inkscape:connector-curvature="0"
         id="path14563"
         d="m -5214.7404,329.58576 0,12.91901"
         style="fill:none;fill-rule:evenodd;stroke:#000000;stroke-width:3;stroke-linecap:butt;stroke-linejoin:miter;stroke-miterlimit:4.96000004;stroke-dasharray:none;stroke-opacity:1" />
      <path
         inkscape:connector-curvature="0"
         id="path14567"
         d="m -5236.6758,388.79191 44.8192,0"
         style="fill:none;fill-rule:evenodd;stroke:#000000;stroke-width:3;stroke-linecap:butt;stroke-linejoin:miter;stroke-miterlimit:4.96000004;stroke-dasharray:none;stroke-opacity:1" />
      <path
         inkscape:connector-curvature="0"
         id="path14569"
         d="m -5214.2662,384.0947 0,9.59015"
         style="fill:none;fill-rule:evenodd;stroke:#000000;stroke-width:3;stroke-linecap:butt;stroke-linejoin:miter;stroke-miterlimit:4.96000004;stroke-dasharray:none;stroke-opacity:1" />
      <path
         sodipodi:nodetypes="cccc"
         inkscape:connector-curvature="0"
         id="path14578"
         d="m -5237.9353,430.80956 22.3118,-75.35116 2.3486,0 21.7247,75.54688"
         style="fill:none;fill-rule:evenodd;stroke:#000000;stroke-width:3;stroke-linecap:butt;stroke-linejoin:miter;stroke-miterlimit:4.96000004;stroke-dasharray:none;stroke-opacity:1" />
      <circle
         r="6.5393658"
         cy="349.02216"
         cx="-5214.7407"
         id="path14561"
         style="fill:none;fill-opacity:1;stroke:#919191;stroke-width:3;stroke-linecap:round;stroke-miterlimit:4.96000004;stroke-dasharray:none;stroke-dashoffset:0;stroke-opacity:1" />
      <g
         transform="translate(-273.22805,-412)"
         id="g16351">
        <path
           d="m -4906.0245,808.42178 c 19.5999,-19.59983 19.5999,-51.37621 0,-70.97604 -19.5998,-19.59982 -51.3762,-19.59982 -70.976,0 -19.5998,19.59983 -19.5998,51.37621 0,70.97604"
           style="fill:none;stroke:#c4c4c4;stroke-width:3;stroke-linecap:butt;stroke-linejoin:miter;stroke-miterlimit:10;stroke-dasharray:none;stroke-opacity:1"
           id="path16057"
           inkscape:connector-curvature="0" />
        <path
           d="m -4941.5129,722.74608 0,-10.23822"
           style="fill:none;stroke:#c4c4c4;stroke-width:3;stroke-linecap:butt;stroke-linejoin:miter;stroke-miterlimit:10;stroke-dasharray:none;stroke-opacity:1"
           id="path16059"
           inkscape:connector-curvature="0" />
        <path
           d="m -5002.3955,773.56957 10.2382,0"
           style="fill:none;stroke:#c4c4c4;stroke-width:3;stroke-linecap:butt;stroke-linejoin:miter;stroke-miterlimit:10;stroke-dasharray:none;stroke-opacity:1"
           id="path16061"
           inkscape:connector-curvature="0" />
        <path
           d="m -4890.8682,773.56957 10.2382,0"
           style="fill:none;stroke:#c4c4c4;stroke-width:3;stroke-linecap:butt;stroke-linejoin:miter;stroke-miterlimit:10;stroke-dasharray:none;stroke-opacity:1"
           id="path16063"
           inkscape:connector-curvature="0" />
        <path
           d="m -4984.5641,730.20451 7.2381,7.24036"
           style="fill:none;stroke:#c4c4c4;stroke-width:3;stroke-linecap:butt;stroke-linejoin:miter;stroke-miterlimit:10;stroke-dasharray:none;stroke-opacity:1"
           id="path16065"
           inkscape:connector-curvature="0" />
        <path
           d="m -4905.7021,737.75642 7.2403,-7.23812"
           style="fill:none;stroke:#c4c4c4;stroke-width:3;stroke-linecap:butt;stroke-linejoin:miter;stroke-miterlimit:10;stroke-dasharray:none;stroke-opacity:1"
           id="path16067"
           inkscape:connector-curvature="0" />
      </g>
    </g>
  </g>
</svg>
