<?xml version="1.0" encoding="utf-8"?>
<!-- Generator: Adobe Illustrator 19.0.0, SVG Export Plug-In . SVG Version: 6.00 Build 0)  -->
<svg version="1.1" id="Layer_1" xmlns="http://www.w3.org/2000/svg" xmlns:xlink="http://www.w3.org/1999/xlink" x="0px" y="0px"
	 viewBox="0 0 400 400" style="enable-background:new 0 0 400 400;" xml:space="preserve">
<style type="text/css">
	.st0{clip-path:url(#XMLID_70_);fill:none;stroke:#C4C4C4;stroke-width:2;stroke-miterlimit:10;}
	.st1{clip-path:url(#XMLID_70_);fill:none;stroke:#C4C4C4;stroke-width:2;stroke-linecap:round;stroke-miterlimit:10;}
	.st2{clip-path:url(#XMLID_70_);fill:#C4C4C4;}
	.st3{clip-path:url(#XMLID_70_);fill:none;stroke:#010101;stroke-width:2;stroke-miterlimit:10;}
	.st4{clip-path:url(#XMLID_70_);fill:#F6EB16;}
	.st5{clip-path:url(#XMLID_70_);fill:none;stroke:#F6EB16;stroke-width:2;stroke-miterlimit:10;}
	.st6{clip-path:url(#XMLID_70_);fill:#E5E5E7;}
	
		.st7{clip-path:url(#XMLID_70_);fill:none;stroke:#010101;stroke-width:4.02;stroke-linecap:round;stroke-linejoin:round;stroke-miterlimit:10;}
	.st8{clip-path:url(#XMLID_70_);fill:#FFFFFF;}
	.st9{clip-path:url(#XMLID_70_);fill:#060707;}
	.st10{clip-path:url(#XMLID_70_);fill:#010101;}
</style>
<g id="XMLID_3_">
	<defs>
		<rect id="XMLID_4_" x="17.3" y="55.5" width="365.4" height="289"/>
	</defs>
	<clipPath id="XMLID_70_">
		<use xlink:href="#XMLID_4_"  style="overflow:visible;"/>
	</clipPath>
	<path id="XMLID_69_" class="st0" d="M278.1,256.9c0,9-7.3,16.2-16.3,16.2c-9,0-16.2-7.3-16.2-16.2c0-9,7.3-16.3,16.2-16.3
		C270.8,240.6,278.1,247.9,278.1,256.9z"/>
	<line id="XMLID_68_" class="st1" x1="257.2" y1="256.9" x2="266.4" y2="256.9"/>
	<path id="XMLID_67_" class="st0" d="M339.2,229.5c0,13.4-10.9,24.4-24.4,24.4c-13.4,0-24.4-10.9-24.4-24.4s10.9-24.4,24.4-24.4
		C328.3,205.2,339.2,216.1,339.2,229.5z"/>
	<line id="XMLID_66_" class="st1" x1="306.7" y1="229.5" x2="322.9" y2="229.5"/>
	<line id="XMLID_65_" class="st1" x1="314.8" y1="221.4" x2="314.8" y2="237.6"/>
	<path id="XMLID_64_" class="st0" d="M373.7,203.3c0,7.3-5.9,13.3-13.3,13.3c-7.3,0-13.3-5.9-13.3-13.3c0-7.4,6-13.3,13.3-13.3
		C367.8,190,373.7,195.9,373.7,203.3z"/>
	<polygon id="XMLID_63_" class="st2" points="358.3,199.6 358.3,207.3 363.9,203.4 	"/>
	<line id="XMLID_62_" class="st3" x1="180.4" y1="71.3" x2="174.7" y2="77"/>
	<line id="XMLID_61_" class="st3" x1="168.9" y1="82.8" x2="163.2" y2="88.5"/>
	<line id="XMLID_60_" class="st3" x1="163.2" y1="71.3" x2="168.9" y2="77"/>
	<line id="XMLID_59_" class="st3" x1="174.7" y1="82.8" x2="180.4" y2="88.5"/>
	<line id="XMLID_58_" class="st3" x1="381.4" y1="154.3" x2="375.6" y2="160"/>
	<line id="XMLID_57_" class="st3" x1="369.8" y1="165.9" x2="364.1" y2="171.5"/>
	<line id="XMLID_56_" class="st3" x1="364.1" y1="154.3" x2="369.8" y2="160"/>
	<line id="XMLID_55_" class="st3" x1="375.6" y1="165.9" x2="381.4" y2="171.5"/>
	<path id="XMLID_54_" class="st3" d="M352.8,111.3l-14.3,0l-6.1,0l-10.9,0l-30.6,0l-11.5,0l-10.6,0l-8.5,0l-20.5,0l-25.6,0l-11.4,0
		v17.7v33.3c0,0,0,2.3,1.2,4.5c1.1,2,3.2,4,7.3,4h7.9h8.5h24.8h9.9c0,0,8.5,0,8.5-8.5v-20.1v-5.5c0,0-0.1-8.5,8.4-8.5h0.5
		c8,0.3,7.9,8.5,7.9,8.5v25.5c0,0.4,0,0.8,0,1.1c0.3,3.5,2.3,5.4,4.2,6.3c2.1,1.1,4.3,1.1,4.3,1.1h1.1h15.2h34.8
		c8.5,0,8.5-8.5,8.5-8.5v-51H352.8z"/>
	<rect id="XMLID_50_" x="194.3" y="102.6" class="st4" width="170.4" height="8.5"/>
	<path id="XMLID_49_" class="st3" d="M198.6,102.6c0,0,7.3-42.6,63.9-42.6"/>
	<rect id="XMLID_48_" x="261.8" y="57.4" class="st3" width="13.4" height="5.1"/>
	<path id="XMLID_47_" class="st3" d="M360.4,102.6c0,0-7.3-42.6-63.9-42.6"/>
	<rect id="XMLID_46_" x="283.7" y="57.4" class="st3" width="13.4" height="5.1"/>
	<rect id="XMLID_45_" x="198.6" y="107.7" class="st5" width="19.6" height="19.7"/>
	<path id="XMLID_44_" class="st4" d="M211.6,117.5c0,1.8-1.4,3.2-3.2,3.2c-1.8,0-3.2-1.4-3.2-3.2c0-1.8,1.4-3.2,3.2-3.2
		C210.1,114.3,211.6,115.7,211.6,117.5"/>
	<rect id="XMLID_43_" x="218.2" y="107.7" class="st5" width="27.2" height="19.7"/>
	<polygon id="XMLID_42_" class="st2" points="49.5,203.3 17.3,223.6 17.3,342.6 49.5,342.6 	"/>
	<rect id="XMLID_41_" x="49.5" y="246.1" class="st6" width="32.2" height="96.5"/>
	<polygon id="XMLID_40_" class="st6" points="103.1,214 81.6,235.4 81.6,342.6 103.1,342.6 	"/>
	<polygon id="XMLID_39_" class="st6" points="135.6,203.3 114.1,203.3 114.1,342.6 135.6,342.6 135.6,256.9 	"/>
	<rect id="XMLID_38_" x="103.1" y="289.1" class="st2" width="10.7" height="53.6"/>
	<polygon id="XMLID_37_" class="st2" points="135.6,246.2 156.7,224.7 178.1,246.1 199.6,246.1 199.6,342.6 135.6,342.6 	"/>
	<polygon id="XMLID_36_" class="st6" points="221,202.6 199.6,181.9 199.6,342.6 221,342.6 	"/>
	<rect id="XMLID_35_" x="221" y="278.3" class="st2" width="10.8" height="64.3"/>
	<rect id="XMLID_34_" x="60.2" y="148.1" class="st3" width="128.7" height="162.9"/>
	<path id="XMLID_33_" class="st3" d="M60.2,334.6c0,4.4,3.6,8,8.1,8h112.6c4.4,0,8-3.6,8-8V311H60.2V334.6z"/>
	<path id="XMLID_32_" class="st3" d="M188.8,136.2c0-4.4-3.6-8-8-8H68.2c-4.4,0-8.1,3.6-8.1,8v11.8h128.7V136.2z"/>
	<line id="XMLID_31_" class="st3" x1="119.2" y1="138.8" x2="130.5" y2="138.8"/>
	<line id="XMLID_30_" class="st3" x1="109.3" y1="326.8" x2="140.4" y2="326.8"/>
	<path id="XMLID_29_" class="st7" d="M174.7,326.8c0,1.7-1.4,3.1-3.1,3.1c-1.7,0-3.1-1.4-3.1-3.1c0-1.7,1.4-3.1,3.1-3.1
		C173.4,323.7,174.7,325.1,174.7,326.8z"/>
	<polygon id="XMLID_28_" class="st4" points="178.1,160.1 70.9,160.1 70.9,192.6 149.5,192.6 156.7,199.8 163.8,192.6 178.1,192.6 	
		"/>
	<line id="XMLID_27_" class="st3" x1="104.3" y1="170.8" x2="144.1" y2="170.8"/>
	<line id="XMLID_26_" class="st3" x1="84" y1="181.9" x2="164.4" y2="181.9"/>
	<path id="XMLID_25_" class="st4" d="M167.5,257c0,6-10.8,31.9-10.8,31.9S145.9,263,145.9,257c0-5.9,4.9-10.8,10.8-10.8
		C162.7,246.2,167.5,251.1,167.5,257"/>
	<path id="XMLID_24_" class="st3" d="M167.5,257c0,6-10.8,31.9-10.8,31.9S145.9,263,145.9,257c0-5.9,4.9-10.8,10.8-10.8
		C162.7,246.2,167.5,251.1,167.5,257z"/>
	<line id="XMLID_23_" class="st3" x1="148.5" y1="300" x2="164.4" y2="300"/>
	<path id="XMLID_22_" class="st8" d="M160.7,256.9c0,2.2-1.8,4-4.1,4s-4-1.8-4-4c0-2.2,1.8-4.1,4-4.1S160.7,254.7,160.7,256.9"/>
	<path id="XMLID_21_" class="st9" d="M160.7,256.9c0,2.2-1.8,4-4.1,4s-4-1.8-4-4c0-2.2,1.8-4.1,4-4.1S160.7,254.7,160.7,256.9"/>
	<rect id="XMLID_20_" x="22.9" y="235.1" class="st8" width="5.1" height="37.9"/>
	<rect id="XMLID_19_" x="210.3" y="235.1" class="st2" width="5.1" height="37.9"/>
	<rect id="XMLID_18_" x="36.2" y="273" class="st8" width="5.1" height="37.9"/>
	<rect id="XMLID_17_" x="205.2" y="289" class="st2" width="5.1" height="37.9"/>
	<rect id="XMLID_16_" x="221" y="289" class="st10" width="5.1" height="37.9"/>
	<rect id="XMLID_15_" x="64.8" y="252.2" class="st10" width="5.1" height="26"/>
	<rect id="XMLID_14_" x="74" y="252.2" class="st10" width="5.1" height="26"/>
	<rect id="XMLID_13_" x="85.2" y="278.2" class="st8" width="5.1" height="26"/>
	<rect id="XMLID_12_" x="94.4" y="278.2" class="st8" width="5.1" height="26"/>
	<rect id="XMLID_11_" x="117.5" y="214" class="st2" width="5.1" height="10.3"/>
	<rect id="XMLID_10_" x="126.8" y="214" class="st2" width="5.1" height="10.3"/>
	<rect id="XMLID_9_" x="117.5" y="235.4" class="st2" width="5.1" height="10.3"/>
	<rect id="XMLID_8_" x="126.8" y="235.4" class="st2" width="5.1" height="10.3"/>
	<rect id="XMLID_7_" x="117.5" y="267.8" class="st2" width="5.1" height="10.3"/>
	<rect id="XMLID_6_" x="126.8" y="267.8" class="st2" width="5.1" height="10.3"/>
	<rect id="XMLID_5_" x="22.9" y="304.1" class="st8" width="5.1" height="37.9"/>
</g>
</svg>
