<?xml version="1.0" encoding="utf-8"?>
<!-- Generator: Adobe Illustrator 19.0.0, SVG Export Plug-In . SVG Version: 6.00 Build 0)  -->
<svg version="1.1" id="Layer_1" xmlns="http://www.w3.org/2000/svg" xmlns:xlink="http://www.w3.org/1999/xlink" x="0px" y="0px"
	 viewBox="0 0 400 400" style="enable-background:new 0 0 400 400;" xml:space="preserve">
<style type="text/css">
	.st0{fill:none;stroke:#C4C4C4;stroke-width:2;stroke-miterlimit:10;}
	.st1{fill:#F5EB16;}
	.st2{fill:#C4C4C4;}
	.st3{fill:none;stroke:#020202;stroke-width:2;stroke-miterlimit:10;}
	.st4{fill:#020202;}
	.st5{fill:#E5E6E7;}
</style>
<g id="XMLID_2_">
	<rect id="XMLID_50_" x="42.7" y="17.5" class="st0" width="183.5" height="235.9"/>
	<rect id="XMLID_49_" x="68.9" y="43.7" class="st1" width="131.1" height="52.4"/>
	<rect id="XMLID_48_" x="68.9" y="122.4" class="st1" width="78.6" height="13.1"/>
	<rect id="XMLID_47_" x="68.9" y="148.6" class="st2" width="78.6" height="13.1"/>
	<rect id="XMLID_46_" x="252.4" y="96.1" class="st2" width="39.3" height="209.7"/>
	<polygon id="XMLID_45_" class="st3" points="259,96.1 272.1,69.9 285.2,96.1 	"/>
	<rect id="XMLID_44_" x="262.9" y="305.9" class="st3" width="19.7" height="26.2"/>
	<line id="XMLID_43_" class="st3" x1="272.1" y1="69.9" x2="272.1" y2="56.8"/>
	<polyline id="XMLID_42_" class="st3" points="291.7,279.6 304.9,279.6 304.9,214.1 	"/>
	<line id="XMLID_41_" class="st3" x1="304.9" y1="227.2" x2="298.3" y2="227.2"/>
	<line id="XMLID_40_" class="st3" x1="252.4" y1="122.4" x2="291.7" y2="122.4"/>
	<line id="XMLID_39_" class="st3" x1="252.4" y1="135.5" x2="291.7" y2="135.5"/>
	<line id="XMLID_38_" class="st3" x1="252.4" y1="148.6" x2="291.7" y2="148.6"/>
	<line id="XMLID_37_" class="st3" x1="252.4" y1="161.7" x2="291.7" y2="161.7"/>
	<polygon id="XMLID_36_" class="st1" points="330.2,131.5 337.6,109.3 345.1,131.5 	"/>
	<rect id="XMLID_35_" x="318" y="148.6" class="st1" width="39.3" height="209.7"/>
	<polygon id="XMLID_34_" class="st3" points="324.5,148.6 337.6,109.3 350.7,148.6 	"/>
	<path id="XMLID_31_" class="st4" d="M352,379.3h-28.8v-15.7H352V379.3z M357.3,358.3H318v26.2h39.3V358.3z"/>
	<line id="XMLID_30_" class="st3" x1="318" y1="174.8" x2="357.3" y2="174.8"/>
	<line id="XMLID_29_" class="st3" x1="318" y1="187.9" x2="357.3" y2="187.9"/>
	<line id="XMLID_28_" class="st3" x1="318" y1="201" x2="357.3" y2="201"/>
	<line id="XMLID_27_" class="st3" x1="318" y1="214.1" x2="357.3" y2="214.1"/>
	<rect id="XMLID_26_" x="291.7" y="17.5" class="st1" width="65.5" height="35.4"/>
	<line id="XMLID_25_" class="st3" x1="344.2" y1="83" x2="344.2" y2="43.7"/>
	<line id="XMLID_24_" class="st3" x1="331.1" y1="83" x2="331.1" y2="43.7"/>
	<line id="XMLID_23_" class="st3" x1="318" y1="83" x2="318" y2="43.7"/>
	<rect id="XMLID_22_" x="42.7" y="279.6" class="st1" width="91.7" height="52.4"/>
	<rect id="XMLID_21_" x="68.9" y="305.9" class="st3" width="91.7" height="52.4"/>
	<line id="XMLID_20_" class="st3" x1="68.9" y1="175.2" x2="199.7" y2="175.2"/>
	<line id="XMLID_19_" class="st3" x1="68.9" y1="188.3" x2="199.7" y2="188.3"/>
	<line id="XMLID_18_" class="st3" x1="68.9" y1="201.4" x2="199.7" y2="201.4"/>
	<line id="XMLID_17_" class="st3" x1="68.9" y1="214.5" x2="120" y2="214.5"/>
	<line id="XMLID_16_" class="st3" x1="160.7" y1="122.4" x2="200" y2="122.4"/>
	<line id="XMLID_15_" class="st3" x1="160.7" y1="135.5" x2="200" y2="135.5"/>
	<line id="XMLID_14_" class="st3" x1="160.7" y1="148.6" x2="200" y2="148.6"/>
	<line id="XMLID_13_" class="st3" x1="160.7" y1="161.7" x2="200" y2="161.7"/>
	<rect id="XMLID_12_" x="68.9" y="227.2" class="st1" width="26.2" height="10.5"/>
	<rect id="XMLID_11_" x="95.1" y="227.2" class="st5" width="26.2" height="10.5"/>
	<rect id="XMLID_10_" x="121.2" y="227.2" class="st2" width="26.2" height="10.5"/>
	<rect id="XMLID_9_" x="147.6" y="227.2" class="st5" width="26.2" height="10.5"/>
	<rect id="XMLID_8_" x="173.8" y="227.2" class="st1" width="26.2" height="10.5"/>
	<path id="XMLID_7_" class="st1" d="M215.7,376.6c0-4.3-3.5-7.9-7.9-7.9c-4.3,0-7.9,3.5-7.9,7.9c0,4.3,3.5,7.9,7.9,7.9
		C212.2,384.5,215.7,381,215.7,376.6"/>
	<path id="XMLID_6_" class="st1" d="M215.7,345.2c0-4.3-3.5-7.9-7.9-7.9c-4.3,0-7.9,3.5-7.9,7.9c0,4.3,3.5,7.9,7.9,7.9
		C212.2,353,215.7,349.5,215.7,345.2"/>
	<path id="XMLID_3_" class="st2" d="M207.9,311.1c1.4,0,2.6,1.2,2.6,2.6c0,1.4-1.2,2.6-2.6,2.6c-1.4,0-2.6-1.2-2.6-2.6
		C205.2,312.3,206.4,311.1,207.9,311.1 M207.9,305.9c-4.3,0-7.9,3.5-7.9,7.9c0,4.3,3.5,7.9,7.9,7.9c4.3,0,7.9-3.5,7.9-7.9
		C215.7,309.4,212.2,305.9,207.9,305.9"/>
</g>
</svg>
