<?xml version="1.0" encoding="UTF-8" standalone="no"?>
<!-- Generator: Adobe Illustrator 19.0.0, SVG Export Plug-In . SVG Version: 6.00 Build 0)  -->

<svg
   xmlns:dc="http://purl.org/dc/elements/1.1/"
   xmlns:cc="http://creativecommons.org/ns#"
   xmlns:rdf="http://www.w3.org/1999/02/22-rdf-syntax-ns#"
   xmlns:svg="http://www.w3.org/2000/svg"
   xmlns="http://www.w3.org/2000/svg"
   xmlns:sodipodi="http://sodipodi.sourceforge.net/DTD/sodipodi-0.dtd"
   xmlns:inkscape="http://www.inkscape.org/namespaces/inkscape"
   version="1.1"
   id="Layer_1"
   x="0px"
   y="0px"
   viewBox="0 0 324.07101 337.70001"
   xml:space="preserve"
   inkscape:version="0.91 r13725"
   sodipodi:docname="Code Review.svg"
   width="324.07101"
   height="337.70001"><metadata
     id="metadata74"><rdf:RDF><cc:Work
         rdf:about=""><dc:format>image/svg+xml</dc:format><dc:type
           rdf:resource="http://purl.org/dc/dcmitype/StillImage" /><dc:title></dc:title></cc:Work></rdf:RDF></metadata><defs
     id="defs72" /><sodipodi:namedview
     pagecolor="#ffffff"
     bordercolor="#666666"
     borderopacity="1"
     objecttolerance="10"
     gridtolerance="10"
     guidetolerance="10"
     inkscape:pageopacity="0"
     inkscape:pageshadow="2"
     inkscape:window-width="1920"
     inkscape:window-height="1017"
     id="namedview70"
     showgrid="false"
     inkscape:showpageshadow="false"
     inkscape:zoom="0.70710678"
     inkscape:cx="100.53398"
     inkscape:cy="146.52697"
     inkscape:window-x="-8"
     inkscape:window-y="-8"
     inkscape:window-maximized="1"
     inkscape:current-layer="Layer_1" /><style
     type="text/css"
     id="style3">
	.st0{fill:#E5E6E7;}
	.st1{fill:#C4C4C4;}
	.st2{fill:#F5EB16;}
	.st3{fill:none;stroke:#F5EB16;stroke-miterlimit:10;}
	.st4{fill:none;stroke:#020202;stroke-miterlimit:10;}
	.st5{fill:none;stroke:#C4C4C4;stroke-miterlimit:10;}
	.st6{fill:#FFFFFF;}
	.st7{fill:#020202;}
</style><g
     id="g5"
     transform="translate(-38.300776,-31.197952)"><path
       id="XMLID_67_"
       class="st0"
       d="m 311.5,129.4 c 0,-17.7 -14.4,-32.1 -32.1,-32.1 -17.7,0 -32.1,14.4 -32.1,32.1 0,17.7 14.4,32.1 32.1,32.1 17.7,0 32.1,-14.4 32.1,-32.1"
       inkscape:connector-curvature="0"
       style="fill:#e5e6e7" /><rect
       id="XMLID_66_"
       x="38.299999"
       y="201.2"
       class="st1"
       width="239.5"
       height="143.7"
       style="fill:#c4c4c4" /><rect
       id="XMLID_65_"
       x="134.10001"
       y="344.89999"
       class="st0"
       width="47.900002"
       height="12"
       style="fill:#e5e6e7" /><rect
       id="XMLID_64_"
       x="122.1"
       y="356.89999"
       class="st1"
       width="71.800003"
       height="12"
       style="fill:#c4c4c4" /><rect
       id="XMLID_63_"
       x="50.299999"
       y="213.2"
       class="st0"
       width="215.5"
       height="119.7"
       style="fill:#e5e6e7" /><rect
       id="XMLID_62_"
       x="134.10001"
       y="33.599998"
       class="st2"
       width="191.60001"
       height="23.9"
       style="fill:#f5eb16" /><rect
       id="XMLID_61_"
       x="134.10001"
       y="33.599998"
       class="st3"
       width="191.60001"
       height="263.39999"
       style="fill:none;stroke:#f5eb16;stroke-miterlimit:10" /><line
       id="XMLID_60_"
       class="st4"
       x1="158"
       y1="69.5"
       x2="182"
       y2="69.5"
       style="fill:none;stroke:#020202;stroke-miterlimit:10" /><line
       id="XMLID_59_"
       class="st4"
       x1="167.60001"
       y1="81.5"
       x2="205.89999"
       y2="81.5"
       style="fill:none;stroke:#020202;stroke-miterlimit:10" /><line
       id="XMLID_58_"
       class="st4"
       x1="217.89999"
       y1="81.5"
       x2="241.89999"
       y2="81.5"
       style="fill:none;stroke:#020202;stroke-miterlimit:10" /><line
       id="XMLID_57_"
       class="st4"
       x1="210.7"
       y1="93.400002"
       x2="234.7"
       y2="93.400002"
       style="fill:none;stroke:#020202;stroke-miterlimit:10" /><line
       id="XMLID_56_"
       class="st4"
       x1="253.8"
       y1="81.5"
       x2="265.79999"
       y2="81.5"
       style="fill:none;stroke:#020202;stroke-miterlimit:10" /><line
       id="XMLID_55_"
       class="st4"
       x1="167.60001"
       y1="93.400002"
       x2="197.3"
       y2="93.400002"
       style="fill:none;stroke:#020202;stroke-miterlimit:10" /><line
       id="XMLID_54_"
       class="st4"
       x1="179.5"
       y1="105.4"
       x2="227"
       y2="105.4"
       style="fill:none;stroke:#020202;stroke-miterlimit:10" /><line
       id="XMLID_50_"
       class="st4"
       x1="239.39999"
       y1="105.4"
       x2="271.5"
       y2="105.4"
       style="fill:none;stroke:#020202;stroke-miterlimit:10" /><line
       id="XMLID_49_"
       class="st4"
       x1="286.29999"
       y1="105.4"
       x2="301.10001"
       y2="105.4"
       style="fill:none;stroke:#020202;stroke-miterlimit:10" /><line
       id="XMLID_48_"
       class="st4"
       x1="158"
       y1="129.39999"
       x2="182"
       y2="129.39999"
       style="fill:none;stroke:#020202;stroke-miterlimit:10" /><line
       id="XMLID_47_"
       class="st4"
       x1="167.60001"
       y1="141.3"
       x2="194"
       y2="141.3"
       style="fill:none;stroke:#020202;stroke-miterlimit:10" /><line
       id="XMLID_46_"
       class="st4"
       x1="205.89999"
       y1="141.3"
       x2="241.89999"
       y2="141.3"
       style="fill:none;stroke:#020202;stroke-miterlimit:10" /><line
       id="XMLID_45_"
       class="st4"
       x1="217.89999"
       y1="153.3"
       x2="261"
       y2="153.3"
       style="fill:none;stroke:#020202;stroke-miterlimit:10" /><line
       id="XMLID_44_"
       class="st4"
       x1="253.8"
       y1="141.3"
       x2="265.79999"
       y2="141.3"
       style="fill:none;stroke:#020202;stroke-miterlimit:10" /><line
       id="XMLID_43_"
       class="st4"
       x1="179.60001"
       y1="153.3"
       x2="204.5"
       y2="153.3"
       style="fill:none;stroke:#020202;stroke-miterlimit:10" /><line
       id="XMLID_42_"
       class="st4"
       x1="179.5"
       y1="165.3"
       x2="227"
       y2="165.3"
       style="fill:none;stroke:#020202;stroke-miterlimit:10" /><line
       id="XMLID_41_"
       class="st4"
       x1="239.39999"
       y1="165.3"
       x2="271.5"
       y2="165.3"
       style="fill:none;stroke:#020202;stroke-miterlimit:10" /><line
       id="XMLID_40_"
       class="st4"
       x1="286.29999"
       y1="165.3"
       x2="301.10001"
       y2="165.3"
       style="fill:none;stroke:#020202;stroke-miterlimit:10" /><line
       id="XMLID_39_"
       class="st4"
       x1="158"
       y1="189.2"
       x2="182"
       y2="189.2"
       style="fill:none;stroke:#020202;stroke-miterlimit:10" /><line
       id="XMLID_38_"
       class="st4"
       x1="167.60001"
       y1="201.2"
       x2="205.89999"
       y2="201.2"
       style="fill:none;stroke:#020202;stroke-miterlimit:10" /><line
       id="XMLID_37_"
       class="st4"
       x1="217.89999"
       y1="201.2"
       x2="241.89999"
       y2="201.2"
       style="fill:none;stroke:#020202;stroke-miterlimit:10" /><line
       id="XMLID_36_"
       class="st4"
       x1="220.3"
       y1="213.2"
       x2="234.7"
       y2="213.2"
       style="fill:none;stroke:#020202;stroke-miterlimit:10" /><line
       id="XMLID_35_"
       class="st4"
       x1="253.8"
       y1="201.2"
       x2="265.79999"
       y2="201.2"
       style="fill:none;stroke:#020202;stroke-miterlimit:10" /><line
       id="XMLID_34_"
       class="st4"
       x1="167.60001"
       y1="213.2"
       x2="206.89999"
       y2="213.2"
       style="fill:none;stroke:#020202;stroke-miterlimit:10" /><line
       id="XMLID_33_"
       class="st4"
       x1="179.5"
       y1="225.10001"
       x2="227"
       y2="225.10001"
       style="fill:none;stroke:#020202;stroke-miterlimit:10" /><line
       id="XMLID_32_"
       class="st4"
       x1="239.39999"
       y1="225.10001"
       x2="281"
       y2="225.10001"
       style="fill:none;stroke:#020202;stroke-miterlimit:10" /><line
       id="XMLID_31_"
       class="st4"
       x1="295.89999"
       y1="225.10001"
       x2="301.10001"
       y2="225.10001"
       style="fill:none;stroke:#020202;stroke-miterlimit:10" /><line
       id="XMLID_30_"
       class="st4"
       x1="158"
       y1="249.10001"
       x2="182"
       y2="249.10001"
       style="fill:none;stroke:#020202;stroke-miterlimit:10" /><line
       id="XMLID_29_"
       class="st4"
       x1="167.60001"
       y1="261.10001"
       x2="203.5"
       y2="261.10001"
       style="fill:none;stroke:#020202;stroke-miterlimit:10" /><line
       id="XMLID_28_"
       class="st4"
       x1="215.5"
       y1="261.10001"
       x2="241.89999"
       y2="261.10001"
       style="fill:none;stroke:#020202;stroke-miterlimit:10" /><line
       id="XMLID_27_"
       class="st4"
       x1="253.8"
       y1="261.10001"
       x2="265.79999"
       y2="261.10001"
       style="fill:none;stroke:#020202;stroke-miterlimit:10" /><polyline
       id="XMLID_26_"
       class="st4"
       points="74.2,189.2 62.2,201.2 74.2,213.2  "
       style="fill:none;stroke:#020202;stroke-miterlimit:10" /><polyline
       id="XMLID_25_"
       class="st4"
       points="112.5,213.2 124.5,201.2 112.5,189.2  "
       style="fill:none;stroke:#020202;stroke-miterlimit:10" /><line
       id="XMLID_24_"
       class="st4"
       x1="86.199997"
       y1="213.2"
       x2="100.6"
       y2="189.2"
       style="fill:none;stroke:#020202;stroke-miterlimit:10" /><path
       id="XMLID_23_"
       class="st5"
       d="m 62.2,50.3 c 0,4 -3.2,7.2 -7.2,7.2 -4,0 -7.2,-3.2 -7.2,-7.2 l 0,-9.6 c 0,-4 3.2,-7.2 7.2,-7.2 4,0 7.2,3.2 7.2,7.2 l 0,9.6 z"
       inkscape:connector-curvature="0"
       style="fill:none;stroke:#c4c4c4;stroke-miterlimit:10" /><line
       id="XMLID_22_"
       class="st5"
       x1="74.199997"
       y1="31.200001"
       x2="74.199997"
       y2="59.900002"
       style="fill:none;stroke:#c4c4c4;stroke-miterlimit:10" /><path
       id="XMLID_21_"
       class="st5"
       d="m 101.8,50.3 c 0,4 -3.2,7.2 -7.2,7.2 -4,0 -7.2,-3.2 -7.2,-7.2 l 0,-9.6 c 0,-4 3.2,-7.2 7.2,-7.2 4,0 7.2,3.2 7.2,7.2 l 0,9.6 z"
       inkscape:connector-curvature="0"
       style="fill:none;stroke:#c4c4c4;stroke-miterlimit:10" /><line
       id="XMLID_20_"
       class="st5"
       x1="86.199997"
       y1="67.099998"
       x2="86.199997"
       y2="95.800003"
       style="fill:none;stroke:#c4c4c4;stroke-miterlimit:10" /><line
       id="XMLID_19_"
       class="st5"
       x1="98.199997"
       y1="67.099998"
       x2="98.199997"
       y2="95.800003"
       style="fill:none;stroke:#c4c4c4;stroke-miterlimit:10" /><line
       id="XMLID_18_"
       class="st5"
       x1="110.1"
       y1="103"
       x2="110.1"
       y2="131.7"
       style="fill:none;stroke:#c4c4c4;stroke-miterlimit:10" /><path
       id="XMLID_17_"
       class="st5"
       d="m 65.8,86.2 c 0,4 -3.2,7.2 -7.2,7.2 -4,0 -7.2,-3.2 -7.2,-7.2 l 0,-9.6 c 0,-4 3.2,-7.2 7.2,-7.2 4,0 7.2,3.2 7.2,7.2 l 0,9.6 z"
       inkscape:connector-curvature="0"
       style="fill:none;stroke:#c4c4c4;stroke-miterlimit:10" /><path
       id="XMLID_16_"
       class="st5"
       d="m 76.6,122.2 c 0,4 -3.2,7.2 -7.2,7.2 -4,0 -7.2,-3.2 -7.2,-7.2 l 0,-9.6 c 0,-4 3.2,-7.2 7.2,-7.2 4,0 7.2,3.2 7.2,7.2 l 0,9.6 z"
       inkscape:connector-curvature="0"
       style="fill:none;stroke:#c4c4c4;stroke-miterlimit:10" /><path
       id="XMLID_15_"
       class="st5"
       d="m 100.6,122.2 c 0,4 -3.2,7.2 -7.2,7.2 -4,0 -7.2,-3.2 -7.2,-7.2 l 0,-9.6 c 0,-4 3.2,-7.2 7.2,-7.2 4,0 7.2,3.2 7.2,7.2 l 0,9.6 z"
       inkscape:connector-curvature="0"
       style="fill:none;stroke:#c4c4c4;stroke-miterlimit:10" /><path
       id="XMLID_14_"
       class="st5"
       d="m 124.5,86.2 c 0,4 -3.2,7.2 -7.2,7.2 -4,0 -7.2,-3.2 -7.2,-7.2 l 0,-9.6 c 0,-4 3.2,-7.2 7.2,-7.2 4,0 7.2,3.2 7.2,7.2 l 0,9.6 z"
       inkscape:connector-curvature="0"
       style="fill:none;stroke:#c4c4c4;stroke-miterlimit:10" /><line
       id="XMLID_13_"
       class="st5"
       x1="50.299999"
       y1="138.89999"
       x2="50.299999"
       y2="167.7"
       style="fill:none;stroke:#c4c4c4;stroke-miterlimit:10" /><line
       id="XMLID_12_"
       class="st5"
       x1="86.199997"
       y1="138.89999"
       x2="86.199997"
       y2="167.7"
       style="fill:none;stroke:#c4c4c4;stroke-miterlimit:10" /><line
       id="XMLID_11_"
       class="st5"
       x1="98.199997"
       y1="138.89999"
       x2="98.199997"
       y2="167.7"
       style="fill:none;stroke:#c4c4c4;stroke-miterlimit:10" /><path
       id="XMLID_10_"
       class="st5"
       d="m 76.6,158.1 c 0,4 -3.2,7.2 -7.2,7.2 -4,0 -7.2,-3.2 -7.2,-7.2 l 0,-9.6 c 0,-4 3.2,-7.2 7.2,-7.2 4,0 7.2,3.2 7.2,7.2 l 0,9.6 z"
       inkscape:connector-curvature="0"
       style="fill:none;stroke:#c4c4c4;stroke-miterlimit:10" /><path
       id="XMLID_9_"
       class="st5"
       d="m 124.5,158.1 c 0,4 -3.2,7.2 -7.2,7.2 -4,0 -7.2,-3.2 -7.2,-7.2 l 0,-9.6 c 0,-4 3.2,-7.2 7.2,-7.2 4,0 7.2,3.2 7.2,7.2 l 0,9.6 z"
       inkscape:connector-curvature="0"
       style="fill:none;stroke:#c4c4c4;stroke-miterlimit:10" /><line
       id="XMLID_8_"
       class="st5"
       x1="113.7"
       y1="31.200001"
       x2="113.7"
       y2="59.900002"
       style="fill:none;stroke:#c4c4c4;stroke-miterlimit:10" /><path
       id="XMLID_7_"
       class="st2"
       d="m 74.2,362.9 c 0,-3.3 -2.7,-6 -6,-6 -3.3,0 -6,2.7 -6,6 0,3.3 2.7,6 6,6 3.3,-0.1 6,-2.7 6,-6"
       inkscape:connector-curvature="0"
       style="fill:#f5eb16" /><path
       id="XMLID_6_"
       class="st2"
       d="m 99.3,285.6 c 0,-7.2 -5.9,-13.1 -13.1,-13.1 -7.2,0 -13.1,5.9 -13.1,13.1 0,7.2 5.9,13.1 13.1,13.1 7.2,0 13.1,-5.9 13.1,-13.1"
       inkscape:connector-curvature="0"
       style="fill:#f5eb16" /><path
       id="XMLID_5_"
       class="st2"
       d="m 325.7,344.9 c 0,-9.8 -8,-17.8 -17.8,-17.8 -9.8,0 -17.8,8 -17.8,17.8 0,9.8 8,17.8 17.8,17.8 9.8,0 17.8,-8 17.8,-17.8"
       inkscape:connector-curvature="0"
       style="fill:#f5eb16" /><path
       id="XMLID_4_"
       class="st6"
       d="m 361.7,259.4 c 0,0 -16.1,18 -36,18 -19.9,0 -36,-18 -36,-18 0,0 16.1,-18 36,-18 19.9,0 36,18 36,18"
       inkscape:connector-curvature="0"
       style="fill:#ffffff" /><path
       id="XMLID_3_"
       class="st4"
       d="m 361.7,259.4 c 0,0 -16.1,18 -36,18 -19.9,0 -36,-18 -36,-18 0,0 16.1,-18 36,-18 19.9,0 36,18 36,18 z"
       inkscape:connector-curvature="0"
       style="fill:none;stroke:#020202;stroke-miterlimit:10" /><path
       id="XMLID_2_"
       class="st7"
       d="m 332.9,259.4 c 0,4 -3.2,7.2 -7.2,7.2 -4,0 -7.2,-3.2 -7.2,-7.2 0,-4 3.2,-7.2 7.2,-7.2 4,0 7.2,3.2 7.2,7.2"
       inkscape:connector-curvature="0"
       style="fill:#020202" /></g></svg>