<?xml version="1.0" encoding="utf-8"?>
<!-- Generator: Adobe Illustrator 21.1.0, SVG Export Plug-In . SVG Version: 6.00 Build 0)  -->
<svg version="1.1"
	 id="Layer_1" inkscape:version="0.91 r13725" sodipodi:docname="Code Review.svg" xmlns:cc="http://creativecommons.org/ns#" xmlns:dc="http://purl.org/dc/elements/1.1/" xmlns:inkscape="http://www.inkscape.org/namespaces/inkscape" xmlns:rdf="http://www.w3.org/1999/02/22-rdf-syntax-ns#" xmlns:sodipodi="http://sodipodi.sourceforge.net/DTD/sodipodi-0.dtd" xmlns:svg="http://www.w3.org/2000/svg"
	 xmlns="http://www.w3.org/2000/svg" xmlns:xlink="http://www.w3.org/1999/xlink" x="0px" y="0px" viewBox="0 0 317 347"
	 style="enable-background:new 0 0 317 347;" xml:space="preserve">
<style type="text/css">
	.st0{fill:#E5E6E7;}
	.st1{fill:#C4C4C4;}
	.st2{fill:#F5EB16;}
	.st3{fill:none;stroke:#F5EB16;stroke-miterlimit:10;}
	.st4{fill:none;stroke:#020202;stroke-miterlimit:10;}
	.st5{fill:none;stroke:#C4C4C4;stroke-miterlimit:10;}
	.st6{fill:#FFFFFF;}
	.st7{fill:#020202;}
</style>
<sodipodi:namedview  bordercolor="#666666" borderopacity="1" gridtolerance="10" guidetolerance="10" id="namedview70" inkscape:current-layer="Layer_1" inkscape:cx="100.53398" inkscape:cy="146.52697" inkscape:pageopacity="0" inkscape:pageshadow="2" inkscape:showpageshadow="false" inkscape:window-height="1017" inkscape:window-maximized="1" inkscape:window-width="1920" inkscape:window-x="-8" inkscape:window-y="-8" inkscape:zoom="0.70710678" objecttolerance="10" pagecolor="#ffffff" showgrid="false">
	</sodipodi:namedview>
<g id="g5" transform="translate(-38.300776,-31.197952)">
	<path id="XMLID_67_" inkscape:connector-curvature="0" class="st0" d="M302.3,137.8c0-16.7-13.6-30.4-30.4-30.4
		c-16.7,0-30.4,13.6-30.4,30.4s13.6,30.4,30.4,30.4C288.7,168.2,302.3,154.6,302.3,137.8"/>
	<rect id="XMLID_66_" x="43.8" y="205.8" class="st1" width="226.6" height="136"/>
	<rect id="XMLID_65_" x="134.4" y="341.8" class="st0" width="45.3" height="11.4"/>
	<rect id="XMLID_64_" x="123.1" y="353.1" class="st1" width="67.9" height="11.4"/>
	<rect id="XMLID_63_" x="55.2" y="217.1" class="st0" width="203.9" height="113.3"/>
	<rect id="XMLID_62_" x="134.4" y="47.2" class="st2" width="181.3" height="22.6"/>
	<rect id="XMLID_61_" x="134.4" y="47.2" class="st3" width="181.3" height="249.2"/>
	<line id="XMLID_60_" class="st4" x1="157.1" y1="81.2" x2="179.8" y2="81.2"/>
	<line id="XMLID_59_" class="st4" x1="166.1" y1="92.5" x2="202.4" y2="92.5"/>
	<line id="XMLID_58_" class="st4" x1="213.7" y1="92.5" x2="236.4" y2="92.5"/>
	<line id="XMLID_57_" class="st4" x1="206.9" y1="103.8" x2="229.6" y2="103.8"/>
	<line id="XMLID_56_" class="st4" x1="247.7" y1="92.5" x2="259.1" y2="92.5"/>
	<line id="XMLID_55_" class="st4" x1="166.1" y1="103.8" x2="194.2" y2="103.8"/>
	<line id="XMLID_54_" class="st4" x1="177.4" y1="115.1" x2="222.3" y2="115.1"/>
	<line id="XMLID_50_" class="st4" x1="234.1" y1="115.1" x2="264.5" y2="115.1"/>
	<line id="XMLID_49_" class="st4" x1="278.5" y1="115.1" x2="292.5" y2="115.1"/>
	<line id="XMLID_48_" class="st4" x1="157.1" y1="137.8" x2="179.8" y2="137.8"/>
	<line id="XMLID_47_" class="st4" x1="166.1" y1="149.1" x2="191.1" y2="149.1"/>
	<line id="XMLID_46_" class="st4" x1="202.4" y1="149.1" x2="236.4" y2="149.1"/>
	<line id="XMLID_45_" class="st4" x1="213.7" y1="160.5" x2="254.5" y2="160.5"/>
	<line id="XMLID_44_" class="st4" x1="247.7" y1="149.1" x2="259.1" y2="149.1"/>
	<line id="XMLID_43_" class="st4" x1="177.5" y1="160.5" x2="201.1" y2="160.5"/>
	<line id="XMLID_42_" class="st4" x1="177.4" y1="171.8" x2="222.3" y2="171.8"/>
	<line id="XMLID_41_" class="st4" x1="234.1" y1="171.8" x2="264.5" y2="171.8"/>
	<line id="XMLID_40_" class="st4" x1="278.5" y1="171.8" x2="292.5" y2="171.8"/>
	<line id="XMLID_39_" class="st4" x1="157.1" y1="194.4" x2="179.8" y2="194.4"/>
	<line id="XMLID_38_" class="st4" x1="166.1" y1="205.8" x2="202.4" y2="205.8"/>
	<line id="XMLID_37_" class="st4" x1="213.7" y1="205.8" x2="236.4" y2="205.8"/>
	<line id="XMLID_36_" class="st4" x1="216" y1="217.1" x2="229.6" y2="217.1"/>
	<line id="XMLID_35_" class="st4" x1="247.7" y1="205.8" x2="259.1" y2="205.8"/>
	<line id="XMLID_34_" class="st4" x1="166.1" y1="217.1" x2="203.3" y2="217.1"/>
	<line id="XMLID_33_" class="st4" x1="177.4" y1="228.4" x2="222.3" y2="228.4"/>
	<line id="XMLID_32_" class="st4" x1="234.1" y1="228.4" x2="273.4" y2="228.4"/>
	<line id="XMLID_31_" class="st4" x1="287.5" y1="228.4" x2="292.5" y2="228.4"/>
	<line id="XMLID_30_" class="st4" x1="157.1" y1="251.1" x2="179.8" y2="251.1"/>
	<line id="XMLID_29_" class="st4" x1="166.1" y1="262.5" x2="200.1" y2="262.5"/>
	<line id="XMLID_28_" class="st4" x1="211.5" y1="262.5" x2="236.4" y2="262.5"/>
	<line id="XMLID_27_" class="st4" x1="247.7" y1="262.5" x2="259.1" y2="262.5"/>
	<polyline id="XMLID_26_" class="st4" points="77.8,194.4 66.4,205.8 77.8,217.1 	"/>
	<polyline id="XMLID_25_" class="st4" points="114,217.1 125.4,205.8 114,194.4 	"/>
	<line id="XMLID_24_" class="st4" x1="89.1" y1="217.1" x2="102.7" y2="194.4"/>
	<path id="XMLID_23_" inkscape:connector-curvature="0" class="st5" d="M66.4,63c0,3.8-3,6.8-6.8,6.8s-6.8-3-6.8-6.8v-9.1
		c0-3.8,3-6.8,6.8-6.8s6.8,3,6.8,6.8C66.4,53.9,66.4,63,66.4,63z"/>
	<line id="XMLID_22_" class="st5" x1="77.8" y1="44.9" x2="77.8" y2="72.1"/>
	<path id="XMLID_21_" inkscape:connector-curvature="0" class="st5" d="M103.9,63c0,3.8-3,6.8-6.8,6.8c-3.8,0-6.8-3-6.8-6.8v-9.1
		c0-3.8,3-6.8,6.8-6.8c3.8,0,6.8,3,6.8,6.8C103.9,53.9,103.9,63,103.9,63z"/>
	<line id="XMLID_20_" class="st5" x1="89.1" y1="78.9" x2="89.1" y2="106.1"/>
	<line id="XMLID_19_" class="st5" x1="100.5" y1="78.9" x2="100.5" y2="106.1"/>
	<line id="XMLID_18_" class="st5" x1="111.7" y1="112.9" x2="111.7" y2="140"/>
	<path id="XMLID_17_" inkscape:connector-curvature="0" class="st5" d="M69.8,97c0,3.8-3,6.8-6.8,6.8s-6.8-3-6.8-6.8v-9.1
		c0-3.8,3-6.8,6.8-6.8s6.8,3,6.8,6.8V97z"/>
	<path id="XMLID_16_" inkscape:connector-curvature="0" class="st5" d="M80,131c0,3.8-3,6.8-6.8,6.8c-3.8,0-6.8-3-6.8-6.8V122
		c0-3.8,3-6.8,6.8-6.8c3.8,0,6.8,3,6.8,6.8V131z"/>
	<path id="XMLID_15_" inkscape:connector-curvature="0" class="st5" d="M102.7,131c0,3.8-3,6.8-6.8,6.8c-3.8,0-6.8-3-6.8-6.8V122
		c0-3.8,3-6.8,6.8-6.8c3.8,0,6.8,3,6.8,6.8V131z"/>
	<path id="XMLID_14_" inkscape:connector-curvature="0" class="st5" d="M125.4,97c0,3.8-3,6.8-6.8,6.8c-3.8,0-6.8-3-6.8-6.8v-9.1
		c0-3.8,3-6.8,6.8-6.8c3.8,0,6.8,3,6.8,6.8V97z"/>
	<line id="XMLID_13_" class="st5" x1="55.2" y1="146.8" x2="55.2" y2="174.1"/>
	<line id="XMLID_12_" class="st5" x1="89.1" y1="146.8" x2="89.1" y2="174.1"/>
	<line id="XMLID_11_" class="st5" x1="100.5" y1="146.8" x2="100.5" y2="174.1"/>
	<path id="XMLID_10_" inkscape:connector-curvature="0" class="st5" d="M80,165c0,3.8-3,6.8-6.8,6.8c-3.8,0-6.8-3-6.8-6.8v-9.1
		c0-3.8,3-6.8,6.8-6.8c3.8,0,6.8,3,6.8,6.8V165z"/>
	<path id="XMLID_9_" inkscape:connector-curvature="0" class="st5" d="M125.4,165c0,3.8-3,6.8-6.8,6.8c-3.8,0-6.8-3-6.8-6.8v-9.1
		c0-3.8,3-6.8,6.8-6.8c3.8,0,6.8,3,6.8,6.8V165z"/>
	<line id="XMLID_8_" class="st5" x1="115.1" y1="44.9" x2="115.1" y2="72.1"/>
	<path id="XMLID_7_" inkscape:connector-curvature="0" class="st2" d="M77.8,358.8c0-3.1-2.6-5.7-5.7-5.7s-5.7,2.6-5.7,5.7
		s2.6,5.7,5.7,5.7C75.2,364.4,77.8,361.9,77.8,358.8"/>
	<path id="XMLID_6_" inkscape:connector-curvature="0" class="st2" d="M101.5,285.6c0-6.8-5.6-12.4-12.4-12.4
		c-6.8,0-12.4,5.6-12.4,12.4S82.3,298,89.1,298C95.9,298,101.5,292.5,101.5,285.6"/>
	<path id="XMLID_5_" inkscape:connector-curvature="0" class="st2" d="M315.7,341.8c0-9.3-7.6-16.8-16.8-16.8
		c-9.3,0-16.8,7.6-16.8,16.8c0,9.3,7.6,16.8,16.8,16.8C308.2,358.6,315.7,351,315.7,341.8"/>
	<path id="XMLID_4_" inkscape:connector-curvature="0" class="st6" d="M349.8,260.9c0,0-15.2,17-34.1,17s-34.1-17-34.1-17
		s15.2-17,34.1-17S349.8,260.9,349.8,260.9"/>
	<path id="XMLID_3_" inkscape:connector-curvature="0" class="st4" d="M349.8,260.9c0,0-15.2,17-34.1,17s-34.1-17-34.1-17
		s15.2-17,34.1-17S349.8,260.9,349.8,260.9z"/>
	<path id="XMLID_2_" inkscape:connector-curvature="0" class="st7" d="M322.6,260.9c0,3.8-3,6.8-6.8,6.8s-6.8-3-6.8-6.8
		c0-3.8,3-6.8,6.8-6.8S322.6,257.1,322.6,260.9"/>
</g>
</svg>
