<?xml version="1.0" encoding="utf-8"?>
<!-- Generator: Adobe Illustrator 19.0.0, SVG Export Plug-In . SVG Version: 6.00 Build 0)  -->
<svg version="1.1" id="Layer_1" xmlns="http://www.w3.org/2000/svg" xmlns:xlink="http://www.w3.org/1999/xlink" x="0px" y="0px"
	 viewBox="0 0 400 400" style="enable-background:new 0 0 400 400;" xml:space="preserve">
<style type="text/css">
	.st0{clip-path:url(#XMLID_39_);fill:#E5E5E7;}
	.st1{clip-path:url(#XMLID_39_);fill:#C4C4C4;}
	.st2{clip-path:url(#XMLID_39_);fill:none;stroke:#010101;stroke-width:2;stroke-miterlimit:10;}
	.st3{clip-path:url(#XMLID_39_);fill:#FFFFFF;}
	.st4{clip-path:url(#XMLID_39_);fill:#F6EB16;}
</style>
<g>
	<defs>
		<rect id="XMLID_2_" x="42.4" y="18.9" width="315.2" height="362.1"/>
	</defs>
	<clipPath id="XMLID_39_">
		<use xlink:href="#XMLID_2_"  style="overflow:visible;"/>
	</clipPath>
	<path id="XMLID_37_" class="st0" d="M290.5,31.9c0-7.1-5.8-12.9-12.9-12.9H122.4c-7.1,0-12.9,5.8-12.9,12.9v310.4h181.1V31.9z"/>
	<path id="XMLID_36_" class="st1" d="M109.5,342.3v25.9c0,7.1,5.8,12.9,12.9,12.9h155.2c7.1,0,12.9-5.8,12.9-12.9v-25.9H109.5z"/>
	<polygon id="XMLID_35_" class="st2" points="251.7,122.4 70.7,122.4 44.8,148.3 44.8,44.8 251.7,44.8 	"/>
	<line id="XMLID_34_" class="st2" x1="70.7" y1="70.7" x2="174.1" y2="70.7"/>
	<line id="XMLID_33_" class="st2" x1="70.7" y1="83.6" x2="174.1" y2="83.6"/>
	<line id="XMLID_32_" class="st2" x1="70.7" y1="96.5" x2="174.1" y2="96.5"/>
	<rect id="XMLID_31_" x="148.3" y="148.3" class="st3" width="103.5" height="103.5"/>
	<path id="XMLID_30_" class="st4" d="M225.9,200c0,14.3-11.6,25.9-25.9,25.9c-14.3,0-25.9-11.6-25.9-25.9
		c0-14.3,11.6-25.9,25.9-25.9C214.3,174.1,225.9,185.7,225.9,200"/>
	<polyline id="XMLID_29_" class="st2" points="161.2,174.1 161.2,161.2 174.1,161.2 	"/>
	<polyline id="XMLID_28_" class="st2" points="238.8,225.9 238.8,238.8 225.9,238.8 	"/>
	<polyline id="XMLID_27_" class="st2" points="174.1,238.8 161.2,238.8 161.2,225.9 	"/>
	<polyline id="XMLID_26_" class="st2" points="225.9,161.2 238.8,161.2 238.8,174.1 	"/>
	<rect id="XMLID_25_" x="128.9" y="290.5" class="st2" width="25.9" height="25.9"/>
	<rect id="XMLID_24_" x="167.7" y="290.5" class="st2" width="25.9" height="25.9"/>
	<rect id="XMLID_23_" x="206.3" y="290.4" class="st2" width="25.9" height="25.9"/>
	<rect id="XMLID_22_" x="245.3" y="290.4" class="st2" width="25.9" height="25.9"/>
	<polyline id="XMLID_21_" class="st2" points="161.2,269.8 329.3,269.8 329.3,303.5 	"/>
	<circle id="XMLID_20_" class="st2" cx="329.3" cy="329.3" r="25.9"/>
	<path id="XMLID_19_" class="st4" d="M342.3,329.3c0-7.1-5.8-12.9-12.9-12.9c-7.1,0-12.9,5.8-12.9,12.9c0,7.1,5.8,12.9,12.9,12.9
		C336.5,342.3,342.3,336.5,342.3,329.3"/>
	<line id="XMLID_18_" class="st2" x1="355.2" y1="148.3" x2="271.1" y2="148.3"/>
	<line id="XMLID_17_" class="st2" x1="329.3" y1="161.2" x2="271.1" y2="161.2"/>
	<line id="XMLID_16_" class="st2" x1="355.2" y1="174.1" x2="271.1" y2="174.1"/>
	<line id="XMLID_15_" class="st2" x1="355.2" y1="187.1" x2="271.1" y2="187.1"/>
	<line id="XMLID_14_" class="st2" x1="355.2" y1="200" x2="271.1" y2="200"/>
	<line id="XMLID_13_" class="st2" x1="306.1" y1="212.9" x2="271.1" y2="212.9"/>
	<path id="XMLID_12_" class="st4" d="M83.6,347.4c0-2.8-2.3-5.2-5.2-5.2H50c-2.8,0-5.2,2.3-5.2,5.2v28.5c0,2.8,2.3,5.2,5.2,5.2h28.5
		c2.8,0,5.2-2.3,5.2-5.2V347.4z"/>
	<path id="XMLID_11_" class="st4" d="M88.8,295.7c0-2.8-2.3-5.2-5.2-5.2H55.1c-2.8,0-5.2,2.3-5.2,5.2v28.5c0,2.8,2.3,5.2,5.2,5.2
		h28.5c2.8,0,5.2-2.3,5.2-5.2V295.7z"/>
	<path id="XMLID_10_" class="st1" d="M93.9,244c0-2.8-2.3-5.2-5.2-5.2H60.3c-2.8,0-5.2,2.3-5.2,5.2v28.5c0,2.8,2.3,5.2,5.2,5.2h28.5
		c2.8,0,5.2-2.3,5.2-5.2V244z"/>
	<path id="XMLID_9_" class="st0" d="M99.1,192.2c0-2.8-2.3-5.2-5.2-5.2H65.5c-2.8,0-5.2,2.3-5.2,5.2v28.5c0,2.8,2.3,5.2,5.2,5.2
		h28.5c2.8,0,5.2-2.3,5.2-5.2V192.2z"/>
	<line id="XMLID_8_" class="st2" x1="70.7" y1="200" x2="122.4" y2="200"/>
	<line id="XMLID_7_" class="st2" x1="70.7" y1="250.1" x2="122.4" y2="250.1"/>
	<line id="XMLID_6_" class="st2" x1="70.7" y1="303.5" x2="122.4" y2="303.5"/>
	<line id="XMLID_5_" class="st2" x1="70.7" y1="355.2" x2="122.4" y2="355.2"/>
	<path id="XMLID_4_" class="st4" d="M303.5,70.7c0,14.3,11.6,25.9,25.9,25.9c14.3,0,25.9-11.6,25.9-25.9c0-14.3-11.6-25.9-25.9-25.9
		C315.1,44.8,303.5,56.4,303.5,70.7"/>
	<path id="XMLID_3_" class="st4" d="M83.6,154.7c0,3.6-2.9,6.5-6.5,6.5c-3.6,0-6.5-2.9-6.5-6.5c0-3.6,2.9-6.5,6.5-6.5
		C80.7,148.3,83.6,151.2,83.6,154.7"/>
</g>
</svg>
