<?xml version="1.0" encoding="utf-8"?>
<!-- Generator: Adobe Illustrator 21.1.0, SVG Export Plug-In . SVG Version: 6.00 Build 0)  -->
<svg version="1.1"
	 id="Layer_1" inkscape:version="0.91 r13725" sodipodi:docname="Product Review.svg" xmlns:cc="http://creativecommons.org/ns#" xmlns:dc="http://purl.org/dc/elements/1.1/" xmlns:inkscape="http://www.inkscape.org/namespaces/inkscape" xmlns:rdf="http://www.w3.org/1999/02/22-rdf-syntax-ns#" xmlns:sodipodi="http://sodipodi.sourceforge.net/DTD/sodipodi-0.dtd" xmlns:svg="http://www.w3.org/2000/svg"
	 xmlns="http://www.w3.org/2000/svg" xmlns:xlink="http://www.w3.org/1999/xlink" x="0px" y="0px" viewBox="0 0 317 347"
	 style="enable-background:new 0 0 317 347;" xml:space="preserve">
<style type="text/css">
	.st0{fill:#C4C4C4;}
	.st1{fill:#E5E6E7;}
	.st2{fill:#F5EB16;}
	.st3{fill:none;stroke:#020202;stroke-miterlimit:10;}
	.st4{fill:#FFFFFF;}
	.st5{fill:#020202;}
</style>
<sodipodi:namedview  bordercolor="#666666" borderopacity="1" gridtolerance="10" guidetolerance="10" id="namedview29" inkscape:current-layer="Layer_1" inkscape:cx="66.10888" inkscape:cy="131.07111" inkscape:pageopacity="0" inkscape:pageshadow="2" inkscape:showpageshadow="false" inkscape:window-height="1017" inkscape:window-maximized="1" inkscape:window-width="1920" inkscape:window-x="-8" inkscape:window-y="-8" inkscape:zoom="1" objecttolerance="10" pagecolor="#ffffff" showgrid="false">
	</sodipodi:namedview>
<g id="g5" transform="matrix(1.0000005,0,0,0.99968424,-26.497964,-41.589837)">
	<rect id="XMLID_23_" x="78.9" y="189.5" class="st0" width="212.2" height="127.3"/>
	<rect id="XMLID_22_" x="163.8" y="316.8" class="st1" width="42.4" height="10.6"/>
	<rect id="XMLID_21_" x="153.1" y="327.4" class="st0" width="63.7" height="10.6"/>
	<rect id="XMLID_20_" x="89.5" y="200.1" class="st1" width="191" height="106.1"/>
	<path id="XMLID_19_" inkscape:connector-curvature="0" class="st2" d="M110.7,332.7c0-2.9-2.4-5.3-5.3-5.3s-5.3,2.4-5.3,5.3
		c0,2.9,2.4,5.3,5.3,5.3C108.3,338,110.7,335.6,110.7,332.7"/>
	<path id="XMLID_18_" inkscape:connector-curvature="0" class="st2" d="M132.9,264.3c0-6.4-5.2-11.6-11.6-11.6
		c-6.4,0-11.6,5.2-11.6,11.6c0,6.4,5.2,11.6,11.6,11.6C127.8,275.8,132.9,270.7,132.9,264.3"/>
	<path id="XMLID_17_" inkscape:connector-curvature="0" class="st2" d="M324.7,338c0-8.7-7.1-15.7-15.7-15.7s-15.7,7.1-15.7,15.7
		c0,8.7,7.1,15.7,15.7,15.7C317.7,353.7,324.7,346.7,324.7,338"/>
	<path id="XMLID_16_" inkscape:connector-curvature="0" class="st1" d="M297.5,83.6c0-3.8-3.1-7-7-7h-83.8c-3.8,0-7,3.1-7,7V217
		h97.8C297.5,217,297.5,83.6,297.5,83.6z"/>
	<path id="XMLID_15_" inkscape:connector-curvature="0" class="st0" d="M199.7,217v14c0,3.8,3.1,7,7,7h83.8c3.8,0,7-3.1,7-7v-14
		H199.7z"/>
	<polygon id="XMLID_14_" class="st3" points="47.6,251.9 33.6,265.9 33.6,210 145.4,210 145.4,251.9 	"/>
	<path id="XMLID_13_" inkscape:connector-curvature="0" class="st2" d="M181.9,115.6c0,1.9-1.6,3.5-3.5,3.5s-3.5-1.6-3.5-3.5
		c0-1.9,1.6-3.5,3.5-3.5S181.9,113.7,181.9,115.6"/>
	<path id="XMLID_12_" inkscape:connector-curvature="0" class="st4" d="M325,138c0,15.1-12.3,27.5-27.5,27.5S270,153.2,270,138
		s12.3-27.5,27.5-27.5S325,122.8,325,138"/>
	<path id="XMLID_11_" inkscape:connector-curvature="0" class="st3" d="M336.4,138c0,21.4-17.4,38.8-38.8,38.8s-38.8-17.4-38.8-38.8
		s17.4-38.8,38.8-38.8S336.4,116.5,336.4,138z"/>
	<line id="XMLID_10_" class="st3" x1="297.5" y1="99.1" x2="297.5" y2="89.4"/>
	<line id="XMLID_9_" class="st3" x1="297.5" y1="186.6" x2="297.5" y2="176.9"/>
	<line id="XMLID_8_" class="st3" x1="258.6" y1="138" x2="248.9" y2="138"/>
	<line id="XMLID_7_" class="st3" x1="263.1" y1="172.3" x2="270" y2="165.5"/>
	<line id="XMLID_6_" class="st3" x1="270" y1="110.6" x2="263.1" y2="103.6"/>
	<path id="XMLID_5_" inkscape:connector-curvature="0" class="st4" d="M318.7,138c0,0-9.5,10.6-21.3,10.6
		c-11.7,0-21.3-10.6-21.3-10.6s9.5-10.6,21.3-10.6C309.2,127.4,318.7,138,318.7,138"/>
	<path id="XMLID_4_" inkscape:connector-curvature="0" class="st3" d="M318.7,138c0,0-9.5,10.6-21.3,10.6
		c-11.7,0-21.3-10.6-21.3-10.6s9.5-10.6,21.3-10.6C309.2,127.4,318.7,138,318.7,138z"/>
	<path id="XMLID_3_" inkscape:connector-curvature="0" class="st5" d="M301.7,138c0,2.4-1.9,4.3-4.2,4.3c-2.4,0-4.3-1.9-4.3-4.3
		s1.9-4.2,4.3-4.2C299.9,133.7,301.7,135.7,301.7,138"/>
	<polyline id="XMLID_2_" class="st3" points="239.8,270.2 328.8,270.2 328.8,287.9 	"/>
</g>
</svg>
