<?xml version="1.0" encoding="UTF-8" standalone="no"?>
<!-- Generator: Adobe Illustrator 19.0.0, SVG Export Plug-In . SVG Version: 6.00 Build 0)  -->

<svg
   xmlns:dc="http://purl.org/dc/elements/1.1/"
   xmlns:cc="http://creativecommons.org/ns#"
   xmlns:rdf="http://www.w3.org/1999/02/22-rdf-syntax-ns#"
   xmlns:svg="http://www.w3.org/2000/svg"
   xmlns="http://www.w3.org/2000/svg"
   xmlns:sodipodi="http://sodipodi.sourceforge.net/DTD/sodipodi-0.dtd"
   xmlns:inkscape="http://www.inkscape.org/namespaces/inkscape"
   version="1.1"
   id="Layer_1"
   x="0px"
   y="0px"
   viewBox="0 0 347 316.60001"
   xml:space="preserve"
   inkscape:version="0.91 r13725"
   sodipodi:docname="Product Review.svg"
   width="347"
   height="316.60001"><metadata
     id="metadata33"><rdf:RDF><cc:Work
         rdf:about=""><dc:format>image/svg+xml</dc:format><dc:type
           rdf:resource="http://purl.org/dc/dcmitype/StillImage" /><dc:title></dc:title></cc:Work></rdf:RDF></metadata><defs
     id="defs31" /><sodipodi:namedview
     pagecolor="#ffffff"
     bordercolor="#666666"
     borderopacity="1"
     objecttolerance="10"
     gridtolerance="10"
     guidetolerance="10"
     inkscape:pageopacity="0"
     inkscape:pageshadow="2"
     inkscape:window-width="1920"
     inkscape:window-height="1017"
     id="namedview29"
     showgrid="false"
     inkscape:showpageshadow="false"
     inkscape:zoom="1"
     inkscape:cx="66.10888"
     inkscape:cy="131.07111"
     inkscape:window-x="-8"
     inkscape:window-y="-8"
     inkscape:window-maximized="1"
     inkscape:current-layer="Layer_1" /><style
     type="text/css"
     id="style3">
	.st0{fill:#C4C4C4;}
	.st1{fill:#E5E6E7;}
	.st2{fill:#F5EB16;}
	.st3{fill:none;stroke:#020202;stroke-miterlimit:10;}
	.st4{fill:#FFFFFF;}
	.st5{fill:#020202;}
</style><g
     id="g5"
     transform="matrix(1.0000005,0,0,0.99968424,-26.497964,-41.589837)"><rect
       id="XMLID_23_"
       x="78.800003"
       y="170.60001"
       class="st0"
       width="242.5"
       height="145.5"
       style="fill:#c4c4c4" /><rect
       id="XMLID_22_"
       x="175.8"
       y="316.10001"
       class="st1"
       width="48.5"
       height="12.1"
       style="fill:#e5e6e7" /><rect
       id="XMLID_21_"
       x="163.60001"
       y="328.20001"
       class="st0"
       width="72.800003"
       height="12.1"
       style="fill:#c4c4c4" /><rect
       id="XMLID_20_"
       x="90.900002"
       y="182.7"
       class="st1"
       width="218.3"
       height="121.3"
       style="fill:#e5e6e7" /><path
       id="XMLID_19_"
       class="st2"
       d="m 115.1,334.3 c 0,-3.3 -2.7,-6.1 -6.1,-6.1 -3.4,0 -6.1,2.7 -6.1,6.1 0,3.3 2.7,6.1 6.1,6.1 3.4,-0.1 6.1,-2.8 6.1,-6.1"
       inkscape:connector-curvature="0"
       style="fill:#f5eb16" /><path
       id="XMLID_18_"
       class="st2"
       d="m 140.5,256.1 c 0,-7.3 -5.9,-13.3 -13.3,-13.3 -7.3,0 -13.3,5.9 -13.3,13.3 0,7.3 5.9,13.3 13.3,13.3 7.4,-0.1 13.3,-6 13.3,-13.3"
       inkscape:connector-curvature="0"
       style="fill:#f5eb16" /><path
       id="XMLID_17_"
       class="st2"
       d="m 359.7,340.3 c 0,-9.9 -8.1,-18 -18,-18 -9.9,0 -18,8.1 -18,18 0,9.9 8.1,18 18,18 10,0 18,-8 18,-18"
       inkscape:connector-curvature="0"
       style="fill:#f5eb16" /><path
       id="XMLID_16_"
       class="st1"
       d="m 328.6,49.6 c 0,-4.4 -3.6,-8 -8,-8 l -95.8,0 c -4.4,0 -8,3.6 -8,8 l 0,152.4 111.8,0 0,-152.4 z"
       inkscape:connector-curvature="0"
       style="fill:#e5e6e7" /><path
       id="XMLID_15_"
       class="st0"
       d="m 216.8,202 0,16 c 0,4.4 3.6,8 8,8 l 95.8,0 c 4.4,0 8,-3.6 8,-8 l 0,-16 -111.8,0 z"
       inkscape:connector-curvature="0"
       style="fill:#c4c4c4" /><polygon
       id="XMLID_14_"
       class="st3"
       points="43,241.9 27,257.9 27,194 154.8,194 154.8,241.9 "
       style="fill:none;stroke:#020202;stroke-miterlimit:10" /><path
       id="XMLID_13_"
       class="st2"
       d="m 196.5,86.2 c 0,2.2 -1.8,4 -4,4 -2.2,0 -4,-1.8 -4,-4 0,-2.2 1.8,-4 4,-4 2.2,0 4,1.8 4,4"
       inkscape:connector-curvature="0"
       style="fill:#f5eb16" /><path
       id="XMLID_12_"
       class="st4"
       d="m 360,111.8 c 0,17.3 -14.1,31.4 -31.4,31.4 -17.3,0 -31.4,-14.1 -31.4,-31.4 0,-17.3 14.1,-31.4 31.4,-31.4 17.3,0 31.4,14 31.4,31.4"
       inkscape:connector-curvature="0"
       style="fill:#ffffff" /><path
       id="XMLID_11_"
       class="st3"
       d="m 373,111.8 c 0,24.5 -19.9,44.4 -44.4,44.4 -24.5,0 -44.4,-19.9 -44.4,-44.4 0,-24.5 19.9,-44.4 44.4,-44.4 24.5,0 44.4,19.8 44.4,44.4 z"
       inkscape:connector-curvature="0"
       style="fill:none;stroke:#020202;stroke-miterlimit:10" /><line
       id="XMLID_10_"
       class="st3"
       x1="328.60001"
       y1="67.300003"
       x2="328.60001"
       y2="56.200001"
       style="fill:none;stroke:#020202;stroke-miterlimit:10" /><line
       id="XMLID_9_"
       class="st3"
       x1="328.60001"
       y1="167.3"
       x2="328.60001"
       y2="156.2"
       style="fill:none;stroke:#020202;stroke-miterlimit:10" /><line
       id="XMLID_8_"
       class="st3"
       x1="284.10001"
       y1="111.8"
       x2="273"
       y2="111.8"
       style="fill:none;stroke:#020202;stroke-miterlimit:10" /><line
       id="XMLID_7_"
       class="st3"
       x1="289.29999"
       y1="151"
       x2="297.20001"
       y2="143.2"
       style="fill:none;stroke:#020202;stroke-miterlimit:10" /><line
       id="XMLID_6_"
       class="st3"
       x1="297.20001"
       y1="80.400002"
       x2="289.29999"
       y2="72.5"
       style="fill:none;stroke:#020202;stroke-miterlimit:10" /><path
       id="XMLID_5_"
       class="st4"
       d="m 352.8,111.8 c 0,0 -10.9,12.1 -24.3,12.1 -13.4,0 -24.3,-12.1 -24.3,-12.1 0,0 10.9,-12.1 24.3,-12.1 13.5,-0.1 24.3,12.1 24.3,12.1"
       inkscape:connector-curvature="0"
       style="fill:#ffffff" /><path
       id="XMLID_4_"
       class="st3"
       d="m 352.8,111.8 c 0,0 -10.9,12.1 -24.3,12.1 -13.4,0 -24.3,-12.1 -24.3,-12.1 0,0 10.9,-12.1 24.3,-12.1 13.5,-0.1 24.3,12.1 24.3,12.1 z"
       inkscape:connector-curvature="0"
       style="fill:none;stroke:#020202;stroke-miterlimit:10" /><path
       id="XMLID_3_"
       class="st5"
       d="m 333.4,111.8 c 0,2.7 -2.2,4.9 -4.8,4.9 -2.7,0 -4.9,-2.2 -4.9,-4.9 0,-2.7 2.2,-4.8 4.9,-4.8 2.7,-0.1 4.8,2.1 4.8,4.8"
       inkscape:connector-curvature="0"
       style="fill:#020202" /><polyline
       id="XMLID_2_"
       class="st3"
       points="262.6,262.8 364.3,262.8 364.3,283.1  "
       style="fill:none;stroke:#020202;stroke-miterlimit:10" /></g></svg>