<?xml version="1.0" encoding="UTF-8" standalone="no"?>
<!-- Generator: Adobe Illustrator 19.0.0, SVG Export Plug-In . SVG Version: 6.00 Build 0)  -->

<svg
   xmlns:dc="http://purl.org/dc/elements/1.1/"
   xmlns:cc="http://creativecommons.org/ns#"
   xmlns:rdf="http://www.w3.org/1999/02/22-rdf-syntax-ns#"
   xmlns:svg="http://www.w3.org/2000/svg"
   xmlns="http://www.w3.org/2000/svg"
   xmlns:xlink="http://www.w3.org/1999/xlink"
   xmlns:sodipodi="http://sodipodi.sourceforge.net/DTD/sodipodi-0.dtd"
   xmlns:inkscape="http://www.inkscape.org/namespaces/inkscape"
   version="1.1"
   id="Layer_1"
   x="0px"
   y="0px"
   viewBox="0 0 317.48999 346.23499"
   xml:space="preserve"
   inkscape:version="0.91 r13725"
   sodipodi:docname="Scoping Session.svg"
   width="317.48999"
   height="346.23499"><metadata
     id="metadata37"><rdf:RDF><cc:Work
         rdf:about=""><dc:format>image/svg+xml</dc:format><dc:type
           rdf:resource="http://purl.org/dc/dcmitype/StillImage" /><dc:title></dc:title></cc:Work></rdf:RDF></metadata><defs
     id="defs35" /><sodipodi:namedview
     pagecolor="#ffffff"
     bordercolor="#666666"
     borderopacity="1"
     objecttolerance="10"
     gridtolerance="10"
     guidetolerance="10"
     inkscape:pageopacity="0"
     inkscape:pageshadow="2"
     inkscape:window-width="1920"
     inkscape:window-height="1017"
     id="namedview33"
     showgrid="false"
     inkscape:showpageshadow="false"
     inkscape:zoom="1.4142136"
     inkscape:cx="77.629925"
     inkscape:cy="188.42193"
     inkscape:window-x="-8"
     inkscape:window-y="-8"
     inkscape:window-maximized="1"
     inkscape:current-layer="Layer_1" /><style
     type="text/css"
     id="style3">
	.st0{fill:#F5EB16;}
	.st1{fill:#C4C4C4;}
	.st2{opacity:0.6;}
	.st3{clip-path:url(#XMLID_22_);fill:#E5E6E7;}
	.st4{fill:none;stroke:#F5EB16;stroke-miterlimit:10;}
	.st5{fill:#FFFFFF;}
	.st6{fill:none;stroke:#020202;stroke-miterlimit:10;}
	.st7{fill:#020202;}
	.st8{fill:#E5E6E7;}
</style><g
     id="g5"
     transform="translate(-41.495281,-26.994139)"><polyline
       id="XMLID_20_"
       class="st0"
       points="145.9,335.7 282.3,335.7 282.3,323.2 307.2,348.1 282.3,373 282.3,360.6 132.9,360.6     "
       style="fill:#f5eb16" /><path
       id="XMLID_19_"
       class="st1"
       d="m 178.3,325.7 30.4,-57.1 c 0,0 3.6,-8.7 21.6,0 12.3,5.9 37.9,8.5 37.9,-9.6 0,-18.1 3.7,-26.4 6.4,-29.3 2.7,-2.9 3.5,-8 0,-10.7 0,0 2.7,-1.6 4,-3.7 1.3,-2.1 1.9,-2.9 0,-8.5 -1.9,-5.6 -1.1,-9.6 3.2,-9.6 4.3,0 19.5,-0.8 11.5,-13.1 -8,-12.3 -17.9,-31.5 -18.7,-34.1 -0.8,-2.7 0.3,-8.3 3.2,-16 2.9,-7.7 7.7,-107 -104,-107 C 62,27 56.4,116.5 58.5,133.7 61.1,155 68.6,174 84.9,194.5 101.2,215 101.4,236.6 95,246.2 l -6.4,9.6"
       inkscape:connector-curvature="0"
       style="fill:#c4c4c4" /><g
       class="st2"
       id="g9"
       style="opacity:0.6"><g
         id="g11"><defs
           id="defs13"><rect
             id="XMLID_17_"
             x="86.300003"
             y="49.400002"
             width="237.39999"
             height="298.79999" /></defs><clipPath
           id="XMLID_22_"><use
             xlink:href="#XMLID_17_"
             style="overflow:visible"
             id="use17"
             x="0"
             y="0"
             width="100%"
             height="100%" /></clipPath><path
           id="XMLID_18_"
           class="st3"
           d="M 206.4,348.1 236.8,291 c 0,0 3.6,-8.7 21.6,0 12.3,5.9 37.9,8.5 37.9,-9.6 0,-18.1 3.7,-26.4 6.4,-29.3 2.7,-2.9 3.5,-8 0,-10.7 0,0 2.7,-1.6 4,-3.7 1.3,-2.1 1.9,-2.9 0,-8.5 -1.9,-5.6 -1.1,-9.6 3.2,-9.6 4.3,0 19.5,-0.8 11.5,-13.1 -8,-12.3 -17.9,-31.5 -18.7,-34.1 -0.8,-2.7 0.3,-8.3 3.2,-16 2.9,-7.7 7.7,-107 -104,-107 -111.8,0 -117.4,89.6 -115.2,106.7 2.6,21.3 10.1,40.3 26.4,60.8 16.3,20.5 16.5,42.1 10.1,51.7 l -6.4,9.6"
           clip-path="url(#XMLID_22_)"
           inkscape:connector-curvature="0"
           style="fill:#e5e6e7" /></g></g><path
       id="XMLID_16_"
       class="st4"
       d="m 241.2,373 30.4,-57.1 c 0,0 3.6,-8.7 21.6,0 12.3,5.9 37.9,8.5 37.9,-9.6 0,-18.1 3.7,-26.4 6.4,-29.3 2.7,-2.9 3.5,-8 0,-10.7 0,0 2.7,-1.6 4,-3.7 1.3,-2.1 1.9,-2.9 0,-8.5 -1.9,-5.6 -1.1,-9.6 3.2,-9.6 4.3,0 19.5,-0.8 11.5,-13.1 -8,-12.3 -17.9,-31.5 -18.7,-34.1 -0.8,-2.7 0.3,-8.3 3.2,-16 2.9,-7.7 7.7,-107 -104,-107 -111.8,0 -117.4,89.6 -115.2,106.7 2.6,21.3 10.1,40.3 26.4,60.8 16.3,20.5 16.5,42.1 10.1,51.7 l -6.4,9.6"
       inkscape:connector-curvature="0"
       style="fill:none;stroke:#f5eb16;stroke-miterlimit:10" /><polyline
       id="XMLID_15_"
       class="st0"
       points="219.5,304.5 83.1,304.5 83.1,292.1 58.2,317 83.1,341.9 83.1,329.4 206.4,329.4  "
       style="fill:#f5eb16" /><path
       id="XMLID_14_"
       class="st5"
       d="m 286,182.6 c 0,29.6 -24,53.5 -53.5,53.5 -29.6,0 -53.5,-24 -53.5,-53.5 0,-29.6 24,-53.5 53.5,-53.5 C 262,129 286,153 286,182.6"
       inkscape:connector-curvature="0"
       style="fill:#ffffff" /><path
       id="XMLID_13_"
       class="st6"
       d="m 193,182.6 c 0,-21.8 17.6,-39.4 39.4,-39.4 21.8,0 39.4,17.7 39.4,39.4 0,21.8 -17.6,39.4 -39.4,39.4 l -149.3,0"
       inkscape:connector-curvature="0"
       style="fill:none;stroke:#020202;stroke-miterlimit:10" /><polyline
       id="XMLID_12_"
       class="st6"
       points="91.9,230.8 83.1,222 91.9,213.2  "
       style="fill:none;stroke:#020202;stroke-miterlimit:10" /><path
       id="XMLID_11_"
       class="st0"
       d="m 245.3,182.6 c 0,7.1 -5.8,12.9 -12.9,12.9 -7.1,0 -12.9,-5.8 -12.9,-12.9 0,-7.1 5.8,-12.9 12.9,-12.9 7.2,0 12.9,5.8 12.9,12.9"
       inkscape:connector-curvature="0"
       style="fill:#f5eb16" /><path
       class="st7"
       d="m 215,104.1 5,0 0,5 -5,0 0,-5 z m 15,0 5,0 0,5 -5,0 0,-5 z m 14.9,0 5,0 0,5 -5,0 0,-5 z"
       id="path26"
       inkscape:connector-curvature="0"
       style="fill:#020202" /><path
       class="st7"
       d="m 215,256 5,0 0,5 -5,0 0,-5 z m 15,0 5,0 0,5 -5,0 0,-5 z m 14.9,0 5,0 0,5 -5,0 0,-5 z"
       id="path28"
       inkscape:connector-curvature="0"
       style="fill:#020202" /><path
       id="XMLID_4_"
       class="st8"
       d="m 307.2,61.8 c 0,6.9 5.6,12.4 12.4,12.4 6.9,0 12.4,-5.6 12.4,-12.4 0,-6.9 -5.6,-12.4 -12.4,-12.4 -6.9,0 -12.4,5.5 -12.4,12.4"
       inkscape:connector-curvature="0"
       style="fill:#e5e6e7" /><path
       id="XMLID_3_"
       class="st0"
       d="m 65.7,36.9 c 0,2.7 2.2,5 5,5 2.8,0 5,-2.2 5,-5 0,-2.7 -2.2,-5 -5,-5 -2.8,0 -5,2.3 -5,5"
       inkscape:connector-curvature="0"
       style="fill:#f5eb16" /><path
       id="XMLID_2_"
       class="st0"
       d="m 41.5,258.5 c 0,10.5 8.5,19.1 19.1,19.1 10.5,0 19.1,-8.5 19.1,-19.1 0,-10.5 -8.5,-19.1 -19.1,-19.1 -10.5,0 -19.1,8.5 -19.1,19.1"
       inkscape:connector-curvature="0"
       style="fill:#f5eb16" /></g></svg>