<?xml version="1.0" encoding="utf-8"?>
<!-- Generator: Adobe Illustrator 19.0.0, SVG Export Plug-In . SVG Version: 6.00 Build 0)  -->
<svg version="1.1" id="Layer_1" xmlns="http://www.w3.org/2000/svg" xmlns:xlink="http://www.w3.org/1999/xlink" x="0px" y="0px"
	 viewBox="0 0 400 400" style="enable-background:new 0 0 400 400;" xml:space="preserve">
<style type="text/css">
	.st0{clip-path:url(#XMLID_73_);fill:#E5E5E7;}
	.st1{clip-path:url(#XMLID_73_);fill:#F6EB16;}
	.st2{clip-path:url(#XMLID_73_);fill:none;stroke:#010101;stroke-width:2;stroke-miterlimit:10;}
	.st3{clip-path:url(#XMLID_73_);fill:#C4C4C4;}
	.st4{clip-path:url(#XMLID_73_);fill:#FFFFFF;}
	.st5{clip-path:url(#XMLID_73_);fill:none;stroke:#C4C4C4;stroke-width:2;stroke-miterlimit:10;}
	.st6{clip-path:url(#XMLID_73_);fill:#010101;}
</style>
<g id="XMLID_72_">
	<defs>
		<rect id="XMLID_2_" x="42.5" y="15.3" width="314.9" height="369.4"/>
	</defs>
	<clipPath id="XMLID_73_">
		<use xlink:href="#XMLID_2_"  style="overflow:visible;"/>
	</clipPath>
	<path id="XMLID_70_" class="st0" d="M296.8,92.4c0-16.3-13.2-29.5-29.5-29.5c-16.3,0-29.5,13.2-29.5,29.5
		c0,16.3,13.2,29.5,29.5,29.5C283.6,121.9,296.8,108.7,296.8,92.4"/>
	<rect id="XMLID_69_" x="42.5" y="30.7" class="st1" width="39.1" height="39.1"/>
	<line id="XMLID_68_" class="st2" x1="48.8" y1="63.5" x2="75.3" y2="37"/>
	<line id="XMLID_67_" class="st2" x1="48.8" y1="37" x2="75.3" y2="63.5"/>
	<rect id="XMLID_66_" x="94.6" y="30.7" class="st3" width="39.1" height="39.1"/>
	<line id="XMLID_65_" class="st2" x1="100.9" y1="63.5" x2="127.4" y2="37"/>
	<line id="XMLID_64_" class="st2" x1="100.9" y1="37" x2="127.4" y2="63.5"/>
	<rect id="XMLID_63_" x="146.7" y="30.7" class="st0" width="39.1" height="39.1"/>
	<line id="XMLID_62_" class="st2" x1="153" y1="63.5" x2="179.5" y2="37"/>
	<line id="XMLID_61_" class="st2" x1="153" y1="37" x2="179.5" y2="63.5"/>
	<path id="XMLID_60_" class="st3" d="M55.6,309.4V167c0-7.7,6.2-13.9,13.9-13.9h258.7c7.7,0,13.9,6.2,13.9,13.9v142.4"/>
	<path id="XMLID_59_" class="st0" d="M198.8,309.4h156.3v7.8c0,0-26,13-39.1,13H198.8H81.6c-13,0-39.1-13-39.1-13v-7.8H198.8z"/>
	<rect id="XMLID_58_" x="66.8" y="165.3" class="st4" width="263" height="132.8"/>
	<path id="XMLID_57_" class="st2" d="M204.7,128.2c0,32.1-26,58-58,58c-32,0-58-26-58-58c0-32,26-58,58-58
		C178.8,70.1,204.7,96.1,204.7,128.2z"/>
	<path id="XMLID_56_" class="st2" d="M105.5,87.7c22.8,22.8,59.6,22.8,82.4,0"/>
	<path id="XMLID_55_" class="st2" d="M187.9,168.7c-22.8-22.8-59.6-22.8-82.4,0"/>
	<path id="XMLID_54_" class="st2" d="M146.7,69.8c38.9,34.3,40.4,81.9,0,117.2"/>
	<path id="XMLID_50_" class="st2" d="M146,187c-38.9-34.3-40.4-81.9,0-117.2"/>
	<line id="XMLID_49_" class="st2" x1="88.1" y1="128.2" x2="205.3" y2="128.2"/>
	<line id="XMLID_48_" class="st2" x1="146.7" y1="70.1" x2="146.7" y2="187"/>
	<line id="XMLID_47_" class="st5" x1="224.8" y1="17.7" x2="263.9" y2="17.7"/>
	<line id="XMLID_46_" class="st5" x1="224.8" y1="30.7" x2="316" y2="30.7"/>
	<line id="XMLID_45_" class="st5" x1="224.8" y1="43.7" x2="329" y2="43.7"/>
	<line id="XMLID_44_" class="st5" x1="224.8" y1="56.8" x2="303" y2="56.8"/>
	<line id="XMLID_43_" class="st5" x1="224.8" y1="69.8" x2="329" y2="69.8"/>
	<line id="XMLID_42_" class="st5" x1="224.8" y1="82.8" x2="250.9" y2="82.8"/>
	<line id="XMLID_41_" class="st5" x1="78.5" y1="200" x2="117.6" y2="200"/>
	<line id="XMLID_40_" class="st5" x1="78.5" y1="200" x2="169.7" y2="200"/>
	<line id="XMLID_39_" class="st5" x1="94.2" y1="213" x2="182.7" y2="213"/>
	<line id="XMLID_38_" class="st5" x1="78.5" y1="226" x2="156.7" y2="226"/>
	<line id="XMLID_37_" class="st5" x1="94.2" y1="239.1" x2="182.7" y2="239.1"/>
	<line id="XMLID_36_" class="st5" x1="78.5" y1="252.1" x2="104.6" y2="252.1"/>
	<line id="XMLID_35_" class="st5" x1="94.2" y1="265.1" x2="182.7" y2="265.1"/>
	<line id="XMLID_34_" class="st5" x1="78.5" y1="278.1" x2="104.6" y2="278.1"/>
	<rect id="XMLID_33_" x="209.2" y="168.7" class="st1" width="114.6" height="10.4"/>
	<line id="XMLID_32_" class="st2" x1="308.8" y1="174" x2="318.3" y2="174"/>
	<rect id="XMLID_31_" x="224.8" y="189.6" class="st2" width="84.1" height="15.6"/>
	<path id="XMLID_30_" class="st1" d="M231.7,224.4c0,2.3-1.9,4.2-4.2,4.2c-2.3,0-4.2-1.9-4.2-4.2c0-2.3,1.9-4.2,4.2-4.2
		C229.8,220.2,231.7,222.1,231.7,224.4"/>
	<path id="XMLID_29_" class="st3" d="M257.7,224.4c0,2.3-1.9,4.2-4.2,4.2c-2.3,0-4.2-1.9-4.2-4.2c0-2.3,1.9-4.2,4.2-4.2
		C255.8,220.1,257.7,222,257.7,224.4"/>
	<path id="XMLID_28_" class="st0" d="M283.8,224.4c0,2.3-1.9,4.2-4.2,4.2s-4.2-1.9-4.2-4.2c0-2.3,1.9-4.2,4.2-4.2
		S283.8,222.1,283.8,224.4"/>
	<path id="XMLID_27_" class="st3" d="M309.8,224.4c0,2.3-1.9,4.2-4.2,4.2c-2.3,0-4.2-1.9-4.2-4.2c0-2.3,1.9-4.2,4.2-4.2
		C307.9,220.2,309.8,222.1,309.8,224.4"/>
	<line id="XMLID_26_" class="st2" x1="198.8" y1="172.2" x2="198.8" y2="291.2"/>
	<line id="XMLID_25_" class="st2" x1="220.9" y1="236.5" x2="234" y2="236.5"/>
	<line id="XMLID_24_" class="st2" x1="220.9" y1="278.1" x2="312.3" y2="278.1"/>
	<line id="XMLID_23_" class="st2" x1="220.9" y1="288.5" x2="250.9" y2="288.5"/>
	<line id="XMLID_22_" class="st2" x1="246.9" y1="236.5" x2="259.9" y2="236.5"/>
	<line id="XMLID_21_" class="st2" x1="273.3" y1="236.3" x2="286.4" y2="236.3"/>
	<line id="XMLID_20_" class="st2" x1="299.3" y1="236.3" x2="312.3" y2="236.3"/>
	<rect id="XMLID_19_" x="220.9" y="252.1" class="st0" width="39" height="13"/>
	<rect id="XMLID_18_" x="273.3" y="252.1" class="st0" width="39" height="13"/>
	<rect id="XMLID_17_" x="224.8" y="319.8" class="st2" width="104.2" height="62.5"/>
	<line id="XMLID_16_" class="st2" x1="224.8" y1="340.6" x2="329" y2="340.6"/>
	<polyline id="XMLID_15_" class="st2" points="265.5,360.1 274.2,370.6 291.6,349.7 	"/>
	<path id="XMLID_14_" class="st6" d="M296.8,330.2c0-1.4-1.2-2.6-2.6-2.6c-1.4,0-2.6,1.2-2.6,2.6c0,1.4,1.2,2.6,2.6,2.6
		C295.6,332.8,296.8,331.7,296.8,330.2"/>
	<path id="XMLID_13_" class="st6" d="M308.2,330.2c0-1.4-1.2-2.6-2.6-2.6c-1.4,0-2.6,1.2-2.6,2.6c0,1.4,1.2,2.6,2.6,2.6
		C307,332.8,308.2,331.7,308.2,330.2"/>
	<path id="XMLID_12_" class="st6" d="M319.6,330.2c0-1.4-1.2-2.6-2.6-2.6c-1.4,0-2.6,1.2-2.6,2.6c0,1.4,1.2,2.6,2.6,2.6
		C318.4,332.8,319.6,331.7,319.6,330.2"/>
	<polyline id="XMLID_11_" class="st2" points="94.6,364.1 82.6,358.9 77.4,370.8 	"/>
	<polyline id="XMLID_10_" class="st2" points="131.1,338.2 143.1,343.2 148.2,331.3 	"/>
	<path id="XMLID_9_" class="st2" d="M143.1,343.2c-3.5-13.5-15.7-23.4-30.2-23.4s-26.8,10-30.2,23.4"/>
	<path id="XMLID_8_" class="st2" d="M82.6,358.9c3.5,13.5,15.7,23.4,30.2,23.4c14.6,0,26.8-10,30.2-23.4"/>
	<rect id="XMLID_7_" x="276.9" y="108.8" class="st1" width="52.1" height="26"/>
	<line id="XMLID_6_" class="st2" x1="263.9" y1="134.9" x2="263.9" y2="108.8"/>
	<line id="XMLID_5_" class="st2" x1="250.9" y1="134.9" x2="250.9" y2="108.8"/>
	<line id="XMLID_4_" class="st2" x1="355.1" y1="134.9" x2="355.1" y2="108.8"/>
	<line id="XMLID_3_" class="st2" x1="342" y1="134.9" x2="342" y2="108.8"/>
</g>
</svg>
